<?xml version="1.0" encoding="utf-8"?>
<!-- Generator: Adobe Illustrator 23.0.1, SVG Export Plug-In . SVG Version: 6.00 Build 0)  -->
<svg version="1.1" id="Layer_1" xmlns="http://www.w3.org/2000/svg" xmlns:xlink="http://www.w3.org/1999/xlink" x="0px" y="0px"
	 viewBox="0 0 1920 700" style="enable-background:new 0 0 1920 700;" xml:space="preserve">
<style type="text/css">
	.st0{fill:#FAFCFF;}
	.st1{fill:#E2F2EA;}
	.st2{fill:#C5E2D1;}
	.st3{fill:#80AF94;}
	.st4{fill:#FFFFFF;}
	.st5{fill:#A4C3B2;}
	.st6{fill:#ECF1F7;}
	.st7{fill:#6B9080;}
	.st8{opacity:0.33;fill:#AF9CDA;enable-background:new    ;}
	.st9{opacity:0.29;fill:#243762;enable-background:new    ;}
	.st10{fill:#F7A9B4;}
	.st11{fill:none;}
</style>
<rect class="st0" width="1920" height="700"/>
<g>
	<g>
		<g>
			<path class="st1" d="M1843.7,516.2c0.6-9.8,0.3-19.6-0.8-29.3c-5.2-45.7-28.6-88.8-63.1-119.2c-12.3-10.9-26.3-20.6-34.3-34.9
				c-13.5-24.1-12.5-51.8-29.2-75.6c-16.8-23.8-41.2-42.4-68.7-52c-82.1-28.5-197.1,17.9-186.8,116.8c0,0.4,0.1,0.9,0.1,1.5
				c1.4,20.5-14.8,37.8-35.3,38.3c-75.8,1.8-141,60.2-155,134.2c-9,47.6,5.7,99.8,40.5,133.4c26,25.1,60.9,38.9,95.7,48.4
				c69.9,19,143.6,23,215.7,15.7c67.5-6.8,138.7-26.2,182.4-78.2C1828.3,587.9,1841.6,552.3,1843.7,516.2z"/>
		</g>
	</g>
	
		<ellipse transform="matrix(0.2307 -0.973 0.973 0.2307 1128.0541 1968.4109)" class="st2" cx="1808.9" cy="270.8" rx="18.5" ry="18.5"/>
	
		<ellipse transform="matrix(0.7071 -0.7071 0.7071 0.7071 234.3215 1064.3032)" class="st2" cx="1401.9" cy="249.3" rx="21.5" ry="21.5"/>
	<circle class="st2" cx="1143.6" cy="608.2" r="27.8"/>
	<circle class="st3" cx="1450.6" cy="393.1" r="106.5"/>
	<circle class="st4" cx="1450.6" cy="393.1" r="81.1"/>
	<path class="st2" d="M1471.6,408.6h-22.1c-4.5,0-8.2-3.7-8.2-8.2v-30.6c0-3.9,3.2-7.1,7.1-7.1c3.9,0,7.1,3.2,7.1,7.1v24.5h16
		c3.9,0,7.1,3.2,7.1,7.1S1475.5,408.6,1471.6,408.6z"/>
	<path class="st5" d="M1680.3,699.7l-150.4-22.3c-17-2.5-28.8-18.3-26.2-35.3l53.9-364.8c2.5-17,18.3-28.8,35.3-26.2l150.4,22.3
		c17,2.5,28.8,18.3,26.2,35.4l-53.9,364.8C1713.1,690.4,1697.3,702.2,1680.3,699.7z"/>
	
		<rect x="1463.1" y="376.8" transform="matrix(0.1463 -0.9892 0.9892 0.1463 931.5211 2021.8257)" class="st6" width="348.2" height="188.8"/>
	
		<rect x="1647.7" y="217.5" transform="matrix(0.1463 -0.9892 0.9892 0.1463 1109.2195 1909.1512)" class="st3" width="26.1" height="188.8"/>
	<path class="st6" d="M1608.6,677c-0.6,0-1.2,0-1.8-0.1c-3.2-0.5-6.1-2.2-8-4.8c-1.9-2.6-2.8-5.8-2.3-9s2.2-6.1,4.8-8
		s5.8-2.8,9.1-2.3c3.2,0.5,6.1,2.2,8,4.8s2.8,5.8,2.3,9C1619.8,672.6,1614.5,677,1608.6,677z M1608.6,654.6c-2.2,0-4.3,0.7-6,2
		c-2.2,1.6-3.6,4-4,6.7c-0.4,2.7,0.3,5.4,1.9,7.5s4,3.6,6.7,4c5.6,0.8,10.7-3,11.5-8.6c0.4-2.7-0.3-5.4-1.9-7.5
		c-1.6-2.2-4-3.6-6.7-4C1609.6,654.6,1609.1,654.6,1608.6,654.6z"/>
	<path class="st6" d="M1635.6,281.8c-0.2,0-0.4,0-0.6,0c-1-0.1-1.9-0.7-2.6-1.5s-0.9-1.9-0.7-2.9s0.7-2,1.5-2.6
		c0.8-0.6,1.9-0.9,2.9-0.7c1,0.1,1.9,0.7,2.6,1.5s0.9,1.9,0.7,2.9l0,0C1639.2,280.4,1637.5,281.8,1635.6,281.8z M1635.6,276
		c-0.4,0-0.8,0.1-1.1,0.4c-0.4,0.3-0.7,0.7-0.7,1.2s0.1,1,0.3,1.4c0.3,0.4,0.7,0.7,1.2,0.7c0.5,0.1,1,0,1.4-0.4
		c0.4-0.3,0.7-0.7,0.7-1.2l0,0c0.1-0.5-0.1-1-0.3-1.4c-0.3-0.4-0.7-0.7-1.2-0.7C1635.8,276,1635.7,276,1635.6,276z"/>
	<path class="st6" d="M1696.3,290.8c-0.2,0-0.4,0-0.6,0l-47.7-7c-1-0.1-1.9-0.7-2.6-1.5s-0.9-1.9-0.7-2.9s0.7-2,1.5-2.6
		c0.8-0.6,1.9-0.9,2.9-0.7l47.7,7c1,0.1,1.9,0.7,2.6,1.5s0.9,1.9,0.7,2.9s-0.7,2-1.5,2.6C1697.9,290.5,1697.1,290.8,1696.3,290.8z
		 M1648.6,278c-0.9,0-1.7,0.7-1.9,1.6c-0.1,0.5,0.1,1,0.3,1.4c0.3,0.4,0.7,0.7,1.2,0.7l47.7,7c1,0.2,2-0.6,2.1-1.6
		c0.1-0.5-0.1-1-0.3-1.4c-0.3-0.4-0.7-0.7-1.2-0.7l-47.7-7C1648.8,278,1648.7,278,1648.6,278z"/>
	<path class="st5" d="M1705.9,551.8l-130.3-19.3c-2.1-0.3-4.1,1.2-4.4,3.3l-5,33.8c-0.3,2.1,1.2,4.1,3.3,4.4l111.4,16.5l11.5,15.8
		l2.1-13.8l5.4,0.8c2.1,0.3,4.1-1.2,4.4-3.3l5-33.8C1709.5,554.1,1708,552.1,1705.9,551.8z"/>
	<path class="st5" d="M1726.6,411.7l-130.3-19.3c-2.1-0.3-4.1,1.1-4.4,3.3l-5,33.8c-0.3,2.1,1.2,4.1,3.3,4.4l111.4,16.5l11.5,15.8
		l2.1-13.8l5.4,0.8c2.1,0.3,4.1-1.1,4.4-3.3l5-33.8C1730.2,414,1728.8,412.1,1726.6,411.7z"/>
	<path class="st7" d="M1561.7,455.3l130.3,19.3c2.1,0.3,3.6,2.3,3.3,4.4l-5,33.8c-0.3,2.1-2.3,3.6-4.4,3.3l-111.4-16.5l-15.6,11.8
		l2.1-13.8l-5.4-0.8c-2.1-0.3-3.6-2.3-3.3-4.4l5-33.8C1557.6,456.5,1559.6,455,1561.7,455.3z"/>
	
		<rect x="1598" y="533.2" transform="matrix(0.1463 -0.9892 0.9892 0.1463 757.0767 2132.4412)" class="st4" width="32" height="188.8"/>
	<path class="st2" d="M1550.6,617.9c-0.9,6.2-6.7,10.5-12.9,9.6c-6.2-0.9-10.5-6.7-9.6-12.9c0.9-6.2,6.7-10.5,12.9-9.6
		C1547.3,605.9,1551.5,611.7,1550.6,617.9z"/>
	<path class="st8" d="M1688.4,648.6c-0.5,0-1,0-1.5-0.1l-121-17.9c-2.7-0.4-5-1.8-6.7-4s-2.3-4.8-1.9-7.5c0.8-5.5,6-9.4,11.5-8.5
		l121,17.9c5.5,0.8,9.3,6,8.5,11.5C1697.6,645,1693.3,648.6,1688.4,648.6z M1687.2,646.5c4.4,0.6,8.5-2.4,9.2-6.8
		c0.3-2.1-0.2-4.3-1.5-6s-3.2-2.9-5.3-3.2l-121-17.9c-4.4-0.6-8.5,2.4-9.2,6.8c-0.3,2.1,0.2,4.3,1.5,6s3.2,2.9,5.3,3.2L1687.2,646.5
		z"/>
	<path class="st4" d="M1580.9,303.7c-0.2,0-0.4,0-0.6,0c-2.2-0.3-3.7-2.4-3.4-4.5c0.2-1,0.7-2,1.6-2.6c0.9-0.6,1.9-0.9,3-0.7
		c2.2,0.3,3.7,2.4,3.4,4.5l0,0C1584.6,302.3,1582.9,303.7,1580.9,303.7z M1580.9,297.8c-0.4,0-0.8,0.1-1.2,0.4
		c-0.4,0.3-0.7,0.8-0.8,1.3c-0.1,0.5,0.1,1,0.4,1.5c0.3,0.4,0.8,0.7,1.3,0.8c1.1,0.2,2.1-0.6,2.2-1.6l0,0c0.1-0.5-0.1-1-0.4-1.5
		c-0.3-0.4-0.8-0.7-1.3-0.8C1581.1,297.8,1581,297.8,1580.9,297.8z"/>
	<path class="st4" d="M1592,305.3c-0.2,0-0.4,0-0.6,0c-2.2-0.3-3.7-2.4-3.4-4.5c0.3-2.2,2.3-3.7,4.5-3.4c1.1,0.2,2,0.7,2.6,1.6
		c0.6,0.9,0.9,1.9,0.7,3s-0.7,2-1.6,2.6C1593.6,305,1592.8,305.3,1592,305.3z M1591.9,299.4c-0.9,0-1.8,0.7-1.9,1.7
		c-0.1,0.5,0.1,1,0.4,1.5c0.3,0.4,0.8,0.7,1.3,0.8c0.5,0.1,1,0,1.4-0.4c0.4-0.3,0.7-0.8,0.8-1.3l0,0c0.1-0.5-0.1-1-0.4-1.5
		c-0.3-0.4-0.8-0.7-1.3-0.8C1592.2,299.4,1592.1,299.4,1591.9,299.4z"/>
	<path class="st4" d="M1602.8,306.9c-0.2,0-0.4,0-0.6,0c-2.2-0.3-3.7-2.4-3.4-4.5c0.3-2.2,2.3-3.7,4.5-3.4c2.2,0.3,3.7,2.4,3.4,4.5
		C1606.4,305.5,1604.7,306.9,1602.8,306.9z M1602.8,301c-0.4,0-0.8,0.1-1.2,0.4c-0.4,0.3-0.7,0.8-0.8,1.3c-0.1,0.5,0.1,1,0.4,1.5
		c0.3,0.4,0.8,0.7,1.3,0.8c1.1,0.1,2.1-0.6,2.2-1.6c0.2-1.1-0.6-2.1-1.6-2.2C1602.9,301,1602.9,301,1602.8,301z"/>
	<path class="st4" d="M1682.7,559.6c-0.1,0-0.1,0-0.2,0l-92.2-13.6c-0.6-0.1-0.9-0.6-0.9-1.2s0.6-1,1.2-0.9l92.2,13.6
		c0.6,0.1,0.9,0.6,0.9,1.2C1683.7,559.2,1683.2,559.6,1682.7,559.6z"/>
	<path class="st4" d="M1628.1,562.8c-0.1,0-0.1,0-0.2,0l-39.3-5.8c-0.6-0.1-0.9-0.6-0.9-1.2c0.1-0.5,0.6-0.9,1.2-0.9l39.3,5.8
		c0.6,0.1,0.9,0.6,0.9,1.2C1629.1,562.4,1628.6,562.8,1628.1,562.8z"/>
	<path class="st4" d="M1614.9,571.3c-0.1,0-0.1,0-0.2,0l-27.6-4.1c-0.6-0.1-0.9-0.6-0.9-1.2c0.1-0.5,0.6-0.9,1.2-0.9l27.6,4.1
		c0.6,0.1,0.9,0.6,0.9,1.2C1615.8,571,1615.4,571.3,1614.9,571.3z"/>
	<path class="st4" d="M1681.1,570.6c-0.1,0-0.1,0-0.2,0l-40.6-6c-0.6-0.1-0.9-0.6-0.9-1.2c0.1-0.5,0.6-1,1.2-0.9l40.6,6
		c0.6,0.1,0.9,0.6,0.9,1.2C1682,570.2,1681.6,570.6,1681.1,570.6z"/>
	<g>
		<path class="st4" d="M1671.5,483c-0.1,0-0.1,0-0.2,0l-92.2-13.6c-0.6-0.1-0.9-0.6-0.9-1.1c0.1-0.6,0.6-1,1.2-0.9l92.2,13.6
			c0.6,0.1,0.9,0.6,0.9,1.2C1672.4,482.7,1672,483,1671.5,483z"/>
		<path class="st4" d="M1616.8,486.2c-0.1,0-0.1,0-0.2,0l-39.3-5.8c-0.6-0.1-0.9-0.6-0.9-1.2c0.1-0.5,0.6-0.9,1.2-0.9l39.3,5.8
			c0.6,0.1,0.9,0.6,0.9,1.1C1617.8,485.8,1617.3,486.2,1616.8,486.2z"/>
		<path class="st4" d="M1657.7,502.8c-0.1,0-0.1,0-0.2,0l-79.6-12.4c-0.6-0.1-0.9-0.6-0.8-1.2c0.1-0.5,0.6-0.9,1.2-0.9l79.6,12.4
			c0.6,0.1,0.9,0.6,0.8,1.2C1658.6,502.4,1658.1,502.8,1657.7,502.8z"/>
		<path class="st4" d="M1669.8,494c-0.1,0-0.1,0-0.2,0l-40.6-6c-0.6-0.1-0.9-0.6-0.9-1.2c0.1-0.5,0.6-0.9,1.2-0.9l40.6,6
			c0.6,0.1,0.9,0.6,0.9,1.1C1670.8,493.7,1670.3,494,1669.8,494z"/>
	</g>
	<path class="st7" d="M1578.4,328.2l130.3,19.3c2.1,0.3,3.6,2.3,3.3,4.4l-5,33.8c-0.3,2.1-2.3,3.6-4.4,3.3l-111.4-16.5l-15.6,11.8
		l2.1-13.8l-5.4-0.8c-2.1-0.3-3.6-2.3-3.3-4.4l5-33.8C1574.3,329.4,1576.3,327.9,1578.4,328.2z"/>
	<g>
		<path class="st4" d="M1688.2,356c-0.1,0-0.1,0-0.2,0l-92.2-13.6c-0.6-0.1-0.9-0.6-0.9-1.2s0.6-0.9,1.2-0.9l92.2,13.6
			c0.6,0.1,0.9,0.6,0.9,1.2C1689.1,355.6,1688.7,356,1688.2,356z"/>
		<path class="st4" d="M1633.6,359.1c-0.1,0-0.1,0-0.2,0l-39.3-5.8c-0.6-0.1-0.9-0.6-0.9-1.2s0.6-0.9,1.2-0.9l39.3,5.8
			c0.6,0.1,0.9,0.6,0.9,1.2C1634.5,358.8,1634.1,359.1,1633.6,359.1z"/>
		<path class="st4" d="M1674.4,375.7c-0.1,0-0.1,0-0.2,0l-79.6-12.4c-0.6-0.1-0.9-0.6-0.8-1.2c0.1-0.5,0.6-0.9,1.2-0.9l79.6,12.4
			c0.6,0.1,0.9,0.6,0.8,1.2C1675.3,375.3,1674.9,375.7,1674.4,375.7z"/>
		<path class="st4" d="M1686.6,367c-0.1,0-0.1,0-0.2,0l-40.6-6c-0.6-0.1-0.9-0.6-0.9-1.2s0.6-0.9,1.2-0.9l40.6,6
			c0.6,0.1,0.9,0.6,0.9,1.2C1687.5,366.6,1687.1,367,1686.6,367z"/>
	</g>
	<path class="st4" d="M1703.5,420.8c-0.1,0-0.1,0-0.2,0l-92.2-13.6c-0.6-0.1-0.9-0.6-0.9-1.2s0.6-0.9,1.2-0.9l92.2,13.6
		c0.6,0.1,0.9,0.6,0.9,1.2C1704.5,420.5,1704,420.8,1703.5,420.8z"/>
	<path class="st4" d="M1648.9,424c-0.1,0-0.1,0-0.2,0l-39.3-5.8c-0.6-0.1-0.9-0.6-0.9-1.2s0.6-0.9,1.2-0.9l39.3,5.8
		c0.6,0.1,0.9,0.6,0.9,1.2C1649.8,423.6,1649.4,424,1648.9,424z"/>
	<path class="st4" d="M1635.7,432.6c-0.1,0-0.1,0-0.2,0l-27.6-4.1c-0.6-0.1-0.9-0.6-0.9-1.2c0.1-0.5,0.6-0.9,1.2-0.9l27.6,4.1
		c0.6,0.1,0.9,0.6,0.9,1.2C1636.6,432.2,1636.2,432.6,1635.7,432.6z"/>
	<path class="st4" d="M1701.9,431.8c-0.1,0-0.1,0-0.2,0l-40.6-6c-0.6-0.1-0.9-0.6-0.9-1.2s0.6-0.9,1.2-0.9l40.6,6
		c0.6,0.1,0.9,0.6,0.9,1.2C1702.8,431.5,1702.4,431.8,1701.9,431.8z"/>
	<path class="st5" d="M1516,668.4l-209,23.5c-4,0.5-7.6-2.4-8.1-6.5l-15.1-133.9c0-0.2,0.1-0.4,0.3-0.4l222.7-25.1
		c0.2,0,0.4,0.1,0.4,0.3l15.1,133.9C1522.8,664.3,1519.9,667.9,1516,668.4z"/>
	<path class="st9" d="M1506.2,668.4l-189,23.5c-4,0.5,58.6-79.8,58.1-83.8l-91.5-56.5c0-0.2,0.1-0.4,0.3-0.4l222.7-25.1
		c0.2,0,0.4,0.1,0.4,0.3l-76.2,75.4C1431.5,605.8,1510.2,667.9,1506.2,668.4z"/>
	<path class="st5" d="M1284.2,551.2l92.1-91.1c5.5-5.5,14-6.4,20.6-2.4l109.5,68c0.2,0.1,0.1,0.4-0.1,0.4l-222.4,25.1"/>
	<path class="st10" d="M1386.4,594.1l-69.2,96.3l189-21.3l-88.9-78.5C1408,582.4,1393.7,584,1386.4,594.1z"/>
	<path class="st4" d="M1295.4,485.2l145.6-16.4c9.5-1.1,18,4.8,19,13l9.3,83l-40.5,37.2l-53.5,6l-52.8-33l-9.1-80.4L1295.4,485.2z"
		/>
	<path class="st9" d="M1386.4,585.8l-69.2,104.6l189-21.3l-88.9-86.8C1408,574.1,1393.7,575.7,1386.4,585.8z"/>
	<path class="st5" d="M1386.4,594.1l-69.2,96.3l189-21.3l-88.9-78.5C1408,582.4,1393.7,584,1386.4,594.1z"/>
	<path class="st2" d="M1393.1,615.4l-50.8,70.7l138.8-15.6l-65.3-57.7C1409,606.8,1398.4,608,1393.1,615.4z"/>
	<line class="st11" x1="1284.2" y1="551.4" x2="1375.3" y2="608.1"/>
	<line class="st11" x1="1507.3" y1="526.2" x2="1431.1" y2="601.8"/>
	<path class="st6" d="M1317.4,531.7l-25.4,2.9l-4.1-36.2c-0.8-6.7,4.1-12.7,10.8-13.5l1.2-0.1c6.7-0.8,12.7,4.1,13.5,10.8
		L1317.4,531.7z"/>
	<path class="st7" d="M1334.7,512.8c-0.5,0-0.9-0.4-1-0.9c-0.1-0.6,0.3-1.1,0.9-1.1l105.5-11.9c0.6-0.1,1.1,0.3,1.1,0.9
		c0.1,0.6-0.3,1.1-0.9,1.1l-105.5,11.9C1334.8,512.8,1334.7,512.8,1334.7,512.8z"/>
	<path class="st7" d="M1338.7,548.7c-0.5,0-0.9-0.4-1-0.9c-0.1-0.6,0.3-1.1,0.9-1.1l105.5-11.9c0.6-0.1,1.1,0.3,1.1,0.9
		c0.1,0.6-0.3,1.1-0.9,1.1l-105.5,11.9C1338.8,548.7,1338.8,548.7,1338.7,548.7z"/>
	<path class="st7" d="M1336.7,530.5c-0.5,0-0.9-0.4-1-0.9c-0.1-0.6,0.3-1.1,0.9-1.1l45.6-5.1c0.6-0.1,1.1,0.3,1.1,0.9
		c0.1,0.6-0.3,1.1-0.9,1.1l-45.6,5.1C1336.8,530.5,1336.7,530.5,1336.7,530.5z"/>
	<path class="st7" d="M1394.2,524.1c-0.5,0-0.9-0.4-1-0.9c-0.1-0.6,0.3-1.1,0.9-1.1l47.9-5.4c0.6,0,1.1,0.3,1.1,0.9
		c0.1,0.6-0.3,1.1-0.9,1.1l-47.9,5.4C1394.3,524.1,1394.2,524.1,1394.2,524.1z"/>
	<path class="st7" d="M1341,569c-0.5,0-0.9-0.4-1-0.9c-0.1-0.6,0.3-1.1,0.9-1.1l45.6-5.1c0.6-0.1,1.1,0.3,1.1,0.9
		c0.1,0.6-0.3,1.1-0.9,1.1l-45.6,5.1C1341.1,569,1341.1,569,1341,569z"/>
</g>
</svg>
