<?xml version="1.0" encoding="utf-8"?>
<!-- Generator: Adobe Illustrator 23.0.1, SVG Export Plug-In . SVG Version: 6.00 Build 0)  -->
<svg version="1.1" id="Layer_1" xmlns="http://www.w3.org/2000/svg" xmlns:xlink="http://www.w3.org/1999/xlink" x="0px" y="0px"
	 viewBox="0 0 1920 700" style="enable-background:new 0 0 1920 700;" xml:space="preserve">
<style type="text/css">
	.st0{fill:#FFFFFF;}
	.st1{fill:#E2F2EA;}
	.st2{fill:#C5E2D1;}
	.st3{fill:#80AF94;}
	.st4{fill:#A4C3B2;}
	.st5{fill:#ECF1F7;}
	.st6{fill:#6B9080;}
	.st7{opacity:0.33;fill:#AF9CDA;}
	.st8{opacity:0.29;fill:#243762;}
	.st9{fill:#F7A9B4;}
</style>
<rect class="st0" width="1920" height="700"/>
<g>
	<g>
		<g>
			<path class="st1" d="M1843.72,516.2c0.57-9.78,0.31-19.6-0.79-29.32c-5.18-45.69-28.62-88.77-63.12-119.17
				c-12.31-10.85-26.31-20.56-34.32-34.88c-13.49-24.11-12.47-51.82-29.21-75.62c-16.76-23.83-41.19-42.42-68.73-51.96
				c-82.13-28.46-197.12,17.88-186.76,116.83c0.04,0.35,0.08,0.87,0.12,1.52c1.38,20.55-14.76,37.84-35.29,38.32
				c-75.78,1.8-141,60.22-154.96,134.23c-8.98,47.59,5.72,99.76,40.54,133.43c25.99,25.13,60.86,38.94,95.74,48.43
				c69.95,19.02,143.55,23.01,215.67,15.74c67.51-6.81,138.72-26.22,182.38-78.15C1828.28,587.88,1841.63,552.35,1843.72,516.2z"/>
		</g>
	</g>
	
		<ellipse transform="matrix(0.2307 -0.973 0.973 0.2307 1128.0867 1968.4293)" class="st2" cx="1808.93" cy="270.78" rx="18.53" ry="18.53"/>
	
		<ellipse transform="matrix(0.7071 -0.7071 0.7071 0.7071 234.3319 1064.311)" class="st2" cx="1401.9" cy="249.29" rx="21.49" ry="21.49"/>
	<circle class="st2" cx="1143.61" cy="608.23" r="27.75"/>
	<circle class="st3" cx="1450.6" cy="393.08" r="106.53"/>
	<circle class="st0" cx="1450.6" cy="393.08" r="81.06"/>
	<path class="st2" d="M1471.6,408.57h-22.05c-4.52,0-8.2-3.68-8.2-8.2v-30.57c0-3.94,3.19-7.12,7.12-7.12
		c3.94,0,7.12,3.19,7.12,7.12v24.53h16.01c3.94,0,7.12,3.19,7.12,7.12S1475.54,408.57,1471.6,408.57z"/>
	<path class="st4" d="M1680.29,699.66l-150.43-22.25c-17.01-2.52-28.76-18.34-26.24-35.35l53.95-364.75
		c2.52-17.01,18.34-28.76,35.35-26.24l150.43,22.25c17.01,2.52,28.76,18.34,26.24,35.35l-53.95,364.75
		C1713.13,690.43,1697.3,702.18,1680.29,699.66z"/>
	
		<rect x="1463.14" y="376.75" transform="matrix(0.1463 -0.9892 0.9892 0.1463 931.592 2021.8248)" class="st5" width="348.19" height="188.8"/>
	
		<rect x="1647.73" y="217.45" transform="matrix(0.1463 -0.9892 0.9892 0.1463 1109.2917 1909.1425)" class="st3" width="26.13" height="188.8"/>
	<path class="st5" d="M1608.6,676.95c-0.59,0-1.19-0.04-1.79-0.13c-3.22-0.48-6.06-2.18-8-4.79c-1.94-2.62-2.75-5.83-2.27-9.05
		c0.48-3.22,2.18-6.06,4.79-8c2.61-1.94,5.83-2.75,9.05-2.27c3.22,0.48,6.06,2.18,8,4.79c1.94,2.61,2.75,5.83,2.27,9.05
		C1619.76,672.59,1614.54,676.95,1608.6,676.95z M1608.57,654.6c-2.16,0-4.26,0.69-6.03,2c-2.18,1.62-3.6,3.98-3.99,6.67
		c-0.4,2.68,0.27,5.36,1.89,7.54c1.62,2.18,3.98,3.6,6.67,3.99c5.55,0.82,10.71-3.02,11.53-8.56c0.4-2.68-0.28-5.36-1.89-7.54
		c-1.62-2.18-3.98-3.6-6.67-3.99C1609.58,654.64,1609.07,654.6,1608.57,654.6z"/>
	<path class="st5" d="M1635.59,281.83c-0.19,0-0.38-0.01-0.58-0.04c-1.04-0.15-1.95-0.7-2.57-1.54c-0.62-0.84-0.88-1.87-0.73-2.91
		s0.7-1.95,1.54-2.57c0.84-0.63,1.87-0.89,2.91-0.73c1.03,0.15,1.95,0.7,2.57,1.54c0.62,0.84,0.88,1.87,0.73,2.91v0
		C1639.18,280.42,1637.5,281.83,1635.59,281.83z M1635.58,276.02c-0.4,0-0.79,0.13-1.12,0.37c-0.4,0.3-0.67,0.74-0.74,1.24
		c-0.07,0.5,0.05,0.99,0.35,1.4c0.3,0.4,0.74,0.67,1.24,0.74c0.5,0.08,0.99-0.05,1.4-0.35c0.4-0.3,0.67-0.74,0.74-1.24l0,0
		c0.07-0.5-0.05-1-0.35-1.4c-0.3-0.4-0.74-0.67-1.24-0.74C1635.77,276.03,1635.68,276.02,1635.58,276.02z"/>
	<path class="st5" d="M1696.26,290.8c-0.19,0-0.39-0.01-0.58-0.04l-47.65-7.05c-1.04-0.15-1.95-0.7-2.57-1.54
		c-0.62-0.84-0.88-1.87-0.73-2.91s0.7-1.95,1.54-2.57c0.84-0.62,1.88-0.88,2.91-0.73l47.65,7.05c1.04,0.15,1.95,0.7,2.57,1.54
		c0.62,0.84,0.88,1.87,0.73,2.91c-0.15,1.04-0.7,1.95-1.54,2.57C1697.9,290.53,1697.09,290.8,1696.26,290.8z M1648.6,277.95
		c-0.92,0-1.72,0.67-1.86,1.61c-0.07,0.5,0.05,0.99,0.35,1.4c0.3,0.4,0.74,0.67,1.24,0.74l47.65,7.05c1.03,0.16,1.99-0.56,2.14-1.59
		c0.07-0.5-0.05-0.99-0.35-1.4c-0.3-0.4-0.74-0.67-1.24-0.74l-47.65-7.05C1648.78,277.95,1648.69,277.95,1648.6,277.95z"/>
	<path class="st4" d="M1705.91,551.8l-130.28-19.27c-2.12-0.31-4.1,1.15-4.41,3.27l-5,33.8c-0.31,2.12,1.15,4.1,3.27,4.41
		l111.39,16.48l11.47,15.83l2.05-13.83l5.38,0.8c2.12,0.31,4.1-1.15,4.41-3.27l5-33.8C1709.5,554.09,1708.03,552.11,1705.91,551.8z"
		/>
	<path class="st4" d="M1726.63,411.74l-130.28-19.27c-2.12-0.31-4.1,1.15-4.41,3.27l-5,33.8c-0.31,2.12,1.15,4.1,3.27,4.41
		l111.39,16.48l11.47,15.83l2.05-13.83l5.38,0.8c2.12,0.31,4.1-1.15,4.41-3.27l5-33.8C1730.21,414.03,1728.75,412.06,1726.63,411.74
		z"/>
	<path class="st6" d="M1561.72,455.3L1692,474.57c2.12,0.31,3.59,2.29,3.27,4.41l-5,33.8c-0.31,2.12-2.29,3.59-4.41,3.27
		l-111.39-16.48l-15.57,11.83l2.05-13.83l-5.38-0.8c-2.12-0.31-3.59-2.29-3.27-4.41l5-33.8
		C1557.62,456.45,1559.6,454.98,1561.72,455.3z"/>
	
		<rect x="1598.08" y="533.13" transform="matrix(0.1463 -0.9892 0.9892 0.1463 757.1525 2132.4399)" class="st0" width="32.04" height="188.8"/>
	<path class="st2" d="M1550.63,617.86c-0.92,6.21-6.69,10.49-12.9,9.58c-6.21-0.92-10.49-6.69-9.58-12.9
		c0.92-6.21,6.69-10.49,12.9-9.58C1547.26,605.88,1551.54,611.65,1550.63,617.86z"/>
	<path class="st7" d="M1688.37,648.64c-0.49,0-0.99-0.04-1.49-0.11l-121.04-17.9c-2.68-0.39-5.04-1.81-6.65-3.98
		c-1.61-2.17-2.28-4.84-1.89-7.52c0.82-5.52,5.98-9.37,11.5-8.54l121.04,17.9c5.52,0.82,9.35,5.97,8.54,11.5
		C1697.64,645.02,1693.3,648.64,1688.37,648.64z M1687.18,646.52c4.42,0.64,8.54-2.41,9.19-6.82c0.32-2.14-0.22-4.27-1.51-6.01
		c-1.29-1.74-3.18-2.87-5.31-3.18l-121.04-17.91c-4.42-0.64-8.54,2.41-9.19,6.82c-0.32,2.14,0.22,4.27,1.51,6.01
		c1.29,1.74,3.18,2.87,5.31,3.18L1687.18,646.52z"/>
	<path class="st0" d="M1580.94,303.69c-0.19,0-0.39-0.01-0.59-0.04c-2.17-0.32-3.68-2.35-3.36-4.53c0.16-1.05,0.71-1.98,1.57-2.62
		c0.86-0.64,1.91-0.9,2.96-0.74c2.17,0.32,3.68,2.35,3.36,4.53l0,0C1584.59,302.27,1582.88,303.69,1580.94,303.69z M1580.93,297.76
		c-0.42,0-0.82,0.13-1.16,0.38c-0.42,0.31-0.69,0.77-0.77,1.28c-0.08,0.52,0.05,1.03,0.36,1.45c0.31,0.42,0.76,0.69,1.28,0.77
		c1.05,0.16,2.06-0.58,2.21-1.64l0,0c0.08-0.51-0.05-1.03-0.36-1.45c-0.31-0.42-0.76-0.69-1.28-0.77
		C1581.13,297.77,1581.03,297.76,1580.93,297.76z"/>
	<path class="st0" d="M1591.96,305.32c-0.2,0-0.39-0.01-0.59-0.04c-2.17-0.32-3.68-2.35-3.36-4.53c0.32-2.17,2.35-3.67,4.53-3.36
		c1.05,0.16,1.98,0.71,2.62,1.57c0.63,0.85,0.9,1.91,0.74,2.96c-0.16,1.05-0.71,1.98-1.57,2.62
		C1593.64,305.05,1592.81,305.32,1591.96,305.32z M1591.95,299.39c-0.95,0-1.79,0.7-1.93,1.66c-0.08,0.51,0.05,1.03,0.36,1.45
		c0.31,0.42,0.76,0.69,1.28,0.77c0.51,0.08,1.03-0.05,1.45-0.36c0.42-0.31,0.69-0.76,0.77-1.28l0,0c0.08-0.52-0.05-1.03-0.36-1.45
		c-0.31-0.42-0.76-0.69-1.28-0.77C1592.15,299.4,1592.05,299.39,1591.95,299.39z"/>
	<path class="st0" d="M1602.77,306.92c-0.19,0-0.39-0.01-0.59-0.04c-2.17-0.32-3.68-2.35-3.36-4.53c0.32-2.17,2.35-3.67,4.53-3.36
		c2.17,0.32,3.68,2.35,3.36,4.53C1606.41,305.5,1604.71,306.92,1602.77,306.92z M1602.76,300.99c-0.41,0-0.82,0.13-1.16,0.39
		c-0.42,0.31-0.69,0.76-0.77,1.28c-0.08,0.51,0.05,1.03,0.36,1.45c0.31,0.42,0.77,0.69,1.28,0.77c1.06,0.15,2.06-0.58,2.21-1.64
		c0.16-1.06-0.58-2.06-1.64-2.21C1602.95,300.99,1602.86,300.99,1602.76,300.99z"/>
	<path class="st0" d="M1682.73,559.58c-0.05,0-0.1,0-0.15-0.01l-92.24-13.64c-0.56-0.08-0.94-0.6-0.86-1.16
		c0.08-0.56,0.59-0.95,1.16-0.86l92.24,13.64c0.56,0.08,0.94,0.6,0.86,1.16C1683.66,559.22,1683.22,559.58,1682.73,559.58z"/>
	<path class="st0" d="M1628.12,562.75c-0.05,0-0.1,0-0.15-0.01l-39.26-5.81c-0.56-0.08-0.94-0.6-0.86-1.16
		c0.08-0.55,0.59-0.94,1.16-0.86l39.26,5.81c0.56,0.08,0.94,0.6,0.86,1.16C1629.05,562.39,1628.61,562.75,1628.12,562.75z"/>
	<path class="st0" d="M1614.89,571.32c-0.05,0-0.1,0-0.15-0.01l-27.55-4.08c-0.56-0.08-0.94-0.6-0.86-1.15
		c0.08-0.55,0.61-0.94,1.16-0.86l27.55,4.08c0.56,0.08,0.94,0.6,0.86,1.16C1615.82,570.96,1615.38,571.32,1614.89,571.32z"/>
	<path class="st0" d="M1681.1,570.59c-0.05,0-0.1,0-0.15-0.01l-40.57-6c-0.56-0.08-0.94-0.6-0.86-1.16
		c0.08-0.55,0.59-0.95,1.16-0.86l40.57,6c0.56,0.08,0.94,0.6,0.86,1.16C1682.03,570.22,1681.6,570.59,1681.1,570.59z"/>
	<g>
		<path class="st0" d="M1671.46,483.04c-0.05,0-0.1,0-0.15-0.01l-92.24-13.64c-0.56-0.08-0.94-0.6-0.86-1.15
			c0.08-0.56,0.59-0.95,1.16-0.86l92.24,13.64c0.56,0.08,0.94,0.6,0.86,1.16C1672.4,482.67,1671.96,483.04,1671.46,483.04z"/>
		<path class="st0" d="M1616.85,486.2c-0.05,0-0.1,0-0.15-0.01l-39.26-5.81c-0.56-0.08-0.94-0.6-0.86-1.16
			c0.08-0.55,0.6-0.94,1.16-0.86l39.26,5.81c0.56,0.08,0.94,0.6,0.86,1.15C1617.79,485.84,1617.35,486.2,1616.85,486.2z"/>
		<path class="st0" d="M1657.65,502.77c-0.05,0-0.1,0-0.16-0.01l-79.61-12.35c-0.56-0.09-0.94-0.61-0.85-1.16
			c0.09-0.55,0.61-0.93,1.16-0.85l79.61,12.35c0.56,0.09,0.94,0.61,0.85,1.16C1658.57,502.41,1658.14,502.77,1657.65,502.77z"/>
		<path class="st0" d="M1669.84,494.04c-0.05,0-0.1,0-0.15-0.01l-40.57-6c-0.56-0.08-0.94-0.6-0.86-1.16
			c0.08-0.55,0.59-0.94,1.16-0.86l40.57,6c0.56,0.08,0.94,0.6,0.86,1.15C1670.77,493.68,1670.33,494.04,1669.84,494.04z"/>
	</g>
	<path class="st6" d="M1578.45,328.23l130.28,19.27c2.12,0.31,3.59,2.29,3.27,4.41l-5,33.8c-0.31,2.12-2.29,3.59-4.41,3.27
		l-111.39-16.48l-15.57,11.83l2.05-13.83l-5.38-0.8c-2.12-0.31-3.59-2.29-3.27-4.41l5-33.8
		C1574.35,329.38,1576.33,327.92,1578.45,328.23z"/>
	<g>
		<path class="st0" d="M1688.2,355.97c-0.05,0-0.1,0-0.15-0.01l-92.24-13.64c-0.56-0.08-0.94-0.6-0.86-1.16
			c0.08-0.56,0.59-0.93,1.16-0.86l92.24,13.64c0.56,0.08,0.94,0.6,0.86,1.16C1689.13,355.61,1688.69,355.97,1688.2,355.97z"/>
		<path class="st0" d="M1633.59,359.14c-0.05,0-0.1,0-0.15-0.01l-39.26-5.81c-0.56-0.08-0.94-0.6-0.86-1.16
			c0.08-0.56,0.6-0.94,1.16-0.86l39.26,5.81c0.56,0.08,0.94,0.6,0.86,1.16C1634.52,358.78,1634.08,359.14,1633.59,359.14z"/>
		<path class="st0" d="M1674.38,375.7c-0.05,0-0.1,0-0.16-0.01l-79.61-12.35c-0.56-0.09-0.94-0.61-0.85-1.16
			c0.09-0.55,0.61-0.93,1.16-0.85l79.61,12.35c0.56,0.09,0.94,0.61,0.85,1.16C1675.31,375.34,1674.87,375.7,1674.38,375.7z"/>
		<path class="st0" d="M1686.57,366.98c-0.05,0-0.1,0-0.15-0.01l-40.57-6c-0.56-0.08-0.94-0.6-0.86-1.16
			c0.08-0.56,0.59-0.94,1.16-0.86l40.57,6c0.56,0.08,0.94,0.6,0.86,1.16C1687.5,366.61,1687.06,366.98,1686.57,366.98z"/>
	</g>
	<path class="st0" d="M1703.52,420.83c-0.05,0-0.1,0-0.15-0.01l-92.24-13.64c-0.56-0.08-0.94-0.6-0.86-1.16
		c0.08-0.56,0.59-0.94,1.16-0.86l92.24,13.64c0.56,0.08,0.94,0.6,0.86,1.16C1704.46,420.46,1704.02,420.83,1703.52,420.83z"/>
	<path class="st0" d="M1648.91,423.99c-0.05,0-0.1,0-0.15-0.01l-39.26-5.81c-0.56-0.08-0.94-0.6-0.86-1.16
		c0.08-0.56,0.6-0.94,1.16-0.86l39.26,5.81c0.56,0.08,0.94,0.6,0.86,1.16C1649.85,423.63,1649.41,423.99,1648.91,423.99z"/>
	<path class="st0" d="M1635.68,432.56c-0.05,0-0.1,0-0.15-0.01l-27.55-4.08c-0.56-0.08-0.94-0.6-0.86-1.16
		c0.08-0.55,0.6-0.94,1.16-0.86l27.55,4.08c0.56,0.08,0.94,0.6,0.86,1.16C1636.62,432.2,1636.18,432.56,1635.68,432.56z"/>
	<path class="st0" d="M1701.9,431.83c-0.05,0-0.1,0-0.15-0.01l-40.57-6c-0.56-0.08-0.94-0.6-0.86-1.16
		c0.08-0.56,0.59-0.94,1.16-0.86l40.57,6c0.56,0.08,0.94,0.6,0.86,1.16C1702.83,431.47,1702.39,431.83,1701.9,431.83z"/>
	<path class="st4" d="M1515.96,668.38l-208.97,23.54c-4.01,0.45-7.63-2.44-8.09-6.45l-15.08-133.87c-0.02-0.21,0.13-0.4,0.34-0.43
		l222.69-25.09c0.21-0.02,0.4,0.13,0.43,0.34l15.09,133.92C1522.81,664.33,1519.94,667.93,1515.96,668.38z"/>
	<path class="st8" d="M1506.16,668.38l-188.96,23.54c-4.01,0.45,58.55-79.8,58.1-83.82l-91.49-56.5c-0.02-0.21,0.13-0.4,0.34-0.43
		l222.69-25.09c0.21-0.02,0.4,0.13,0.43,0.34l-76.18,75.39C1431.54,605.81,1510.15,667.93,1506.16,668.38z"/>
	<path class="st4" d="M1284.16,551.18l92.09-91.07c5.49-5.45,14-6.42,20.58-2.35l109.46,67.98c0.19,0.12,0.12,0.4-0.1,0.43
		l-222.41,25.06"/>
	<path class="st9" d="M1386.43,594.07l-69.22,96.31l188.96-21.29l-88.92-78.49C1407.97,582.41,1393.65,584.02,1386.43,594.07z"/>
	<path class="st0" d="M1295.4,485.2l145.55-16.4c9.54-1.07,18.03,4.77,18.96,13.05l9.35,83.03l-40.47,37.2l-53.48,6.03l-52.83-33.04
		l-9.06-80.44L1295.4,485.2z"/>
	<path class="st8" d="M1386.43,585.76l-69.22,104.62l188.96-21.29l-88.92-86.8C1407.97,574.1,1393.65,575.71,1386.43,585.76z"/>
	<path class="st4" d="M1386.43,594.07l-69.22,96.31l188.96-21.29l-88.92-78.49C1407.97,582.41,1393.65,584.02,1386.43,594.07z"/>
	<path class="st2" d="M1393.14,615.38l-50.84,70.73l138.77-15.63l-65.3-57.65C1408.96,606.82,1398.44,608.01,1393.14,615.38z"/>
	<line class="st9" x1="1284.24" y1="551.36" x2="1375.31" y2="608.11"/>
	<line class="st9" x1="1507.25" y1="526.23" x2="1431.09" y2="601.82"/>
	<path class="st5" d="M1317.44,531.69l-25.4,2.86l-4.08-36.24c-0.75-6.7,4.06-12.73,10.76-13.49l1.15-0.13
		c6.7-0.75,12.73,4.06,13.49,10.76L1317.44,531.69z"/>
	<path class="st6" d="M1334.69,512.82c-0.51,0-0.95-0.38-1.01-0.9c-0.06-0.56,0.34-1.06,0.9-1.13l105.46-11.88
		c0.57-0.07,1.06,0.34,1.13,0.9c0.06,0.56-0.34,1.06-0.9,1.13l-105.46,11.88C1334.77,512.82,1334.73,512.82,1334.69,512.82z"/>
	<path class="st6" d="M1338.73,548.68c-0.51,0-0.95-0.38-1.01-0.9c-0.06-0.56,0.34-1.06,0.9-1.13l105.46-11.88
		c0.55-0.07,1.06,0.34,1.13,0.9c0.06,0.56-0.34,1.06-0.9,1.13l-105.46,11.88C1338.81,548.67,1338.77,548.68,1338.73,548.68z"/>
	<path class="st6" d="M1336.69,530.54c-0.51,0-0.95-0.38-1.01-0.9c-0.06-0.56,0.34-1.06,0.9-1.13l45.57-5.13
		c0.56-0.06,1.06,0.34,1.13,0.9c0.06,0.56-0.34,1.06-0.9,1.13l-45.57,5.13C1336.76,530.54,1336.73,530.54,1336.69,530.54z"/>
	<path class="st6" d="M1394.19,524.06c-0.51,0-0.95-0.38-1.01-0.9c-0.06-0.56,0.34-1.06,0.9-1.13l47.95-5.4
		c0.56-0.05,1.06,0.34,1.13,0.9c0.06,0.56-0.34,1.06-0.9,1.13l-47.95,5.4C1394.27,524.06,1394.23,524.06,1394.19,524.06z"/>
	<path class="st6" d="M1341.02,569.01c-0.51,0-0.95-0.38-1.01-0.9c-0.06-0.56,0.34-1.06,0.9-1.13l45.57-5.13
		c0.55-0.06,1.06,0.34,1.13,0.9c0.06,0.56-0.34,1.06-0.9,1.13l-45.57,5.13C1341.1,569,1341.06,569.01,1341.02,569.01z"/>
</g>
</svg>
