<?xml version="1.0" encoding="utf-8"?>
<!-- Generator: Adobe Illustrator 27.9.0, SVG Export Plug-In . SVG Version: 6.00 Build 0)  -->
<svg version="1.1" id="Layer_1" xmlns="http://www.w3.org/2000/svg" xmlns:xlink="http://www.w3.org/1999/xlink" x="0px" y="0px"
	 viewBox="0 0 1920 700" style="enable-background:new 0 0 1920 700;" xml:space="preserve">
<style type="text/css">
	.st0{fill:#FAFCFF;}
	.st1{display:none;}
	.st2{display:inline;}
	.st3{fill:#E2F2EA;}
	.st4{display:inline;fill:#C5E2D1;}
	.st5{display:inline;fill:#80AF94;}
	.st6{display:inline;fill:#FFFFFF;}
	.st7{display:inline;fill:#A4C3B2;}
	.st8{display:inline;fill:#ECF1F7;}
	.st9{display:inline;fill:#6B9080;}
	.st10{display:inline;opacity:0.33;fill:#AF9CDA;enable-background:new    ;}
	.st11{fill:#FFFFFF;}
	.st12{display:inline;opacity:0.29;fill:#243762;enable-background:new    ;}
	.st13{display:inline;fill:#F7A9B4;}
	.st14{display:inline;fill:none;}
	.st15{fill:#001466;}
	.st16{fill:#113FFB;}
	.st17{fill:#E6F3FB;}
	.st18{fill:#FF7757;}
	.st19{fill:#FDB870;}
</style>
<rect class="st0" width="1920" height="700"/>
<g class="st1">
	<g class="st2">
		<g>
			<path class="st3" d="M1843.7,516.2c0.6-9.8,0.3-19.6-0.8-29.3c-5.2-45.7-28.6-88.8-63.1-119.2c-12.3-10.9-26.3-20.6-34.3-34.9
				c-13.5-24.1-12.5-51.8-29.2-75.6c-16.8-23.8-41.2-42.4-68.7-52c-82.1-28.5-197.1,17.9-186.8,116.8c0,0.4,0.1,0.9,0.1,1.5
				c1.4,20.5-14.8,37.8-35.3,38.3c-75.8,1.8-141,60.2-155,134.2c-9,47.6,5.7,99.8,40.5,133.4c26,25.1,60.9,38.9,95.7,48.4
				c69.9,19,143.6,23,215.7,15.7c67.5-6.8,138.7-26.2,182.4-78.2C1828.3,587.9,1841.6,552.3,1843.7,516.2z"/>
		</g>
	</g>
	<ellipse class="st4" cx="1808.9" cy="270.8" rx="18.5" ry="18.5"/>
	
		<ellipse transform="matrix(0.7071 -0.7071 0.7071 0.7071 234.3241 1064.3003)" class="st4" cx="1401.9" cy="249.3" rx="21.5" ry="21.5"/>
	<circle class="st4" cx="1143.6" cy="608.2" r="27.8"/>
	<circle class="st5" cx="1450.6" cy="393.1" r="106.5"/>
	<circle class="st6" cx="1450.6" cy="393.1" r="81.1"/>
	<path class="st4" d="M1471.6,408.6h-22.1c-4.5,0-8.2-3.7-8.2-8.2v-30.6c0-3.9,3.2-7.1,7.1-7.1s7.1,3.2,7.1,7.1v24.5h16
		c3.9,0,7.1,3.2,7.1,7.1S1475.5,408.6,1471.6,408.6z"/>
	<path class="st7" d="M1680.3,699.7l-150.4-22.3c-17-2.5-28.8-18.3-26.2-35.3l53.9-364.8c2.5-17,18.3-28.8,35.3-26.2l150.4,22.3
		c17,2.5,28.8,18.3,26.2,35.4l-53.9,364.8C1713.1,690.4,1697.3,702.2,1680.3,699.7z"/>
	
		<rect x="1463" y="376.9" transform="matrix(0.1463 -0.9892 0.9892 0.1463 931.3488 2021.8485)" class="st8" width="348.2" height="188.8"/>
	
		<rect x="1647.7" y="217.7" transform="matrix(0.1463 -0.9892 0.9892 0.1463 1109.043 1909.2336)" class="st5" width="26.1" height="188.8"/>
	<path class="st8" d="M1608.6,677c-0.6,0-1.2,0-1.8-0.1c-3.2-0.5-6.1-2.2-8-4.8s-2.8-5.8-2.3-9s2.2-6.1,4.8-8s5.8-2.8,9.1-2.3
		c3.2,0.5,6.1,2.2,8,4.8s2.8,5.8,2.3,9C1619.8,672.6,1614.5,677,1608.6,677z M1608.6,654.6c-2.2,0-4.3,0.7-6,2c-2.2,1.6-3.6,4-4,6.7
		s0.3,5.4,1.9,7.5s4,3.6,6.7,4c5.6,0.8,10.7-3,11.5-8.6c0.4-2.7-0.3-5.4-1.9-7.5c-1.6-2.2-4-3.6-6.7-4
		C1609.6,654.6,1609.1,654.6,1608.6,654.6z"/>
	<path class="st8" d="M1635.6,281.8c-0.2,0-0.4,0-0.6,0c-1-0.1-1.9-0.7-2.6-1.5s-0.9-1.9-0.7-2.9s0.7-2,1.5-2.6s1.9-0.9,2.9-0.7
		c1,0.1,1.9,0.7,2.6,1.5s0.9,1.9,0.7,2.9l0,0C1639.2,280.4,1637.5,281.8,1635.6,281.8z M1635.6,276c-0.4,0-0.8,0.1-1.1,0.4
		c-0.4,0.3-0.7,0.7-0.7,1.2s0.1,1,0.3,1.4c0.3,0.4,0.7,0.7,1.2,0.7c0.5,0.1,1,0,1.4-0.4c0.4-0.3,0.7-0.7,0.7-1.2l0,0
		c0.1-0.5-0.1-1-0.3-1.4c-0.3-0.4-0.7-0.7-1.2-0.7C1635.8,276,1635.7,276,1635.6,276z"/>
	<path class="st8" d="M1696.3,290.8c-0.2,0-0.4,0-0.6,0l-47.7-7c-1-0.1-1.9-0.7-2.6-1.5s-0.9-1.9-0.7-2.9s0.7-2,1.5-2.6
		s1.9-0.9,2.9-0.7l47.7,7c1,0.1,1.9,0.7,2.6,1.5s0.9,1.9,0.7,2.9s-0.7,2-1.5,2.6C1697.9,290.5,1697.1,290.8,1696.3,290.8z
		 M1648.6,278c-0.9,0-1.7,0.7-1.9,1.6c-0.1,0.5,0.1,1,0.3,1.4c0.3,0.4,0.7,0.7,1.2,0.7l47.7,7c1,0.2,2-0.6,2.1-1.6
		c0.1-0.5-0.1-1-0.3-1.4c-0.3-0.4-0.7-0.7-1.2-0.7l-47.7-7C1648.8,278,1648.7,278,1648.6,278z"/>
	<path class="st7" d="M1705.9,551.8l-130.3-19.3c-2.1-0.3-4.1,1.2-4.4,3.3l-5,33.8c-0.3,2.1,1.2,4.1,3.3,4.4l111.4,16.5l11.5,15.8
		l2.1-13.8l5.4,0.8c2.1,0.3,4.1-1.2,4.4-3.3l5-33.8C1709.5,554.1,1708,552.1,1705.9,551.8z"/>
	<path class="st7" d="M1726.6,411.7l-130.3-19.3c-2.1-0.3-4.1,1.1-4.4,3.3l-5,33.8c-0.3,2.1,1.2,4.1,3.3,4.4l111.4,16.5l11.5,15.8
		l2.1-13.8l5.4,0.8c2.1,0.3,4.1-1.1,4.4-3.3l5-33.8C1730.2,414,1728.8,412.1,1726.6,411.7z"/>
	<path class="st9" d="M1561.7,455.3l130.3,19.3c2.1,0.3,3.6,2.3,3.3,4.4l-5,33.8c-0.3,2.1-2.3,3.6-4.4,3.3l-111.4-16.5l-15.6,11.8
		l2.1-13.8l-5.4-0.8c-2.1-0.3-3.6-2.3-3.3-4.4l5-33.8C1557.6,456.5,1559.6,455,1561.7,455.3z"/>
	
		<rect x="1598" y="533.4" transform="matrix(0.1463 -0.9892 0.9892 0.1463 756.7669 2132.6018)" class="st6" width="32" height="188.8"/>
	<path class="st4" d="M1550.6,617.9c-0.9,6.2-6.7,10.5-12.9,9.6c-6.2-0.9-10.5-6.7-9.6-12.9s6.7-10.5,12.9-9.6
		C1547.3,605.9,1551.5,611.7,1550.6,617.9z"/>
	<path class="st10" d="M1688.4,648.6c-0.5,0-1,0-1.5-0.1l-121-17.9c-2.7-0.4-5-1.8-6.7-4s-2.3-4.8-1.9-7.5c0.8-5.5,6-9.4,11.5-8.5
		l121,17.9c5.5,0.8,9.3,6,8.5,11.5C1697.6,645,1693.3,648.6,1688.4,648.6z M1687.2,646.5c4.4,0.6,8.5-2.4,9.2-6.8
		c0.3-2.1-0.2-4.3-1.5-6s-3.2-2.9-5.3-3.2l-121-17.9c-4.4-0.6-8.5,2.4-9.2,6.8c-0.3,2.1,0.2,4.3,1.5,6s3.2,2.9,5.3,3.2L1687.2,646.5
		z"/>
	<path class="st6" d="M1580.9,303.7c-0.2,0-0.4,0-0.6,0c-2.2-0.3-3.7-2.4-3.4-4.5c0.2-1,0.7-2,1.6-2.6s1.9-0.9,3-0.7
		c2.2,0.3,3.7,2.4,3.4,4.5l0,0C1584.6,302.3,1582.9,303.7,1580.9,303.7z M1580.9,297.8c-0.4,0-0.8,0.1-1.2,0.4
		c-0.4,0.3-0.7,0.8-0.8,1.3c-0.1,0.5,0.1,1,0.4,1.5c0.3,0.4,0.8,0.7,1.3,0.8c1.1,0.2,2.1-0.6,2.2-1.6l0,0c0.1-0.5-0.1-1-0.4-1.5
		c-0.3-0.4-0.8-0.7-1.3-0.8C1581.1,297.8,1581,297.8,1580.9,297.8z"/>
	<path class="st6" d="M1592,305.3c-0.2,0-0.4,0-0.6,0c-2.2-0.3-3.7-2.4-3.4-4.5c0.3-2.2,2.3-3.7,4.5-3.4c1.1,0.2,2,0.7,2.6,1.6
		s0.9,1.9,0.7,3s-0.7,2-1.6,2.6C1593.6,305,1592.8,305.3,1592,305.3z M1591.9,299.4c-0.9,0-1.8,0.7-1.9,1.7c-0.1,0.5,0.1,1,0.4,1.5
		c0.3,0.4,0.8,0.7,1.3,0.8c0.5,0.1,1,0,1.4-0.4c0.4-0.3,0.7-0.8,0.8-1.3l0,0c0.1-0.5-0.1-1-0.4-1.5c-0.3-0.4-0.8-0.7-1.3-0.8
		C1592.2,299.4,1592.1,299.4,1591.9,299.4z"/>
	<path class="st6" d="M1602.8,306.9c-0.2,0-0.4,0-0.6,0c-2.2-0.3-3.7-2.4-3.4-4.5c0.3-2.2,2.3-3.7,4.5-3.4c2.2,0.3,3.7,2.4,3.4,4.5
		C1606.4,305.5,1604.7,306.9,1602.8,306.9z M1602.8,301c-0.4,0-0.8,0.1-1.2,0.4c-0.4,0.3-0.7,0.8-0.8,1.3c-0.1,0.5,0.1,1,0.4,1.5
		c0.3,0.4,0.8,0.7,1.3,0.8c1.1,0.1,2.1-0.6,2.2-1.6c0.2-1.1-0.6-2.1-1.6-2.2C1602.9,301,1602.9,301,1602.8,301z"/>
	<path class="st6" d="M1682.7,559.6c-0.1,0-0.1,0-0.2,0l-92.2-13.6c-0.6-0.1-0.9-0.6-0.9-1.2s0.6-1,1.2-0.9l92.2,13.6
		c0.6,0.1,0.9,0.6,0.9,1.2C1683.7,559.2,1683.2,559.6,1682.7,559.6z"/>
	<path class="st6" d="M1628.1,562.8c-0.1,0-0.1,0-0.2,0l-39.3-5.8c-0.6-0.1-0.9-0.6-0.9-1.2c0.1-0.5,0.6-0.9,1.2-0.9l39.3,5.8
		c0.6,0.1,0.9,0.6,0.9,1.2C1629.1,562.4,1628.6,562.8,1628.1,562.8z"/>
	<path class="st6" d="M1614.9,571.3c-0.1,0-0.1,0-0.2,0l-27.6-4.1c-0.6-0.1-0.9-0.6-0.9-1.2c0.1-0.5,0.6-0.9,1.2-0.9l27.6,4.1
		c0.6,0.1,0.9,0.6,0.9,1.2C1615.8,571,1615.4,571.3,1614.9,571.3z"/>
	<path class="st6" d="M1681.1,570.6c-0.1,0-0.1,0-0.2,0l-40.6-6c-0.6-0.1-0.9-0.6-0.9-1.2c0.1-0.5,0.6-1,1.2-0.9l40.6,6
		c0.6,0.1,0.9,0.6,0.9,1.2C1682,570.2,1681.6,570.6,1681.1,570.6z"/>
	<g class="st2">
		<path class="st11" d="M1671.5,483c-0.1,0-0.1,0-0.2,0l-92.2-13.6c-0.6-0.1-0.9-0.6-0.9-1.1c0.1-0.6,0.6-1,1.2-0.9l92.2,13.6
			c0.6,0.1,0.9,0.6,0.9,1.2C1672.4,482.7,1672,483,1671.5,483z"/>
		<path class="st11" d="M1616.8,486.2c-0.1,0-0.1,0-0.2,0l-39.3-5.8c-0.6-0.1-0.9-0.6-0.9-1.2c0.1-0.5,0.6-0.9,1.2-0.9l39.3,5.8
			c0.6,0.1,0.9,0.6,0.9,1.1C1617.8,485.8,1617.3,486.2,1616.8,486.2z"/>
		<path class="st11" d="M1657.7,502.8c-0.1,0-0.1,0-0.2,0l-79.6-12.4c-0.6-0.1-0.9-0.6-0.8-1.2c0.1-0.5,0.6-0.9,1.2-0.9l79.6,12.4
			c0.6,0.1,0.9,0.6,0.8,1.2C1658.6,502.4,1658.1,502.8,1657.7,502.8z"/>
		<path class="st11" d="M1669.8,494c-0.1,0-0.1,0-0.2,0l-40.6-6c-0.6-0.1-0.9-0.6-0.9-1.2c0.1-0.5,0.6-0.9,1.2-0.9l40.6,6
			c0.6,0.1,0.9,0.6,0.9,1.1C1670.8,493.7,1670.3,494,1669.8,494z"/>
	</g>
	<path class="st9" d="M1578.4,328.2l130.3,19.3c2.1,0.3,3.6,2.3,3.3,4.4l-5,33.8c-0.3,2.1-2.3,3.6-4.4,3.3l-111.4-16.5l-15.6,11.8
		l2.1-13.8l-5.4-0.8c-2.1-0.3-3.6-2.3-3.3-4.4l5-33.8C1574.3,329.4,1576.3,327.9,1578.4,328.2z"/>
	<g class="st2">
		<path class="st11" d="M1688.2,356c-0.1,0-0.1,0-0.2,0l-92.2-13.6c-0.6-0.1-0.9-0.6-0.9-1.2s0.6-0.9,1.2-0.9l92.2,13.6
			c0.6,0.1,0.9,0.6,0.9,1.2C1689.1,355.6,1688.7,356,1688.2,356z"/>
		<path class="st11" d="M1633.6,359.1c-0.1,0-0.1,0-0.2,0l-39.3-5.8c-0.6-0.1-0.9-0.6-0.9-1.2s0.6-0.9,1.2-0.9l39.3,5.8
			c0.6,0.1,0.9,0.6,0.9,1.2C1634.5,358.8,1634.1,359.1,1633.6,359.1z"/>
		<path class="st11" d="M1674.4,375.7c-0.1,0-0.1,0-0.2,0l-79.6-12.4c-0.6-0.1-0.9-0.6-0.8-1.2c0.1-0.5,0.6-0.9,1.2-0.9l79.6,12.4
			c0.6,0.1,0.9,0.6,0.8,1.2C1675.3,375.3,1674.9,375.7,1674.4,375.7z"/>
		<path class="st11" d="M1686.6,367c-0.1,0-0.1,0-0.2,0l-40.6-6c-0.6-0.1-0.9-0.6-0.9-1.2s0.6-0.9,1.2-0.9l40.6,6
			c0.6,0.1,0.9,0.6,0.9,1.2C1687.5,366.6,1687.1,367,1686.6,367z"/>
	</g>
	<path class="st6" d="M1703.5,420.8c-0.1,0-0.1,0-0.2,0l-92.2-13.6c-0.6-0.1-0.9-0.6-0.9-1.2s0.6-0.9,1.2-0.9l92.2,13.6
		c0.6,0.1,0.9,0.6,0.9,1.2S1704,420.8,1703.5,420.8z"/>
	<path class="st6" d="M1648.9,424c-0.1,0-0.1,0-0.2,0l-39.3-5.8c-0.6-0.1-0.9-0.6-0.9-1.2s0.6-0.9,1.2-0.9l39.3,5.8
		c0.6,0.1,0.9,0.6,0.9,1.2C1649.8,423.6,1649.4,424,1648.9,424z"/>
	<path class="st6" d="M1635.7,432.6c-0.1,0-0.1,0-0.2,0l-27.6-4.1c-0.6-0.1-0.9-0.6-0.9-1.2c0.1-0.5,0.6-0.9,1.2-0.9l27.6,4.1
		c0.6,0.1,0.9,0.6,0.9,1.2C1636.6,432.2,1636.2,432.6,1635.7,432.6z"/>
	<path class="st6" d="M1701.9,431.8c-0.1,0-0.1,0-0.2,0l-40.6-6c-0.6-0.1-0.9-0.6-0.9-1.2s0.6-0.9,1.2-0.9l40.6,6
		c0.6,0.1,0.9,0.6,0.9,1.2C1702.8,431.5,1702.4,431.8,1701.9,431.8z"/>
	<path class="st7" d="M1516,668.4l-209,23.5c-4,0.5-7.6-2.4-8.1-6.5l-15.1-133.9c0-0.2,0.1-0.4,0.3-0.4l222.7-25.1
		c0.2,0,0.4,0.1,0.4,0.3l15.1,133.9C1522.8,664.3,1519.9,667.9,1516,668.4z"/>
	<path class="st12" d="M1506.2,668.4l-189,23.5c-4,0.5,58.6-79.8,58.1-83.8l-91.5-56.5c0-0.2,0.1-0.4,0.3-0.4l222.7-25.1
		c0.2,0,0.4,0.1,0.4,0.3l-76.2,75.4C1431.5,605.8,1510.2,667.9,1506.2,668.4z"/>
	<path class="st7" d="M1284.2,551.2l92.1-91.1c5.5-5.5,14-6.4,20.6-2.4l109.5,68c0.2,0.1,0.1,0.4-0.1,0.4l-222.4,25.1"/>
	<path class="st13" d="M1386.4,594.1l-69.2,96.3l189-21.3l-88.9-78.5C1408,582.4,1393.7,584,1386.4,594.1z"/>
	<path class="st6" d="M1295.4,485.2l145.6-16.4c9.5-1.1,18,4.8,19,13l9.3,83l-40.5,37.2l-53.5,6l-52.8-33l-9.1-80.4L1295.4,485.2z"
		/>
	<path class="st12" d="M1386.4,585.8l-69.2,104.6l189-21.3l-88.9-86.8C1408,574.1,1393.7,575.7,1386.4,585.8z"/>
	<path class="st7" d="M1386.4,594.1l-69.2,96.3l189-21.3l-88.9-78.5C1408,582.4,1393.7,584,1386.4,594.1z"/>
	<path class="st4" d="M1393.1,615.4l-50.8,70.7l138.8-15.6l-65.3-57.7C1409,606.8,1398.4,608,1393.1,615.4z"/>
	<line class="st14" x1="1284.2" y1="551.4" x2="1375.3" y2="608.1"/>
	<line class="st14" x1="1507.3" y1="526.2" x2="1431.1" y2="601.8"/>
	<path class="st8" d="M1317.4,531.7l-25.4,2.9l-4.1-36.2c-0.8-6.7,4.1-12.7,10.8-13.5l1.2-0.1c6.7-0.8,12.7,4.1,13.5,10.8
		L1317.4,531.7z"/>
	<path class="st9" d="M1334.7,512.8c-0.5,0-0.9-0.4-1-0.9c-0.1-0.6,0.3-1.1,0.9-1.1l105.5-11.9c0.6-0.1,1.1,0.3,1.1,0.9
		c0.1,0.6-0.3,1.1-0.9,1.1L1334.7,512.8C1334.8,512.8,1334.7,512.8,1334.7,512.8z"/>
	<path class="st9" d="M1338.7,548.7c-0.5,0-0.9-0.4-1-0.9c-0.1-0.6,0.3-1.1,0.9-1.1l105.5-11.9c0.6-0.1,1.1,0.3,1.1,0.9
		c0.1,0.6-0.3,1.1-0.9,1.1L1338.7,548.7C1338.8,548.7,1338.8,548.7,1338.7,548.7z"/>
	<path class="st9" d="M1336.7,530.5c-0.5,0-0.9-0.4-1-0.9c-0.1-0.6,0.3-1.1,0.9-1.1l45.6-5.1c0.6-0.1,1.1,0.3,1.1,0.9
		c0.1,0.6-0.3,1.1-0.9,1.1L1336.7,530.5C1336.8,530.5,1336.7,530.5,1336.7,530.5z"/>
	<path class="st9" d="M1394.2,524.1c-0.5,0-0.9-0.4-1-0.9c-0.1-0.6,0.3-1.1,0.9-1.1l47.9-5.4c0.6,0,1.1,0.3,1.1,0.9
		c0.1,0.6-0.3,1.1-0.9,1.1L1394.2,524.1C1394.3,524.1,1394.2,524.1,1394.2,524.1z"/>
	<path class="st9" d="M1341,569c-0.5,0-0.9-0.4-1-0.9c-0.1-0.6,0.3-1.1,0.9-1.1l45.6-5.1c0.6-0.1,1.1,0.3,1.1,0.9
		c0.1,0.6-0.3,1.1-0.9,1.1L1341,569C1341.1,569,1341.1,569,1341,569z"/>
</g>
<g>
	<g>
		<path class="st15" d="M1804,539.6h-617.6c-1.1,0-1.9-0.9-1.9-1.9c0-1.1,0.9-1.9,1.9-1.9H1804c1.1,0,1.9,0.9,1.9,1.9
			C1805.9,538.7,1805,539.6,1804,539.6z"/>
	</g>
	<g>
		<path class="st11" d="M1503.5,539.2c0,0-4.6,17.8-38.7,12.4c-27.9-3.9-113.8-7-113.8-7c-27.1-3.9-47.2-26.3-48.8-53.4l-4.6-75.8
			c-1.5-27.9,17.8-52.6,45.7-56.5l55-13.2l54.2,5.4c18.6,2.3,33.3,16.3,37.2,34.1l8.5,96l113.8,36.4l-5.4,27.9l-59.6-5.4"/>
		<path class="st15" d="M1476.9,554.6c-3.7,0-7.8-0.3-12.4-1.1c-27.4-3.8-112.7-6.9-113.5-6.9c-27.8-4-49-27.2-50.6-55.2l-4.6-75.8
			c-1.6-29.4,18.7-54.6,47.3-58.5l54.8-13.1c0.2-0.1,0.4-0.1,0.6,0l54.2,5.4c19.2,2.4,34.7,16.7,38.8,35.6l8.4,94.9l112.5,36
			c0.9,0.3,1.5,1.2,1.3,2.2l-5.4,27.9c-0.2,1-1.1,1.7-2.1,1.6l-59.6-5.4c-1.1-0.1-1.9-1-1.8-2.1s0.9-1.9,2.1-1.8l57.9,5.3l4.8-24.5
			L1497.5,483c-0.7-0.2-1.3-0.9-1.3-1.7l-8.5-96c-3.7-17-18-30.1-35.5-32.3l-53.8-5.4l-54.6,13.1c-26.8,3.7-45.7,27.1-44.2,54.5
			l4.6,75.8c1.5,26.2,21.3,47.9,47.1,51.6c0.7,0,86.1,3.1,113.8,7c31.8,5,36.4-10.3,36.6-11c0.3-1,1.4-1.6,2.4-1.4
			c1,0.3,1.6,1.3,1.4,2.4C1505.2,540.4,1501.2,554.6,1476.9,554.6z"/>
	</g>
	<g>
		<path class="st15" d="M1532.4,527.4c-1.5,0-3.2-0.1-5-0.2c-1.1-0.1-1.9-1-1.8-2.1s0.9-2,2.1-1.8c11.6,0.9,14.4-1.5,14.5-2.2
			c0-0.3-0.4-0.8-1-1c-1.2-0.2-3.3-0.4-5.8-0.5c-6.8-0.5-15.3-1.1-19.6-3.6c-11.4-7.6-22.4-7.9-27.7-4.2c-1.3,2.1-3.5,2.9-5.5,3.6
			c-9.4,3.9-20,4.8-30.5,2.4l-96.7-22.4c-0.8-0.2-1.4-0.9-1.5-1.8L1350,427c-0.1-1.1,0.8-2,1.8-2c1.1-0.1,2,0.8,2,1.8l3.8,65.1
			l95.3,22.1c9.6,2.2,19.4,1.5,28.2-2.2c2.3-0.8,3.2-1.3,3.7-2.2c0.1-0.3,0.3-0.5,0.6-0.7c7.4-5.6,20.7-4,32.4,3.8
			c3.4,1.9,12.1,2.6,17.8,3c2.6,0.2,4.8,0.4,6.2,0.6c2.7,0.5,4.5,2.9,4.2,5.3C1545.7,524,1543.4,527.4,1532.4,527.4z"/>
	</g>
	<g>
		<path class="st15" d="M1528.8,548.6c-2.6,0-5.9-0.9-10.1-4c-0.9-0.6-1.1-1.8-0.4-2.7c0.6-0.9,1.8-1.1,2.7-0.4
			c5.4,3.8,8.5,3.4,9.9,2.8c0.9-0.4,1.4-0.9,1.6-1.3c-2.4-2-10.1-8.4-16.9-13.1c-0.9-0.6-1.1-1.8-0.5-2.7s1.8-1.1,2.7-0.5
			c5.7,4,12.2,9.2,15.7,12.1c0.2,0.1,0.4,0.1,0.6,0.3c5,3.4,8,3.1,9.3,2.6c0.7-0.3,1.2-0.7,1.4-1c-3.1-2.6-14.8-11.4-22.3-17
			c-0.9-0.6-1-1.9-0.4-2.7c0.6-0.9,1.9-1,2.7-0.4c3.6,2.7,21.9,16.4,23.4,18c0.2,0.2,0.3,0.3,0.4,0.5c0.7,1.5,0.1,3.4-1.6,4.9
			c-1.1,1-4.8,3.4-11,0.7c-0.4,0.7-0.9,1.4-1.6,2C1533.5,547.5,1531.6,548.6,1528.8,548.6z"/>
	</g>
	<g>
		<path class="st15" d="M1440.8,550.4c-0.9,0-1.7-0.6-1.9-1.5c-3.5-14.9-1.9-26.5,5-35.7c0.7-0.9,1.9-1,2.7-0.4
			c0.9,0.6,1,1.9,0.4,2.7c-6.1,8.2-7.5,18.8-4.3,32.4c0.2,1-0.4,2.1-1.4,2.3C1441.1,550.4,1441,550.4,1440.8,550.4z M1515.1,549.2
			c-3.1,0-7.4-1.4-12.9-6.2c-0.8-0.7-0.9-1.9-0.2-2.7c0.7-0.8,1.9-0.9,2.7-0.2c6.6,5.8,10.7,5.4,12.2,5c0.9-0.3,1.4-0.7,1.7-1
			c-0.4-0.4-1.1-0.9-1.9-1.5c-2.3-1.7-5.7-4.3-9-7.2c-0.8-0.7-0.9-1.9-0.2-2.7c0.7-0.8,1.9-0.9,2.7-0.2c3.3,2.8,6.6,5.4,8.9,7.1
			c1.5,1.1,2.5,2,2.8,2.3c1.2,1.2,1,3.3-0.5,5C1521,547.1,1518.9,549.2,1515.1,549.2z M1519.2,544.5L1519.2,544.5L1519.2,544.5z"/>
	</g>
	<g>
		<path class="st16" d="M1435.4,577.1c20.1,2.3,96,1.5,131.6,0.8l0,0c14.7,0.8,34.8,0.8,56.5,0.8c-26.3,0-48.8-0.8-58-2.3
			c-19.3-3.9,34.1-161.8,48-161.8H1598c-10.8-2.3-44.1,93.6-51.1,140.9c-29.4,0-84.4,0.8-89.8,1.5
			C1449.4,557.8,1428.5,576.4,1435.4,577.1L1435.4,577.1z"/>
		<path class="st15" d="M1623.5,580.6c-21.5,0-41.8,0-56.6-0.8c-27.2,0.6-110,1.7-131.7-0.8c-2.3-0.3-3.1-1.9-3.1-3.2
			c0-6,18.1-20.1,24.8-20.8c5.4-0.8,58.2-1.5,88.3-1.6c6.9-43.8,36-130.6,49.4-139.9c1.3-0.9,2.6-1.2,3.8-1h15.1
			c1.3-0.1,1.9,0.9,2,1.9c0,1.1-0.9,1.9-1.9,1.9c-8.3,0.4-46.9,100.3-50.1,144.1c-0.7,9.7,0.8,13.5,2.4,13.8
			c8.7,1.4,29.7,2.3,57.7,2.3c1.1,0,1.9,0.9,1.9,1.9C1625.4,579.8,1624.6,580.6,1623.5,580.6z M1436.1,575.3
			c19,2.1,84.7,1.6,125.5,0.8c-2.2-3-2.9-8.9-1.9-18.2c3.3-32.9,31.9-121.7,48.2-141.4h-10c0,0,0,0-0.1,0
			c-8.9,0-41.8,89.5-49.1,139.2c-0.1,1-1,1.7-1.9,1.7c-31.9,0-84.5,0.8-89.5,1.5C1451.4,559.5,1437.8,571.5,1436.1,575.3z"/>
	</g>
	<g>
		<path class="st11" d="M1783.7,433.2c4.6,5.4-33.3,99.1-49.5,133.9c-2.3,5.4-8.5,10.1-14.7,10.1c0,0-124.6,5.4-154.8,0
			c-19.3-3.9,34.8-164.1,48-161.8C1676.1,426.2,1765.9,413.1,1783.7,433.2z"/>
		<path class="st15" d="M1618.5,581.5c-23.1,0-43.9-0.6-54.1-2.5c-6.4-1.3-7.4-12.1-3.2-34.2c7.8-41.1,38.4-131.4,51.4-131.4
			c0.2,0,0.3,0,0.5,0c26.2,4.5,57.7,4.8,85.5,5.2c40.6,0.5,75.7,0.9,86.7,13.3l0,0c6.6,7.6-40.9,118.1-49.2,136
			c-2.7,6.3-9.8,11.2-16.5,11.2C1716.2,579.2,1663,581.5,1618.5,581.5z M1612.3,417.3c-8.3,0.8-47.5,102.7-49.8,145.7
			c-0.5,8.6,1,11.9,2.5,12.2c29.6,5.3,153.1,0,154.3,0c5.2,0,10.9-3.9,13-8.9c19-40.6,51.8-124.4,49.7-132
			c-10-11-45.8-11.4-83.7-11.8C1670.5,422.2,1638.9,421.8,1612.3,417.3z"/>
	</g>
	<g>
		
			<ellipse transform="matrix(0.7419 -0.6705 0.6705 0.7419 96.901 1246.7316)" class="st17" cx="1667.9" cy="497.5" rx="16.3" ry="13.2"/>
	</g>
	<g>
		<path class="st15" d="M1457.9,258.3c0,26.3-23.2,48-51.9,48c-28.6,0-51.9-21.7-51.9-48c0-27.1,23.2-48,51.9-48
			C1433.9,209.5,1457.9,231.2,1457.9,258.3z"/>
	</g>
	<g>
		<path class="st11" d="M1422.3,347.3c-8.5,21.7-35.6,27.9-49.5,4.6l0,0c8.5-20.9-4.6-35.6-7-43.3c-4.6-17-9.3-59.6,23.2-64.2
			s47.2,17,47.2,17s7.7,62.7-24,67.3C1414.5,341.1,1422.3,347.3,1422.3,347.3z"/>
		<path class="st15" d="M1396.1,368.6c-9.9,0-19-5.6-25-15.7c-0.3-0.5-0.4-1.2-0.1-1.7c6.3-15.3,0.3-26.9-4-35.4
			c-1.3-2.5-2.4-4.7-3-6.6c-1-3.5-8.9-34.6,3.6-53.7c4.8-7.3,11.9-11.7,21.2-13c33.3-4.8,48.5,16.9,49.1,17.9
			c0.2,0.3,0.3,0.5,0.3,0.9c0.3,2.6,7.3,62.1-23.6,69.1c2.5,10.2,8.9,15.5,9,15.5c0.7,0.5,0.9,1.4,0.6,2.2
			c-4.6,11.7-14.5,19.6-25.8,20.5C1397.5,368.6,1396.8,368.6,1396.1,368.6z M1374.9,351.7c5.7,9,14,13.7,23.1,12.9
			c9.4-0.8,17.7-7.2,22-16.9c-2.4-2.3-7.7-8.5-9.7-18.7c-0.1-0.5,0-1.1,0.3-1.5s0.8-0.7,1.3-0.8c28.1-4.1,23-59,22.4-64.7
			c-2.1-2.9-16.2-19.9-45.1-15.8c-8.1,1.2-14.4,5-18.5,11.3c-9.4,14.3-6.4,38.5-3.1,50.5c0.5,1.5,1.5,3.6,2.7,5.9
			C1374.7,322.5,1381.2,335.2,1374.9,351.7z"/>
	</g>
	<g>
		<path class="st15" d="M1369.6,318.6c-7.7-13.2-3.1-29.4-3.1-29.4c-3.9-18.6,13.9-22.4,13.9-22.4c24.8,3.9,33.3-20.9,33.3-20.9
			c-2.3,13.9,7,13.2,15.5,18.6s7,10.1,7,10.1v13.9c20.1-10.1,20.9-49.5-0.8-60.4c-21.7-10.1-23.2,10.1-23.2,10.1
			c-7-22.4-33.3-20.1-33.3-20.1c-63.5,11.6-45.7,85.1-45.7,85.1C1341,326.4,1350.3,330.2,1369.6,318.6z"/>
	</g>
	<g>
		<path class="st11" d="M1375.1,289.2c-1.5-5.4-7-8.5-13.9-7c-6.2,1.5-10.1,7-8.5,12.4c1.5,5.4,7.7,9.3,13.2,7.7"/>
		<path class="st15" d="M1363.3,304.7c-5.5,0-11-3.9-12.6-9.5c-0.8-2.8-0.4-5.8,1.1-8.4c1.8-3.1,5-5.4,8.8-6.4
			c7.7-1.7,14.4,1.7,16.3,8.3c0.3,1-0.3,2.1-1.3,2.4s-2.1-0.3-2.4-1.3c-1.3-4.6-6-6.9-11.7-5.6c-2.8,0.7-5.1,2.4-6.4,4.5
			c-1,1.7-1.2,3.6-0.7,5.4c1.3,4.5,6.5,7.6,10.8,6.4c1-0.3,2.1,0.3,2.4,1.3s-0.3,2.1-1.3,2.4
			C1365.3,304.5,1364.3,304.7,1363.3,304.7z"/>
	</g>
	<g>
		<path class="st15" d="M1403.2,317.5c-6.3,0-9.7-4.3-10.6-6.7c-0.4-1,0.1-2.1,1.1-2.5s2.1,0.1,2.5,1.1c0.2,0.5,2,4.8,8.1,4.2
			c1-0.2,2,0.7,2.1,1.7c0.1,1.1-0.7,2-1.7,2.1C1404.2,317.5,1403.7,317.5,1403.2,317.5z M1415.3,304.3h-3.1c-1.1,0-1.9-0.9-1.9-1.9
			c0-1.1,0.9-1.9,1.9-1.9h2.3l1.1-1.1c-0.2-0.8-0.5-1.6-1-2.5c-1.5-0.8-3-1.7-4-3.4c-2.8-3-3.5-7.6-1.7-11.3c0.5-1,1.7-1.3,2.6-0.9
			c1,0.5,1.3,1.6,0.9,2.6c-1.1,2.3-0.6,5.2,1.2,7.1c0.2,0.2,0.3,0.3,0.4,0.5c0.5,1,1.6,1.5,3,2.2c0.4,0.2,0.7,0.5,0.9,0.9
			c0.8,1.7,1.8,3.5,1.8,5.5c0,0.5-0.2,1-0.6,1.4l-2.3,2.3C1416.3,304.1,1415.8,304.3,1415.3,304.3z"/>
	</g>
	<g>
		<path class="st15" d="M1397.5,286.9c0,2.3-1.5,3.9-3.1,3.9s-3.1-1.5-3.1-3.9c0-2.3,1.5-3.9,3.1-3.9
			C1396,282.3,1397.5,284.6,1397.5,286.9z M1428.5,285.4c0,2.3-1.5,3.9-3.1,3.9c-1.5,0-3.1-1.5-3.1-3.9c0-2.3,1.5-3.9,3.1-3.9
			C1427.7,281.5,1428.5,283,1428.5,285.4z"/>
	</g>
	<g>
		<path class="st15" d="M1459.4,518.7c-1,0-1.9-0.8-1.9-1.9l-1.5-38.7c0-0.7,0.4-1.5,1-1.8c6-3.1,9.6-7.2,10.7-12.3
			c2.1-9.7-5.2-20.9-9.7-26.6c-4.8-5.6-8.1-13.6-8.9-21.9c-0.1-1.1,0.7-2,1.7-2.1c1-0.2,2,0.7,2.1,1.7c0.7,7.4,3.7,14.8,8,19.8
			c5,6.4,13,18.6,10.5,29.9c-1.3,5.9-5.2,10.7-11.6,14.3l1.5,37.5C1461.4,517.8,1460.6,518.7,1459.4,518.7
			C1459.5,518.7,1459.4,518.7,1459.4,518.7z M1406.7,331.7c-2.9,0-6-0.7-8.9-3c-0.8-0.7-1-1.9-0.3-2.7c0.7-0.8,1.9-1,2.7-0.3
			c3,2.4,6.7,2.8,12.2,1.2c1-0.3,2.1,0.3,2.4,1.3s-0.3,2.1-1.3,2.4C1411.6,331.1,1409.2,331.7,1406.7,331.7z M1365,294.3
			c-0.4,0-0.7-0.1-1.1-0.3l-2.3-1.5c-0.9-0.6-1.1-1.8-0.5-2.7c0.6-0.9,1.8-1.1,2.7-0.5l2.3,1.5c0.9,0.6,1.1,1.8,0.5,2.7
			C1366.2,294,1365.6,294.3,1365,294.3z M1387.4,278.8c-0.4,0-0.9-0.1-1.2-0.4c-0.8-0.7-1-1.9-0.3-2.7c3.6-4.5,10.2-5,15.1-1.1
			c0.8,0.7,1,1.9,0.3,2.7c-0.7,0.8-1.9,1-2.7,0.3c-1.5-1.3-3.4-2-5.2-1.8c-1.3,0.1-3,0.5-4.5,2.3
			C1388.6,278.5,1388,278.8,1387.4,278.8z M1418.4,278c-0.4,0-0.9-0.1-1.2-0.4c-0.8-0.7-1-1.9-0.3-2.7c3.6-4.5,10.2-5,15.1-1.1
			c0.8,0.7,1,1.9,0.3,2.7c-0.7,0.8-1.9,1-2.7,0.3c-3.2-2.6-7.4-2.4-9.7,0.5C1419.5,277.8,1419,278,1418.4,278z"/>
	</g>
	<g>
		<path class="st18" d="M1509,239.7V338c0,4.6,3.9,7.7,7.7,7.7h22.4l-9.3,24c-1.5,4.6,3.1,8.5,7,6.2l60.4-30.2h123.1
			c4.6,0,7.7-3.9,7.7-7.7V235.8c0-4.6-3.9-7.7-7.7-7.7c-24,0-48,1.5-71.2,1.5c-29.4-0.8-58,0.8-87.5,2.3
			c-15.5,0.8-30.2-1.5-45.7-0.8C1512.1,232,1509,235.1,1509,239.7z"/>
	</g>
	<g>
		<path class="st11" d="M1671.7,319.8c-3.2,0-6.3-0.3-9.1-0.8c-7.5-1.7-14.1-5.9-18.2-11.6c-0.5-0.9-1-1.6-1.5-2.3
			c-0.7-0.9-1.3-1.8-1.7-2.6c-3.5-7.8-3.8-17.6-0.9-29.2c0.8-3.3,10.4-20.8,32.9-20.8c0.5,0,1,0,1.5,0l0,0c3.9,0,7.9,0.7,12.9,2.4
			c9.5,2.4,18,11.9,20.6,23.1c0.9,5.6,0.7,12-0.7,17.7c0,2.1-0.6,3.6-1.2,5.2l-0.5,1.3c-0.5,1-0.8,1.9-1.2,2.8c-0.4,1-0.8,2-1.2,2.9
			c-3.6,5.4-9.5,7.9-14.3,9.5C1683.1,319,1677.2,319.8,1671.7,319.8z M1673.2,256.3c-20.2,0-28.5,15.1-29.2,17.9
			c-2.7,10.8-2.5,19.7,0.7,26.6c0.3,0.6,0.8,1.3,1.3,2c0.7,0.9,1.3,1.7,1.7,2.6c3.4,4.7,9.2,8.4,15.7,9.8c6.9,1.4,15.9,0.8,24.6-1.5
			c4.1-1.4,9.2-3.5,12-7.7c0.2-0.5,0.6-1.4,1-2.4s0.8-2,1.2-2.9l0.4-1.1c0.6-1.6,1-2.7,1-4.2c0-0.2,0-0.3,0.1-0.5
			c1.3-5.3,1.6-11.2,0.7-16.2c-2.2-9.7-9.6-18-17.9-20.1c-4.8-1.6-8.4-2.3-11.9-2.3C1674.1,256.3,1673.6,256.3,1673.2,256.3z"/>
	</g>
	<g>
		<path class="st11" d="M1705.5,295.4c0,2.3-0.8,3.9-1.5,6.2l-26.3-13.9c-2.3-1.5-3.9-3.9-3.9-6.2v-27.9c3.9,0,7.7,0.8,12.4,2.3
			c9.3,2.3,17,11.6,19.3,21.7C1707.1,283,1707.1,289.2,1705.5,295.4z"/>
	</g>
	<g>
		<path class="st11" d="M1598,303.5h-62c-1.1,0-1.9-0.9-1.9-1.9c0-1.1,0.9-1.9,1.9-1.9h61.9c1.1,0,1.9,0.9,1.9,1.9
			C1599.9,302.7,1599,303.5,1598,303.5z M1598,287.3h-62c-1.1,0-1.9-0.9-1.9-1.9c0-1.1,0.9-1.9,1.9-1.9h61.9c1.1,0,1.9,0.9,1.9,1.9
			C1599.9,286.4,1599,287.3,1598,287.3z M1598,271h-62c-1.1,0-1.9-0.9-1.9-1.9s0.9-1.9,1.9-1.9h61.9c1.1,0,1.9,0.9,1.9,1.9
			S1599,271,1598,271z"/>
	</g>
	<g>
		<path class="st15" d="M1285.9,284.9c0,5.1-3.6,9.4-8.7,9.4s-9.4-3.6-9.4-8.7L1285.9,284.9z"/>
	</g>
	<g>
		<path class="st19" d="M1203.5,198.1c0-2.2-0.7-4.3-0.7-7.2c-1.4-37.6,28.9-70.1,66.5-72.3c39-2.2,72.3,28.2,73.7,67.2v6.5
			c-1.4,34-31.1,60.7-65.8,61.4h-3.6C1239.7,255.9,1207.9,232.1,1203.5,198.1z"/>
	</g>
	<g>
		<path class="st16" d="M1284.5,285.6c8.7,0,15.2-7.2,15.2-15.9c0-4.3-1.4-10.8-3.6-18.1c-5.8,1.4-12.3,2.9-18.1,2.9h-4.3
			c-6.5,0-12.3,0-18.8-1.4c-1.4,7.2-2.2,14.5-2.2,18.8c0.7,8.7,8,15.2,16.6,14.5L1284.5,285.6z"/>
	</g>
	<g>
		<path class="st11" d="M1274,275c-7.8,0-15.7-0.9-23.9-2.8c-1-0.2-1.6-1.2-1.3-2.2c0.2-1,1.2-1.6,2.2-1.3
			c18.3,4.2,35.5,3.5,52.5-2.1c0.9-0.3,2,0.2,2.3,1.1s-0.2,2-1.1,2.3C1294.5,273.3,1284.4,275,1274,275z M1273.2,265.6
			c-7.8,0-15.7-0.9-23.9-2.8c-1-0.2-1.6-1.2-1.3-2.2c0.2-1,1.2-1.6,2.2-1.3c18.3,4.2,35.5,3.5,52.5-2.1c0.9-0.3,2,0.2,2.3,1.1
			s-0.2,2-1.1,2.3C1293.8,263.9,1283.6,265.6,1273.2,265.6z M1272.1,219.2c-1.3,0-2.6-0.2-4-0.5c-6-1.5-10.9-5.3-14.1-11
			c-1.2-1.6-2.3-3.4-3.3-5.2c-0.5,0.3-1,0.6-1.6,0.9c-5.2,3-13,2.7-19-0.8c-0.9-0.5-1.2-1.6-0.7-2.5s1.6-1.2,2.5-0.7
			c4.9,2.8,11.4,3.1,15.6,0.7c0.6-0.3,1.2-0.7,1.8-1.1c-1.4-3.5-2.3-7.4-2.7-11.7c0-3.3,0-8.1,4.3-9.2c3.2-1.1,5.4,0.6,6.8,1.9
			c2,2,2,4,2,6.3c0,5.3-2.2,10.2-5.9,13.7c0.9,1.9,2.1,3.8,3.4,5.5c2.9,5.1,6.9,8.2,12,9.4c8,2,15.7-4.6,18.1-11.8
			c3.1-9.4-1.3-19-4.2-23.8c-1.5-2.2-2.9-4.4-4.4-7.4c-1-2.9-0.9-7.1,0.8-9.8c2.3-3,6-4.1,10.6-2.9c3.6,1.8,6.2,5,7.1,8.5
			c0.7,2.7,1.5,6.6,1.5,9.8c0,2.6,0.2,5.2,0.4,7.6c0.2,2.4,0.3,4.7,0.3,6.8c0,1.6,0.3,4.5,2.1,5.7c1.3,0.9,3.5-0.3,5.2-1.4
			c3.6-2.9,5.7-6.8,5.7-10.8c0-1,0.8-1.8,1.8-1.8s1.8,0.8,1.8,1.8c0,5-2.6,10-7.2,13.7c-1.5,1-5.8,3.9-9.4,1.5
			c-2.4-1.6-3.7-4.6-3.7-8.7c0-2-0.2-4.3-0.3-6.6c-0.2-2.6-0.4-5.2-0.4-7.9c0-2.8-0.8-6.4-1.4-9c-0.6-2.5-2.5-4.9-4.8-6
			c-1.8-0.4-4.8-0.6-6.4,1.6c-1,1.5-1.1,4.5-0.5,6.3c1.3,2.5,2.6,4.6,4.1,6.7c3.3,5.5,8.2,16.2,4.6,27
			C1287.9,212.3,1280.7,219.2,1272.1,219.2z M1252.8,181.6c-0.3,0-0.6,0.1-1,0.2c-1.5,0.4-1.7,2.6-1.7,5.5c0.3,3.3,1,6.4,2,9.3
			c2.4-2.7,3.8-6.2,3.8-10c0-2.2,0-2.9-0.9-3.8C1254.2,181.9,1253.6,181.6,1252.8,181.6z"/>
	</g>
	<g>
		<path class="st15" d="M1353.4,461l13.2,24l42.6,20.9l-53.4-12.4L1353.4,461z"/>
		<path class="st15" d="M1409.1,507.9c-0.1,0-0.3,0-0.4-0.1l-53.4-12.4c-0.8-0.2-1.4-0.9-1.5-1.7l-2.3-32.5c-0.1-0.9,0.5-1.7,1.4-2
			c0.9-0.2,1.8,0.1,2.2,0.9l12.9,23.5l42,20.6c0.9,0.4,1.3,1.5,1,2.4C1410.7,507.4,1409.9,507.9,1409.1,507.9z M1357.5,492l35.6,8.3
			l-27.4-13.5c-0.4-0.2-0.7-0.5-0.8-0.8l-8.9-16.2L1357.5,492z"/>
	</g>
</g>
</svg>
