<?xml version="1.0" encoding="utf-8"?>
<!-- Generator: Adobe Illustrator 27.9.0, SVG Export Plug-In . SVG Version: 6.00 Build 0)  -->
<svg version="1.1" id="Layer_1" xmlns="http://www.w3.org/2000/svg" xmlns:xlink="http://www.w3.org/1999/xlink" x="0px" y="0px"
	 viewBox="0 0 500 500" style="enable-background:new 0 0 500 500;" xml:space="preserve">
<style type="text/css">
	.st0{display:none;}
	.st1{display:inline;}
	.st2{fill:#001466;}
	.st3{fill:#FFFFFF;}
	.st4{fill:#D10562;}
	.st5{fill:#0300FF;}
	.st6{fill:#EFEFEF;}
	.st7{fill:#76A7B2;}
</style>
<g id="Layer_1_00000027600095093528378370000006320809219425178027_">
	<g id="Layer_2_00000072273346686306898220000011236932458788509612_" class="st0">
		<g id="Layer_1-2" class="st1">
			<g>
				<path class="st2" d="M32.5,0h435C485.4,0,500,14.6,500,32.5v435c0,17.9-14.6,32.5-32.5,32.5h-435C14.6,500,0,485.4,0,467.5v-435
					C0,14.6,14.6,0,32.5,0z"/>
				<g>
					<path class="st3" d="M163.8,427.7c-28.3-3.2-51-12.3-68-27.3s-29-33.8-35.7-56.7s-8.7-47.5-5.7-74c3.2-28,10.8-52.2,23.3-72.8
						c12.3-20.7,29-36,49.8-46.2s45.7-13.7,74.7-10.3c9.8,1.2,19.5,3.3,29,6.8c9.5,3.3,18.2,7.8,25.8,13.2
						c7.8,5.3,14.3,11.8,19.5,19.7l13.8-122l74.2,8.3l-42.3,375.3l-72-8.2l2.5-31.3c-7.3,7.5-15.7,13.2-25.3,17.3
						c-9.7,4.2-19.7,6.8-30.2,8.2C186.5,429,175.5,429,163.8,427.7L163.8,427.7z M186.2,362.5c15.8,1.8,29.3-0.5,40.2-6.7
						c11-6.3,19.5-15,25.8-26.2s10.2-23.3,11.7-36.8c1.5-13.8,0.7-26.7-2.8-38.7c-3.5-12-9.8-22-19.2-30.2c-9.3-8.2-22-13-38.3-14.8
						s-29.8,0.3-40.5,6.7c-10.7,6.3-18.8,15.2-24.2,26.5c-5.3,11.3-8.8,23.8-10.3,37.2c-1.2,9.8-1,19.5,0.2,28.7
						c1.3,9.3,4.2,17.7,8.7,25.3c4.5,7.7,10.8,14,18.8,19C164.2,358,174.2,361.2,186.2,362.5L186.2,362.5z"/>
					<circle class="st3" cx="409" cy="403.8" r="38"/>
				</g>
			</g>
		</g>
	</g>
	<g id="Layer_3" class="st0">
		<g id="Layer_1-2_00000025431677141232884370000006570497652992931738_" class="st1">
			<g>
				<rect class="st4" width="500" height="500"/>
				<g>
					<path class="st3" d="M163.8,427.7c-28.3-3.2-50.9-12.3-68.1-27.3s-29-33.9-35.7-56.6c-6.7-22.8-8.6-47.4-5.6-73.9
						c3.1-27.9,10.9-52.2,23.2-72.8s28.9-36,49.8-46.2c20.8-10.2,45.7-13.6,74.7-10.3c9.9,1.1,19.6,3.4,29,6.8
						c9.4,3.4,18.1,7.8,25.9,13.1c7.8,5.4,14.3,11.9,19.5,19.6l13.8-121.9l74.2,8.4l-42.4,375.3l-72.1-8.2l2.5-31.4
						c-7.3,7.4-15.7,13.2-25.3,17.3c-9.6,4.1-19.7,6.8-30.2,8.1C186.6,429,175.5,429,163.8,427.7L163.8,427.7z M186.2,362.6
						c15.9,1.8,29.3-0.5,40.2-6.7c10.9-6.3,19.5-15,25.8-26.1s10.2-23.4,11.7-36.8c1.5-13.8,0.6-26.7-2.9-38.7
						c-3.5-12-9.9-22-19.2-30.1c-9.3-8-22.1-13-38.3-14.8s-29.8,0.4-40.5,6.7s-18.8,15.1-24.2,26.5s-8.9,23.8-10.4,37.2
						c-1.1,9.9-1,19.5,0.2,28.8c1.3,9.3,4.2,17.8,8.7,25.4c4.5,7.7,10.8,14,18.8,19C164.1,358,174.1,361.2,186.2,362.6L186.2,362.6z
						"/>
					<circle class="st3" cx="409" cy="403.9" r="38"/>
				</g>
			</g>
		</g>
	</g>
</g>
<g id="Layer_2_00000026884091373030204160000016717861262294133892_" class="st0">
	<g id="Layer_1-2_00000123436412741610268020000011306345093854560650_" class="st1">
		<g>
			<path class="st3" d="M32.5,0h435C485.4,0,500,14.6,500,32.5v435c0,17.9-14.6,32.5-32.5,32.5h-435C14.6,500,0,485.4,0,467.5v-435
				C0,14.6,14.6,0,32.5,0z"/>
			<g>
				<path class="st5" d="M174.5,405.6c-24.8-2.8-44.6-10.8-59.5-23.9s-25.4-29.6-31.3-49.6c-5.9-20-7.6-41.6-5-64.8
					c2.8-24.5,9.5-45.7,20.4-63.7c10.8-18.1,25.4-31.5,43.6-40.4s40-12,65.4-9c8.6,1.1,17.1,2.9,25.4,6c8.3,2.9,15.9,6.8,22.6,11.6
					c6.8,4.6,12.5,10.3,17.1,17.2l12.1-106.8l65,7.3l-37,328.5l-63-7.2l2.2-27.4c-6.4,6.6-13.7,11.6-22.1,15.1
					c-8.5,3.7-17.2,6-26.4,7.2C194.4,406.7,184.8,406.7,174.5,405.6L174.5,405.6z M194.1,348.5c13.8,1.6,25.6-0.4,35.2-5.9
					c9.6-5.5,17.1-13.1,22.6-22.9c5.5-9.8,8.9-20.4,10.2-32.2c1.3-12.1,0.6-23.4-2.5-33.9c-3.1-10.5-8.6-19.3-16.8-26.4
					c-8.1-7.2-19.3-11.4-33.5-13c-14.3-1.6-26.1,0.3-35.5,5.9c-9.4,5.5-16.5,13.3-21.2,23.2c-4.6,9.9-7.7,20.8-9,32.6
					c-1.1,8.6-0.9,17.1,0.2,25.1c1.1,8.1,3.7,15.5,7.6,22.1c3.9,6.7,9.5,12.3,16.5,16.6C174.9,344.6,183.6,347.4,194.1,348.5
					L194.1,348.5z"/>
				<circle class="st5" cx="389.2" cy="384.7" r="33.3"/>
			</g>
		</g>
	</g>
</g>
<g id="Layer_2_00000039114244807104403150000011592015396947873191_">
	<g id="Layer_2_00000157273331119715123200000008504608281938424196_">
		<g id="Layer_1-2_00000150093614898193846450000008418386645098129807_">
			<g>
				<path class="st6" d="M32.5,0h435C485.4,0,500,14.6,500,32.5v435c0,17.9-14.6,32.5-32.5,32.5h-435C14.6,500,0,485.4,0,467.5v-435
					C0,14.6,14.6,0,32.5,0z"/>
				<g>
					<path class="st7" d="M163.8,427.7c-28.3-3.2-51-12.3-68-27.3s-29-33.8-35.7-56.7s-8.7-47.5-5.7-74c3.2-28,10.8-52.2,23.3-72.8
						c12.3-20.7,29-36,49.8-46.2s45.7-13.7,74.7-10.3c9.8,1.2,19.5,3.3,29,6.8c9.5,3.3,18.2,7.8,25.8,13.2
						c7.8,5.3,14.3,11.8,19.5,19.7l13.8-122l74.2,8.3l-42.3,375.3l-72-8.2l2.5-31.3c-7.3,7.5-15.7,13.2-25.3,17.3
						c-9.7,4.2-19.7,6.8-30.2,8.2C186.5,429,175.5,429,163.8,427.7L163.8,427.7z M186.2,362.5c15.8,1.8,29.3-0.5,40.2-6.7
						c11-6.3,19.5-15,25.8-26.2s10.2-23.3,11.7-36.8c1.5-13.8,0.7-26.7-2.8-38.7c-3.5-12-9.8-22-19.2-30.2c-9.3-8.2-22-13-38.3-14.8
						s-29.8,0.3-40.5,6.7c-10.7,6.3-18.8,15.2-24.2,26.5c-5.3,11.3-8.8,23.8-10.3,37.2c-1.2,9.8-1,19.5,0.2,28.7
						c1.3,9.3,4.2,17.7,8.7,25.3c4.5,7.7,10.8,14,18.8,19C164.2,358,174.2,361.2,186.2,362.5L186.2,362.5z"/>
					<circle class="st7" cx="409" cy="403.8" r="38"/>
				</g>
			</g>
		</g>
	</g>
</g>
</svg>
