<?xml version="1.0" encoding="UTF-8"?>
<svg id="Layer_2" data-name="Layer 2" xmlns="http://www.w3.org/2000/svg" viewBox="0 0 300 300">
  <defs>
    <style>
      .cls-1 {
        fill: #fff;
      }

      .cls-1, .cls-2 {
        stroke-width: 0px;
      }

      .cls-2 {
        fill: #001466;
      }
    </style>
  </defs>
  <g id="Layer_1-2" data-name="Layer 1">
    <g>
      <rect class="cls-2" width="300" height="300"/>
      <g>
        <path class="cls-1" d="m98.27,256.62c-16.97-1.92-30.57-7.37-40.83-16.37-10.26-9-17.41-20.33-21.44-33.99-4.04-13.66-5.16-28.45-3.36-44.35,1.89-16.75,6.54-31.31,13.95-43.68,7.41-12.37,17.36-21.6,29.87-27.71,12.5-6.1,27.44-8.17,44.83-6.21,5.93.67,11.74,2.03,17.42,4.06,5.67,2.04,10.85,4.67,15.54,7.88,4.68,3.22,8.58,7.14,11.71,11.79l8.27-73.15,44.53,5.03-25.45,225.17-43.25-4.89,1.48-18.84c-4.37,4.45-9.43,7.9-15.18,10.36-5.75,2.47-11.79,4.09-18.1,4.88-6.32.78-12.97.79-19.97,0Zm13.43-39.07c9.54,1.08,17.59-.27,24.13-4.04,6.55-3.77,11.69-8.98,15.46-15.65,3.76-6.66,6.09-14.02,7.01-22.08.93-8.27.36-16.01-1.72-23.22-2.08-7.21-5.91-13.23-11.49-18.05-5.58-4.82-13.24-7.78-22.99-8.88-9.75-1.1-17.85.24-24.29,4.02-6.44,3.78-11.29,9.09-14.52,15.91-3.25,6.83-5.32,14.27-6.23,22.33-.67,5.94-.63,11.69.14,17.25.76,5.56,2.5,10.65,5.2,15.24,2.7,4.6,6.46,8.41,11.27,11.42,4.81,3.02,10.82,4.93,18.03,5.74Z"/>
        <circle class="cls-1" cx="245.41" cy="242.32" r="22.78"/>
      </g>
    </g>
  </g>
</svg>