<?xml version="1.0" encoding="utf-8"?>
<!-- Generator: Adobe Illustrator 27.9.0, SVG Export Plug-In . SVG Version: 6.00 Build 0)  -->
<svg version="1.1" xmlns="http://www.w3.org/2000/svg" xmlns:xlink="http://www.w3.org/1999/xlink" x="0px" y="0px"
	 viewBox="0 0 500 500" style="enable-background:new 0 0 500 500;" xml:space="preserve">
<style type="text/css">
	.st0{fill:#001466;}
	.st1{fill:#FFFFFF;}
	.st2{display:none;}
	.st3{display:inline;}
</style>
<g id="Layer_2_00000072273346686306898220000011236932458788509612_">
	<g id="Layer_1-2">
		<g>
			<rect x="-391" y="100" class="st0" width="300" height="300"/>
			<g>
				<path class="st1" d="M-292.7,356.6c-17-1.9-30.6-7.4-40.8-16.4s-17.4-20.3-21.4-34c-4-13.7-5.2-28.5-3.4-44.4
					c1.9-16.8,6.5-31.3,14-43.7c7.4-12.4,17.4-21.6,29.9-27.7c12.5-6.1,27.4-8.2,44.8-6.2c5.9,0.7,11.7,2,17.4,4.1
					c5.7,2,10.9,4.7,15.5,7.9c4.7,3.2,8.6,7.1,11.7,11.8l8.3-73.2l44.5,5l-25.4,225.2l-43.2-4.9l1.5-18.8
					c-4.4,4.5-9.4,7.9-15.2,10.4c-5.8,2.5-11.8,4.1-18.1,4.9C-279.1,357.4-285.7,357.4-292.7,356.6L-292.7,356.6z M-279.3,317.5
					c9.5,1.1,17.6-0.3,24.1-4c6.6-3.8,11.7-9,15.5-15.7c3.8-6.7,6.1-14,7-22.1c0.9-8.3,0.4-16-1.7-23.2c-2.1-7.2-5.9-13.2-11.5-18.1
					s-13.2-7.8-23-8.9c-9.8-1.1-17.9,0.2-24.3,4s-11.3,9.1-14.5,15.9c-3.2,6.8-5.3,14.3-6.2,22.3c-0.7,5.9-0.6,11.7,0.1,17.2
					c0.8,5.6,2.5,10.6,5.2,15.2c2.7,4.6,6.5,8.4,11.3,11.4C-292.5,314.8-286.5,316.7-279.3,317.5L-279.3,317.5z"/>
				<circle class="st1" cx="-145.6" cy="342.3" r="22.8"/>
			</g>
		</g>
	</g>
</g>
<g id="Layer_3" class="st2">
	<g id="Layer_1-2_00000025431677141232884370000006570497652992931738_" class="st3">
		<g>
			<rect class="st0" width="500" height="500"/>
			<g>
				<path class="st1" d="M163.8,427.7c-28.3-3.2-50.9-12.3-68.1-27.3s-29-33.9-35.7-56.6c-6.7-22.8-8.6-47.4-5.6-73.9
					c3.1-27.9,10.9-52.2,23.2-72.8s28.9-36,49.8-46.2c20.8-10.2,45.7-13.6,74.7-10.3c9.9,1.1,19.6,3.4,29,6.8
					c9.4,3.4,18.1,7.8,25.9,13.1c7.8,5.4,14.3,11.9,19.5,19.6l13.8-121.9l74.2,8.4l-42.4,375.3l-72.1-8.2l2.5-31.4
					c-7.3,7.4-15.7,13.2-25.3,17.3c-9.6,4.1-19.7,6.8-30.2,8.1C186.6,429,175.5,429,163.8,427.7L163.8,427.7z M186.2,362.6
					c15.9,1.8,29.3-0.5,40.2-6.7c10.9-6.3,19.5-15,25.8-26.1c6.3-11.1,10.2-23.4,11.7-36.8c1.5-13.8,0.6-26.7-2.9-38.7
					c-3.5-12-9.9-22-19.2-30.1c-9.3-8-22.1-13-38.3-14.8s-29.8,0.4-40.5,6.7c-10.7,6.3-18.8,15.1-24.2,26.5
					c-5.4,11.4-8.9,23.8-10.4,37.2c-1.1,9.9-1,19.5,0.2,28.8c1.3,9.3,4.2,17.8,8.7,25.4c4.5,7.7,10.8,14,18.8,19
					C164.1,358,174.1,361.2,186.2,362.6L186.2,362.6z"/>
				<circle class="st1" cx="409" cy="403.9" r="38"/>
			</g>
		</g>
	</g>
</g>
</svg>
