<svg id="Layer_1" data-name="Layer 1" xmlns="http://www.w3.org/2000/svg" viewBox="0 0 1013 488"><defs><style>.cls-1{fill:#a4c3b2;}.cls-2{fill:#6b9080;}.cls-3{fill:#686868;}.cls-4{fill:#333;}.cls-5{fill:#ffcec7;}.cls-6{fill:#7f7f7f;}.cls-11,.cls-12,.cls-13,.cls-7{fill:none;}.cls-7{stroke:#7f7f7f;stroke-linejoin:round;stroke-width:1.67px;}.cls-11,.cls-13,.cls-7{stroke-linecap:round;}.cls-8{fill:#fff;}.cls-9{fill:#ff8671;}.cls-10{fill:#0d0e0a;}.cls-11,.cls-12,.cls-13{stroke:#fff;stroke-miterlimit:10;}.cls-13{stroke-width:0.5px;}</style></defs><title>hero2</title><rect class="cls-1" x="0.5" y="0.5" width="1012.5" height="487.5"/><path class="cls-2" d="M605.8,527.78l-6.59-3.09-3.3-1.55-3.2-1.74-6.41-3.47c-2.1-1.22-4.15-2.52-6.22-3.78-4.19-2.47-8.13-5.31-12.15-8-2-1.33-3.93-2.84-5.88-4.28l-5.82-4.37-5.64-4.6c-1.86-1.56-3.79-3-5.58-4.68l-5.45-4.82c-.9-.8-1.83-1.59-2.71-2.42l-2.64-2.5-5.28-5c-1.76-1.67-3.42-3.44-5.14-5.15s-3.42-3.44-5.09-5.2l-4.9-5.37c-3.32-3.54-6.4-7.29-9.56-11-1.61-1.83-3.09-3.74-4.61-5.64l-4.54-5.68c-1.47-1.93-2.89-3.9-4.34-5.84s-2.91-3.88-4.25-5.91c-2.73-4-5.55-8-8.07-12.11-1.28-2.06-2.61-4.09-3.86-6.18l-3.63-6.31a140.84,140.84,0,0,1-6.69-13,163.93,163.93,0,0,1-9.68-27.54,153,153,0,0,1-4.44-28.9A130.92,130.92,0,0,1,450.2,315a94.33,94.33,0,0,1,2-14.65c2.16-9.65,5.81-19.17,11.73-27.37a33.32,33.32,0,0,1,2.25-3c.8-1,1.57-2,2.4-2.92l2.58-2.74c.85-.93,1.82-1.73,2.73-2.6a69.58,69.58,0,0,1,12.05-9,75.58,75.58,0,0,1,28.16-9.94,72.53,72.53,0,0,1,29.72,2c19.21,5.38,36.22,18.41,45.82,36l-4.28,1.24a39.69,39.69,0,0,1,3-17,59.58,59.58,0,0,1,8.62-14.63,96.9,96.9,0,0,1,11.56-12.13,146,146,0,0,1,13.06-10.34,133.65,133.65,0,0,1,14.22-8.64A131.24,131.24,0,0,1,651,212.43l2-.74c.66-.23,1.33-.44,2-.66,1.32-.42,2.65-.87,4-1.28,2.71-.69,5.39-1.49,8.16-2l2.06-.42,1-.2,1-.15,4.17-.57c1.4-.19,2.81-.21,4.21-.32l2.11-.14c.71,0,1.41,0,2.12,0a80.21,80.21,0,0,1,16.84,1.71,77.19,77.19,0,0,1,8.18,2.22c2.71.8,5.31,1.9,7.92,3a96.76,96.76,0,0,1,14.8,8.07l1.76,1.15c.59.39,1.14.83,1.71,1.24l3.38,2.5,3.24,2.68,1.61,1.35,1.54,1.43,3.06,2.87,2.91,3c.48.51,1,1,1.44,1.53l1.37,1.58c.9,1.07,1.83,2.11,2.72,3.2,1.68,2.23,3.47,4.37,5,6.71.78,1.16,1.61,2.29,2.35,3.47l2.19,3.57c.75,1.18,1.39,2.42,2,3.65s1.37,2.44,2,3.7c1.19,2.52,2.44,5,3.46,7.6a130.85,130.85,0,0,1,5.51,15.73,166.35,166.35,0,0,1,3.73,16.22l.63,4.11.32,2.05.24,2.07.48,4.12.34,4.14c.13,1.38.22,2.76.28,4.15l.22,4.14c0,2.77.18,5.54.14,8.31,0,5.53-.2,11.06-.55,16.59s-1.15,11-1.79,16.52c-.38,2.74-.92,5.46-1.37,8.19l-.74,4.1c-.26,1.36-.62,2.7-.92,4.05l-1.93,8.09-2.36,8-1.2,4L773,410.64c-.94,2.6-1.84,5.23-2.81,7.82-8.12,20.6-18.56,40.35-31.85,58.05a236.54,236.54,0,0,1-46.12,47.24,1.13,1.13,0,0,1-1.58-.2,1.11,1.11,0,0,1,.17-1.54h0a254.92,254.92,0,0,0,74.45-105.4c.92-2.56,1.76-5.13,2.65-7.69l1.32-3.85,1.13-3.91,2.28-7.8,1.94-7.9c.32-1.31.68-2.62,1-3.94l.8-4c.53-2.66,1.14-5.3,1.6-8,.8-5.36,1.76-10.71,2.29-16.11,2.34-21.56,1.1-43.67-5-64.46a127.48,127.48,0,0,0-5.52-15.23c-1-2.5-2.25-4.9-3.44-7.32-.59-1.21-1.29-2.36-1.93-3.55s-1.29-2.36-2-3.48L760.14,256c-.73-1.13-1.54-2.21-2.3-3.31-1.5-2.24-3.26-4.28-4.91-6.4-.86-1-1.77-2-2.65-3l-1.34-1.51c-.45-.5-.94-1-1.4-1.45l-2.83-2.86-3-2.71-1.48-1.35-1.57-1.27-3.12-2.52-3.27-2.34c-.55-.39-1.08-.79-1.64-1.16L729,225a91,91,0,0,0-14.16-7.43l-3.72-1.45c-1.22-.52-2.52-.83-3.78-1.25-2.52-.88-5.12-1.4-7.69-2-1.29-.33-2.61-.47-3.92-.72a37.36,37.36,0,0,0-3.94-.56l-4-.4c-1.32-.07-2.65-.1-4-.15-.67,0-1.33-.07-2-.07l-2,0c-1.34.05-2.67,0-4,.13l-4,.32-1,.09-1,.14-2,.29c-2.67.31-5.28,1-7.92,1.48-1.3.33-2.6.69-3.9,1-.65.18-1.3.34-2,.53l-1.91.65a110.26,110.26,0,0,0-28.71,14.84c-8.69,6.42-16.91,13.69-23.33,22.24a57.34,57.34,0,0,0-7.75,13.77,36.45,36.45,0,0,0-2.44,15.16h0a2.29,2.29,0,0,1-4.29,1.23c-9-16.35-25.15-28.52-43.12-33.43a67.62,67.62,0,0,0-13.75-2.28l-3.48-.13-3.48.13a33.39,33.39,0,0,0-3.46.29c-1.16.13-2.32.22-3.46.46l-3.42.61-3.38.86c-1.13.25-2.22.68-3.33,1a34.56,34.56,0,0,0-3.28,1.17A70.28,70.28,0,0,0,489,257.76c-1,.63-2,1.21-2.92,1.89l-2.83,2c-.94.67-1.81,1.44-2.72,2.16l-1.34,1.1-1.28,1.17a70,70,0,0,0-9.29,10.26c-1.42,1.83-2.62,3.8-3.88,5.74l-1.7,3c-.58,1-1,2.08-1.57,3.12a79.28,79.28,0,0,0-4.87,13.14,97.2,97.2,0,0,0-3.2,28.13,135.4,135.4,0,0,0,4.13,28.27,146.77,146.77,0,0,0,9.55,27,138,138,0,0,0,6.68,12.67l3.66,6.2c1.25,2,2.59,4,3.88,6.06a357.82,357.82,0,0,0,35.32,45.41,374.82,374.82,0,0,0,41.72,39.64l5.69,4.41c1.9,1.46,3.76,3,5.75,4.33,3.92,2.75,7.77,5.63,11.86,8.13,2,1.28,4,2.63,6.06,3.88L594,519.1l3.12,1.8,3.21,1.61,6.43,3.22.06,0a1.12,1.12,0,0,1-1,2Z" transform="translate(197.46 -122.5)"/><path class="cls-3" d="M689.33,610.48c5.76-12.15,7.56-25.58,7.36-38.42-.33-20.52-1.41-44-11.11-63.27,0,0-20.56,7.18-45.5-1.6s-28.79,1.56-28.79,1.56a15.69,15.69,0,0,1,.29,6.68c-.57,3.13-2.21,6.09-3.78,9C599.46,540.18,592.94,557,596,573.7c2.15,11.89,6.66,26.11,14.24,36.78Z" transform="translate(197.46 -122.5)"/><path class="cls-4" d="M570.79,338.43c1.16,7.64.9,10.93-1.47,15.08-2.72,4.76-2,7.69-1.8,13.17.12,4.32-2.79,8.21-2.93,12.53-.13,4.14-4,7.27-4.81,11.32-.9,4.36-1.19,12.65,5.29,18.75,9.18,8.64,21.16,7.34,33.62,6.45,8.75-.62,19.38-7,26.45-12.16,3.71-2.71,6-6.94,9.42-10,13.44-11.76,13-23.94,13.64-37.37s-1-28.54-9.66-38.84" transform="translate(197.46 -122.5)"/><path class="cls-3" d="M678.32,496.52a26.93,26.93,0,0,0,7.26,14.26c-5.67,3.4-11.5,6.86-18,8.06-18.75,3.45-38-13.35-56.29-8.12-1.2-6.7-4.28-9.12-7.44-15.24,0,0-19.43-33-21.07-60.39-.78-13,.76-28.94,10.67-37.41,2-1.7,5.7-4,8.15-6.46L636.4,385c3,.64,6,.79,9,1.29,3.56.59,7.22,1.8,9.6,4.51,0,0,15.38,16.54,17.14,61.35Z" transform="translate(197.46 -122.5)"/><path class="cls-5" d="M627.54,374.49c.83,4.78,3.71,9.05,7.17,10.08.56.17,1.12.31,1.69.44l-.08.34C632.69,397.14,620.19,397,620.19,397a24.79,24.79,0,0,1-18.59-5.81l.39-.41a6.44,6.44,0,0,0,1.86-3,43.42,43.42,0,0,0,1.73-8.57" transform="translate(197.46 -122.5)"/><path class="cls-2" d="M609.09,455a55.44,55.44,0,0,1-13.84-20.64c-2.35-6.19-3.5-13.4-.41-19.27A14.87,14.87,0,0,1,622,416.9c2.16,5.94,6.69,12.69,9.65,18.27.46.86,1.55,1.57,1.32,2.52a1.65,1.65,0,0,1-.51.72l-8.49,8c-4,3.75-8.28,8.12-13.36,10.13Z" transform="translate(197.46 -122.5)"/><path class="cls-5" d="M639.44,339.71a2.35,2.35,0,0,1,4-.26,4.7,4.7,0,0,1,.59,1.55,17.7,17.7,0,0,1,.67,4,6.42,6.42,0,0,1-1,3.87,4,4,0,0,1-3.49,1.72" transform="translate(197.46 -122.5)"/><path class="cls-5" d="M582.62,352a2.37,2.37,0,0,0-3.81,1.4,4.61,4.61,0,0,0,.09,1.65,17.68,17.68,0,0,0,1,3.94,6.48,6.48,0,0,0,2.54,3.11,4,4,0,0,0,3.89.16" transform="translate(197.46 -122.5)"/><path class="cls-5" d="M638.12,334.27c3.51,8.66,1.9,19.41-1.72,27.93s-9.55,14.43-18.06,17.54h0a29.84,29.84,0,0,1-23.47-8.44c-6.76-6.32-12-13.31-12.32-22.65a53.29,53.29,0,0,1,3.12-19.37c2.19-6.23,6.43-12.06,12.52-14.62a30,30,0,0,1,20.81-.93c6.78,2.2,13.86,8.11,16.66,14.67,1.05,2.46,1.31,3.54,2.39,6" transform="translate(197.46 -122.5)"/><path class="cls-6" d="M588.25,354.62a13.94,13.94,0,0,1,2.82-2.33,14.9,14.9,0,0,1,3.35-1.58,11.22,11.22,0,0,1,3.74-.48,8.52,8.52,0,0,1,3.61,1.08.52.52,0,0,1-.38,1h0a11.22,11.22,0,0,0-3.22-.48,13,13,0,0,0-3.21.52,19.74,19.74,0,0,0-3.09,1.28,26.77,26.77,0,0,0-2.92,1.74h0a.47.47,0,0,1-.62-.71Z" transform="translate(197.46 -122.5)"/><path class="cls-6" d="M611.74,345.89a15.14,15.14,0,0,1,.88,2.33c.23.77.44,1.54.64,2.31l.3,1.12c.05.19.1.34.16.52a6,6,0,0,1,.2.6,3,3,0,0,1,.09,1.57,1.49,1.49,0,0,1-.59.85,1.61,1.61,0,0,1-.83.28A.51.51,0,0,1,612,355a.48.48,0,0,1,.21-.46l.12-.09c.12-.09.23-.16.25-.23a.33.33,0,0,0,0-.17,3.23,3.23,0,0,0-.22-.79l-.21-.52c-.08-.2-.15-.43-.21-.63-.12-.41-.21-.81-.3-1.21-.18-.79-.32-1.58-.45-2.37s-.23-1.59-.36-2.32v0a.49.49,0,0,1,.39-.56A.47.47,0,0,1,611.74,345.89Z" transform="translate(197.46 -122.5)"/><path class="cls-6" d="M634.35,343.86a29.65,29.65,0,0,0-3.4,0,21.45,21.45,0,0,0-3.31.47,12.82,12.82,0,0,0-3,1.19,11.39,11.39,0,0,0-2.53,2l0,0a.52.52,0,0,1-.73,0,.53.53,0,0,1-.09-.65,8.68,8.68,0,0,1,2.57-2.76,11.17,11.17,0,0,1,3.46-1.49,14.84,14.84,0,0,1,3.69-.34,13.87,13.87,0,0,1,3.61.57.48.48,0,0,1-.17.94Z" transform="translate(197.46 -122.5)"/><path class="cls-4" d="M592.32,305.7a17.39,17.39,0,0,1,26.62-.06c1.49,1.75,2.65,3.83,4.52,5.16,3.56,2.54,8.67,1.71,12.39,4,4.35,2.69,5.24,8.52,5.78,13.6.14,1.34,1,9,1,9-2.44,3.79-20,1.36-23.26.52a11.4,11.4,0,0,1-7.72-6,20.59,20.59,0,0,1-16.85-12c1.51,6.54,1.25,15.14-2.2,20.9s-8.63,13.29-16.53,10.39l-.93-.06c-2.88-1.81-3.79-5.56-4.13-8.95a41.73,41.73,0,0,1,2.41-19.38,29,29,0,0,1,12.51-14.73,17.68,17.68,0,0,1,3.8-1.5A10.42,10.42,0,0,0,592.32,305.7Z" transform="translate(197.46 -122.5)"/><path class="cls-6" d="M619.13,361.28a6.75,6.75,0,0,1-4.52,2.42,6.64,6.64,0,0,1-5-1.3.52.52,0,0,1-.07-.74.53.53,0,0,1,.58-.16h0a9.57,9.57,0,0,0,4.25.54,9.23,9.23,0,0,0,4.05-1.46h0a.49.49,0,0,1,.67.14A.5.5,0,0,1,619.13,361.28Z" transform="translate(197.46 -122.5)"/><path class="cls-2" d="M665.6,401.58c10.09,3.41,17.73,11.77,23.51,20.72,3,4.72,5.83,10.08,5.22,15.66a7,7,0,0,1-1.38,3.75c-1.16,1.4-3,2-4.78,2.44a104.45,104.45,0,0,1-33.12,3.21,2.12,2.12,0,0,1-1.54-.54,2.06,2.06,0,0,1-.22-1.66c.56-3.68,5.14-1.67,6.71-11,2.38-14.17-3.61-19-9.28-25C650.72,409.15,654.76,397.92,665.6,401.58Z" transform="translate(197.46 -122.5)"/><path class="cls-6" d="M640.24,344.66a15.06,15.06,0,0,1-.8,5,11.67,11.67,0,0,1-2.7,4.35,13.37,13.37,0,0,1-9.25,3.89,16.1,16.1,0,0,1-5.14-.61,10.32,10.32,0,0,1-4.38-2.86,13.2,13.2,0,0,1-3.86-9.4,16,16,0,0,1,1-5l.45-1.21.55-1.18c.22-.37.47-.74.71-1.1s.57-.67.87-1a13.51,13.51,0,0,1,9.39-3.84,16.75,16.75,0,0,1,5.1.78,10.61,10.61,0,0,1,4.39,2.79A13.55,13.55,0,0,1,640.24,344.66Zm-.62,0a11.78,11.78,0,0,0-4-8.37,16.27,16.27,0,0,0-3.89-2.56,9.94,9.94,0,0,0-4.59-1,11.79,11.79,0,0,0-8.36,3.82c-.25.3-.52.58-.78.88s-.48.61-.73.91-.47.63-.69,1-.41.69-.58,1.05a10.24,10.24,0,0,0-.75,4.67,12.14,12.14,0,0,0,3.79,8.35,18.36,18.36,0,0,0,3.9,2.5,10,10,0,0,0,4.55,1.17,11.9,11.9,0,0,0,8.51-3.76A12.29,12.29,0,0,0,639.62,344.67Z" transform="translate(197.46 -122.5)"/><path class="cls-6" d="M609.17,351.45a15.18,15.18,0,0,1-.67,5,11.64,11.64,0,0,1-2.56,4.42,13.45,13.45,0,0,1-9.14,4.16,16.44,16.44,0,0,1-5.16-.47,10.3,10.3,0,0,1-4.45-2.73,13.21,13.21,0,0,1-4.14-9.29,16,16,0,0,1,.89-5.05l.42-1.22.51-1.2c.21-.38.45-.75.68-1.12s.55-.68.84-1a13.53,13.53,0,0,1,9.28-4.11,16.82,16.82,0,0,1,5.12.64,10.7,10.7,0,0,1,4.47,2.66A13.57,13.57,0,0,1,609.17,351.45Zm-.63,0a11.75,11.75,0,0,0-4.25-8.25,17,17,0,0,0-4-2.45,9.88,9.88,0,0,0-4.62-.87,11.76,11.76,0,0,0-8.25,4.06c-.24.3-.5.59-.75.89s-.47.63-.71.94-.45.64-.66,1-.39.69-.55,1.06a10.3,10.3,0,0,0-.62,4.69,12.13,12.13,0,0,0,4,8.24,18.22,18.22,0,0,0,4,2.39,10.16,10.16,0,0,0,4.59,1,11.94,11.94,0,0,0,8.39-4A12.27,12.27,0,0,0,608.54,351.48Z" transform="translate(197.46 -122.5)"/><path class="cls-7" d="M608.24,347.54a5.09,5.09,0,0,1,6.11-1.14" transform="translate(197.46 -122.5)"/><path class="cls-6" d="M669.59,281.14c-.3-3.61-1-8.66-1.28-12.27a2.75,2.75,0,0,0-.83-2.15,1.82,1.82,0,0,0-2.08.18,5,5,0,0,0-1.3,1.82,49.44,49.44,0,0,0-4,11.18Z" transform="translate(197.46 -122.5)"/><path class="cls-8" d="M657.51,468.11l3.78,18.41a43.3,43.3,0,0,0,2,7.43c.86,2.2,2.09,4.28,2.59,6.59s-1.1,4.67-2.33,6.69-3.2,3.26-5.15,4.48l-8.6,5.4c-3.39,2.13-7.24,4.34-11.14,3.48.33-5,5.73-7.66,9.43-11a5.43,5.43,0,0,0,1.78-2.49,5.73,5.73,0,0,0-.29-3c-2-7-5.86-13.28-8-20.2a71.45,71.45,0,0,1-2.82-26.2c.4-4.41.85-9,3.21-12.76a20.82,20.82,0,0,1,11-8,27.69,27.69,0,0,1,7.93-.52c5.66.16,12.41-.66,18.07-.49a94.79,94.79,0,0,0-20.16-32.31l-5.56-6.39c-18.31-20.92-10.63-54.12-10.63-54.12.46-6.93,1.07-11.74,1.14-16.85a16.51,16.51,0,0,0-1.13-6.91,14.61,14.61,0,0,0-3.49-4.59,36.38,36.38,0,0,0-9.83-6c-3.93-1.8-7.84-3.83-11-6.84S613,294.78,613,290.41c0-2.25.85-4.71,2.82-5.77,1.69-.9,3.75-.54,5.63-.2,7.92,1.44,16.34,2,23.76-1.11a47.89,47.89,0,0,1,20.75-4.2c4.52.11,8.79,2.1,13.19,3.13a5.93,5.93,0,0,0,3.86,0,6.7,6.7,0,0,0,2.23-2.2,38.42,38.42,0,0,1,5.09-5.5c.84-.74,1.89-1.49,3-1.21a2.45,2.45,0,0,1,1.62,2.11,6.53,6.53,0,0,1-.4,2.79c-1.21,4-3.18,7.75-4.52,11.73-3.92,11.61-4.21,16.23-7.66,27.67,0,0-.7,2.92-1.3,6.23-.8,4.4-2.26,12.86,3.73,26a78,78,0,0,0,9.38,14.77c8.19,10.67,17.68,20.41,24.38,32.1,7.78,13.54,23.5,38.39,14.44,67.12-2.27,7.2-7.55,19.95-14.64,23.1l-7.11,3.35c-7.24,2.21-7.17,10.8-7.17,10.8,1.38,6.26-2.81,12.24-6.67,17.36-15.94,21.13-30.72,45.44-29.77,71.89-4.59-4.32-6.29-11-5.93-17.32s2.54-12.32,4.7-18.24a149.23,149.23,0,0,1,8.13-19.45c6-11.32,15.19-23.1,17.2-35.76,0,0-21-6.06-29.81-23.35Z" transform="translate(197.46 -122.5)"/><path class="cls-6" d="M613.86,291.94a16.54,16.54,0,0,0,4.73-1.66,3.68,3.68,0,0,0,2.06-2.09c.38-1.46-.82-2.79-1.93-3.8,0,0-.32-.46-1.65-.19a4.46,4.46,0,0,0-3.3,2.69,8.75,8.75,0,0,0-.67,5.2Z" transform="translate(197.46 -122.5)"/><path class="cls-6" d="M645.5,292.29a2,2,0,1,1-2-2A2,2,0,0,1,645.5,292.29Z" transform="translate(197.46 -122.5)"/><path class="cls-8" d="M659.12,361.72c1.47,10,6.81,35.67.44,43.46a17.36,17.36,0,0,1-5.14,4.52c-3.08,1.63-6.7,1.77-10.19,1.8A274.2,274.2,0,0,1,613.64,410a10,10,0,0,0-2.92.57A5,5,0,0,0,609,413a11,11,0,0,0-.24,4,46.55,46.55,0,0,1-.16,6.36,7.72,7.72,0,0,1-1.42,4.37,4.32,4.32,0,0,1-5.09,1,7.57,7.57,0,0,1-3-3.81c-1.83-4-2.05-8.61-2.57-13-.69-5.68,2.88-11.19,7.58-14.45s11.37-2.92,16.92-4.31c4.61-1.16,18.38-1,21.43-11,.78-2.59.28-9.47-.6-13.94" transform="translate(197.46 -122.5)"/><path class="cls-9" d="M628.72,298.73c.52,1.35,1.22,3.59,1.73,4.94a25,25,0,0,1,1,2.88,5.68,5.68,0,0,1,.14,2.62,2.62,2.62,0,0,1-1.62,1.92c-1.27.39-2.56-.51-3.5-1.45-3.36-3.36-5-6.17-5.3-10.91" transform="translate(197.46 -122.5)"/><path class="cls-10" d="M632,297.83a16.79,16.79,0,0,1-8.72,1.69,16.55,16.55,0,0,1-8.39-2.95.34.34,0,0,1-.08-.48.33.33,0,0,1,.45-.1,20,20,0,0,0,8.1,2.42,19.66,19.66,0,0,0,8.38-1.16.31.31,0,0,1,.41.19A.31.31,0,0,1,632,297.83Z" transform="translate(197.46 -122.5)"/><path class="cls-5" d="M625.79,300.8c.5,1.55,1,3.09,1.66,4.57s1.35,2.95,2.1,4.39a.23.23,0,0,1-.39.24,22.11,22.11,0,0,1-2.38-4.35,22.5,22.5,0,0,1-1.39-4.75.21.21,0,0,1,.17-.24A.19.19,0,0,1,625.79,300.8Z" transform="translate(197.46 -122.5)"/><path class="cls-4" d="M695.29,372.91a3.44,3.44,0,0,1,2.24.77,3.81,3.81,0,0,1,.8.85,2.59,2.59,0,0,1,.46,1.14l-1.39,1.24a3,3,0,0,1-1-.37,3.92,3.92,0,0,1-.77-.54,4.4,4.4,0,0,1-1.21-1.61Z" transform="translate(197.46 -122.5)"/><path class="cls-4" d="M695.19,379.28a2.75,2.75,0,0,1,1.62.87,2.42,2.42,0,0,1,.49.72,2,2,0,0,1,.23.95l-1.4,1.24a2.14,2.14,0,0,1-.91-.35,2.6,2.6,0,0,1-.65-.58,2.76,2.76,0,0,1-.67-1.72Z" transform="translate(197.46 -122.5)"/><path class="cls-4" d="M700.88,381.15a4.38,4.38,0,0,1,2.49,1.46,4.78,4.78,0,0,1,.8,1.19,3.47,3.47,0,0,1,.35,1.44l-1.64.9a4.74,4.74,0,0,1-1-.75,7.5,7.5,0,0,1-.77-.83,8,8,0,0,1-1.26-2Z" transform="translate(197.46 -122.5)"/><path class="cls-4" d="M703.36,389.76a5,5,0,0,1,2,1.57,5.52,5.52,0,0,1,.65,1,3.65,3.65,0,0,1,.36,1.25l-1.5,1.12a3.55,3.55,0,0,1-1.09-.71,5.43,5.43,0,0,1-1.77-3.25Z" transform="translate(197.46 -122.5)"/><path class="cls-4" d="M731.5,450.45a2.4,2.4,0,0,1,.51,2,2.65,2.65,0,0,1-.36,1,1.86,1.86,0,0,1-.8.74l-1.68-.81a2.55,2.55,0,0,1-.16-.81,2.8,2.8,0,0,1,.06-.66,3.17,3.17,0,0,1,.72-1.32Z" transform="translate(197.46 -122.5)"/><path class="cls-4" d="M726.63,453.1a4.26,4.26,0,0,1,.38,2.79,4.49,4.49,0,0,1-.44,1.34,3.4,3.4,0,0,1-.91,1.14l-1.71-.74a4.24,4.24,0,0,1,0-1.22,6.63,6.63,0,0,1,.17-1.1,7.18,7.18,0,0,1,.83-2.19Z" transform="translate(197.46 -122.5)"/><path class="cls-4" d="M729.52,460.78a3.24,3.24,0,0,1,.46,2.84,3.14,3.14,0,0,1-1.87,2.19l-1.37-1.27a6.93,6.93,0,0,1,.37-1.77,10.48,10.48,0,0,1,.73-1.69Z" transform="translate(197.46 -122.5)"/><path class="cls-4" d="M724,467.12a3.81,3.81,0,0,1-.22,2.2,4.24,4.24,0,0,1-.5.94,3,3,0,0,1-.83.8l-1.73-.72a3,3,0,0,1,0-1.15,4.23,4.23,0,0,1,1.71-2.73Z" transform="translate(197.46 -122.5)"/><path class="cls-4" d="M656,403.69a2.23,2.23,0,0,1-.56,2.27,2.17,2.17,0,0,1-2.25.66l-.44-1.82a2.29,2.29,0,0,1,.56-.95,4.36,4.36,0,0,1,1-.55Z" transform="translate(197.46 -122.5)"/><path class="cls-4" d="M649.17,407.63a2.35,2.35,0,0,1-1.64,1.57,2.24,2.24,0,0,1-2.23-.41l.3-1.84a2.36,2.36,0,0,1,1.12-.62,3.42,3.42,0,0,1,1.33,0Z" transform="translate(197.46 -122.5)"/><path class="cls-4" d="M650.08,404.46a1.68,1.68,0,0,1-1,1.36,1.87,1.87,0,0,1-.81.17,1.38,1.38,0,0,1-.85-.3l-.21-1.86a1.66,1.66,0,0,1,.34-.53.79.79,0,0,1,.33-.23,1.81,1.81,0,0,1,1.07.08Z" transform="translate(197.46 -122.5)"/><path class="cls-4" d="M642.37,407.17a2.94,2.94,0,0,1-2.08.64,3.21,3.21,0,0,1-1-.24,2.29,2.29,0,0,1-.93-.66l.45-1.81a2.72,2.72,0,0,1,.93-.27,3.46,3.46,0,0,1,.85,0,3.69,3.69,0,0,1,1.7.65Z" transform="translate(197.46 -122.5)"/><path class="cls-3" d="M664.83,334.11a5.35,5.35,0,1,1-5.35-5.35A5.35,5.35,0,0,1,664.83,334.11Z" transform="translate(197.46 -122.5)"/><path class="cls-4" d="M680.81,326.06c-.72.39-1.44.76-2.17,1.12l-2.24,1-2.31.79-2.37.64a38.32,38.32,0,0,1-9.73,1,36.34,36.34,0,0,1-18.61-5.39l.88-1.64a47.65,47.65,0,0,0,17.8,4,46.6,46.6,0,0,0,9.13-.64l2.26-.44,2.23-.57,2.21-.66c.72-.27,1.45-.52,2.19-.77Z" transform="translate(197.46 -122.5)"/><path class="cls-5" d="M631.32,439.45c6,13.21,12.66,17.91,24.34,26.56C670,476.6,686.87,486.53,704.5,484c2.52-.37,3.81-3.06,6.07-4.25a4,4,0,0,1,2.24-.58,1.84,1.84,0,0,1,1.67,1.4,2.86,2.86,0,0,1-1.05,2.19l-3.25,3.51,13.61-2.73a1.1,1.1,0,0,1,.74,0c.35.2.37.7.28,1.09-.61,2.48-3.61,3.38-6.12,3.84,1.15.44,2.43.11,3.65.24s2.58,1.12,2.25,2.3c-.25.87-1.26,1.25-2.13,1.49l-4.92,1.4q3.12,0,6.23.23c0,.48,0,1-.07,1.44a18.47,18.47,0,0,1-6,1.81l4.35.12a.84.84,0,0,1,.13,1.18,2.32,2.32,0,0,1-1.13.69c-5.92,2.11-13.36,1.3-19.28-.81l-1.41,0q-55.14,1.77-86.48-43.61" transform="translate(197.46 -122.5)"/><path class="cls-11" d="M25.79,123a150.66,150.66,0,0,1,8.85,51.06,149.38,149.38,0,0,1-44,106.3,149.38,149.38,0,0,1-106.3,44A149.27,149.27,0,0,1-197,300.57" transform="translate(197.46 -122.5)"/><path class="cls-11" d="M11,123a136.19,136.19,0,0,1,9.86,51.06A136.56,136.56,0,0,1-115.69,310.62,135.88,135.88,0,0,1-197,283.8" transform="translate(197.46 -122.5)"/><path class="cls-11" d="M-15.81,123A111.62,111.62,0,0,1-3.54,174.06,112.15,112.15,0,0,1-115.69,286.21,111.8,111.8,0,0,1-197,251.33" transform="translate(197.46 -122.5)"/><circle class="cls-12" cx="679.61" cy="77.38" r="15.17"/><circle class="cls-12" cx="679.61" cy="77.38" r="10.58"/><circle class="cls-12" cx="87.67" cy="445.78" r="22.16"/><circle class="cls-12" cx="87.67" cy="445.78" r="15.47"/><path class="cls-13" d="M-110,569.23a7.92,7.92,0,0,1,.16-3,.6.6,0,0,0,0-.19,13,13,0,0,1,.21-3.13l1.06-1a9.76,9.76,0,0,1,.73-.71c.53-.43,1.07-.85,1.62-1.25,1.12-.8,2.24-1.6,3.37-2.39.71-.49,1.44-1,2.18-1.43.28-.17.54-.42.94-.25a.65.65,0,0,0,.47-.11,11.53,11.53,0,0,1,2.45-1,.47.47,0,0,1,.17,0,5,5,0,0,0,.86,0c1-.13,1.89-.26,2.82-.45a2,2,0,0,1,1.73.39,9.72,9.72,0,0,0,1.28.84,7.39,7.39,0,0,0,3.1.84,6,6,0,0,0,2.91-.52,1.55,1.55,0,0,0,.62-.42,1,1,0,0,0,.29-.67,2.34,2.34,0,0,0-.4-1.24,4,4,0,0,0-2.1-1.39,11.26,11.26,0,0,0-3.12-.19,17,17,0,0,0-3.44.94,1.31,1.31,0,0,0-.53.44,1.23,1.23,0,0,1-1,.51c-.78.07-1.56.17-2.34.25-.54,0-1.08.07-1.61.11,1.06-.71,2.15-1.33,3.24-1.93.32-.17.67-.28,1-.44.76-.37,1.52-.76,2.28-1.12a.65.65,0,0,1,.47,0,5.38,5.38,0,0,0,1.82.29,5.17,5.17,0,0,0,2.88-.29,5.42,5.42,0,0,1,1-.37,5.65,5.65,0,0,0,2.94-1.91,2.83,2.83,0,0,0,.74-2.3,1.19,1.19,0,0,0-.86-1.06,5,5,0,0,0-4,.4,24.83,24.83,0,0,0-3.11,2c-.73.53-1.38,1.19-2.06,1.79a.85.85,0,0,0-.32,1c-1.15.6-2.29,1.18-3.4,1.79s-2.17,1.2-3.22,1.84a26.2,26.2,0,0,1-3.4,1.88c-.26.12-.56.22-.51.63,0,.08-.15.2-.25.26-.59.41-1.19.8-1.79,1.19-1.24.83-2.48,1.64-3.71,2.48-.52.35-1,.75-1.55,1.16a1.72,1.72,0,0,1-.13-.54c0-.61.1-1.23.19-1.83s.26-1.35.38-2c.07-.35.12-.7.19-1.05a21.58,21.58,0,0,0,.47-2.37,13.93,13.93,0,0,1,.79-3.08c.57-1.79,1.25-3.54,1.89-5.3a12,12,0,0,1,.44-1.13c.48-1,1-2,1.46-3,.31-.63.64-1.25,1-1.87a1.49,1.49,0,0,1,.28-.34c.55-.47,1.13-.9,1.66-1.4a15.64,15.64,0,0,1,3-2c.84-.49,1.73-.89,2.6-1.31a.61.61,0,0,1,.42-.09,3.78,3.78,0,0,0,1.64.07c.76,0,1.53,0,2.29,0,.17,0,.46.09.5.21.16.5.54.58,1,.64a1.84,1.84,0,0,1,.52.23l.72.38c.24.14.48.28.73.41s.56.4.7.33c.39-.19.4.22.62.29a7.43,7.43,0,0,0,3.5.32,3,3,0,0,0,1.76-1.19,1.45,1.45,0,0,0,.33-1.06,1.76,1.76,0,0,0-1.32-1.49,10.36,10.36,0,0,0-3.83-.53,4.65,4.65,0,0,0-1.62.15c-.07,0-.17,0-.25,0a3.35,3.35,0,0,0-2,.59,1.24,1.24,0,0,1-.88.27c-1,0-1.92,0-2.87-.06a2.17,2.17,0,0,1-.42-.12c.15-.1.23-.17.32-.22.77-.4,1.54-.81,2.33-1.19a4.89,4.89,0,0,1,3.41-.42,7.81,7.81,0,0,0,3.78-.16,7.82,7.82,0,0,0,3.34-1.79,2.05,2.05,0,0,0,.82-1.18,4.8,4.8,0,0,0-.11-1.51,1,1,0,0,0-.48-.55,9.93,9.93,0,0,0-1.3-.55.47.47,0,0,0-.31,0,23.85,23.85,0,0,0-2.64.7,9.94,9.94,0,0,0-3.21,2.07A11,11,0,0,0-90,531.15a.59.59,0,0,1-.3.23c-1.37.65-2.76,1.27-4.13,1.93-1.21.58-2.42,1.16-3.6,1.8a16,16,0,0,0-2.85,1.74,3.22,3.22,0,0,1-.42.21,1.4,1.4,0,0,1,.09-.34c.59-1,1-2,1.6-2.93a16.53,16.53,0,0,0,1-2.26,22,22,0,0,1,1.87-3.76,8.9,8.9,0,0,0,.47-1c.06-.13.15-.25.22-.37.33-.6.67-1.19,1-1.78.41-.77.76-1.57,1.2-2.32a22.7,22.7,0,0,1,1.33-2c.59-.82,1.2-1.6,1.82-2.4a11.84,11.84,0,0,1,.81-.94,5.26,5.26,0,0,1,1.16-.87,20.11,20.11,0,0,1,4.27-2.15,3.21,3.21,0,0,1,1.81-.23c.64.16,1.27.37,1.91.5a8.82,8.82,0,0,0,4.86-.13c.68-.25,1.33-.55,2-.79a2.38,2.38,0,0,0,1.53-1.6,1.31,1.31,0,0,0-.18-1.44,2.5,2.5,0,0,0-2.64-.63c-.94.27-1.87.54-2.8.85a6.39,6.39,0,0,0-2,1,10.73,10.73,0,0,1-3.6,1.74,23.9,23.9,0,0,0-3.47,1.24,8.13,8.13,0,0,1-.91.33l-.09-.12a6.66,6.66,0,0,1,.48-.87c.54-.68,1.09-1.36,1.67-2s.91-1.32,1.79-1.5,1.34-.85,2.06-1.22c.51-.25.95-.65,1.47-.9a9.78,9.78,0,0,0,4.17-4.18,1.3,1.3,0,0,0,.16-.48c.07-.42.14-.84.2-1.26a1.41,1.41,0,0,0-1.82-1.62,4.88,4.88,0,0,0-2.48,1.39,5.5,5.5,0,0,1-.54.54,12.7,12.7,0,0,0-2.89,3.86c-.45.8-.81,1.64-1.26,2.44-.24.43-.44.82-.12,1.28-.23.27-.45.51-.65.76-.73.87-1.47,1.73-2.19,2.62-.42.53-.78,1.11-1.19,1.66-1,1.36-2.06,2.71-3.09,4.07a1.93,1.93,0,0,1-.34.24,2.92,2.92,0,0,1,.09-.56c.15-.44.35-.87.48-1.32s.26-1.11.37-1.67c.19-.94.35-1.88.54-2.82a1.5,1.5,0,0,1,.22-.5A17.26,17.26,0,0,0-89.88,511a10.21,10.21,0,0,0,1.33-3.91c0-.27,0-.55.06-.82a3.94,3.94,0,0,0-.34-2.25,1.62,1.62,0,0,0-.59-.72,2,2,0,0,0-2.13,0,3.47,3.47,0,0,1-.33.18,3.09,3.09,0,0,0-1.34,1.24,6,6,0,0,0-.58,4.57,11.74,11.74,0,0,0,1.86,3.95.71.71,0,0,1,.11.4,7,7,0,0,1-.11.76c-.15.81-.3,1.63-.46,2.44a4.23,4.23,0,0,1-.28.85,13.06,13.06,0,0,0-1.23,3.47.59.59,0,0,1,0,.19c-.4.82-.78,1.65-1.21,2.46-.71,1.35-1.46,2.69-2.18,4-.36.67-.69,1.37-1,2.05s-.56,1.4-.93,2.07c-.8,1.43-1.56,2.88-2.34,4.32-.55,1-1.11,2-1.62,3s-1,2-1.42,3c-.56,1.24-1.08,2.49-1.61,3.74a11.91,11.91,0,0,0-.43,1.13c-.18.54-.33,1.09-.5,1.63,0,.12-.16.21-.27.36-.13-.47-.25-.86-.32-1.25-.14-.81-.23-1.64-.37-2.45-.24-1.45-.53-2.88-.73-4.33-.17-1.2-.23-2.41-.36-3.62s-.33-2.53-.48-3.79c-.12-1-.2-1.95-.31-2.92-.09-.76-.21-1.51-.3-2.27a13.14,13.14,0,0,1-.15-1.65c0-.77-.37-1.62.39-2.27,0,0,.06-.15.09-.23a8.34,8.34,0,0,0,.59-2.53,20.66,20.66,0,0,0,0-4,5.47,5.47,0,0,0-1.27-3,2.06,2.06,0,0,0-1-.61.89.89,0,0,0-1.08.45,3.41,3.41,0,0,0-.32.55,8.27,8.27,0,0,0-.57,1.55,9.61,9.61,0,0,0-.08,1.78,3.36,3.36,0,0,0,.09.7c.09.45.24.9.29,1.36a6.12,6.12,0,0,0,1.61,3.45c.25.29.61.53.65,1,.12,1.38.24,2.76.41,4.14.2,1.67.47,3.33.69,5a2.32,2.32,0,0,1,0,1.25,1.25,1.25,0,0,1-.19-.15c-.64-1-1.3-1.93-1.91-2.92-.24-.39-.6-.83-.15-1.32a.18.18,0,0,0,0-.13,12.68,12.68,0,0,0-.17-2.4,8.88,8.88,0,0,0-2.28-3.87,1.38,1.38,0,0,0-2.36.6,2.27,2.27,0,0,0-.06.25,5,5,0,0,0,.22,2.64,11.43,11.43,0,0,0,1.16,2.32,3.83,3.83,0,0,0,2.68,1.87.67.67,0,0,1,.56.34c.3.51.59,1,.91,1.52a13.29,13.29,0,0,1,1.42,2.91c0,.14.09.36.18.39.43.13.38.48.42.8.18,1.59.37,3.17.56,4.76.09.71.18,1.43.29,2.14.26,1.77.54,3.53.8,5.3a.89.89,0,0,1,0,.43,37.93,37.93,0,0,0-1.08,4.6c-.38,2-.71,4.11-.89,6.19-.08,1-.17,2-.27,2.92a6.54,6.54,0,0,1-.18.69c-.48-.4-.88-.74-1.3-1.06-.84-.64-1.71-1.24-2.54-1.9-.47-.36-.86-.82-1.32-1.19-1.39-1.09-2.59-2.39-4-3.46a23,23,0,0,1-2.13-2.06,1.07,1.07,0,0,1-.3-.55,6.13,6.13,0,0,0-.86-2.35,6.75,6.75,0,0,0-2.27-2.36c-.46-.27-.91-.54-1.36-.83a3.36,3.36,0,0,0-1.59-.57,1.37,1.37,0,0,0-1.49,1.61A4.2,4.2,0,0,0-129,552a6.88,6.88,0,0,0,2.8,2.68c.67.35,1.38.65,2.07,1a2.67,2.67,0,0,0,1.81.38.59.59,0,0,1,.56.2c.61.59,1.22,1.19,1.85,1.76s1.23,1,1.82,1.6c.22.2.52.35.59.82l-3.65-.74c0-.65-.62-.79-1-1a8,8,0,0,0-2.71-.9,2.78,2.78,0,0,0-.88-.14,10.67,10.67,0,0,0-2.93.59,2.49,2.49,0,0,0-1.1,1.24.64.64,0,0,0,0,.43,1.84,1.84,0,0,0,1.42,1.24,2.65,2.65,0,0,1,.62.14,2.81,2.81,0,0,0,1.59.3c.44,0,.9.08,1.33,0a6.75,6.75,0,0,0,2.18-.64,3.49,3.49,0,0,1,2.58-.43,15.77,15.77,0,0,1,3.3.95.71.71,0,0,0,.38.06,1,1,0,0,1,.88.39c.23.22.47.44.71.64.6.51,1.21,1,1.81,1.53s1.2,1.06,1.8,1.59a2.23,2.23,0,0,1,.8,1.72c0,.91,0,1.83,0,2.74v.78l.37.17v-.21C-110,570.29-110,569.76-110,569.23ZM-90.27,553a7.62,7.62,0,0,1,4.65-.09,2.19,2.19,0,0,1,1.81,2,2.45,2.45,0,0,1-1.82.83,14.24,14.24,0,0,1-1.85,0,5.5,5.5,0,0,1-2.48-.94c-.27-.2-.56-.37-1-.62a2.08,2.08,0,0,1,.53-.17,4.82,4.82,0,0,1,1.14.07.76.76,0,0,0,.88-.29c-.23-.6-.32-.67-.94-.54a4,4,0,0,1-1.72,0C-90.77,553.19-90.51,553.12-90.27,553Zm1.47-5a35.36,35.36,0,0,1,3.53-2.15,3.69,3.69,0,0,1,2.79-.21.9.9,0,0,1,.58,1.22A3.55,3.55,0,0,1-83,548.52a8.29,8.29,0,0,1-6,1.83,5.62,5.62,0,0,1-.74-.14,3.12,3.12,0,0,1,.46-.34c1.1-.46,2.21-.9,3.31-1.35a.66.66,0,0,0,.42-.91l-4.76,2-.07-.11A14.79,14.79,0,0,1-88.8,548Zm1.65-14.58c.4-.05.81-.09,1.21-.1s1.06,0,1.59,0a9.43,9.43,0,0,1,1.82.22,2.39,2.39,0,0,1,1.23.73.6.6,0,0,1,.11.71A2.17,2.17,0,0,1-83,536.33a5.85,5.85,0,0,1-4.12-1l-1.47-1h2.77c-.07-.28-.2-.39-.42-.4l-1.27-.09-.79-.06v-.18C-87.9,533.55-87.52,533.48-87.15,533.44Zm2.36-6a16.12,16.12,0,0,1,1.9-.72,3,3,0,0,1,2.17.21.71.71,0,0,1,.39.59c.22,1-.41,1.5-1,2a5.78,5.78,0,0,1-2.15,1.1c-.22.06-.42.2-.64.27a7,7,0,0,1-3.35.12,1.65,1.65,0,0,1-.26-.11.86.86,0,0,1,.22-.19c.61-.23,1.25-.42,1.84-.7a2.78,2.78,0,0,1,1.29-.28.39.39,0,0,0,.25-.06c.09-.1.22-.25.19-.33a.4.4,0,0,0-.32-.22,2.32,2.32,0,0,0-.6.19l-3.54,1.23-.07-.12A12,12,0,0,1-84.79,527.44Zm6.31-15c-.63-.45-1.19.16-1.83,0a2.26,2.26,0,0,1,.27-.27,10.77,10.77,0,0,1,3.44-1.63c.61-.16,1.23-.29,1.85-.41a2.19,2.19,0,0,1,1.41.3.67.67,0,0,1,.36.75,1.51,1.51,0,0,1-.52,1,4.25,4.25,0,0,1-1.45.78c-.71.2-1.42.43-2.13.66a6.46,6.46,0,0,1-3.15-.08,5.94,5.94,0,0,1-.72-.21C-80.15,513-79.29,512.86-78.48,512.46Zm-4.3-6.64a9.69,9.69,0,0,1,2.2-2.78c.14-.13.27-.27.4-.41a3.93,3.93,0,0,1,1.73-1.16,1.54,1.54,0,0,1,.3-.11c1-.2,1.45.14,1.37,1.2a3.21,3.21,0,0,1-.59,1.67,7.66,7.66,0,0,1-2.08,2.38l-3.29,2-.45.27a.52.52,0,0,1,.17-.6c.43-.52.86-1.05,1.3-1.56a10.13,10.13,0,0,1,.88-1c.34-.3.17-.7.31-1.07-.84.45-1,1.42-1.72,2S-83.39,508-84,508.57l-.12-.07a2.29,2.29,0,0,1,.12-.37ZM-90.63,511a2.87,2.87,0,0,1-.42.51c-.29-.51,0-1-.12-1.38s.46-.8,0-1.29a3.74,3.74,0,0,0-.53,1.81,2.05,2.05,0,0,1-.16,1.17c-.13-.15-.26-.24-.3-.36a10.78,10.78,0,0,1-1-3.33V508a4.56,4.56,0,0,1,1-3.26,4.56,4.56,0,0,1,.94-.75,1.32,1.32,0,0,1,2,.73,2.83,2.83,0,0,1,.14,1.12,9.34,9.34,0,0,1-.52,3C-90,509.57-90.29,510.26-90.63,511Zm-20.13,13.22a35.09,35.09,0,0,1-.42-4.62l-.56-.12.36,3.82-.16.14c0-.07-.1-.14-.14-.22a8.91,8.91,0,0,1-1.13-2.32,11.37,11.37,0,0,1-.34-3.34,4.34,4.34,0,0,1,.71-2,.74.74,0,0,1,1.18-.1,4.68,4.68,0,0,1,1.29,2.51,4.38,4.38,0,0,1,0,1.49c-.1.92-.12,1.86-.2,2.79A4.07,4.07,0,0,1-110.76,524.17Zm-2.8,7.21c-.36.14-.58-.13-.82-.31a7.28,7.28,0,0,1-1.9-2.74,3.65,3.65,0,0,1-.27-2.47.8.8,0,0,1,1.45-.44,8.12,8.12,0,0,1,1.67,2.38,4.83,4.83,0,0,1,.47,2.48c0,.09-.05.19-.08.34-.5-.4-.29-1.23-1.1-1.36C-114.33,530.09-113.67,530.65-113.56,531.38Zm-9.57,23.8a5.18,5.18,0,0,1-.82-.22c-.82-.39-1.64-.79-2.45-1.22a6.34,6.34,0,0,1-2.33-2.38,1.67,1.67,0,0,1-.11-1,.63.63,0,0,1,.7-.51,3,3,0,0,1,1.26.39,9.35,9.35,0,0,1,3.46,2.84,6,6,0,0,1,.56.91,1.25,1.25,0,0,1,0,.47,1.92,1.92,0,0,1-.78-.61,6,6,0,0,0-1.08-1,3.29,3.29,0,0,1-1.17-1.37l-.7-.12c-.23.5-.21.47.18.79,1,.76,1.92,1.54,2.87,2.33a3.7,3.7,0,0,1,.49.55Zm-1.43,4.11-.07.63,1.74.27c0,.08,0,.14-.07.15a8.09,8.09,0,0,1-2.57.64,9.67,9.67,0,0,1-2.5-.4,4.93,4.93,0,0,1-.53-.22c-.61-.31-.7-.66-.22-1.13a2.31,2.31,0,0,1,.94-.62,5.85,5.85,0,0,1,3.13-.2,8.16,8.16,0,0,1,2.45,1C-123.09,559.64-123.77,559-124.56,559.29Z" transform="translate(197.46 -122.5)"/><path class="cls-13" d="M202.21,127.16c-.82.51-1.67,1-2.52,1.48a3.39,3.39,0,0,0-2.86-1.11,10.53,10.53,0,0,0-2,.25,12.4,12.4,0,0,0-5.52,2.83,1.64,1.64,0,0,0-.34.54,4.4,4.4,0,0,0-.91.4c-.92.68-1.85,1.36-2.7,2.12a17.85,17.85,0,0,0-2.28,2.32,8.39,8.39,0,0,0-1.72,3.26,1.27,1.27,0,0,0,.89,1.7,3.48,3.48,0,0,0,1.57.05c1.84-.48,3.68-1,5.48-1.61a23.17,23.17,0,0,0,3.45-1.55c1-.55,1.91-1.25,2.87-1.88a14.19,14.19,0,0,0,3.75-3.58,2.25,2.25,0,0,0,.59-1.87,1,1,0,0,1,.28-.84,10.22,10.22,0,0,1,3.55-2.43A1,1,0,0,0,204,127a11.94,11.94,0,0,1,2.85-1.75c.34-.17.66-.37,1-.57a10.75,10.75,0,0,1,2.51-1.29c-.38,1.43-.71,2.74-1.08,4-.24.81-.54,1.61-.81,2.41a6.76,6.76,0,0,1-1.07,2.77c-.07.08-.06.22-.09.34-.12.47-.2,1-.36,1.43a10.31,10.31,0,0,0-.66,1.63,6.37,6.37,0,0,1-1.4,2.69,25.06,25.06,0,0,1-2.16,2.45c-1.49,1.49-2.72,3.22-4.36,4.6-1.88,1.59-3.63,3.35-5.45,5-.36.34-.82.57-1.19.91-.84.78-1.61,1.65-2.47,2.4a9.78,9.78,0,0,1-2,1.73c-.49-.14-.85-.26-1.22-.33-1.52-.26-2.79.47-4.09,1.05a11.13,11.13,0,0,0-1.59.95,20.05,20.05,0,0,0-4.15,3.12c-.83.92-1.67,1.83-2.53,2.71a19.86,19.86,0,0,0-3.45,4.19,4.26,4.26,0,0,0-.59,3.92,2,2,0,0,0,.44.62,2.18,2.18,0,0,0,2.15.35,11.14,11.14,0,0,0,3.34-1.29c.86-.45,1.74-.87,2.57-1.37s1.76-1.27,2.71-1.78a14.36,14.36,0,0,0,3.17-2.45,37,37,0,0,0,3.22-3.62,4.32,4.32,0,0,0,1.11-2.62,6.93,6.93,0,0,0-.1-1.58,1.42,1.42,0,0,1,.56-1.4c.36-.35.74-.68,1.11-1l2-1.83c.1,2,.19,3.73.28,5.51a10.86,10.86,0,0,0-1.09.27,3,3,0,0,0-1.85,1.4,8,8,0,0,0-.75,2.44,25.2,25.2,0,0,0-.16,5.63,26.65,26.65,0,0,0,1.29,6.45c.34.9.75,1.78,1.18,2.65a.78.78,0,0,0,1.36.15,6.8,6.8,0,0,0,1.15-2c.23-.88.64-1.71.93-2.57a15.66,15.66,0,0,0,.79-2.7,16.53,16.53,0,0,0,.47-3.27c0-.36,0-.71,0-1.06-.1-1-.22-2-.32-3a5.16,5.16,0,0,0-1.32-3.51,1.11,1.11,0,0,1-.29-.71c0-1.05,0-2.1-.06-3.15,0-.58,0-1.17-.08-1.75s-.07-.88-.11-1.32c-.08-1,.61-1.55,1.21-2.13,1.43-1.39,2.9-2.74,4.39-4.08a34.94,34.94,0,0,0,4.58-4.76,16.69,16.69,0,0,1,1.48-1.56,1.09,1.09,0,0,1,0,.68c-.58,2.1-1.2,4.18-1.74,6.29-.61,2.37-1.15,4.76-1.71,7.14-.28,1.21-.47,2.44-.84,3.62a49,49,0,0,0-1.41,6.19c-.44,2.49-.79,5-1.22,7.48a1.33,1.33,0,0,1-.52.85,7.18,7.18,0,0,0-1.71,1.77,10,10,0,0,0-1.66,3.85,18.13,18.13,0,0,0-.29,2.87,26.47,26.47,0,0,0,.41,5.55,32,32,0,0,0,1,4.38,64.7,64.7,0,0,0,1.92,6.41,3.18,3.18,0,0,0,2.18,2.11,1.77,1.77,0,0,0,1.8-.44,4.1,4.1,0,0,0,1.22-2.1c.27-1.59.57-3.18.74-4.79s.24-3,.29-4.56c0-1.32,0-2.64,0-3.95,0-1,0-2.06-.12-3.09s-.25-1.86-.4-2.79c-.09-.57-.25-1.14-.33-1.72a4.38,4.38,0,0,0-2.62-3.79.83.83,0,0,1-.62-1c.15-1.32.32-2.63.5-3.94.15-1.11.32-2.22.49-3.32s.3-2.47.6-3.67c.45-1.88,1-3.73,1.55-5.6.3-1.1.55-2.21.85-3.31.39-1.45.81-2.89,1.21-4.33.31-1.11.6-2.22.91-3.33.19-.7.4-1.41.59-2.11a13.35,13.35,0,0,1,.36-1.45,59.51,59.51,0,0,0,2.35-6.85,4.71,4.71,0,0,1,.59-1,3.53,3.53,0,0,1,.41.52c.86,1.71,1.75,3.4,2.55,5.14.57,1.25,1.08,2.54,1.53,3.85a6.43,6.43,0,0,1,.64,3.13,41.25,41.25,0,0,1-1.2,6.13c-.19.62-.3,1.26-.48,1.89s-.36,1.1-.55,1.64a2.76,2.76,0,0,0-2.38,1,13,13,0,0,0-1.59,2.52,21.86,21.86,0,0,0-1.64,6.3c-.21,1.49-.25,3-.33,4.49,0,.43.07.87.06,1.31a38.58,38.58,0,0,0,.42,6.16,1.8,1.8,0,0,0,1.43,1.48,1.63,1.63,0,0,0,1.66-.5A9.62,9.62,0,0,0,212,174c.3-.69.46-1.45.74-2.15a35.86,35.86,0,0,0,1.92-6.06,30.09,30.09,0,0,0,.34-7.4,4.26,4.26,0,0,0-.58-2.19,2.75,2.75,0,0,1-.39-2.35c.13-.45.37-.87.47-1.32.35-1.54.65-3.09,1-4.64,0-.08.14-.14.32-.31a9.92,9.92,0,0,1,.38,1c.45,1.71,1,3.4,1.29,5.13a26.14,26.14,0,0,0,1.11,3.62c.09.3.19.61.29.9a6.08,6.08,0,0,0-2,3.78,7.87,7.87,0,0,0,0,3,9.18,9.18,0,0,0,1,3.26c.8,1.3,1.54,2.64,2.32,4s1.43,2.44,2.23,3.6c.66,1,1.45,1.85,2.18,2.77a4,4,0,0,0,1.88,1.39c.79.27,1.07.27,1.63-.34a4,4,0,0,0,1-2.84c0-.35,0-.71,0-1.06a12.33,12.33,0,0,0-.1-1.83,30.35,30.35,0,0,0-.74-3,39.51,39.51,0,0,0-2-5.74,18.84,18.84,0,0,0-3.66-5.66,5.28,5.28,0,0,0-2.25-1.62c-.26-1.11-.48-2.14-.76-3.16-.37-1.38-.78-2.77-1.21-4.14-.28-.89-.65-1.76-.95-2.65-.38-1.14-.65-2.32-1.08-3.44-.55-1.43-1.2-2.82-1.83-4.22s-1.21-2.54-1.83-3.81c-.85-1.76-1.72-3.53-2.59-5.29a2.21,2.21,0,0,1,0-1.8c.25-.66.39-1.36.63-2a28.42,28.42,0,0,1,1.63-4.25h-3.42c-.71.4-1.41.81-2.1,1.24C205.27,125.19,203.76,126.2,202.21,127.16Zm-18.33,9.45a11.32,11.32,0,0,1,2.5-2.53c1.22-1.06,2.46-2.1,3.77-3.05a12.3,12.3,0,0,1,4.92-2.27,4.93,4.93,0,0,1,3,.16c0,.47-.23.62-.55.74-.52.19-1.06.34-1.56.58-1.22.59-2.45,1.18-3.62,1.84-.76.43-1.44,1-2.17,1.51-1.07.72-2.16,1.41-3.22,2.14a11.58,11.58,0,0,0-1.14,1,14.76,14.76,0,0,1-2.74,1.84l-.21-.2Zm14.49-4.35a12.93,12.93,0,0,1-3.44,3.24,26.18,26.18,0,0,1-2.49,1.51,21.7,21.7,0,0,1-4.45,1.86c-1.19.35-2.38.66-3.58,1a1.85,1.85,0,0,1-1.39,0l1.23-1c1.49-1.26,3.12-2.33,4.72-3.43a15.2,15.2,0,0,1,2.36-1.51c1.54-.67,2.89-1.65,4.39-2.37.89-.43,1.82-.77,2.75-1.15A1.52,1.52,0,0,1,198.37,132.26Zm-27.73,38.68a3.78,3.78,0,0,1,0-1.71,10.12,10.12,0,0,1,1.94-3.33,43.85,43.85,0,0,1,4.67-5.15,8.61,8.61,0,0,1,2.2-1.7,13.51,13.51,0,0,0,1.94-1,11.79,11.79,0,0,1,3.28-1.47,3.34,3.34,0,0,1,1.22-.06c.42,0,.5.35.22.67a12.59,12.59,0,0,1-2.37,2.3,3.81,3.81,0,0,1-2,.95c-.1,1-.86,1.42-1.46,1.95-1.56,1.38-3.19,2.69-4.75,4.07-.78.71-1.48,1.51-2.22,2.27A11.5,11.5,0,0,1,170.64,170.94Zm16.49-11a3.08,3.08,0,0,1-.59,1.27,19.81,19.81,0,0,1-4.85,5.07c-1.57,1-3.12,2.12-4.71,3.12-1,.63-2.1,1.19-3.18,1.72a8.34,8.34,0,0,1-1.5.43l-.14-.19,1.76-2c.1-.11.26-.18.33-.29.95-1.51,2.49-2.4,3.76-3.57s2.54-2.26,3.84-3.35c.72-.6,1.53-1.1,2.26-1.69s1.55-1.36,2.34-2a4,4,0,0,1,.63-.37A2.38,2.38,0,0,1,187.13,159.9Zm4.47,7.9a10.37,10.37,0,0,1-.12,3.24,13.4,13.4,0,0,0,0,2.37,14.68,14.68,0,0,1-.07,2.29,6.12,6.12,0,0,1-1.34-2.65c-.19-.82-.25-1.67-.44-2.5a23,23,0,0,1-.26-6.82,4.18,4.18,0,0,1,1.12-3c.25-.22.55-.4.95-.69a5.17,5.17,0,0,1,.25,1c0,2.12-.05,4.24-.08,6.36C191.64,167.56,191.57,167.69,191.6,167.8Zm2.13-6.5a4,4,0,0,1,.46,1.32c.21,1.49.42,3,.51,4.46a9.27,9.27,0,0,1-.28,2.45,25,25,0,0,1-1.5,5.07,5.72,5.72,0,0,0-.26,1.14c-.12-.23-.23-.33-.23-.44-.05-1.2-.15-2.4-.09-3.6a9.38,9.38,0,0,1,.5-3.19,5.56,5.56,0,0,0,0-2.15c0-1.61,0-3.23,0-4.84a5.53,5.53,0,0,1,.07-.7l.19-.14C193.32,160.88,193.61,161.05,193.73,161.3Zm5.5,36.85a4.65,4.65,0,0,1-1.52-2.37,17.33,17.33,0,0,1-1-3.08c-.32-2-1.21-3.78-1.26-5.81,0-1.43-.3-2.86-.47-4.29a12.41,12.41,0,0,1,1-6.45,6.51,6.51,0,0,1,2-2.48c0,.89,0,1.67,0,2.45s-.12,1.69-.13,2.54a34.55,34.55,0,0,0,.23,4.66c.14,1.07.13,2.17.21,3.25.06.73.19,1.46.27,2.19.26,2.55.53,5.09.76,7.64A13.89,13.89,0,0,1,199.23,198.15Zm2.07-23a4.45,4.45,0,0,1,.5,1.49c.27,1.36.5,2.72.74,4.08a1.13,1.13,0,0,1,0,.18c-.07,1.65.32,3.29,0,4.94-.05.31.06.65,0,1-.05,1.41-.08,2.82-.2,4.23-.14,1.58-.35,3.15-.59,4.71a3.17,3.17,0,0,1-1.2,2.39c-.13-.66-.27-1.22-.35-1.78-.22-1.42-.44-2.84-.61-4.26-.08-.67,0-1.35-.07-2q-.19-3.6-.42-7.2c0-.59-.17-1.17-.22-1.76a42.58,42.58,0,0,1,.14-6.08c0-.45.05-.91.08-1.41C200.35,173.69,200.84,174.46,201.3,175.19Zm7-.74c-.09.51-.16,1-.26,1.64a1.64,1.64,0,0,1-.58-1.26,43.19,43.19,0,0,1-.34-6.92,24.33,24.33,0,0,1,.87-6.36,23.27,23.27,0,0,1,1.51-3.83,4.14,4.14,0,0,1,1.91-1.9,4.31,4.31,0,0,1,.52-.16c-.05.35-.08.6-.14.84-.38,1.57-.78,3.13-1.13,4.7-.16.69-.19,1.4-.28,2.09a2,2,0,0,1-.06.44,24.15,24.15,0,0,0-.79,4.22C209.11,170.12,208.68,172.28,208.27,174.45Zm6.11-14.38a24,24,0,0,1-.24,4.48,38.91,38.91,0,0,1-1,4.11c-.46,1.58-1,3.14-1.59,4.68a7.48,7.48,0,0,1-1.77,3,8.11,8.11,0,0,1-.65.51l-.16-.11c.11-.77.24-1.54.33-2.31s.13-1.74.25-2.59c.16-1.14.39-2.26.58-3.39.15-1,.3-1.91.41-2.88a7.09,7.09,0,0,1,.52-2,14.42,14.42,0,0,0,.63-2.47c.36-1.54.71-3.08,1.07-4.62A2.94,2.94,0,0,1,213,156c.26.26.52.4.61.62A9.65,9.65,0,0,1,214.38,160.07Zm7-.56a10.32,10.32,0,0,1,2.68,3c.74,1.36,1.46,2.74,2.12,4.14a17.24,17.24,0,0,1,.85,2.41c.46,1.52.91,3,1.29,4.57a7.82,7.82,0,0,1-.21,4.34,5.2,5.2,0,0,1-.5.92c-.67-1.25-1.25-2.26-1.76-3.31s-1-2.38-1.61-3.51a30,30,0,0,1-1.16-2.83,4,4,0,0,1-.38-1.87,1.07,1.07,0,0,0,0-.44c-.57-1.6-1.16-3.19-1.72-4.79-.3-.83-.56-1.67-.82-2.51a2.91,2.91,0,0,1-.06-.56A1.43,1.43,0,0,1,221.4,159.51Zm-.34,6.64c.53,2.15,1.5,4.12,2.2,6.19.56,1.63,1.37,3.18,2.07,4.76a1.84,1.84,0,0,1,0,.25l-.13.1c-.74-.89-1.52-1.75-2.21-2.68a40.3,40.3,0,0,1-2.36-3.49,31.22,31.22,0,0,1-2.2-4.21,9.66,9.66,0,0,1-.65-5.45,3.67,3.67,0,0,1,.95-1.84,3.2,3.2,0,0,1,.31.55C219.76,162.26,220.56,164.17,221.06,166.15Z" transform="translate(197.46 -122.5)"/><circle class="cls-12" cx="964.56" cy="91.37" r="5.43"/><circle class="cls-12" cx="626.37" cy="339.6" r="16.13"/></svg>