<?xml version="1.0" encoding="utf-8"?>
<!-- Generator: Adobe Illustrator 26.0.1, SVG Export Plug-In . SVG Version: 6.00 Build 0)  -->
<svg version="1.1" id="Layer_1" xmlns="http://www.w3.org/2000/svg" xmlns:xlink="http://www.w3.org/1999/xlink" x="0px" y="0px"
	 viewBox="0 0 1013 488" style="enable-background:new 0 0 1013 488;" xml:space="preserve">
<style type="text/css">
	.st0{fill:#A4C3B2;}
	.st1{fill:#6B9080;}
	.st2{fill:none;stroke:#FFFFFF;stroke-linecap:round;stroke-miterlimit:10;}
	.st3{fill:none;stroke:#FFFFFF;stroke-miterlimit:10;}
	.st4{fill:none;stroke:#FFFFFF;stroke-width:0.5;stroke-linecap:round;stroke-miterlimit:10;}
	.st5{fill:#FFCEC7;}
	.st6{fill:#606060;}
	.st7{fill:#686868;}
	.st8{fill:#333333;}
	.st9{fill:#F2B1AF;}
	.st10{fill:#B8D3C3;}
	.st11{fill:#595959;}
	.st12{fill:#3D3D3D;}
	.st13{fill:#7F7F7F;}
	.st14{fill:#EF8E89;}
	.st15{fill:none;stroke:#7F7F7F;stroke-width:1.67;stroke-linecap:round;stroke-linejoin:round;}
	.st16{fill:url(#SVGID_1_);}
	.st17{fill:none;stroke:#FFFFFF;stroke-width:0.25;stroke-miterlimit:10;}
	.st18{fill:#FFFFFF;}
	.st19{opacity:0.3;clip-path:url(#SVGID_00000078743734188162430970000011808052990590308030_);fill:#6B9080;}
	.st20{opacity:0.3;clip-path:url(#SVGID_00000075842910006121451300000014398201118368606393_);fill:#A4C3B2;}
	.st21{opacity:0.3;fill:#6B9080;}
	.st22{opacity:0.3;fill:#A4C3B2;}
</style>
<rect class="st0" width="1013" height="488"/>
<path class="st1" d="M794.3,405.3l-6.6-3.1l-3.3-1.5l-3.2-1.7l-6.4-3.5c-2.1-1.2-4.2-2.5-6.2-3.8c-4.2-2.5-8.1-5.3-12.2-8
	c-2-1.3-3.9-2.8-5.9-4.3l-5.8-4.4l-5.6-4.6c-1.9-1.6-3.8-3-5.6-4.7l-5.5-4.8c-0.9-0.8-1.8-1.6-2.7-2.4l-2.6-2.5l-5.3-5
	c-1.8-1.7-3.4-3.4-5.1-5.1s-3.4-3.4-5.1-5.2l-4.9-5.4c-3.3-3.5-6.4-7.3-9.6-11c-1.6-1.8-3.1-3.7-4.6-5.6l-4.5-5.7
	c-1.5-1.9-2.9-3.9-4.3-5.8c-1.5-1.9-2.9-3.9-4.3-5.9c-2.7-4-5.5-8-8.1-12.1c-1.3-2.1-2.6-4.1-3.9-6.2l-3.6-6.3
	c-2.5-4.2-4.7-8.6-6.7-13c-4-8.9-7.3-18.1-9.7-27.5c-2.4-9.5-3.9-19.1-4.4-28.9c-0.3-4.9-0.2-9.8,0.1-14.7s1-9.8,2-14.6
	c2.2-9.6,5.8-19.2,11.7-27.4c0.7-1,1.4-2,2.3-3c0.8-1,1.6-2,2.4-2.9l2.6-2.7c0.9-0.9,1.8-1.7,2.7-2.6c3.7-3.4,7.7-6.4,12-9
	c8.6-5.2,18.2-8.5,28.2-9.9c9.9-1.4,20.1-0.7,29.7,2c19.2,5.4,36.2,18.4,45.8,36l-4.3,1.2c-0.3-5.8,0.8-11.6,3-17
	c2.2-5.3,5.1-10.2,8.6-14.6c3.5-4.4,7.4-8.4,11.6-12.1c4.2-3.7,8.5-7.1,13.1-10.3c4.6-3.2,9.3-6.1,14.2-8.6c4.9-2.6,10-4.9,15.2-6.8
	l2-0.7c0.7-0.2,1.3-0.4,2-0.7c1.3-0.4,2.7-0.9,4-1.3c2.7-0.7,5.4-1.5,8.2-2l2.1-0.4l1-0.2l1-0.1l4.2-0.6c1.4-0.2,2.8-0.2,4.2-0.3
	l2.1-0.1c0.7,0,1.4,0,2.1,0c5.7,0,11.3,0.5,16.8,1.7c2.8,0.6,5.5,1.3,8.2,2.2c2.7,0.8,5.3,1.9,7.9,3c5.2,2.3,10.1,5,14.8,8.1
	l1.8,1.1c0.6,0.4,1.1,0.8,1.7,1.2l3.4,2.5l3.2,2.7l1.6,1.4l1.5,1.4l3.1,2.9l2.9,3c0.5,0.5,1,1,1.4,1.5l1.4,1.6
	c0.9,1.1,1.8,2.1,2.7,3.2c1.7,2.2,3.5,4.4,5,6.7c0.8,1.2,1.6,2.3,2.3,3.5l2.2,3.6c0.8,1.2,1.4,2.4,2,3.6s1.4,2.4,2,3.7
	c1.2,2.5,2.4,5,3.5,7.6c2.2,5.1,4,10.4,5.5,15.7s2.8,10.8,3.7,16.2l0.6,4.1l0.3,2l0.2,2.1l0.5,4.1l0.3,4.1c0.1,1.4,0.2,2.8,0.3,4.1
	l0.2,4.1c0,2.8,0.2,5.5,0.1,8.3c0,5.5-0.2,11.1-0.5,16.6s-1.2,11-1.8,16.5c-0.4,2.7-0.9,5.5-1.4,8.2l-0.7,4.1
	c-0.3,1.4-0.6,2.7-0.9,4l-1.9,8.1l-2.4,8l-1.2,4l-1.3,3.9c-0.9,2.6-1.8,5.2-2.8,7.8c-8.1,20.6-18.6,40.4-31.8,58
	c-13.1,17.8-28.6,33.7-46.1,47.2c-0.5,0.4-1.2,0.3-1.6-0.2c-0.4-0.5-0.3-1.2,0.2-1.5l0,0c33.4-28.2,59.1-64.5,74.5-105.4
	c0.9-2.6,1.8-5.1,2.7-7.7l1.3-3.9l1.1-3.9l2.3-7.8l1.9-7.9c0.3-1.3,0.7-2.6,1-3.9l0.8-4c0.5-2.7,1.1-5.3,1.6-8
	c0.8-5.4,1.8-10.7,2.3-16.1c2.3-21.6,1.1-43.7-5-64.5c-1.5-5.2-3.4-10.3-5.5-15.2c-1-2.5-2.3-4.9-3.4-7.3c-0.6-1.2-1.3-2.4-1.9-3.5
	s-1.3-2.4-2-3.5l-2.2-3.4c-0.7-1.1-1.5-2.2-2.3-3.3c-1.5-2.2-3.3-4.3-4.9-6.4c-0.9-1-1.8-2-2.7-3l-1.3-1.5c-0.5-0.5-0.9-1-1.4-1.4
	l-2.8-2.9l-3-2.7l-1.5-1.4l-1.6-1.3l-3.1-2.5l-3.3-2.3c-0.5-0.4-1.1-0.8-1.6-1.2l-1.6-1.1c-4.5-2.9-9.2-5.4-14.2-7.4l-3.7-1.4
	c-1.2-0.5-2.5-0.8-3.8-1.3c-2.5-0.9-5.1-1.4-7.7-2c-1.3-0.3-2.6-0.5-3.9-0.7c-1.3-0.3-2.6-0.4-3.9-0.6l-4-0.4
	c-1.3-0.1-2.7-0.1-4-0.1c-0.7,0-1.3-0.1-2-0.1h-2c-1.3,0.1-2.7,0-4,0.1l-4,0.3l-1,0.1l-1,0.1l-2,0.3c-2.7,0.3-5.3,1-7.9,1.5
	c-1.3,0.3-2.6,0.7-3.9,1c-0.7,0.2-1.3,0.3-2,0.5l-1.9,0.6c-10.2,3.5-19.9,8.5-28.7,14.8c-8.7,6.4-16.9,13.7-23.3,22.2
	c-3.2,4.2-5.8,8.8-7.8,13.8c-1.9,4.8-2.7,10-2.4,15.2l0,0c0.1,1.3-0.9,2.3-2.2,2.4c-0.9,0-1.7-0.4-2.1-1.2
	c-9-16.4-25.2-28.5-43.1-33.4c-4.5-1.2-9.1-2-13.8-2.3l-3.5-0.1l-3.5,0.1c-1.2,0-2.3,0.1-3.5,0.3c-1.2,0.1-2.3,0.2-3.5,0.5L700,126
	l-3.4,0.9c-1.1,0.3-2.2,0.7-3.3,1c-1.1,0.3-2.2,0.7-3.3,1.2c-4.3,1.7-8.5,3.8-12.4,6.2c-1,0.6-2,1.2-2.9,1.9l-2.8,2
	c-0.9,0.7-1.8,1.4-2.7,2.2l-1.3,1.1l-1.3,1.2c-3.4,3.1-6.5,6.5-9.3,10.3c-1.4,1.8-2.6,3.8-3.9,5.7l-1.7,3c-0.6,1-1,2.1-1.6,3.1
	c-2,4.2-3.6,8.6-4.9,13.1c-2.4,9.2-3.5,18.6-3.2,28.1c0.4,9.5,1.8,19,4.1,28.3s5.5,18.3,9.5,27c2,4.3,4.2,8.6,6.7,12.7l3.7,6.2
	c1.3,2,2.6,4,3.9,6.1c10.5,16.1,22.3,31.2,35.3,45.4c12.9,14.3,26.8,27.5,41.7,39.6l5.7,4.4c1.9,1.5,3.8,3,5.8,4.3
	c3.9,2.8,7.8,5.6,11.9,8.1c2,1.3,4,2.6,6.1,3.9l6.3,3.6l3.1,1.8l3.2,1.6l6.4,3.2h0.1c0.5,0.3,0.7,1,0.4,1.5
	C795.4,405.3,794.8,405.5,794.3,405.3L794.3,405.3z"/>
<path class="st2" d="M223.3,0.5c5.9,16.4,8.9,33.7,8.9,51.1c0.1,39.9-15.7,78.2-44,106.3c-28.1,28.3-66.4,44.1-106.3,44
	C53,202,24.7,193.7,0.5,178.1"/>
<path class="st2" d="M208.5,0.5c6.5,16.2,9.9,33.6,9.9,51.1c0,75.4-61.1,136.6-136.6,136.6c-29.3,0.1-57.8-9.4-81.3-26.8"/>
<path class="st2" d="M181.7,0.5c8.1,15.8,12.3,33.3,12.3,51.1c0,61.9-50.2,112.1-112.2,112.1c-30.7,0-60.2-12.6-81.3-34.9"/>
<circle class="st3" cx="679.6" cy="89.4" r="15.2"/>
<circle class="st3" cx="679.6" cy="89.4" r="10.6"/>
<circle class="st3" cx="87.7" cy="445.8" r="22.2"/>
<circle class="st3" cx="87.7" cy="445.8" r="15.5"/>
<path class="st4" d="M85.5,446.7c-0.1-1-0.1-2,0.2-3c0-0.1,0-0.1,0-0.2c-0.1-1,0-2.1,0.2-3.1l1.1-1c0.2-0.2,0.5-0.5,0.7-0.7
	c0.5-0.4,1.1-0.8,1.6-1.3c1.1-0.8,2.2-1.6,3.4-2.4c0.7-0.5,1.4-1,2.2-1.4c0.3-0.2,0.5-0.4,0.9-0.3c0.2,0,0.3,0,0.5-0.1
	c0.8-0.4,1.6-0.8,2.4-1c0.1,0,0.1,0,0.2,0c0.3,0,0.6,0,0.9,0c1-0.1,1.9-0.3,2.8-0.5c0.6-0.1,1.2,0,1.7,0.4c0.4,0.3,0.8,0.6,1.3,0.8
	c1,0.5,2,0.8,3.1,0.8c1,0.1,2-0.1,2.9-0.5c0.2-0.1,0.5-0.2,0.6-0.4c0.2-0.2,0.3-0.4,0.3-0.7c0-0.4-0.2-0.9-0.4-1.2
	c-0.5-0.7-1.3-1.2-2.1-1.4c-1-0.2-2.1-0.3-3.1-0.2c-1.2,0.2-2.3,0.5-3.4,0.9c-0.2,0.1-0.4,0.2-0.5,0.4c-0.2,0.3-0.6,0.5-1,0.5
	c-0.8,0.1-1.6,0.2-2.3,0.3c-0.5,0-1.1,0.1-1.6,0.1c1.1-0.7,2.2-1.3,3.2-1.9c0.3-0.2,0.7-0.3,1-0.4c0.8-0.4,1.5-0.8,2.3-1.1
	c0.2-0.1,0.3-0.1,0.5,0c0.6,0.2,1.2,0.3,1.8,0.3c1,0.2,2,0.1,2.9-0.3c0.3-0.2,0.7-0.3,1-0.4c1.2-0.3,2.2-1,2.9-1.9
	c0.6-0.6,0.8-1.5,0.7-2.3c0-0.5-0.4-0.9-0.9-1.1c-1.3-0.4-2.8-0.3-4,0.4c-1.1,0.6-2.1,1.3-3.1,2c-0.7,0.5-1.4,1.2-2.1,1.8
	c-0.3,0.2-0.5,0.6-0.3,1c-1.2,0.6-2.3,1.2-3.4,1.8s-2.2,1.2-3.2,1.8c-1.1,0.7-2.2,1.3-3.4,1.9c-0.3,0.1-0.6,0.2-0.5,0.6
	c0,0.1-0.2,0.2-0.3,0.3c-0.6,0.4-1.2,0.8-1.8,1.2c-1.2,0.8-2.5,1.6-3.7,2.5c-0.5,0.3-1,0.8-1.6,1.2c-0.1-0.2-0.1-0.4-0.1-0.5
	c0-0.6,0.1-1.2,0.2-1.8s0.3-1.3,0.4-2c0.1-0.3,0.1-0.7,0.2-1c0.2-0.8,0.4-1.6,0.5-2.4c0.1-1.1,0.4-2.1,0.8-3.1
	c0.6-1.8,1.3-3.5,1.9-5.3c0.1-0.4,0.3-0.8,0.4-1.1c0.5-1,1-2,1.5-3c0.3-0.6,0.6-1.3,1-1.9c0.1-0.1,0.2-0.2,0.3-0.3
	c0.6-0.5,1.1-0.9,1.7-1.4c0.9-0.8,1.9-1.5,3-2c0.8-0.5,1.7-0.9,2.6-1.3c0.1-0.1,0.3-0.1,0.4-0.1c0.5,0.1,1.1,0.2,1.6,0.1
	c0.8,0,1.5,0,2.3,0c0.2,0,0.5,0.1,0.5,0.2c0.2,0.5,0.5,0.6,1,0.6c0.2,0,0.4,0.1,0.5,0.2l0.7,0.4c0.2,0.1,0.5,0.3,0.7,0.4
	s0.6,0.4,0.7,0.3c0.4-0.2,0.4,0.2,0.6,0.3c1.1,0.4,2.3,0.5,3.5,0.3c0.7-0.2,1.3-0.6,1.8-1.2c0.2-0.3,0.4-0.7,0.3-1.1
	c-0.1-0.7-0.6-1.3-1.3-1.5c-1.2-0.4-2.5-0.6-3.8-0.5c-0.5,0-1.1,0-1.6,0.2c-0.1,0-0.2,0-0.3,0c-0.7,0-1.4,0.2-2,0.6
	c-0.2,0.2-0.6,0.3-0.9,0.3c-1,0-1.9,0-2.9-0.1c-0.1,0-0.3-0.1-0.4-0.1c0.2-0.1,0.2-0.2,0.3-0.2c0.8-0.4,1.5-0.8,2.3-1.2
	c1-0.5,2.3-0.7,3.4-0.4c1.3,0.3,2.6,0.2,3.8-0.2c1.2-0.3,2.4-0.9,3.3-1.8c0.4-0.3,0.7-0.7,0.8-1.2c0-0.5,0-1-0.1-1.5
	c-0.1-0.2-0.3-0.4-0.5-0.5c-0.4-0.2-0.9-0.4-1.3-0.5c-0.1,0-0.2,0-0.3,0c-0.9,0.2-1.8,0.4-2.6,0.7c-1.2,0.5-2.3,1.2-3.2,2.1
	c-0.9,0.7-1.7,1.4-2.3,2.3c-0.1,0.1-0.2,0.2-0.3,0.2c-1.4,0.7-2.8,1.3-4.1,1.9c-1.2,0.6-2.4,1.2-3.6,1.8c-1,0.5-2,1.1-2.8,1.7
	c-0.1,0.1-0.3,0.2-0.4,0.2c0-0.1,0-0.2,0.1-0.3c0.6-1,1-2,1.6-2.9c0.4-0.7,0.7-1.5,1-2.3c0.5-1.3,1.1-2.6,1.9-3.8
	c0.2-0.3,0.3-0.7,0.5-1c0.1-0.1,0.2-0.3,0.2-0.4c0.3-0.6,0.7-1.2,1-1.8c0.4-0.8,0.8-1.6,1.2-2.3c0.4-0.7,0.9-1.4,1.3-2
	c0.6-0.8,1.2-1.6,1.8-2.4c0.3-0.3,0.5-0.6,0.8-0.9s0.7-0.6,1.2-0.9c1.3-0.9,2.8-1.6,4.3-2.2c0.6-0.3,1.2-0.3,1.8-0.2
	c0.6,0.2,1.3,0.4,1.9,0.5c1.6,0.4,3.3,0.4,4.9-0.1c0.7-0.3,1.3-0.5,2-0.8c0.7-0.2,1.3-0.8,1.5-1.6c0.2-0.5,0.2-1-0.2-1.4
	c-0.7-0.7-1.7-1-2.6-0.6c-0.9,0.3-1.9,0.5-2.8,0.9c-0.7,0.2-1.4,0.6-2,1c-1.1,0.8-2.3,1.4-3.6,1.7c-1.2,0.3-2.3,0.7-3.5,1.2
	c-0.3,0.1-0.6,0.2-0.9,0.3l-0.1-0.1c0.1-0.3,0.3-0.6,0.5-0.9c0.5-0.7,1.1-1.4,1.7-2s0.9-1.3,1.8-1.5s1.3-0.9,2.1-1.2
	c0.5-0.3,0.9-0.6,1.5-0.9c1.8-0.9,3.2-2.4,4.2-4.2c0.1-0.1,0.1-0.3,0.2-0.5c0.1-0.4,0.1-0.8,0.2-1.3c0.2-0.8-0.3-1.5-1.1-1.7
	c-0.2,0-0.5,0-0.7,0c-0.9,0.2-1.8,0.7-2.5,1.4c-0.2,0.2-0.3,0.4-0.5,0.5c-1.2,1.1-2.2,2.4-2.9,3.9c-0.4,0.8-0.8,1.6-1.3,2.4
	c-0.2,0.4-0.4,0.8-0.1,1.3c-0.2,0.3-0.4,0.5-0.7,0.8c-0.7,0.9-1.5,1.7-2.2,2.6c-0.4,0.5-0.8,1.1-1.2,1.7c-1,1.4-2.1,2.7-3.1,4.1
	c-0.1,0.1-0.2,0.2-0.3,0.2c0-0.2,0-0.4,0.1-0.6c0.2-0.4,0.3-0.9,0.5-1.3s0.3-1.1,0.4-1.7c0.2-0.9,0.3-1.9,0.5-2.8
	c0-0.2,0.1-0.3,0.2-0.5c0.4-0.5,0.7-1.1,1-1.6c0.7-1.2,1.2-2.5,1.3-3.9c0-0.3,0-0.5,0.1-0.8c0.1-0.8,0-1.5-0.3-2.3
	c-0.1-0.3-0.3-0.5-0.6-0.7c-0.7-0.4-1.5-0.4-2.1,0c-0.1,0.1-0.2,0.1-0.3,0.2c-0.6,0.3-1,0.7-1.3,1.2c-0.8,1.4-1,3-0.6,4.6
	c0.4,1.4,1,2.8,1.9,4c0.1,0.1,0.1,0.3,0.1,0.4c0,0.3-0.1,0.5-0.1,0.8c-0.2,0.8-0.3,1.6-0.5,2.4c-0.1,0.3-0.2,0.6-0.3,0.8
	c-0.6,1.1-1,2.3-1.2,3.5c0,0.1,0,0.1,0,0.2c-0.4,0.8-0.8,1.7-1.2,2.5c-0.7,1.3-1.5,2.7-2.2,4c-0.4,0.7-0.7,1.4-1,2s-0.6,1.4-0.9,2.1
	c-0.8,1.4-1.6,2.9-2.3,4.3c-0.6,1-1.1,2-1.6,3s-1,2-1.4,3c-0.6,1.2-1.1,2.5-1.6,3.7c-0.2,0.4-0.3,0.7-0.4,1.1
	c-0.2,0.5-0.3,1.1-0.5,1.6c0,0.1-0.2,0.2-0.3,0.4c-0.1-0.5-0.3-0.9-0.3-1.3c-0.1-0.8-0.2-1.6-0.4-2.5c-0.2-1.5-0.5-2.9-0.7-4.3
	c-0.2-1.2-0.2-2.4-0.4-3.6s-0.3-2.5-0.5-3.8c-0.1-1-0.2-2-0.3-2.9c-0.1-0.8-0.2-1.5-0.3-2.3c-0.1-0.5-0.1-1.1-0.2-1.7
	c0-0.8-0.4-1.6,0.4-2.3l0.1-0.2c0.3-0.8,0.5-1.7,0.6-2.5c0.1-1.3,0.1-2.7,0-4c-0.1-1.1-0.6-2.2-1.3-3c-0.3-0.3-0.6-0.5-1-0.6
	s-0.9,0.1-1.1,0.5c-0.1,0.2-0.2,0.4-0.3,0.5c-0.2,0.5-0.4,1-0.6,1.5c-0.1,0.6-0.1,1.2-0.1,1.8c0,0.2,0,0.5,0.1,0.7
	c0.1,0.5,0.2,0.9,0.3,1.4c0.2,1.3,0.7,2.5,1.6,3.5c0.3,0.3,0.6,0.5,0.7,1c0.1,1.4,0.2,2.8,0.4,4.1c0.2,1.7,0.5,3.3,0.7,5
	c0.1,0.4,0.1,0.8,0,1.3c-0.1,0-0.1-0.1-0.2-0.2c-0.6-1-1.3-1.9-1.9-2.9c-0.2-0.4-0.6-0.8-0.2-1.3v-0.1c0-0.8,0-1.6-0.2-2.4
	c-0.4-1.5-1.2-2.8-2.3-3.9c-0.5-0.6-1.4-0.6-1.9-0.1c-0.2,0.2-0.3,0.4-0.4,0.7c0,0.1,0,0.2-0.1,0.3c-0.2,0.9-0.1,1.8,0.2,2.6
	c0.3,0.8,0.7,1.6,1.2,2.3c0.6,1,1.6,1.7,2.7,1.9c0.2,0,0.4,0.1,0.6,0.3c0.3,0.5,0.6,1,0.9,1.5c0.6,0.9,1.1,1.9,1.4,2.9
	c0,0.1,0.1,0.4,0.2,0.4c0.4,0.1,0.4,0.5,0.4,0.8c0.2,1.6,0.4,3.2,0.6,4.8c0.1,0.7,0.2,1.4,0.3,2.1c0.3,1.8,0.5,3.5,0.8,5.3
	c0,0.1,0,0.3,0,0.4c-0.5,1.5-0.8,3-1.1,4.6c-0.4,2-0.7,4.1-0.9,6.2c-0.1,1-0.2,2-0.3,2.9c0,0.2-0.1,0.5-0.2,0.7
	c-0.5-0.4-0.9-0.7-1.3-1.1c-0.8-0.6-1.7-1.2-2.5-1.9c-0.5-0.4-0.9-0.8-1.3-1.2c-1.4-1.1-2.6-2.4-4-3.5c-0.8-0.6-1.5-1.3-2.1-2.1
	c-0.2-0.1-0.3-0.3-0.3-0.5c-0.1-0.8-0.4-1.6-0.9-2.3c-0.6-1-1.3-1.8-2.3-2.4c-0.5-0.3-0.9-0.5-1.4-0.8s-1-0.5-1.6-0.6
	c-0.8-0.1-1.4,0.5-1.5,1.2c0,0.1,0,0.3,0,0.4c0.1,0.5,0.2,1,0.4,1.4c0.7,1.1,1.6,2.1,2.8,2.7c0.7,0.3,1.4,0.7,2.1,1
	c0.5,0.3,1.2,0.5,1.8,0.4c0.2,0,0.4,0,0.6,0.2c0.6,0.6,1.2,1.2,1.8,1.8s1.2,1,1.8,1.6c0.2,0.2,0.5,0.3,0.6,0.8l-3.7-0.7
	c0-0.7-0.6-0.8-1-1c-0.8-0.5-1.8-0.8-2.7-0.9c-0.3-0.1-0.6-0.1-0.9-0.1c-1,0.1-2,0.3-2.9,0.6c-0.5,0.3-0.9,0.7-1.1,1.2
	c0,0.1,0,0.3,0,0.4c0.2,0.6,0.8,1.1,1.4,1.2c0.2,0,0.4,0.1,0.6,0.1c0.5,0.3,1,0.4,1.6,0.3c0.4,0,0.9,0.1,1.3,0
	c0.8-0.1,1.5-0.3,2.2-0.6c0.8-0.5,1.7-0.6,2.6-0.4c1.1,0.2,2.2,0.5,3.3,1c0.1,0.1,0.3,0.1,0.4,0.1c0.3,0,0.7,0.1,0.9,0.4
	c0.2,0.2,0.5,0.4,0.7,0.6c0.6,0.5,1.2,1,1.8,1.5s1.2,1.1,1.8,1.6c0.5,0.4,0.8,1.1,0.8,1.7c0,0.9,0,1.8,0,2.7v0.8l0.4,0.2v-0.2
	C85.5,447.8,85.5,447.3,85.5,446.7z M105.2,430.5c1.5-0.5,3.1-0.5,4.7-0.1c1,0.2,1.7,1,1.8,2c-0.5,0.5-1.1,0.8-1.8,0.8
	c-0.6,0-1.2,0-1.8,0c-0.9-0.1-1.7-0.4-2.5-0.9c-0.3-0.2-0.6-0.4-1-0.6c0.2-0.1,0.3-0.1,0.5-0.2c0.4,0,0.8,0,1.1,0.1
	c0.3,0.1,0.7,0,0.9-0.3c-0.2-0.6-0.3-0.7-0.9-0.5c-0.6,0.1-1.2,0.1-1.7,0C104.7,430.7,105,430.6,105.2,430.5z M106.7,425.5
	c1.1-0.8,2.3-1.5,3.5-2.2c0.9-0.4,1.9-0.5,2.8-0.2c0.5,0.1,0.8,0.6,0.6,1.1v0.1c-0.2,0.6-0.6,1.2-1.1,1.7c-1.7,1.4-3.8,2-6,1.8
	c-0.2,0-0.5-0.1-0.7-0.1c0.1-0.1,0.3-0.2,0.5-0.3c1.1-0.5,2.2-0.9,3.3-1.3c0.4-0.1,0.6-0.5,0.5-0.8v-0.1l-4.8,2l-0.1-0.1
	C105.6,426.5,106.1,426,106.7,425.5z M108.3,410.9c0.4,0,0.8-0.1,1.2-0.1s1.1,0,1.6,0c0.6,0,1.2,0.1,1.8,0.2
	c0.5,0.1,0.9,0.4,1.2,0.7c0.2,0.2,0.2,0.5,0.1,0.7c-0.3,0.8-1,1.3-1.8,1.4c-1.5,0.2-2.9-0.2-4.1-1l-1.5-1h2.8
	c-0.1-0.3-0.2-0.4-0.4-0.4l-1.3-0.1l-0.8-0.1V411C107.6,411,107.9,411,108.3,410.9L108.3,410.9z M110.7,404.9
	c0.6-0.3,1.3-0.5,1.9-0.7c0.7-0.2,1.5-0.1,2.2,0.2c0.2,0.1,0.4,0.3,0.4,0.6c0.2,1-0.4,1.5-1,2s-1.4,0.9-2.2,1.1
	c-0.2,0.1-0.4,0.2-0.6,0.3c-1.1,0.3-2.2,0.4-3.3,0.1c-0.1,0-0.2-0.1-0.3-0.1c0.1-0.1,0.1-0.1,0.2-0.2c0.6-0.2,1.3-0.4,1.8-0.7
	c0.4-0.2,0.8-0.3,1.3-0.3c0.1,0,0.2,0,0.3-0.1c0.1-0.1,0.2-0.3,0.2-0.3c-0.1-0.1-0.2-0.2-0.3-0.2c-0.2,0-0.4,0.1-0.6,0.2l-3.5,1.2
	l-0.1-0.1C108,406.7,109.3,405.7,110.7,404.9L110.7,404.9z M117,389.9c-0.6-0.5-1.2,0.2-1.8,0c0.1-0.1,0.2-0.2,0.3-0.3
	c1-0.7,2.2-1.3,3.4-1.6c0.6-0.2,1.2-0.3,1.8-0.4c0.5-0.1,1,0,1.4,0.3c0.3,0.1,0.4,0.4,0.4,0.8s-0.2,0.7-0.5,1
	c-0.4,0.4-0.9,0.6-1.4,0.8c-0.7,0.2-1.4,0.4-2.1,0.7c-1,0.2-2.1,0.2-3.2-0.1c-0.2-0.1-0.5-0.1-0.7-0.2
	C115.3,390.5,116.2,390.4,117,389.9L117,389.9z M112.7,383.3c0.6-1.1,1.3-2,2.2-2.8c0.1-0.1,0.3-0.3,0.4-0.4
	c0.5-0.5,1.1-0.9,1.7-1.2c0.1,0,0.2-0.1,0.3-0.1c1-0.2,1.4,0.1,1.4,1.2c0,0.6-0.2,1.2-0.6,1.7c-0.5,0.9-1.2,1.7-2.1,2.4l-3.3,2
	l-0.4,0.3c-0.1-0.2,0-0.5,0.2-0.6c0.4-0.5,0.9-1,1.3-1.6c0.3-0.4,0.6-0.7,0.9-1s0.2-0.7,0.3-1.1c-0.8,0.5-1,1.4-1.7,2
	s-1.1,1.4-1.8,2l-0.1-0.1c0-0.1,0.1-0.3,0.1-0.4L112.7,383.3z M104.8,388.5c-0.1,0.2-0.3,0.4-0.4,0.5c-0.3-0.5,0-1-0.1-1.4
	s0.5-0.8,0-1.3c-0.3,0.5-0.5,1.2-0.5,1.8c0.1,0.4,0,0.8-0.2,1.2c-0.1-0.1-0.3-0.2-0.3-0.4c-0.5-1-0.8-2.2-1-3.3v-0.1
	c-0.1-1.2,0.3-2.3,1-3.3c0.3-0.3,0.6-0.5,0.9-0.8c0.6-0.4,1.4-0.2,1.8,0.4c0.1,0.1,0.1,0.2,0.2,0.4c0.1,0.4,0.2,0.7,0.1,1.1
	c0,1-0.2,2-0.5,3C105.5,387.1,105.2,387.8,104.8,388.5z M84.7,401.7c-0.2-1.5-0.4-3.1-0.4-4.6l-0.6-0.1l0.4,3.8l-0.2,0.1
	c0-0.1-0.1-0.1-0.1-0.2c-0.5-0.7-0.9-1.5-1.1-2.3c-0.3-1.1-0.4-2.2-0.3-3.3c0.1-0.7,0.3-1.4,0.7-2c0.2-0.3,0.7-0.5,1-0.2
	c0.1,0,0.1,0.1,0.2,0.1c0.7,0.7,1.1,1.6,1.3,2.5c0.1,0.5,0.1,1,0,1.5c-0.1,0.9-0.1,1.9-0.2,2.8C85.3,400.4,85.1,401.1,84.7,401.7
	L84.7,401.7z M81.9,408.9c-0.4,0.1-0.6-0.1-0.8-0.3c-0.8-0.8-1.5-1.7-1.9-2.7c-0.4-0.8-0.5-1.6-0.3-2.5c0-0.4,0.4-0.8,0.8-0.8
	c0.2,0,0.5,0.1,0.6,0.3c0.7,0.7,1.3,1.5,1.7,2.4c0.4,0.8,0.5,1.6,0.5,2.5c0,0.1-0.1,0.2-0.1,0.3c-0.5-0.4-0.3-1.2-1.1-1.4
	C81.1,407.6,81.8,408.2,81.9,408.9L81.9,408.9z M72.3,432.7c-0.3-0.1-0.6-0.1-0.8-0.2c-0.8-0.4-1.6-0.8-2.4-1.2
	c-1-0.6-1.8-1.4-2.3-2.4c-0.1-0.3-0.2-0.7-0.1-1s0.4-0.6,0.7-0.5c0.4,0,0.9,0.2,1.3,0.4c1.4,0.7,2.6,1.6,3.5,2.8
	c0.2,0.3,0.4,0.6,0.6,0.9c0,0.2,0,0.3,0,0.5c-0.3-0.1-0.6-0.3-0.8-0.6c-0.3-0.4-0.7-0.7-1.1-1c-0.5-0.3-0.9-0.8-1.2-1.4l-0.7-0.1
	c-0.2,0.5-0.2,0.5,0.2,0.8c1,0.8,1.9,1.5,2.9,2.3c0.2,0.2,0.3,0.4,0.5,0.5L72.3,432.7z M70.9,436.8l-0.1,0.6l1.7,0.3
	c0,0.1,0,0.1-0.1,0.2c-0.8,0.4-1.7,0.6-2.6,0.6c-0.8,0-1.7-0.2-2.5-0.4c-0.2-0.1-0.4-0.1-0.5-0.2c-0.6-0.3-0.7-0.7-0.2-1.1
	c0.3-0.3,0.6-0.5,0.9-0.6c1-0.4,2.1-0.4,3.1-0.2c0.9,0.2,1.7,0.5,2.4,1C72.4,437.1,71.7,436.5,70.9,436.8L70.9,436.8z"/>
<path class="st4" d="M407.3,5.6c-1,0.6-2.1,1.2-3.1,1.8c-0.9-1-2.2-1.5-3.6-1.4c-0.9,0-1.6,0.1-2.5,0.4c-2.6,0.6-4.8,1.7-6.8,3.4
	c-0.1,0.2-0.4,0.4-0.4,0.6c-0.4,0.1-0.7,0.2-1.1,0.5c-1.1,0.9-2.3,1.7-3.3,2.6c-1,0.9-2,1.8-2.8,2.8c-1,1.1-1.7,2.6-2.1,4.1
	c-0.4,0.9,0.1,1.7,0.9,2c0.1,0,0.1,0,0.2,0.1c0.6,0.1,1.2,0.2,2,0.1c2.2-0.6,4.5-1.2,6.8-2c1.5-0.5,2.8-1.1,4.3-2
	c1.2-0.7,2.3-1.6,3.6-2.3c1.8-1.2,3.3-2.7,4.7-4.4c0.6-0.6,0.9-1.5,0.7-2.3c0-0.4,0.1-0.7,0.4-1c1.2-1.4,2.7-2.3,4.3-3
	c0.1-0.1,0.2-0.1,0.2-0.2c1.1-0.9,2.2-1.6,3.4-2.2c0.4-0.2,0.9-0.5,1.2-0.7c1-0.6,2-1.2,3.1-1.6c-0.5,1.7-0.9,3.3-1.4,4.9
	c-0.2,1-0.6,2-1,3c-0.1,1.2-0.6,2.3-1.4,3.4c-0.1,0.1-0.1,0.2-0.1,0.4c-0.1,0.6-0.2,1.2-0.5,1.7c-0.4,0.6-0.6,1.4-0.9,2
	c-0.2,1.2-0.9,2.3-1.7,3.3c-0.9,1.1-1.7,2.1-2.7,3c-1.8,1.8-3.3,3.9-5.4,5.7c-2.3,2-4.4,4.2-6.8,6.1c-0.5,0.4-1,0.7-1.5,1.1
	c-1,1-2,2-3.1,3c-0.7,0.9-1.6,1.5-2.5,2.1c-0.6-0.1-1.1-0.4-1.5-0.4c-1.8-0.4-3.4,0.6-5,1.4c-0.7,0.4-1.4,0.7-2,1.1
	c-1.8,1.1-3.6,2.3-5,3.8c-1,1.1-2.1,2.2-3.1,3.3c-1.6,1.5-3.1,3.2-4.3,5.2c-1,1.4-1.4,3.2-0.7,4.8c0.1,0.2,0.4,0.5,0.5,0.7
	c0.7,0.6,1.7,0.7,2.6,0.5c1.5-0.2,2.8-0.9,4.1-1.6c1.1-0.5,2.1-1.1,3.2-1.7c1-0.6,2.2-1.6,3.3-2.2c1.5-0.9,2.7-1.8,3.9-3
	c1.5-1.4,2.7-2.8,3.9-4.4c0.9-0.9,1.2-2,1.4-3.2c0-0.6,0-1.4-0.1-2c-0.1-0.6,0.1-1.4,0.7-1.7c0.5-0.5,0.9-0.9,1.4-1.2l2.5-2.2
	c0.1,2.5,0.2,4.5,0.4,6.8c-0.5,0.1-0.9,0.2-1.4,0.4c-1,0.2-1.7,0.9-2.2,1.7c-0.5,1-0.7,2-1,3c-0.4,2.3-0.4,4.7-0.2,6.9
	c0.2,2.7,0.7,5.4,1.6,7.9c0.4,1.1,1,2.2,1.5,3.2c0.2,0.5,0.7,0.7,1.2,0.5c0.1-0.1,0.4-0.2,0.4-0.4c0.6-0.7,1.1-1.6,1.4-2.5
	c0.2-1.1,0.7-2.1,1.1-3.2c0.4-1.1,0.7-2.2,1-3.3c0.4-1.4,0.5-2.7,0.6-4.1c0-0.5,0-0.9,0-1.4c-0.1-1.2-0.2-2.5-0.4-3.7
	c0-1.6-0.6-3.1-1.6-4.3c-0.2-0.2-0.4-0.5-0.4-0.9c0-1.4,0-2.6-0.1-3.8c0-0.7,0-1.5-0.1-2.2s-0.1-1.1-0.1-1.6c-0.1-1.2,0.7-2,1.5-2.6
	c1.7-1.7,3.6-3.3,5.4-5c2.1-1.7,3.9-3.7,5.7-5.9c0.6-0.7,1.2-1.4,1.8-2c0.1,0.2,0.1,0.6,0,0.9c-0.7,2.6-1.5,5.2-2.1,7.7
	c-0.7,3-1.4,5.9-2.1,8.7c-0.4,1.5-0.6,3-1,4.4c-0.7,2.5-1.4,5-1.7,7.6c-0.5,3.1-1,6.1-1.5,9.2c-0.1,0.4-0.2,0.7-0.6,1.1
	c-0.9,0.6-1.5,1.4-2.1,2.2c-1,1.5-1.7,3.1-2.1,4.8c-0.2,1.1-0.4,2.3-0.4,3.6c-0.1,2.3,0.1,4.5,0.5,6.9c0.2,1.8,0.7,3.6,1.2,5.4
	c0.6,2.7,1.5,5.3,2.3,7.9c0.4,1.2,1.4,2.2,2.7,2.6c0.7,0.2,1.6,0,2.2-0.5c0.7-0.7,1.2-1.6,1.5-2.6c0.4-2,0.7-3.9,0.9-5.9
	c0.2-2,0.2-3.7,0.4-5.7c0-1.6,0-3.2,0-4.8c0-1.2,0-2.6-0.1-3.8c-0.1-1.2-0.4-2.3-0.5-3.4c-0.1-0.7-0.4-1.4-0.4-2.1
	c-0.1-2.1-1.4-3.8-3.2-4.7c-0.5-0.1-0.9-0.6-0.7-1.2l0,0c0.2-1.6,0.4-3.2,0.6-4.8c0.2-1.4,0.4-2.7,0.6-4.1c0.2-1.4,0.4-3.1,0.7-4.5
	c0.6-2.3,1.2-4.5,1.8-6.9c0.4-1.4,0.7-2.7,1.1-4.1c0.5-1.7,1-3.6,1.5-5.3c0.4-1.4,0.7-2.7,1.1-4.1c0.2-0.9,0.5-1.7,0.7-2.6
	c0.1-0.6,0.2-1.2,0.5-1.7c1.1-2.7,2.1-5.5,2.8-8.5c0.2-0.5,0.5-0.9,0.7-1.2c0.2,0.2,0.4,0.4,0.5,0.6c1.1,2.1,2.2,4.2,3.2,6.3
	c0.7,1.6,1.4,3.1,1.8,4.8c0.6,1.2,0.9,2.5,0.7,3.8c-0.2,2.6-0.7,5-1.5,7.5c-0.2,0.7-0.4,1.6-0.6,2.3c-0.2,0.7-0.5,1.4-0.7,2
	c-1.1-0.1-2.2,0.4-3,1.2c-0.7,1-1.5,2-2,3.1c-1.1,2.5-1.7,5-2,7.7c-0.2,1.8-0.4,3.7-0.4,5.5c0,0.5,0.1,1.1,0.1,1.6
	c0,2.6,0.1,5,0.5,7.6c0.1,0.9,0.9,1.6,1.7,1.8c0.7,0.2,1.5,0,2.1-0.6c1.1-1.2,2-2.7,2.6-4.2c0.4-0.9,0.6-1.7,0.9-2.6
	c1-2.5,1.8-4.9,2.3-7.5c0.5-3,0.6-6,0.4-9.1c0-1-0.2-1.8-0.7-2.7c-0.6-0.9-0.7-1.8-0.5-3c0.1-0.5,0.5-1.1,0.6-1.6
	c0.4-1.8,0.7-3.8,1.2-5.7c0-0.1,0.1-0.1,0.4-0.4c0.1,0.4,0.4,0.9,0.5,1.2c0.5,2.1,1.2,4.2,1.6,6.3c0.4,1.5,0.9,3,1.4,4.4
	c0.1,0.4,0.2,0.7,0.4,1.1c-1.4,1.2-2.2,2.8-2.5,4.7c-0.2,1.2-0.2,2.5,0,3.7c0.1,1.4,0.6,2.7,1.2,4.1c1,1.6,1.8,3.2,2.8,4.9
	c1,1.7,1.7,3,2.7,4.4c0.9,1.2,1.7,2.3,2.7,3.4c0.6,0.7,1.4,1.4,2.3,1.7s1.4,0.4,2-0.4c0.9-1,1.2-2.2,1.2-3.4c0-0.5,0-0.9,0-1.4
	c0-0.7,0-1.5-0.1-2.2c-0.2-1.2-0.5-2.5-0.9-3.7c-0.6-2.5-1.5-4.8-2.5-7c-1.1-2.6-2.6-4.9-4.5-7c-0.7-0.9-1.7-1.6-2.8-2
	c-0.4-1.4-0.6-2.6-1-3.9c-0.5-1.7-1-3.4-1.5-5c-0.4-1.1-0.7-2.2-1.2-3.2c-0.5-1.4-0.7-2.8-1.4-4.2c-0.7-1.7-1.5-3.4-2.2-5.2
	c-0.7-1.7-1.5-3.1-2.2-4.7c-1.1-2.2-2.1-4.3-3.2-6.5c-0.4-0.7-0.4-1.5,0-2.2c0.4-0.9,0.5-1.7,0.7-2.5c0.5-1.8,1.2-3.6,2-5.3H415
	c-0.9,0.5-1.7,1-2.6,1.5C411,3.1,409.1,4.4,407.3,5.6z M384.6,17.2c0.9-1.2,1.8-2.2,3.1-3.1c1.5-1.4,3.1-2.6,4.7-3.8
	c1.8-1.4,3.8-2.3,6-2.8c1.2-0.4,2.5-0.2,3.7,0.2c0,0.6-0.2,0.7-0.7,0.9c-0.6,0.2-1.4,0.4-2,0.7c-1.5,0.7-3,1.5-4.4,2.2
	c-1,0.5-1.7,1.2-2.7,1.8c-1.4,0.9-2.7,1.7-3.9,2.6c-0.5,0.4-1,0.7-1.4,1.2c-1,0.9-2.2,1.6-3.3,2.2l-0.2-0.2L384.6,17.2z M402.5,11.9
	c-1.1,1.6-2.6,3-4.2,3.9c-1,0.6-2,1.4-3.1,1.8c-1.7,1-3.6,1.7-5.5,2.3c-1.5,0.5-3,0.9-4.4,1.2c-0.5,0.2-1.1,0.2-1.7,0L385,20
	c1.8-1.6,3.8-2.8,5.8-4.2c0.9-0.7,1.8-1.4,3-1.8c1.8-0.9,3.6-2,5.4-3c1.1-0.5,2.2-1,3.4-1.4C403.1,10.3,403.1,11.1,402.5,11.9
	L402.5,11.9z M368.4,59.3c-0.1-0.7-0.1-1.4,0-2.1c0.5-1.5,1.4-3,2.3-4.1c1.7-2.2,3.7-4.4,5.8-6.3c0.7-0.9,1.7-1.6,2.7-2.1
	c0.9-0.4,1.6-0.7,2.3-1.2c1.2-0.9,2.6-1.5,4.1-1.8c0.5-0.1,1-0.1,1.5-0.1c0.5,0,0.6,0.5,0.2,0.9c-0.9,1.1-1.8,2-3,2.8
	c-0.7,0.6-1.6,1-2.5,1.1c-0.1,1.2-1.1,1.7-1.8,2.3c-2,1.7-3.9,3.3-5.9,5c-1,0.9-1.8,1.8-2.7,2.8C370.7,57.7,369.6,58.6,368.4,59.3
	L368.4,59.3z M388.7,45.8c-0.1,0.6-0.4,1.1-0.7,1.6c-1.6,2.5-3.6,4.5-6,6.3c-2,1.2-3.8,2.6-5.8,3.8c-1.2,0.7-2.6,1.5-3.9,2.1
	c-0.6,0.2-1.2,0.4-1.8,0.5l-0.1-0.2l2.2-2.5c0.1-0.1,0.4-0.2,0.4-0.4c1.2-1.8,3.1-3,4.7-4.4c1.6-1.5,3.1-2.8,4.7-4.2
	c0.9-0.7,1.8-1.4,2.8-2.1s1.8-1.7,2.8-2.5c0.2-0.1,0.5-0.4,0.7-0.5C388.9,44.3,388.9,45.1,388.7,45.8L388.7,45.8z M394.2,55.5
	c0.1,1.4,0.1,2.7-0.1,3.9c-0.1,1-0.1,2,0,3c0,1,0,1.8-0.1,2.8c-0.9-1-1.4-2.1-1.6-3.2c-0.2-1-0.4-2.1-0.5-3.1
	c-0.5-2.7-0.6-5.5-0.4-8.4c0-1.4,0.5-2.7,1.4-3.7c0.4-0.2,0.7-0.5,1.2-0.9c0.1,0.4,0.2,0.9,0.4,1.2c0,2.6,0,5.2-0.1,7.9
	C394.2,55.3,394.1,55.4,394.2,55.5L394.2,55.5z M396.8,47.5c0.2,0.5,0.5,1.1,0.6,1.6c0.2,1.8,0.5,3.7,0.6,5.5c0,1-0.1,2-0.4,3
	c-0.4,2.1-1,4.2-1.8,6.3c-0.1,0.5-0.2,1-0.4,1.4c-0.1-0.2-0.2-0.4-0.2-0.5c-0.1-1.5-0.1-3-0.1-4.4c0-1.4,0.2-2.7,0.6-3.9
	c0.1-0.9,0.1-1.7,0-2.6c0-2,0-3.9,0-5.9c0-0.2,0-0.6,0.1-0.9l0.2-0.1C396.3,47,396.7,47.3,396.8,47.5L396.8,47.5z M403.6,92.9
	c-0.9-0.7-1.6-1.7-1.8-3c-0.5-1.2-1-2.5-1.2-3.8c-0.4-2.5-1.5-4.7-1.6-7.1c0-1.7-0.4-3.6-0.6-5.3c-0.2-2.7,0.1-5.4,1.2-7.9
	c0.6-1.2,1.4-2.2,2.5-3.1c0,1.1,0,2.1,0,3c0,0.9-0.1,2.1-0.1,3.1c0,2,0,3.8,0.2,5.8c0.1,1.4,0.1,2.7,0.2,4.1
	c0.1,0.9,0.2,1.8,0.4,2.7c0.4,3.2,0.6,6.3,1,9.3C403.7,91.4,403.7,92.2,403.6,92.9L403.6,92.9z M406.2,64.6c0.4,0.6,0.5,1.2,0.6,1.8
	c0.4,1.7,0.6,3.3,0.9,5c0,0.1,0,0.1,0,0.2c-0.1,2,0.4,4.1,0,6c-0.1,0.4,0.1,0.7,0,1.2c-0.1,1.7-0.1,3.4-0.2,5.2
	c-0.1,2-0.5,3.8-0.7,5.8c0,1.1-0.6,2.2-1.5,3c-0.1-0.9-0.4-1.5-0.5-2.2c-0.2-1.7-0.5-3.4-0.7-5.3c-0.1-0.9,0-1.7-0.1-2.5
	c-0.1-3-0.4-5.9-0.5-8.9c0-0.7-0.2-1.5-0.2-2.2c-0.1-2.5-0.1-5,0.1-7.5c0-0.5,0-1.1,0.1-1.7C404.9,62.8,405.5,63.8,406.2,64.6
	L406.2,64.6z M414.8,63.6c-0.1,0.6-0.2,1.2-0.4,2c-0.5-0.4-0.7-1-0.7-1.6c-0.4-2.8-0.5-5.7-0.4-8.5c0-2.6,0.4-5.3,1.1-7.9
	c0.5-1.6,1.1-3.2,1.8-4.7c0.5-1,1.4-1.8,2.3-2.3c0.2-0.1,0.4-0.1,0.6-0.2c-0.1,0.5-0.1,0.7-0.1,1c-0.5,2-1,3.8-1.4,5.8
	c-0.2,0.9-0.2,1.7-0.4,2.6c0,0.1,0,0.4-0.1,0.5c-0.5,1.7-0.9,3.4-1,5.2C415.8,58.3,415.1,61.1,414.8,63.6L414.8,63.6z M422.3,46.1
	c0.1,1.8,0,3.7-0.2,5.5c-0.4,1.7-0.7,3.4-1.2,5c-0.6,2-1.2,3.8-2,5.8c-0.4,1.4-1.2,2.7-2.2,3.7c-0.2,0.2-0.5,0.5-0.7,0.6l-0.2-0.1
	c0.1-1,0.2-1.8,0.4-2.8c0.1-1,0.1-2.1,0.4-3.2c0.2-1.4,0.5-2.8,0.7-4.2c0.1-1.2,0.4-2.3,0.5-3.6c0.1-0.9,0.2-1.7,0.6-2.5
	c0.4-1,0.6-2,0.7-3.1c0.5-1.8,0.9-3.8,1.4-5.7c0.1-0.2,0.1-0.4,0.2-0.6c0.4,0.4,0.6,0.5,0.7,0.7C421.8,43.1,422.1,44.6,422.3,46.1
	L422.3,46.1z M430.9,45.3c1.4,1,2.5,2.2,3.3,3.7c0.9,1.7,1.8,3.3,2.6,5c0.4,1,0.7,2,1,3c0.6,1.8,1.1,3.7,1.6,5.7
	c0.4,1.7,0.4,3.6-0.2,5.3c-0.1,0.4-0.4,0.7-0.6,1.1c-0.9-1.6-1.6-2.8-2.2-4.1c-0.6-1.2-1.2-3-2-4.3c-0.5-1.1-1-2.3-1.5-3.4
	c-0.4-0.7-0.5-1.5-0.5-2.3c0-0.1,0-0.4,0-0.5c-0.7-2-1.5-3.9-2.1-5.9c-0.4-1-0.7-2.1-1-3.1c0-0.2-0.1-0.5-0.1-0.7
	C429.9,44.7,430.4,44.9,430.9,45.3L430.9,45.3z M430.4,53.4c0.6,2.6,1.8,5,2.7,7.6c0.7,2,1.7,3.9,2.6,5.9c0,0.1,0,0.2,0,0.4
	l-0.1,0.1c-0.9-1.1-1.8-2.2-2.7-3.3c-1-1.4-2-2.8-3-4.3c-1-1.6-2-3.4-2.7-5.2c-0.9-2.1-1.2-4.4-0.7-6.6c0.1-0.9,0.6-1.6,1.1-2.2
	c0.1,0.2,0.2,0.5,0.4,0.7C428.8,48.8,429.8,51.1,430.4,53.4L430.4,53.4z"/>
<circle class="st3" cx="710.7" cy="96.8" r="5.4"/>
<circle class="st3" cx="626.4" cy="339.6" r="16.1"/>
<path class="st5" d="M859.1,266.7l20.8-21.9c0,0,22.2,12.2,48.1,23.9c7.1-12.4,18.8-53.1,19.4-55c0.6-2-13.6-26.4-10.4-27
	c3.1-0.6,7.3,13.1,10.7,11.6c3.4-1.4,12.1-33.1,14-31.4c3.8,3.2-4.5,19.7-2.5,21c2,1.2,7-18.3,10.9-17.5c3.9,0.8-6.5,17.7-5.3,19.4
	c1.2,1.7,12-14.3,14.3-10.6c1.3,2-10,13.8-7.7,15.1c2.3,1.4,12.4-6.1,13.6-3.7c1.3,2.4-9.4,4.9-12.4,11c-2.9,6.1-8.3,8.5-10.1,20
	c-1.8,11.5-6.6,73.3-19.2,78.2C932.1,304.1,859.1,266.7,859.1,266.7z"/>
<path class="st6" d="M903.6,488h-64.5l-17.7-41.6l26.8-41.1l3.2-5l0.8-1.4l2.7-4.2l0.4-0.6l0.7-0.4c0,0,0,0,0.1,0l3.7-2.1l12.4-6.9
	c0.7,1.8,3.8,11.6,3.8,11.6s12.5,40.8,18.2,60.5C894.5,457,898.6,469.8,903.6,488z"/>
<path class="st7" d="M872.5,384.7L852,467.7l-1.6,20.3h-68.9c-0.7-3-1.2-4.7-1.2-4.7c-3.8-18.1,1.7-46.2,11.6-66
	c4.5-9.1,10.7-15.3,15-22.4c0.6-1,1.3-2.2,1.8-3.2c1.6-3.1,2.6-6.1,3.5-8.9c0.3-1,0.5-2,0.7-3c1.9-8.4,1-14.4,1-14.4L872.5,384.7z"
	/>
<path class="st8" d="M878.7,182.2c-2.7-12.7-5.5-25.5-18.1-34.6c-10.2-7.4-21.2-9.5-32.8-5.3c-33,12-15.2,38.2-56.2,66
	c-12.7,8.7-17.5,11.7-26.6,23.3c-12.8,16.1-19.7,37.8-13.3,55.8c13.3,36.9,54.4,47.6,76,39.7c40-14.6,73.5-65.4,75.7-79.3
	C885.6,233.1,880.5,190.4,878.7,182.2z"/>
<path class="st1" d="M881.8,280.4c9.3,4.3,26.1,10.7,26.1,10.7l9.5-30.3c-54.1-30.7-49.8-25.8-90.4-25.2c-32.4,0.4-46-5.8-73.9,69.6
	c0,0,21.3,9.5,28.8,12.6c3.2-9.3,9.2-27.9,12.7-17.3c5.2,16,9,32.2,11.6,48.7c1.7,9.9,5.1,22.4,3.4,32.5c0,0,22.1,4.5,38.9,5.2h0.1
	c8.2-0.2,16.5-0.9,23.9-2.5c0,0,3.4-69.9,5-72.9c2-3.2,10.2-13.6,3.1-29.2C879.5,279.9,879.9,279.6,881.8,280.4z"/>
<path class="st5" d="M832.2,204.6c0,0-2.6,20.9-4.1,28.1c-1.6,7.5-4,31.4,11.7,35.3c15.7,3.9,10.9-26,11.1-33.6
	c0.2-7.7,4.7-34.6,4.7-34.6L832.2,204.6z"/>
<path class="st9" d="M831.3,211.3c0.2,0.1,0.3,0.2,0.5,0.3c8.7,4.9,16.2,4.2,21.9,0.3c1-6.7,1.9-12.1,1.9-12.1l-23.5,4.8
	C832.2,204.6,831.8,207.4,831.3,211.3z"/>
<path class="st9" d="M871,177.9c0.2,4.4-1.7,8-4.2,8.2c-2.5,0.1-4.7-3.4-4.9-7.7c-0.2-4.4,1.7-8,4.2-8.2
	C868.6,170.2,870.8,173.5,871,177.9z"/>
<path class="st5" d="M841.2,401.8c0.4,0,2.1-0.2,3.6-0.1c2,0,3.7,0.3,3.7,0.3s0.7-0.6,2.2-1.4c0.6-0.3,1.6-0.4,2.3-0.7
	c0.7-0.3,1.3-0.9,2-1.3c1.7-0.7,3.4-0.9,3.9,0c0.4,0.7-9.1,6.6-9.1,6.6c-8.9,0-18.1,4.6-38.7-8.8c-11.7-5.1-68.8-33.3-69.9-39.4
	c-0.6-3.5,8.1-30.1,15.3-50.3c5.6,2.5,17.2,7.7,23.8,10.5c-6,12.8-13.1,29.7-12.4,31.8c0.2,0.5,0.9,1.5,39.4,26.7
	c0.9,0.6,2,1.3,2.9,2c2.7,1.8,5.7,3.7,8.7,5.7l11-1.2c0,0,17.4,1.2,17.9,3.1c0.2,0.9-1.3,1.4-3,1.6l0,0c-0.2,0-0.5,0.1-0.7,0.1l0,0
	c-1.9,0.2-3.9,0.2-4.4,0.4c-0.5,0.2-1.7,0.6-2.6,1.3c10.9,4.4,10.1,2.8,13.6,2.6c0.9-0.1,1.9,0.2,2.7,0.1c1.5-0.1,2.6-0.9,3.8-1
	c1.7-0.1,3,0.6,3.2,0.9c0.4,0.4-0.3,0.9-1.7,1.6c-8.4,3.7-15.3,2.2-17.5,2.8c-1.5,0.3,1.3,0.9,5.5,0.4c1-0.1,2.4,0.3,3.9,0
	c0.9-0.2,1.8-0.8,2.7-1c0.8-0.2,1.7-0.2,2.4-0.3c0.9-0.2,2.2-0.8,3-0.9c2.8-0.3,4.1,0.2,4.4,0.4c0.6,0.5-12,5.5-12,5.5
	s-8.7,1.3-10.7,1.3C840.1,400.9,839,401.4,841.2,401.8z"/>
<polyline class="st10" points="753.1,305.4 781.9,318 784.9,309.8 755.9,297.8 753.1,305 "/>
<polygon class="st10" points="907.8,291.2 917.5,260.9 910.5,257 899.8,288 "/>
<path class="st11" d="M943,228.1c0,0,14.5,3,18.4,2.3c-0.5,4.1-0.6,5.2-0.6,5.2s-15.2-0.5-19.4-2.7C942.1,230.8,943,228.1,943,228.1
	z"/>
<circle class="st12" cx="945.2" cy="231.6" r="0.4"/>
<circle class="st12" cx="947.4" cy="232" r="0.4"/>
<circle class="st12" cx="949.8" cy="232.4" r="0.4"/>
<path class="st5" d="M836.9,150.3c0,0-9.2,2.6-14.5,11.7c-5.3,9.1-8,35.4,11.5,46.5c19.5,11.2,33.4-6.7,32.8-23.5
	C866.1,168.4,861.5,146.2,836.9,150.3z"/>
<path class="st8" d="M839.6,149.6c0,0-10.5,27.5-20.9,30.4c-10.3,2.9-9.4,16.5-9.4,16.5s-1.4-31.2,8.1-38.9
	C826.8,149.9,839.6,149.6,839.6,149.6z"/>
<path class="st5" d="M823.2,185.4c1.6,4.3,0.5,8.6-2.3,9.7c-2.8,1-6.5-1.5-8.1-5.8s-0.5-8.7,2.3-9.7
	C818,178.5,821.6,181.1,823.2,185.4z"/>
<path class="st8" d="M835.8,149.3c0,0,16,24.6,26.7,25.4s12.7,14,12.7,14s-5.2-30.8-16-36.3C848.4,146.9,835.8,149.3,835.8,149.3z"
	/>
<path class="st9" d="M845.3,179.9c0.2,0.7,0.3,1.4,0.4,2.1c0.1,0.7,0.1,1.4,0.2,2.1l0.1,1c0,0.2,0,0.3,0.1,0.4
	c0,0.2,0.1,0.3,0.1,0.5c0.1,0.4,0,0.9-0.1,1.4c-0.1,0.3-0.3,0.5-0.6,0.6c-0.2,0.1-0.5,0.1-0.7,0.1c-0.2,0-0.4-0.2-0.4-0.4l0,0
	c0-0.2,0.1-0.3,0.2-0.3l0.1-0.1c0.1-0.1,0.2-0.1,0.2-0.2V187c0-0.2,0-0.5-0.1-0.7l-0.1-0.5c0-0.2-0.1-0.4-0.1-0.5
	c0-0.4-0.1-0.7-0.1-1c0-0.7,0-1.4,0-2.1s0-1.4,0-2.1l0,0c0-0.2,0.2-0.4,0.4-0.4C845,179.6,845.2,179.7,845.3,179.9z"/>
<path class="st13" d="M865,180.4c-0.9-0.2-2-0.4-2.9-0.5c-0.9-0.1-2-0.1-2.9-0.1c-0.9,0.1-1.9,0.3-2.7,0.6c-0.8,0.3-1.7,0.8-2.5,1.4
	l0,0c-0.2,0.1-0.5,0.1-0.6-0.1c-0.1-0.2-0.1-0.4,0-0.5c0.7-0.8,1.6-1.6,2.6-2c1-0.4,2.1-0.7,3.2-0.7c1-0.1,2.2,0,3.2,0.2
	c1,0.2,2.1,0.5,3,1c0.2,0.1,0.3,0.3,0.2,0.5C865.5,180.3,865.3,180.4,865,180.4L865,180.4z"/>
<path class="st14" d="M849.3,199.9c-1.2,1-2.7,1.6-4.3,1.5c-1.6,0-3-0.7-4.1-1.9c-0.2-0.2-0.1-0.5,0-0.6l0,0
	c0.1-0.1,0.3-0.1,0.5-0.1l0,0c1,0.6,2.3,1,3.6,1c1.3,0.1,2.5-0.2,3.7-0.6l0,0c0.2-0.1,0.4,0,0.5,0.2
	C849.5,199.6,849.5,199.8,849.3,199.9z"/>
<path class="st13" d="M868.2,173.3c-0.8-1.2-1.8-2.2-3-2.8c-0.1,0-0.1-0.1-0.2-0.1l0,0c0,0-0.1,0-0.1-0.1c-1.4-0.6-2.8-1.2-4.3-1.4
	c-3-0.5-6.1,0.2-8.7,2c-0.3,0.2-0.6,0.4-0.9,0.7s-0.5,0.5-0.7,0.8l-0.6,0.9l-0.5,0.9c-0.7,1.3-1.3,2.7-1.6,4.2
	c-0.1,0.3-0.1,0.7-0.1,1.2c-0.2,2.6,0.5,5.3,2.1,7.5c0.8,1.4,2,2.4,3.4,3.1c1.4,0.6,2.8,1,4.3,1.3c3,0.4,6.1-0.2,8.5-2
	c0.4-0.3,0.7-0.5,1-0.8c0.7-0.7,1.4-1.6,1.9-2.5c0.2-0.4,0.4-0.9,0.6-1.4l0,0c0.3-0.8,0.6-1.8,0.7-2.7
	C870.5,179,869.9,175.9,868.2,173.3z M869.5,181.9L869.5,181.9c-0.2,1.4-0.7,2.7-1.5,3.9c-0.3,0.5-0.7,1-1.3,1.6l0,0
	c-0.5,0.5-1,1-1.7,1.5c-2.2,1.7-5.1,2.4-7.9,2c-1.4-0.2-2.6-0.8-3.8-1.7c-1.2-0.7-2.1-1.7-3-2.7c-1.7-2.2-2.4-5-2.1-7.8
	c0.1-1.4,0.6-2.7,1.4-3.9c0.2-0.3,0.4-0.5,0.6-0.8c0.2-0.3,0.5-0.5,0.7-0.7c0.3-0.2,0.5-0.4,0.7-0.7c0.3-0.2,0.5-0.4,0.8-0.6
	c2.2-1.7,5-2.5,7.8-2.1c1.4,0.2,2.6,0.7,3.7,1.5l0.1,0.1c0.4,0.3,0.7,0.5,1,0.8c0.7,0.5,1.4,1.3,1.9,1.9
	C869,176.2,869.8,179.1,869.5,181.9z"/>
<path class="st13" d="M842.2,179.7c-0.3-1.8-0.9-3.5-2-4.9c-0.9-1.3-2.1-2.3-3.5-2.9s-2.8-1-4.3-1.3c-1.2-0.1-2.3-0.1-3.5,0l0,0
	c-1.9,0.3-3.7,1-5.1,2.2c-0.3,0.2-0.6,0.4-0.8,0.7c-0.2,0.3-0.5,0.5-0.7,0.8l-0.6,0.9l-0.5,1c-0.6,1-1,2.2-1.4,3.5
	c-0.1,0.2-0.1,0.4-0.2,0.7c0,0,0,0,0,0.1c-0.4,3,0.3,6.2,2.2,8.6c0.5,0.8,1.3,1.6,2,2.1c0.4,0.3,0.9,0.6,1.4,0.8
	c1.4,0.6,2.8,1,4.4,1.2c3,0.3,6.1-0.4,8.5-2.3c1.2-0.9,2.2-2.1,2.8-3.5c0.6-1.4,1.2-2.7,1.4-4.2
	C842.4,182.1,842.4,180.9,842.2,179.7z M841.7,183.3L841.7,183.3c-0.4,2.8-2,5.3-4.2,7c-2.2,1.8-5,2.6-7.9,2.2
	c-1.4-0.2-2.7-0.7-3.8-1.6c-0.6-0.4-1.3-0.9-1.9-1.5c-0.4-0.4-0.8-0.7-1.3-1.3c-1.6-2-2.4-4.6-2.3-7.1c0-0.2,0-0.3,0-0.5
	c0-0.4,0.1-0.9,0.2-1.4c0.2-0.9,0.5-1.8,1-2.6c0.2-0.3,0.4-0.5,0.6-0.8c0.2-0.3,0.4-0.5,0.7-0.7c0.2-0.2,0.5-0.5,0.7-0.7
	c0.2-0.2,0.5-0.4,0.7-0.6c1-0.8,2.3-1.6,3.6-1.9c1.4-0.4,2.7-0.5,4.1-0.4c1.4,0.2,2.7,0.6,3.9,1.5c1.2,0.7,2.2,1.7,3,2.7
	C841.1,177.6,841.9,180.4,841.7,183.3z"/>
<path class="st15" d="M842,179.8c1.6-1.3,3.8-1.3,5.5-0.1"/>
<radialGradient id="SVGID_1_" cx="818.7679" cy="194.7857" r="3.338" gradientUnits="userSpaceOnUse">
	<stop  offset="0" style="stop-color:#E5A31E"/>
	<stop  offset="9.496798e-02" style="stop-color:#E5A522"/>
	<stop  offset="0.1845" style="stop-color:#E7AA2D"/>
	<stop  offset="0.2719" style="stop-color:#E9B340"/>
	<stop  offset="0.358" style="stop-color:#ECC05B"/>
	<stop  offset="0.4423" style="stop-color:#F0D07D"/>
	<stop  offset="0.5" style="stop-color:#F3DD99"/>
	<stop  offset="0.5569" style="stop-color:#EBD18F"/>
	<stop  offset="0.6609" style="stop-color:#D5AF74"/>
	<stop  offset="0.8006" style="stop-color:#B27A48"/>
	<stop  offset="0.9689" style="stop-color:#81300C"/>
	<stop  offset="1" style="stop-color:#782200"/>
</radialGradient>
<path class="st16" d="M820,193.1c0.3,0.4,0.3,1,0,1.1c-0.3,0.2-0.7,0-1-0.5s-0.3-1,0-1.1S819.7,192.6,820,193.1z"/>
<path class="st13" d="M823.7,183.1c0.8-0.6,1.8-1.2,2.7-1.6c1-0.4,2.1-0.7,3.1-0.8c1-0.1,2.2-0.1,3.2,0.1c1,0.2,2.1,0.7,2.9,1.5
	c0.2,0.1,0.3,0.4,0.2,0.6c-0.1,0.2-0.4,0.3-0.6,0.2l0,0c-0.8-0.4-1.8-0.7-2.7-0.8c-0.9-0.1-1.9-0.1-2.8,0c-0.9,0.1-1.9,0.3-2.8,0.6
	s-1.9,0.6-2.7,1l0,0c-0.2,0.1-0.4,0.1-0.5-0.1C823.6,183.5,823.6,183.2,823.7,183.1L823.7,183.1z"/>
<path class="st9" d="M815.1,183.9c0,0,2.6,6.7,1.4,6.6C815.4,190.3,813.5,186.6,815.1,183.9z"/>
<path class="st1" d="M887.4,147.5l15.6-6.6c0.2-0.1,0.4-0.1,0.6-0.1h41c0.8,0,1.5-0.7,1.5-1.5v-40c0-0.8-0.7-1.5-1.5-1.5H874
	c-0.8,0-1.5,0.7-1.5,1.5v39.8c0,0.8,0.7,1.5,1.5,1.5h10.5c1.1,0,1.8,1.2,1.3,2.2c-1.3,2.6-3.3,6.5-3.1,6.5
	C883,149.3,887.4,147.5,887.4,147.5z"/>
<path class="st17" d="M943.5,99.8H875c-0.3,0-0.5,0.2-0.5,0.5V138c0,0.3,0.2,0.5,0.5,0.5h14.3c0.4,0,0.7,0.4,0.5,0.8l-2.5,4.9
	c-0.2,0.5,0.2,1,0.7,0.8l14.7-6.2c0.1,0,0.1,0,0.2,0h40.6c0.3,0,0.5-0.2,0.5-0.5v-37.9C944,100.1,943.8,99.8,943.5,99.8z"/>
<g>
	<path class="st18" d="M882.5,108.8c0.2,0,0.3,0.1,0.4,0.2s0.2,0.3,0.2,0.4v5.8c0,0.2-0.1,0.3-0.2,0.4c-0.1,0.1-0.3,0.2-0.4,0.2
		c-0.2,0-0.3-0.1-0.5-0.2c-0.1-0.1-0.2-0.3-0.2-0.4v-5.8c0-0.2,0.1-0.3,0.2-0.4C882.1,108.9,882.3,108.8,882.5,108.8z M882.4,111.8
		h4.5v1.2h-4.5V111.8z M886.9,108.8c0.2,0,0.3,0.1,0.5,0.2c0.1,0.1,0.2,0.3,0.2,0.4v5.8c0,0.2-0.1,0.3-0.2,0.4
		c-0.1,0.1-0.3,0.2-0.5,0.2c-0.2,0-0.3-0.1-0.4-0.2c-0.1-0.1-0.2-0.3-0.2-0.4v-5.8c0-0.2,0.1-0.3,0.2-0.4
		C886.6,108.9,886.8,108.8,886.9,108.8z"/>
	<path class="st18" d="M891.5,116c-0.6,0-1.1-0.1-1.5-0.4c-0.4-0.2-0.7-0.6-1-1c-0.2-0.4-0.3-0.9-0.3-1.4c0-0.6,0.1-1.1,0.4-1.5
		c0.2-0.4,0.6-0.8,1-1c0.4-0.2,0.8-0.3,1.3-0.3c0.3,0,0.7,0.1,1,0.2c0.3,0.1,0.6,0.3,0.8,0.6c0.2,0.2,0.4,0.5,0.6,0.9
		c0.1,0.3,0.2,0.7,0.2,1c0,0.2-0.1,0.3-0.2,0.4c-0.1,0.1-0.3,0.2-0.4,0.2h-3.8l-0.3-1h3.7l-0.2,0.2v-0.3c0-0.2-0.1-0.4-0.2-0.5
		s-0.3-0.3-0.5-0.4s-0.4-0.1-0.6-0.1c-0.2,0-0.4,0-0.6,0.1s-0.3,0.1-0.5,0.3c-0.1,0.1-0.2,0.3-0.3,0.5c-0.1,0.2-0.1,0.5-0.1,0.8
		c0,0.4,0.1,0.7,0.2,0.9c0.2,0.3,0.3,0.4,0.6,0.6c0.2,0.1,0.5,0.2,0.8,0.2c0.2,0,0.4,0,0.6-0.1c0.1,0,0.3-0.1,0.4-0.1
		c0.1-0.1,0.2-0.1,0.2-0.1c0.1-0.1,0.2-0.1,0.3-0.1c0.1,0,0.3,0.1,0.4,0.2c0.1,0.1,0.1,0.2,0.1,0.4c0,0.2-0.1,0.3-0.3,0.5
		c-0.2,0.1-0.4,0.3-0.7,0.4C892.2,115.9,891.8,116,891.5,116z"/>
	<path class="st18" d="M896.2,115.3c0,0.2-0.1,0.3-0.2,0.4c-0.1,0.1-0.3,0.2-0.4,0.2c-0.2,0-0.3-0.1-0.4-0.2
		c-0.1-0.1-0.2-0.3-0.2-0.4v-6.2c0-0.2,0.1-0.3,0.2-0.4c0.1-0.1,0.3-0.2,0.4-0.2c0.2,0,0.3,0.1,0.4,0.2c0.1,0.1,0.2,0.3,0.2,0.4
		V115.3z"/>
	<path class="st18" d="M898.9,115.3c0,0.2-0.1,0.3-0.2,0.4c-0.1,0.1-0.3,0.2-0.4,0.2c-0.2,0-0.3-0.1-0.4-0.2
		c-0.1-0.1-0.2-0.3-0.2-0.4v-6.2c0-0.2,0.1-0.3,0.2-0.4c0.1-0.1,0.3-0.2,0.4-0.2c0.2,0,0.3,0.1,0.4,0.2c0.1,0.1,0.2,0.3,0.2,0.4
		V115.3z"/>
	<path class="st18" d="M905.4,113.2c0,0.5-0.1,1-0.4,1.5c-0.2,0.4-0.6,0.7-1,1c-0.4,0.2-0.9,0.4-1.4,0.4s-1-0.1-1.4-0.4
		c-0.4-0.2-0.7-0.6-1-1c-0.2-0.4-0.4-0.9-0.4-1.5c0-0.5,0.1-1,0.4-1.5c0.2-0.4,0.6-0.7,1-1c0.4-0.2,0.9-0.4,1.4-0.4s1,0.1,1.4,0.4
		c0.4,0.2,0.7,0.6,1,1C905.3,112.2,905.4,112.6,905.4,113.2z M904.2,113.2c0-0.3-0.1-0.6-0.2-0.9c-0.1-0.3-0.3-0.4-0.6-0.6
		c-0.2-0.1-0.5-0.2-0.8-0.2c-0.3,0-0.5,0.1-0.8,0.2c-0.2,0.1-0.4,0.3-0.6,0.6s-0.2,0.5-0.2,0.9c0,0.3,0.1,0.6,0.2,0.9
		s0.3,0.4,0.6,0.6c0.2,0.1,0.5,0.2,0.8,0.2c0.3,0,0.5-0.1,0.8-0.2c0.2-0.1,0.4-0.3,0.6-0.6C904.2,113.8,904.2,113.5,904.2,113.2z"/>
	<path class="st18" d="M909.4,110.6h2.4c0.2,0,0.3,0.1,0.4,0.2c0.1,0.1,0.2,0.2,0.2,0.4c0,0.2-0.1,0.3-0.2,0.4s-0.2,0.2-0.4,0.2
		h-2.4c-0.2,0-0.3-0.1-0.4-0.2c-0.1-0.1-0.2-0.2-0.2-0.4c0-0.2,0.1-0.3,0.2-0.4C909.1,110.7,909.2,110.6,909.4,110.6z M910.4,109.3
		c0.2,0,0.3,0.1,0.4,0.2s0.2,0.3,0.2,0.4v4.5c0,0.1,0,0.2,0.1,0.2c0,0.1,0.1,0.1,0.2,0.1c0.1,0,0.1,0,0.2,0c0.1,0,0.2,0,0.2,0
		c0.1,0,0.1,0,0.2,0c0.1,0,0.2,0,0.3,0.1c0.1,0.1,0.1,0.2,0.1,0.4c0,0.2-0.1,0.3-0.3,0.5c-0.2,0.1-0.4,0.2-0.7,0.2
		c-0.1,0-0.3,0-0.5,0s-0.3-0.1-0.5-0.2c-0.2-0.1-0.3-0.2-0.4-0.4c-0.1-0.2-0.2-0.4-0.2-0.8V110c0-0.2,0.1-0.3,0.2-0.4
		S910.3,109.3,910.4,109.3z"/>
	<path class="st18" d="M916.3,110.4c0.5,0,0.9,0.1,1.1,0.3c0.3,0.2,0.4,0.5,0.5,0.8c0.1,0.3,0.1,0.7,0.1,1.2v2.6
		c0,0.2-0.1,0.3-0.2,0.4c-0.1,0.1-0.3,0.2-0.4,0.2c-0.2,0-0.3-0.1-0.4-0.2c-0.1-0.1-0.2-0.3-0.2-0.4v-2.6c0-0.2,0-0.4-0.1-0.6
		s-0.2-0.3-0.3-0.4c-0.1-0.1-0.3-0.2-0.6-0.2c-0.3,0-0.5,0.1-0.7,0.2c-0.2,0.1-0.3,0.2-0.4,0.4c-0.1,0.2-0.1,0.4-0.1,0.6v2.6
		c0,0.2-0.1,0.3-0.2,0.4c-0.1,0.1-0.3,0.2-0.4,0.2c-0.2,0-0.3-0.1-0.4-0.2c-0.1-0.1-0.2-0.3-0.2-0.4v-6.2c0-0.2,0.1-0.3,0.2-0.4
		c0.1-0.1,0.3-0.2,0.4-0.2c0.2,0,0.3,0.1,0.4,0.2s0.2,0.3,0.2,0.4v2.5l-0.2,0c0.1-0.1,0.1-0.2,0.3-0.4c0.1-0.1,0.2-0.3,0.4-0.4
		c0.2-0.1,0.3-0.2,0.5-0.3C915.8,110.4,916,110.4,916.3,110.4z"/>
	<path class="st18" d="M921.9,116c-0.6,0-1.1-0.1-1.5-0.4c-0.4-0.2-0.7-0.6-1-1c-0.2-0.4-0.3-0.9-0.3-1.4c0-0.6,0.1-1.1,0.4-1.5
		c0.2-0.4,0.6-0.8,1-1c0.4-0.2,0.8-0.3,1.3-0.3c0.3,0,0.7,0.1,1,0.2c0.3,0.1,0.6,0.3,0.8,0.6c0.2,0.2,0.4,0.5,0.6,0.9
		c0.1,0.3,0.2,0.7,0.2,1c0,0.2-0.1,0.3-0.2,0.4c-0.1,0.1-0.3,0.2-0.4,0.2h-3.8l-0.3-1h3.7l-0.2,0.2v-0.3c0-0.2-0.1-0.4-0.2-0.5
		s-0.3-0.3-0.5-0.4s-0.4-0.1-0.6-0.1c-0.2,0-0.4,0-0.6,0.1s-0.3,0.1-0.5,0.3c-0.1,0.1-0.2,0.3-0.3,0.5c-0.1,0.2-0.1,0.5-0.1,0.8
		c0,0.4,0.1,0.7,0.2,0.9c0.2,0.3,0.3,0.4,0.6,0.6c0.2,0.1,0.5,0.2,0.8,0.2c0.2,0,0.4,0,0.6-0.1c0.1,0,0.3-0.1,0.4-0.1
		c0.1-0.1,0.2-0.1,0.2-0.1c0.1-0.1,0.2-0.1,0.3-0.1c0.1,0,0.3,0.1,0.4,0.2c0.1,0.1,0.1,0.2,0.1,0.4c0,0.2-0.1,0.3-0.3,0.5
		c-0.2,0.1-0.4,0.3-0.7,0.4C922.5,115.9,922.2,116,921.9,116z"/>
	<path class="st18" d="M925.9,115.9c-0.2,0-0.3-0.1-0.4-0.2c-0.1-0.1-0.2-0.3-0.2-0.4v-4.2c0-0.2,0.1-0.3,0.2-0.4
		c0.1-0.1,0.3-0.2,0.4-0.2c0.2,0,0.3,0.1,0.4,0.2c0.1,0.1,0.2,0.3,0.2,0.4v0.9l-0.1-0.7c0.1-0.2,0.2-0.3,0.3-0.4
		c0.1-0.1,0.2-0.2,0.4-0.3c0.1-0.1,0.3-0.1,0.5-0.2c0.2,0,0.3-0.1,0.5-0.1c0.2,0,0.4,0.1,0.5,0.2c0.1,0.1,0.2,0.2,0.2,0.4
		c0,0.2-0.1,0.4-0.2,0.5c-0.1,0.1-0.2,0.1-0.4,0.1c-0.1,0-0.2,0-0.3-0.1c-0.1,0-0.2-0.1-0.4-0.1c-0.1,0-0.2,0-0.4,0.1
		s-0.2,0.1-0.3,0.3c-0.1,0.1-0.2,0.3-0.3,0.4c-0.1,0.2-0.1,0.4-0.1,0.6v2.4c0,0.2-0.1,0.3-0.2,0.4
		C926.2,115.8,926,115.9,925.9,115.9z"/>
	<path class="st18" d="M931.9,116c-0.6,0-1.1-0.1-1.5-0.4c-0.4-0.2-0.7-0.6-1-1c-0.2-0.4-0.3-0.9-0.3-1.4c0-0.6,0.1-1.1,0.4-1.5
		c0.2-0.4,0.6-0.8,1-1c0.4-0.2,0.8-0.3,1.3-0.3c0.3,0,0.7,0.1,1,0.2c0.3,0.1,0.6,0.3,0.8,0.6c0.2,0.2,0.4,0.5,0.6,0.9
		c0.1,0.3,0.2,0.7,0.2,1c0,0.2-0.1,0.3-0.2,0.4c-0.1,0.1-0.3,0.2-0.4,0.2h-3.8l-0.3-1h3.7l-0.2,0.2v-0.3c0-0.2-0.1-0.4-0.2-0.5
		s-0.3-0.3-0.5-0.4s-0.4-0.1-0.6-0.1c-0.2,0-0.4,0-0.6,0.1s-0.3,0.1-0.5,0.3c-0.1,0.1-0.2,0.3-0.3,0.5c-0.1,0.2-0.1,0.5-0.1,0.8
		c0,0.4,0.1,0.7,0.2,0.9c0.2,0.3,0.3,0.4,0.6,0.6c0.2,0.1,0.5,0.2,0.8,0.2c0.2,0,0.4,0,0.6-0.1c0.1,0,0.3-0.1,0.4-0.1
		c0.1-0.1,0.2-0.1,0.2-0.1c0.1-0.1,0.2-0.1,0.3-0.1c0.1,0,0.3,0.1,0.4,0.2c0.1,0.1,0.1,0.2,0.1,0.4c0,0.2-0.1,0.3-0.3,0.5
		c-0.2,0.1-0.4,0.3-0.7,0.4C932.6,115.9,932.3,116,931.9,116z"/>
	<path class="st18" d="M936.9,115.8c0,0.2-0.1,0.4-0.2,0.7s-0.3,0.4-0.5,0.6c-0.2,0.2-0.4,0.2-0.6,0.2c-0.1,0-0.2,0-0.2-0.1
		c-0.1-0.1-0.1-0.2-0.1-0.3c0-0.2,0-0.2,0.1-0.3c0.1,0,0.2-0.1,0.2-0.1c0.1,0,0.2-0.1,0.2-0.2c0.1-0.1,0.1-0.1,0.1-0.2
		c0-0.1,0-0.1-0.1-0.2c-0.1-0.1-0.2-0.1-0.3-0.1c0,0-0.1,0-0.1,0c-0.1,0-0.1,0-0.1,0.1c-0.1,0-0.1-0.1-0.2-0.1
		c-0.1-0.1-0.1-0.1-0.1-0.2c0-0.2,0.1-0.4,0.3-0.5s0.4-0.2,0.7-0.2c0.3,0,0.5,0.1,0.7,0.3C936.8,115.2,936.9,115.5,936.9,115.8z"/>
	<path class="st18" d="M886.2,122.5c0.5,0,0.9,0.1,1.1,0.3c0.3,0.2,0.4,0.5,0.5,0.8c0.1,0.3,0.1,0.7,0.1,1.2v2.6
		c0,0.2-0.1,0.3-0.2,0.4c-0.1,0.1-0.3,0.2-0.4,0.2c-0.2,0-0.3-0.1-0.4-0.2c-0.1-0.1-0.2-0.3-0.2-0.4v-2.6c0-0.2,0-0.4-0.1-0.6
		s-0.2-0.3-0.3-0.4c-0.1-0.1-0.3-0.2-0.6-0.2c-0.3,0-0.5,0.1-0.7,0.2c-0.2,0.1-0.3,0.2-0.4,0.4c-0.1,0.2-0.1,0.4-0.1,0.6v2.6
		c0,0.2-0.1,0.3-0.2,0.4c-0.1,0.1-0.3,0.2-0.4,0.2c-0.2,0-0.3-0.1-0.4-0.2c-0.1-0.1-0.2-0.3-0.2-0.4v-6.2c0-0.2,0.1-0.3,0.2-0.4
		c0.1-0.1,0.3-0.2,0.4-0.2c0.2,0,0.3,0.1,0.4,0.2s0.2,0.3,0.2,0.4v2.5l-0.2,0c0.1-0.1,0.1-0.2,0.3-0.4c0.1-0.1,0.2-0.3,0.4-0.4
		c0.2-0.1,0.3-0.2,0.5-0.3C885.8,122.5,886,122.5,886.2,122.5z"/>
	<path class="st18" d="M894.5,125.3c0,0.5-0.1,1-0.4,1.5c-0.2,0.4-0.6,0.7-1,1c-0.4,0.2-0.9,0.4-1.4,0.4s-1-0.1-1.4-0.4
		c-0.4-0.2-0.7-0.6-1-1c-0.2-0.4-0.4-0.9-0.4-1.5c0-0.5,0.1-1,0.4-1.5c0.2-0.4,0.6-0.7,1-1c0.4-0.2,0.9-0.4,1.4-0.4s1,0.1,1.4,0.4
		c0.4,0.2,0.7,0.6,1,1C894.3,124.2,894.5,124.7,894.5,125.3z M893.3,125.3c0-0.3-0.1-0.6-0.2-0.9c-0.1-0.3-0.3-0.4-0.6-0.6
		c-0.2-0.1-0.5-0.2-0.8-0.2c-0.3,0-0.5,0.1-0.8,0.2c-0.2,0.1-0.4,0.3-0.6,0.6s-0.2,0.5-0.2,0.9c0,0.3,0.1,0.6,0.2,0.9
		s0.3,0.4,0.6,0.6c0.2,0.1,0.5,0.2,0.8,0.2c0.3,0,0.5-0.1,0.8-0.2c0.2-0.1,0.4-0.3,0.6-0.6C893.2,125.9,893.3,125.6,893.3,125.3z"/>
	<path class="st18" d="M901.7,122.6c0.2,0,0.3,0.1,0.4,0.2c0.1,0.1,0.2,0.3,0.2,0.4c0,0,0,0.1,0,0.1c0,0,0,0.1,0,0.1l-1.5,4.1
		c0,0.1-0.1,0.2-0.3,0.3c-0.1,0.1-0.2,0.1-0.4,0.1c-0.2,0-0.4-0.1-0.5-0.4l-1-2.9l0.3,0l-0.9,2.9c-0.1,0.2-0.3,0.4-0.5,0.4
		c-0.1,0-0.3,0-0.4-0.1c-0.1-0.1-0.2-0.2-0.3-0.3l-1.5-4.1c0-0.1,0-0.2,0-0.2c0-0.2,0.1-0.3,0.2-0.4c0.1-0.1,0.3-0.2,0.4-0.2
		c0.1,0,0.2,0,0.3,0.1c0.1,0.1,0.2,0.2,0.2,0.3l1.2,3.3l-0.3,0l0.9-2.5c0.1-0.2,0.3-0.4,0.6-0.4c0.1,0,0.3,0,0.3,0.1
		c0.1,0.1,0.1,0.2,0.2,0.3l0.9,2.5l-0.3,0l1.2-3.3C901.2,122.7,901.4,122.6,901.7,122.6z"/>
	<path class="st18" d="M910.5,122.5c0.2,0,0.3,0.1,0.4,0.2c0.1,0.1,0.2,0.3,0.2,0.4v4.3c0,0.2-0.1,0.3-0.2,0.4
		c-0.1,0.1-0.3,0.2-0.4,0.2c-0.2,0-0.3-0.1-0.4-0.2c-0.1-0.1-0.2-0.3-0.2-0.4v-0.5l0.2,0.1c0,0.1,0,0.2-0.1,0.3
		c-0.1,0.1-0.2,0.2-0.4,0.4c-0.2,0.1-0.3,0.2-0.6,0.3c-0.2,0.1-0.5,0.1-0.7,0.1c-0.5,0-0.9-0.1-1.3-0.4c-0.4-0.2-0.7-0.6-0.9-1
		c-0.2-0.4-0.3-0.9-0.3-1.4c0-0.5,0.1-1,0.3-1.5c0.2-0.4,0.5-0.7,0.9-1c0.4-0.2,0.8-0.4,1.2-0.4c0.3,0,0.6,0,0.8,0.1
		c0.2,0.1,0.5,0.2,0.6,0.3c0.2,0.1,0.3,0.3,0.4,0.4c0.1,0.1,0.1,0.3,0.1,0.3l-0.4,0.1v-0.7c0-0.2,0.1-0.3,0.2-0.4
		C910.1,122.5,910.3,122.5,910.5,122.5z M908.4,126.9c0.3,0,0.6-0.1,0.8-0.2s0.4-0.3,0.5-0.6s0.2-0.5,0.2-0.9c0-0.3-0.1-0.6-0.2-0.9
		s-0.3-0.5-0.5-0.6s-0.5-0.2-0.8-0.2c-0.3,0-0.5,0.1-0.8,0.2c-0.2,0.1-0.4,0.3-0.5,0.6s-0.2,0.5-0.2,0.9c0,0.3,0.1,0.6,0.2,0.9
		s0.3,0.5,0.5,0.6C907.9,126.9,908.1,126.9,908.4,126.9z"/>
	<path class="st18" d="M913,128c-0.2,0-0.3-0.1-0.4-0.2c-0.1-0.1-0.2-0.3-0.2-0.4v-4.2c0-0.2,0.1-0.3,0.2-0.4
		c0.1-0.1,0.3-0.2,0.4-0.2c0.2,0,0.3,0.1,0.4,0.2c0.1,0.1,0.2,0.3,0.2,0.4v0.9l-0.1-0.7c0.1-0.2,0.2-0.3,0.3-0.4
		c0.1-0.1,0.2-0.2,0.4-0.3c0.1-0.1,0.3-0.1,0.5-0.2c0.2,0,0.3-0.1,0.5-0.1c0.2,0,0.4,0.1,0.5,0.2c0.1,0.1,0.2,0.2,0.2,0.4
		c0,0.2-0.1,0.4-0.2,0.5c-0.1,0.1-0.2,0.1-0.4,0.1c-0.1,0-0.2,0-0.3-0.1c-0.1,0-0.2-0.1-0.4-0.1c-0.1,0-0.2,0-0.4,0.1
		s-0.2,0.1-0.3,0.3c-0.1,0.1-0.2,0.3-0.3,0.4c-0.1,0.2-0.1,0.4-0.1,0.6v2.4c0,0.2-0.1,0.3-0.2,0.4C913.3,127.9,913.2,128,913,128z"
		/>
	<path class="st18" d="M919.1,128.1c-0.6,0-1.1-0.1-1.5-0.4c-0.4-0.2-0.7-0.6-1-1c-0.2-0.4-0.3-0.9-0.3-1.4c0-0.6,0.1-1.1,0.4-1.5
		c0.2-0.4,0.6-0.8,1-1c0.4-0.2,0.8-0.3,1.3-0.3c0.3,0,0.7,0.1,1,0.2c0.3,0.1,0.6,0.3,0.8,0.6c0.2,0.2,0.4,0.5,0.6,0.9
		c0.1,0.3,0.2,0.7,0.2,1c0,0.2-0.1,0.3-0.2,0.4c-0.1,0.1-0.3,0.2-0.4,0.2h-3.8l-0.3-1h3.7l-0.2,0.2v-0.3c0-0.2-0.1-0.4-0.2-0.5
		s-0.3-0.3-0.5-0.4s-0.4-0.1-0.6-0.1c-0.2,0-0.4,0-0.6,0.1s-0.3,0.1-0.5,0.3c-0.1,0.1-0.2,0.3-0.3,0.5c-0.1,0.2-0.1,0.5-0.1,0.8
		c0,0.4,0.1,0.7,0.2,0.9c0.2,0.3,0.3,0.4,0.6,0.6c0.2,0.1,0.5,0.2,0.8,0.2c0.2,0,0.4,0,0.6-0.1c0.1,0,0.3-0.1,0.4-0.1
		c0.1-0.1,0.2-0.1,0.2-0.1c0.1-0.1,0.2-0.1,0.3-0.1c0.1,0,0.3,0.1,0.4,0.2c0.1,0.1,0.1,0.2,0.1,0.4c0,0.2-0.1,0.3-0.3,0.5
		c-0.2,0.1-0.4,0.3-0.7,0.4C919.7,128,919.4,128.1,919.1,128.1z"/>
	<path class="st18" d="M929.3,122.6c0.2,0,0.3,0.1,0.4,0.2c0.1,0.1,0.2,0.3,0.2,0.4v2.6c0,0.7-0.2,1.3-0.6,1.7
		c-0.4,0.4-1,0.6-1.7,0.6c-0.7,0-1.3-0.2-1.7-0.6c-0.4-0.4-0.6-1-0.6-1.7v-2.6c0-0.2,0.1-0.3,0.2-0.4c0.1-0.1,0.3-0.2,0.4-0.2
		c0.2,0,0.3,0.1,0.4,0.2c0.1,0.1,0.2,0.3,0.2,0.4v2.6c0,0.4,0.1,0.7,0.3,0.9c0.2,0.2,0.5,0.3,0.8,0.3c0.4,0,0.6-0.1,0.8-0.3
		s0.3-0.5,0.3-0.9v-2.6c0-0.2,0.1-0.3,0.2-0.4C928.9,122.6,929.1,122.6,929.3,122.6z"/>
	<path class="st18" d="M932.1,124.8c0-0.2,0.1-0.3,0.2-0.4c0.1-0.1,0.3-0.2,0.4-0.2c0.3,0,0.5,0,0.7-0.1c0.2-0.1,0.4-0.2,0.5-0.4
		c0.1-0.2,0.2-0.4,0.2-0.7c0-0.2-0.1-0.4-0.2-0.6c-0.1-0.2-0.3-0.3-0.5-0.4s-0.4-0.2-0.6-0.2c-0.2,0-0.4,0-0.5,0.1
		c-0.2,0.1-0.3,0.2-0.4,0.3c-0.1,0.1-0.2,0.2-0.4,0.2c-0.2,0-0.3,0-0.5-0.1c-0.2-0.1-0.2-0.3-0.3-0.4c0-0.2,0-0.3,0.2-0.5
		c0.2-0.2,0.5-0.4,0.9-0.6c0.3-0.1,0.7-0.2,1-0.2c0.5,0,0.9,0.1,1.3,0.3c0.4,0.2,0.7,0.5,0.9,0.9c0.2,0.4,0.3,0.8,0.3,1.2
		c0,0.3,0,0.6-0.2,0.9c-0.1,0.3-0.2,0.5-0.4,0.7s-0.4,0.3-0.6,0.4c-0.2,0.1-0.5,0.2-0.8,0.2c0,0,0,0,0,0c0,0,0,0,0,0v0.4
		c0,0.2-0.1,0.3-0.2,0.4c-0.1,0.1-0.3,0.2-0.4,0.2c-0.2,0-0.3-0.1-0.4-0.2c-0.1-0.1-0.2-0.3-0.2-0.4V124.8z M932.6,128
		c-0.2,0-0.3-0.1-0.4-0.2c-0.1-0.1-0.2-0.3-0.2-0.4v-0.2c0-0.2,0.1-0.3,0.2-0.4c0.1-0.1,0.3-0.2,0.4-0.2h0.1c0.2,0,0.3,0.1,0.4,0.2
		c0.1,0.1,0.2,0.3,0.2,0.4v0.2c0,0.2-0.1,0.3-0.2,0.4c-0.1,0.1-0.3,0.2-0.4,0.2H932.6z"/>
</g>
<g>
	<g>
		<defs>
			<rect id="SVGID_00000072260427289161761960000016517102795045028992_" x="0.5" width="96.8" height="81.8"/>
		</defs>
		<clipPath id="SVGID_00000180334805107197868710000008237455816885327275_">
			<use xlink:href="#SVGID_00000072260427289161761960000016517102795045028992_"  style="overflow:visible;"/>
		</clipPath>
		
			<circle style="opacity:0.3;clip-path:url(#SVGID_00000180334805107197868710000008237455816885327275_);fill:#6B9080;" cx="42.4" cy="24.1" r="49.8"/>
	</g>
	<g>
		<defs>
			<rect id="SVGID_00000139974467320087490620000014925342521916385445_" y="0.5" width="82.9" height="65.1"/>
		</defs>
		<clipPath id="SVGID_00000085219931680898952010000000304593264439597237_">
			<use xlink:href="#SVGID_00000139974467320087490620000014925342521916385445_"  style="overflow:visible;"/>
		</clipPath>
		
			<circle style="opacity:0.3;clip-path:url(#SVGID_00000085219931680898952010000000304593264439597237_);fill:#A4C3B2;" cx="41.1" cy="22.1" r="37.1"/>
	</g>
</g>
<g>
	<path class="st21" d="M506.5,488c0-38.4-31.1-69.5-69.5-69.5s-69.5,31.1-69.5,69.5H506.5z"/>
	<path class="st22" d="M489.5,488c0-29-23.5-52.5-52.5-52.5S384.5,459,384.5,488H489.5z"/>
</g>
<path class="st4" d="M934.7,6.6c-0.4,0.6-0.8,1.2-1.2,1.8c-0.7-0.3-1.6-0.2-2.3,0.2c-0.5,0.2-0.8,0.5-1.2,0.9
	c-1.2,1-2.1,2.2-2.7,3.7c0,0.2-0.1,0.3,0,0.4c-0.2,0.2-0.3,0.3-0.5,0.6c-0.4,0.8-0.8,1.6-1.1,2.3c-0.3,0.7-0.6,1.5-0.8,2.3
	c-0.2,0.9-0.2,1.9,0,2.7c0,0.6,0.5,0.9,1,0.8c0.1,0,0.1,0,0.2,0c0.4-0.1,0.7-0.2,1.1-0.5c1-0.9,2.1-1.9,3.1-2.9
	c0.7-0.7,1.2-1.4,1.8-2.2c0.5-0.7,0.8-1.5,1.3-2.2c0.7-1.2,1.1-2.3,1.3-3.6c0.2-0.5,0.1-1-0.2-1.5c-0.1-0.2-0.1-0.4-0.1-0.6
	c0.3-1.1,0.8-2,1.5-2.7c0-0.1,0.1-0.1,0.1-0.2c0.4-0.8,0.8-1.5,1.3-2.1c0.1-0.2,0.3-0.5,0.5-0.7c0.4-0.6,0.7-1.2,1.2-1.7
	c0.2,1.1,0.4,2,0.6,3c0.1,0.6,0.2,1.2,0.3,1.9c0.3,0.7,0.3,1.4,0.2,2.2c0,0.1,0,0.2,0,0.2c0.1,0.4,0.2,0.7,0.2,1.1
	c0,0.4,0,0.9,0.1,1.3c0.2,0.7,0.2,1.5,0,2.2c-0.2,0.8-0.4,1.6-0.7,2.3c-0.5,1.5-0.7,3-1.4,4.5c-0.7,1.7-1.3,3.4-2,5.1
	c-0.2,0.3-0.3,0.7-0.5,1c-0.3,0.8-0.5,1.6-0.9,2.4c-0.2,0.7-0.5,1.2-0.8,1.8c-0.4,0.1-0.7,0.1-0.9,0.2c-1.1,0.3-1.7,1.3-2.4,2.1
	c-0.3,0.4-0.5,0.8-0.8,1.1c-0.7,1.1-1.3,2.2-1.7,3.4c-0.2,0.9-0.5,1.8-0.8,2.6c-0.5,1.2-0.8,2.5-0.9,3.9c-0.2,1,0.1,2.1,0.9,2.8
	c0.1,0.1,0.3,0.2,0.5,0.3c0.6,0.1,1.1-0.1,1.5-0.4c0.7-0.5,1.3-1.2,1.8-2c0.5-0.6,0.8-1.2,1.3-1.8c0.4-0.6,0.8-1.5,1.2-2.1
	c0.6-0.9,1-1.7,1.3-2.6c0.4-1.1,0.7-2.2,0.9-3.4c0.2-0.7,0.1-1.4-0.1-2.1c-0.2-0.3-0.4-0.7-0.6-1c-0.2-0.3-0.3-0.8-0.1-1.1
	c0.1-0.4,0.2-0.7,0.4-1l0.7-1.9c0.7,1.3,1.4,2.4,2,3.5c-0.2,0.2-0.4,0.4-0.6,0.6c-0.5,0.4-0.7,0.9-0.7,1.5c0,0.7,0.1,1.3,0.3,1.9
	c0.4,1.4,1.1,2.6,1.7,3.8c0.9,1.4,1.8,2.7,3,3.8c0.5,0.5,1.1,0.9,1.7,1.3c0.3,0.2,0.6,0.2,0.8-0.1c0-0.1,0.1-0.2,0.1-0.3
	c0.1-0.6,0.2-1.2,0.1-1.7c-0.2-0.7-0.2-1.3-0.3-2c-0.1-0.7-0.2-1.4-0.4-2.1c-0.2-0.8-0.5-1.6-0.8-2.3c-0.1-0.3-0.2-0.5-0.4-0.7
	c-0.4-0.6-0.8-1.3-1.2-1.9c-0.4-0.9-1.2-1.5-2-1.9c-0.2-0.1-0.3-0.2-0.4-0.4c-0.4-0.7-0.7-1.4-1.1-2c-0.2-0.4-0.4-0.8-0.7-1.2
	s-0.4-0.6-0.5-0.8c-0.4-0.6-0.1-1.3,0.1-1.8c0.5-1.4,1-2.7,1.6-4.2c0.7-1.5,1.1-3,1.5-4.7c0.1-0.6,0.3-1.1,0.5-1.6
	c0.1,0.1,0.2,0.3,0.2,0.5c0.3,1.6,0.6,3.2,0.9,4.7c0.4,1.8,0.8,3.5,1.2,5.3c0.2,0.9,0.5,1.8,0.7,2.6c0.3,1.5,0.6,3.1,1.1,4.6
	c0.6,1.8,1.1,3.6,1.7,5.4c0,0.2,0.1,0.5,0,0.8c-0.3,0.6-0.4,1.1-0.5,1.8c-0.1,1.1-0.1,2.1,0.2,3.1c0.2,0.7,0.4,1.4,0.8,2
	c0.6,1.3,1.3,2.4,2.1,3.6c0.6,0.9,1.4,1.7,2.1,2.6c1.1,1.3,2.2,2.4,3.4,3.6c0.5,0.6,1.3,0.8,2.2,0.7c0.5-0.1,0.9-0.4,1.1-0.9
	c0.2-0.6,0.2-1.2,0.1-1.8c-0.3-1.2-0.7-2.3-1.1-3.4c-0.4-1.1-0.9-2-1.3-3.1c-0.4-0.9-0.9-1.7-1.3-2.6c-0.3-0.7-0.7-1.4-1.1-2
	s-0.8-1.2-1.2-1.7c-0.3-0.4-0.6-0.6-0.8-1c-0.6-1.1-1.8-1.7-3-1.7c-0.3,0.1-0.6-0.1-0.7-0.5l0,0c-0.3-0.9-0.7-1.8-1-2.7
	c-0.2-0.8-0.5-1.6-0.8-2.3c-0.2-0.8-0.6-1.8-0.8-2.6c-0.3-1.4-0.6-2.8-0.8-4.2c-0.2-0.8-0.3-1.7-0.5-2.5c-0.2-1.1-0.4-2.2-0.6-3.2
	c-0.2-0.8-0.3-1.7-0.5-2.5c-0.1-0.5-0.2-1.1-0.3-1.6c-0.1-0.4-0.2-0.7-0.2-1.1c-0.1-1.8-0.3-3.5-0.7-5.3c0-0.3,0-0.6,0.1-0.9
	c0.2,0.1,0.3,0.1,0.4,0.2c1.2,0.8,2.3,1.7,3.4,2.5c0.8,0.7,1.6,1.3,2.3,2.1c0.7,0.5,1.1,1.1,1.4,1.9c0.6,1.5,0.9,2.9,1.2,4.4
	c0.1,0.5,0.2,1,0.3,1.4s0.1,0.9,0.1,1.3c-0.6,0.2-1.1,0.8-1.3,1.5c-0.1,0.7-0.3,1.5-0.2,2.2c0.1,1.6,0.4,3.2,1,4.7
	c0.4,1.1,0.8,2.1,1.3,3.1c0.1,0.3,0.4,0.6,0.5,0.8c0.7,1.4,1.4,2.7,2.3,4c0.3,0.4,0.9,0.6,1.4,0.5c0.5-0.1,0.8-0.4,1-0.9
	c0.3-1,0.3-2,0.3-2.9c0-0.6-0.1-1.1-0.2-1.6c-0.1-1.6-0.3-3.1-0.7-4.7c-0.5-1.7-1.3-3.4-2.2-5c-0.3-0.5-0.6-0.9-1.1-1.3
	c-0.6-0.3-0.9-0.8-1.1-1.5c-0.1-0.3,0-0.7-0.1-1c-0.3-1.1-0.6-2.2-0.8-3.4c0-0.1,0-0.1,0.1-0.3c0.2,0.2,0.4,0.4,0.6,0.5
	c0.8,1,1.8,1.9,2.5,2.9c0.6,0.7,1.3,1.4,1.9,2c0.2,0.2,0.3,0.3,0.5,0.5c-0.4,1-0.4,2.1-0.1,3.2c0.2,0.7,0.5,1.4,1,2
	c0.4,0.7,1.1,1.3,1.8,1.9c1,0.6,1.9,1.2,2.8,1.9c1,0.7,1.7,1.1,2.6,1.7c0.8,0.4,1.6,0.8,2.4,1.1c0.5,0.2,1.1,0.4,1.7,0.3
	c0.6-0.1,0.8-0.2,1-0.7c0.2-0.8,0.1-1.5-0.3-2.2c-0.1-0.3-0.2-0.5-0.4-0.7c-0.2-0.4-0.4-0.8-0.7-1.2c-0.5-0.6-0.9-1.2-1.5-1.8
	c-1-1.2-2.1-2.2-3.2-3.1c-1.3-1.1-2.7-1.9-4.3-2.5c-0.6-0.3-1.4-0.4-2.1-0.3c-0.6-0.6-1-1.2-1.6-1.9c-0.7-0.8-1.5-1.6-2.1-2.3
	c-0.5-0.5-1-1-1.5-1.4c-0.6-0.6-1.2-1.3-1.9-1.9c-0.9-0.7-1.7-1.5-2.6-2.2c-0.9-0.7-1.6-1.3-2.4-1.9c-1.2-0.9-2.3-1.8-3.5-2.6
	c-0.4-0.3-0.6-0.7-0.6-1.2c0-0.6-0.2-1.1-0.3-1.5c-0.2-1.1-0.3-2.2-0.4-3.4l-2.3,1.1c-0.3,0.5-0.7,1-1,1.5
	C936.1,4.3,935.4,5.5,934.7,6.6z M925.6,18.9c0.1-0.9,0.4-1.7,0.8-2.5c0.4-1.1,1-2.2,1.5-3.3c0.6-1.2,1.4-2.3,2.5-3.1
	c0.6-0.5,1.3-0.8,2.1-0.9c0.2,0.3,0.1,0.5-0.2,0.7c-0.3,0.3-0.6,0.6-0.9,0.9c-0.6,0.8-1.2,1.6-1.8,2.4c-0.4,0.5-0.6,1.1-1,1.7
	c-0.5,0.8-1,1.7-1.4,2.4c-0.2,0.3-0.3,0.7-0.4,1c-0.3,0.7-0.8,1.5-1.2,2.1l-0.2-0.1L925.6,18.9z M933.8,11.3
	c-0.2,1.2-0.6,2.3-1.2,3.2c-0.4,0.6-0.7,1.3-1.2,1.8c-0.7,1-1.5,1.9-2.4,2.7c-0.7,0.7-1.4,1.3-2.1,1.9c-0.2,0.3-0.5,0.4-0.9,0.5
	l0.5-1.1c0.6-1.4,1.3-2.5,2-3.8c0.3-0.6,0.6-1.2,1.1-1.8c0.8-1,1.4-2,2.1-3c0.5-0.6,0.9-1.1,1.5-1.7
	C933.7,10.2,933.9,10.7,933.8,11.3L933.8,11.3z M928.1,46c-0.3-0.4-0.4-0.7-0.6-1.1c-0.1-0.9-0.1-2,0.2-2.8c0.3-1.7,0.8-3.4,1.5-4.9
	c0.2-0.7,0.5-1.3,0.9-1.9c0.4-0.4,0.7-0.8,0.9-1.3c0.4-0.8,1-1.5,1.7-2.1c0.2-0.2,0.5-0.3,0.8-0.5c0.3-0.1,0.5,0.1,0.4,0.4
	c-0.2,0.8-0.5,1.6-0.8,2.3c-0.2,0.5-0.6,1-1,1.3c0.3,0.7-0.1,1.2-0.4,1.8c-0.6,1.5-1.2,2.8-1.8,4.3c-0.3,0.7-0.5,1.5-0.7,2.2
	C928.9,44.5,928.5,45.2,928.1,46L928.1,46z M935.4,33.2c0.1,0.4,0.1,0.7,0,1.1c-0.2,1.8-0.7,3.4-1.6,5c-0.7,1.2-1.4,2.4-2.1,3.6
	c-0.5,0.7-1,1.5-1.6,2.2c-0.3,0.3-0.6,0.5-0.9,0.8l-0.1-0.1l0.5-1.9c0-0.1,0.1-0.2,0.1-0.3c0.2-1.3,0.9-2.4,1.3-3.6
	c0.5-1.2,0.9-2.3,1.4-3.5c0.3-0.6,0.6-1.2,1-1.9c0.3-0.7,0.5-1.4,0.9-2.1c0.1-0.1,0.2-0.3,0.3-0.5C935.2,32.4,935.4,32.8,935.4,33.2
	L935.4,33.2z M941,37c0.4,0.7,0.8,1.4,1,2.1c0.2,0.6,0.5,1.1,0.8,1.6c0.3,0.5,0.5,1,0.7,1.6c-0.7-0.3-1.3-0.8-1.7-1.3
	c-0.4-0.5-0.8-1-1.1-1.5c-1-1.3-1.8-2.8-2.4-4.4c-0.4-0.7-0.5-1.6-0.3-2.3c0.1-0.2,0.3-0.5,0.4-0.8c0.2,0.2,0.4,0.4,0.5,0.6
	c0.7,1.4,1.4,2.8,2,4.3C941,36.8,940.9,36.9,941,37L941,37z M940.3,32c0.3,0.2,0.6,0.5,0.8,0.7c0.6,0.9,1.3,1.9,1.8,2.8
	c0.3,0.5,0.5,1.1,0.6,1.7c0.4,1.2,0.6,2.5,0.7,3.9c0.1,0.3,0.1,0.6,0.2,0.8c-0.1-0.1-0.2-0.1-0.3-0.2c-0.5-0.8-0.9-1.6-1.3-2.3
	c-0.4-0.7-0.6-1.5-0.7-2.3c-0.2-0.5-0.4-1-0.7-1.4c-0.5-1.1-1.1-2.1-1.6-3.2c-0.1-0.1-0.2-0.3-0.2-0.5l0.1-0.1
	C939.9,31.8,940.2,31.9,940.3,32L940.3,32z M956.1,54.5c-0.7-0.2-1.3-0.5-1.8-1.1c-0.6-0.5-1.2-1.1-1.7-1.7c-0.9-1.2-2-2.1-2.8-3.4
	c-0.5-0.9-1.2-1.8-1.7-2.7c-0.9-1.4-1.4-2.9-1.4-4.6c0-0.8,0.1-1.6,0.5-2.3c0.3,0.6,0.6,1.1,0.8,1.6c0.2,0.5,0.5,1.2,0.8,1.7
	c0.5,1.1,1,2,1.7,3c0.4,0.7,0.8,1.4,1.2,2.1c0.3,0.4,0.6,0.9,0.9,1.4c1.1,1.6,2,3.2,3,4.8C955.8,53.7,956,54.1,956.1,54.5
	L956.1,54.5z M949.9,38.6c0.4,0.2,0.6,0.5,0.8,0.8c0.7,0.8,1.2,1.6,1.8,2.5c0,0.1,0,0.1,0.1,0.1c0.5,1.1,1.3,2.1,1.6,3.2
	c0,0.2,0.3,0.4,0.3,0.7c0.4,1,0.9,1.9,1.2,2.8c0.5,1.1,0.8,2.2,1.1,3.3c0.3,0.6,0.3,1.4,0,2c-0.3-0.4-0.6-0.7-0.9-1.1
	c-0.6-0.9-1.2-1.7-1.8-2.6c-0.3-0.4-0.5-0.9-0.7-1.3c-0.9-1.6-1.8-3.1-2.6-4.6c-0.2-0.4-0.5-0.7-0.7-1.1c-0.7-1.3-1.4-2.7-1.9-4.1
	c-0.1-0.3-0.3-0.6-0.4-1C948.8,38,949.4,38.3,949.9,38.6L949.9,38.6z M954.3,35.8c0.1,0.4,0.2,0.7,0.3,1.2c-0.4-0.1-0.7-0.3-0.8-0.7
	c-1-1.4-1.8-2.9-2.5-4.5c-0.7-1.4-1.2-2.9-1.5-4.5c-0.2-1-0.3-2-0.3-3c0-0.7,0.2-1.4,0.6-1.9c0.1-0.1,0.2-0.2,0.3-0.3
	c0.1,0.3,0.1,0.4,0.2,0.6c0.3,1.2,0.5,2.3,0.8,3.5c0.1,0.5,0.3,1,0.5,1.5c0,0.1,0.1,0.2,0.1,0.3c0.2,1.1,0.5,2.1,0.8,3
	C953.4,32.7,953.8,34.3,954.3,35.8L954.3,35.8z M953.7,24.3c0.6,1,1,2,1.3,3c0.3,1,0.5,2.1,0.7,3c0.2,1.2,0.4,2.4,0.5,3.6
	c0.2,0.8,0.1,1.8-0.2,2.6c-0.1,0.2-0.1,0.4-0.2,0.5l-0.2,0c-0.2-0.6-0.4-1.1-0.6-1.6c-0.2-0.6-0.5-1.2-0.7-1.8
	c-0.2-0.8-0.5-1.7-0.7-2.4c-0.3-0.7-0.4-1.4-0.7-2.1c-0.2-0.5-0.3-1-0.3-1.5c-0.1-0.6-0.2-1.2-0.4-1.9c-0.2-1.1-0.6-2.3-0.8-3.4
	c0-0.2,0-0.2,0-0.4c0.3,0.1,0.5,0.1,0.6,0.2C952.6,22.9,953.2,23.6,953.7,24.3L953.7,24.3z M958.1,21.6c1,0.2,1.9,0.5,2.8,1.1
	c0.9,0.7,1.9,1.3,2.7,2c0.5,0.4,0.9,0.9,1.3,1.3c0.8,0.8,1.6,1.7,2.4,2.6c0.7,0.8,1.2,1.8,1.3,2.9c0,0.2,0,0.5,0,0.8
	c-0.9-0.6-1.6-1.1-2.3-1.6c-0.7-0.5-1.5-1.3-2.2-1.8c-0.6-0.5-1.2-1-1.7-1.5c-0.4-0.3-0.7-0.7-0.9-1.1c0-0.1-0.1-0.2-0.1-0.3
	c-0.9-0.9-1.9-1.7-2.7-2.6c-0.5-0.4-1-0.9-1.4-1.4c-0.1-0.1-0.2-0.2-0.3-0.4C957.4,21.5,957.8,21.5,958.1,21.6L958.1,21.6z
	 M960,26.1c1,1.2,2.3,2.2,3.5,3.4c0.9,0.9,2,1.7,3,2.5c0,0.1,0.1,0.1,0.1,0.2l0,0.1c-0.8-0.4-1.6-0.7-2.4-1.1
	c-0.9-0.5-1.8-1-2.7-1.5c-1-0.6-2-1.3-2.8-2c-1-0.9-1.9-2-2.2-3.4c-0.2-0.5-0.1-1,0-1.5c0.1,0.1,0.3,0.2,0.4,0.3
	C957.9,24,959.1,25,960,26.1L960,26.1z"/>
<polygon class="st0" points="935.7,22 921.2,23.3 921.2,0.8 938.9,0.8 "/>
</svg>
