<?xml version="1.0" encoding="utf-8"?>
<!-- Generator: Adobe Illustrator 23.0.1, SVG Export Plug-In . SVG Version: 6.00 Build 0)  -->
<svg version="1.1" id="Layer_1" xmlns="http://www.w3.org/2000/svg" xmlns:xlink="http://www.w3.org/1999/xlink" x="0px" y="0px"
	 viewBox="0 0 1013 488" style="enable-background:new 0 0 1013 488;" xml:space="preserve">
<style type="text/css">
	.st0{fill:#A4C3B2;}
	.st1{fill:#6B9080;}
	.st2{fill:none;stroke:#FFFFFF;stroke-linecap:round;stroke-miterlimit:10;}
	.st3{fill:none;stroke:#FFFFFF;stroke-miterlimit:10;}
	.st4{fill:none;stroke:#FFFFFF;stroke-width:0.5;stroke-linecap:round;stroke-miterlimit:10;}
	.st5{fill:#FFCEC7;}
	.st6{fill:#606060;}
	.st7{fill:#686868;}
	.st8{fill:#333333;}
	.st9{fill:#F7A491;}
	.st10{fill:#B8D3C3;}
	.st11{fill:#7F7F7F;}
	.st12{fill:none;stroke:#7F7F7F;stroke-width:1.67;stroke-linecap:round;stroke-linejoin:round;}
</style>
<title>hero2</title>
<rect x="0.9" y="-1" class="st0" width="1012.5" height="487.5"/>
<path class="st1" d="M794.3,405.3l-6.6-3.1l-3.3-1.5l-3.2-1.7l-6.4-3.5c-2.1-1.2-4.2-2.5-6.2-3.8c-4.2-2.5-8.1-5.3-12.2-8
	c-2-1.3-3.9-2.8-5.9-4.3l-5.8-4.4l-5.6-4.6c-1.9-1.6-3.8-3-5.6-4.7l-5.5-4.8c-0.9-0.8-1.8-1.6-2.7-2.4l-2.6-2.5l-5.3-5
	c-1.8-1.7-3.4-3.4-5.1-5.1s-3.4-3.4-5.1-5.2l-4.9-5.4c-3.3-3.5-6.4-7.3-9.6-11c-1.6-1.8-3.1-3.7-4.6-5.6l-4.5-5.7
	c-1.5-1.9-2.9-3.9-4.3-5.8c-1.5-1.9-2.9-3.9-4.3-5.9c-2.7-4-5.5-8-8.1-12.1c-1.3-2.1-2.6-4.1-3.9-6.2l-3.6-6.3
	c-2.5-4.2-4.7-8.6-6.7-13c-4-8.9-7.3-18.1-9.7-27.5c-2.4-9.5-3.9-19.1-4.4-28.9c-0.3-4.9-0.2-9.8,0.1-14.7c0.3-4.9,1-9.8,2-14.6
	c2.2-9.6,5.8-19.2,11.7-27.4c0.7-1,1.4-2,2.3-3c0.8-1,1.6-2,2.4-2.9l2.6-2.7c0.9-0.9,1.8-1.7,2.7-2.6c3.7-3.4,7.7-6.4,12-9
	c8.6-5.2,18.2-8.5,28.2-9.9c9.9-1.4,20.1-0.7,29.7,2c19.2,5.4,36.2,18.4,45.8,36l-4.3,1.2c-0.3-5.8,0.8-11.6,3-17
	c2.2-5.3,5.1-10.2,8.6-14.6c3.5-4.4,7.4-8.4,11.6-12.1c4.2-3.7,8.5-7.1,13.1-10.3c4.6-3.2,9.3-6.1,14.2-8.6c4.9-2.6,10-4.9,15.2-6.8
	l2-0.7c0.7-0.2,1.3-0.4,2-0.7c1.3-0.4,2.7-0.9,4-1.3c2.7-0.7,5.4-1.5,8.2-2l2.1-0.4l1-0.2l1-0.1l4.2-0.6c1.4-0.2,2.8-0.2,4.2-0.3
	l2.1-0.1c0.7,0,1.4,0,2.1,0c5.7,0,11.3,0.5,16.8,1.7c2.8,0.6,5.5,1.3,8.2,2.2c2.7,0.8,5.3,1.9,7.9,3c5.2,2.3,10.1,5,14.8,8.1
	l1.8,1.1c0.6,0.4,1.1,0.8,1.7,1.2l3.4,2.5l3.2,2.7l1.6,1.4l1.5,1.4l3.1,2.9l2.9,3c0.5,0.5,1,1,1.4,1.5l1.4,1.6
	c0.9,1.1,1.8,2.1,2.7,3.2c1.7,2.2,3.5,4.4,5,6.7c0.8,1.2,1.6,2.3,2.3,3.5l2.2,3.6c0.8,1.2,1.4,2.4,2,3.6s1.4,2.4,2,3.7
	c1.2,2.5,2.4,5,3.5,7.6c2.2,5.1,4,10.4,5.5,15.7c1.5,5.3,2.8,10.8,3.7,16.2l0.6,4.1l0.3,2l0.2,2.1l0.5,4.1l0.3,4.1
	c0.1,1.4,0.2,2.8,0.3,4.1l0.2,4.1c0,2.8,0.2,5.5,0.1,8.3c0,5.5-0.2,11.1-0.5,16.6s-1.2,11-1.8,16.5c-0.4,2.7-0.9,5.5-1.4,8.2
	l-0.7,4.1c-0.3,1.4-0.6,2.7-0.9,4l-1.9,8.1l-2.4,8l-1.2,4l-1.3,3.9c-0.9,2.6-1.8,5.2-2.8,7.8c-8.1,20.6-18.6,40.4-31.8,58
	c-13.1,17.8-28.6,33.7-46.1,47.2c-0.5,0.4-1.2,0.3-1.6-0.2c-0.4-0.5-0.3-1.2,0.2-1.5l0,0c33.4-28.2,59.1-64.5,74.5-105.4
	c0.9-2.6,1.8-5.1,2.7-7.7l1.3-3.9l1.1-3.9l2.3-7.8l1.9-7.9c0.3-1.3,0.7-2.6,1-3.9l0.8-4c0.5-2.7,1.1-5.3,1.6-8
	c0.8-5.4,1.8-10.7,2.3-16.1c2.3-21.6,1.1-43.7-5-64.5c-1.5-5.2-3.4-10.3-5.5-15.2c-1-2.5-2.3-4.9-3.4-7.3c-0.6-1.2-1.3-2.4-1.9-3.5
	s-1.3-2.4-2-3.5l-2.2-3.4c-0.7-1.1-1.5-2.2-2.3-3.3c-1.5-2.2-3.3-4.3-4.9-6.4c-0.9-1-1.8-2-2.7-3l-1.3-1.5c-0.5-0.5-0.9-1-1.4-1.4
	l-2.8-2.9l-3-2.7l-1.5-1.4l-1.6-1.3l-3.1-2.5l-3.3-2.3c-0.5-0.4-1.1-0.8-1.6-1.2l-1.6-1.1c-4.5-2.9-9.2-5.4-14.2-7.4l-3.7-1.4
	c-1.2-0.5-2.5-0.8-3.8-1.3c-2.5-0.9-5.1-1.4-7.7-2c-1.3-0.3-2.6-0.5-3.9-0.7c-1.3-0.3-2.6-0.4-3.9-0.6l-4-0.4
	c-1.3-0.1-2.7-0.1-4-0.1c-0.7,0-1.3-0.1-2-0.1h-2c-1.3,0.1-2.7,0-4,0.1l-4,0.3l-1,0.1l-1,0.1l-2,0.3c-2.7,0.3-5.3,1-7.9,1.5
	c-1.3,0.3-2.6,0.7-3.9,1c-0.7,0.2-1.3,0.3-2,0.5l-1.9,0.6c-10.2,3.5-19.9,8.5-28.7,14.8c-8.7,6.4-16.9,13.7-23.3,22.2
	c-3.2,4.2-5.8,8.8-7.8,13.8c-1.9,4.8-2.7,10-2.4,15.2l0,0c0.1,1.3-0.9,2.3-2.2,2.4c-0.9,0-1.7-0.4-2.1-1.2
	c-9-16.4-25.2-28.5-43.1-33.4c-4.5-1.2-9.1-2-13.8-2.3l-3.5-0.1l-3.5,0.1c-1.2,0-2.3,0.1-3.5,0.3c-1.2,0.1-2.3,0.2-3.5,0.5l-3.4,0.6
	l-3.4,0.9c-1.1,0.3-2.2,0.7-3.3,1c-1.1,0.3-2.2,0.7-3.3,1.2c-4.3,1.7-8.5,3.8-12.4,6.2c-1,0.6-2,1.2-2.9,1.9l-2.8,2
	c-0.9,0.7-1.8,1.4-2.7,2.2l-1.3,1.1l-1.3,1.2c-3.4,3.1-6.5,6.5-9.3,10.3c-1.4,1.8-2.6,3.8-3.9,5.7l-1.7,3c-0.6,1-1,2.1-1.6,3.1
	c-2,4.2-3.6,8.6-4.9,13.1c-2.4,9.2-3.5,18.6-3.2,28.1c0.4,9.5,1.8,19,4.1,28.3c2.3,9.3,5.5,18.3,9.5,27c2,4.3,4.2,8.6,6.7,12.7
	l3.7,6.2c1.3,2,2.6,4,3.9,6.1c10.5,16.1,22.3,31.2,35.3,45.4c12.9,14.3,26.8,27.5,41.7,39.6l5.7,4.4c1.9,1.5,3.8,3,5.8,4.3
	c3.9,2.8,7.8,5.6,11.9,8.1c2,1.3,4,2.6,6.1,3.9l6.3,3.6l3.1,1.8l3.2,1.6l6.4,3.2h0.1c0.5,0.3,0.7,1,0.4,1.5
	C795.4,405.3,794.8,405.5,794.3,405.3L794.3,405.3z"/>
<path class="st2" d="M223.3,0.5c5.9,16.4,8.9,33.7,8.9,51.1c0.1,39.9-15.7,78.2-44,106.3c-28.1,28.3-66.4,44.1-106.3,44
	C53,202,24.7,193.7,0.5,178.1"/>
<path class="st2" d="M208.5,0.5c6.5,16.2,9.9,33.6,9.9,51.1c0,75.4-61.1,136.6-136.6,136.6c-29.3,0.1-57.8-9.4-81.3-26.8"/>
<path class="st2" d="M181.7,0.5c8.1,15.8,12.3,33.3,12.3,51.1c0,61.9-50.2,112.1-112.2,112.1c-30.7,0-60.2-12.6-81.3-34.9"/>
<circle class="st3" cx="679.6" cy="77.4" r="15.2"/>
<circle class="st3" cx="679.6" cy="77.4" r="10.6"/>
<circle class="st3" cx="87.7" cy="445.8" r="22.2"/>
<circle class="st3" cx="87.7" cy="445.8" r="15.5"/>
<path class="st4" d="M85.5,446.7c-0.1-1-0.1-2,0.2-3c0-0.1,0-0.1,0-0.2c-0.1-1,0-2.1,0.2-3.1l1.1-1c0.2-0.2,0.5-0.5,0.7-0.7
	c0.5-0.4,1.1-0.8,1.6-1.3c1.1-0.8,2.2-1.6,3.4-2.4c0.7-0.5,1.4-1,2.2-1.4c0.3-0.2,0.5-0.4,0.9-0.3c0.2,0,0.3,0,0.5-0.1
	c0.8-0.4,1.6-0.8,2.4-1c0.1,0,0.1,0,0.2,0c0.3,0,0.6,0,0.9,0c1-0.1,1.9-0.3,2.8-0.5c0.6-0.1,1.2,0,1.7,0.4c0.4,0.3,0.8,0.6,1.3,0.8
	c1,0.5,2,0.8,3.1,0.8c1,0.1,2-0.1,2.9-0.5c0.2-0.1,0.5-0.2,0.6-0.4c0.2-0.2,0.3-0.4,0.3-0.7c0-0.4-0.2-0.9-0.4-1.2
	c-0.5-0.7-1.3-1.2-2.1-1.4c-1-0.2-2.1-0.3-3.1-0.2c-1.2,0.2-2.3,0.5-3.4,0.9c-0.2,0.1-0.4,0.2-0.5,0.4c-0.2,0.3-0.6,0.5-1,0.5
	c-0.8,0.1-1.6,0.2-2.3,0.3c-0.5,0-1.1,0.1-1.6,0.1c1.1-0.7,2.2-1.3,3.2-1.9c0.3-0.2,0.7-0.3,1-0.4c0.8-0.4,1.5-0.8,2.3-1.1
	c0.2-0.1,0.3-0.1,0.5,0c0.6,0.2,1.2,0.3,1.8,0.3c1,0.2,2,0.1,2.9-0.3c0.3-0.2,0.7-0.3,1-0.4c1.2-0.3,2.2-1,2.9-1.9
	c0.6-0.6,0.8-1.5,0.7-2.3c0-0.5-0.4-0.9-0.9-1.1c-1.3-0.4-2.8-0.3-4,0.4c-1.1,0.6-2.1,1.3-3.1,2c-0.7,0.5-1.4,1.2-2.1,1.8
	c-0.3,0.2-0.5,0.6-0.3,1c-1.2,0.6-2.3,1.2-3.4,1.8s-2.2,1.2-3.2,1.8c-1.1,0.7-2.2,1.3-3.4,1.9c-0.3,0.1-0.6,0.2-0.5,0.6
	c0,0.1-0.2,0.2-0.3,0.3c-0.6,0.4-1.2,0.8-1.8,1.2c-1.2,0.8-2.5,1.6-3.7,2.5c-0.5,0.3-1,0.8-1.6,1.2c-0.1-0.2-0.1-0.4-0.1-0.5
	c0-0.6,0.1-1.2,0.2-1.8s0.3-1.3,0.4-2c0.1-0.3,0.1-0.7,0.2-1c0.2-0.8,0.4-1.6,0.5-2.4c0.1-1.1,0.4-2.1,0.8-3.1
	c0.6-1.8,1.3-3.5,1.9-5.3c0.1-0.4,0.3-0.8,0.4-1.1c0.5-1,1-2,1.5-3c0.3-0.6,0.6-1.3,1-1.9c0.1-0.1,0.2-0.2,0.3-0.3
	c0.6-0.5,1.1-0.9,1.7-1.4c0.9-0.8,1.9-1.5,3-2c0.8-0.5,1.7-0.9,2.6-1.3c0.1-0.1,0.3-0.1,0.4-0.1c0.5,0.1,1.1,0.2,1.6,0.1
	c0.8,0,1.5,0,2.3,0c0.2,0,0.5,0.1,0.5,0.2c0.2,0.5,0.5,0.6,1,0.6c0.2,0,0.4,0.1,0.5,0.2l0.7,0.4c0.2,0.1,0.5,0.3,0.7,0.4
	s0.6,0.4,0.7,0.3c0.4-0.2,0.4,0.2,0.6,0.3c1.1,0.4,2.3,0.5,3.5,0.3c0.7-0.2,1.3-0.6,1.8-1.2c0.2-0.3,0.4-0.7,0.3-1.1
	c-0.1-0.7-0.6-1.3-1.3-1.5c-1.2-0.4-2.5-0.6-3.8-0.5c-0.5,0-1.1,0-1.6,0.2c-0.1,0-0.2,0-0.3,0c-0.7,0-1.4,0.2-2,0.6
	c-0.2,0.2-0.6,0.3-0.9,0.3c-1,0-1.9,0-2.9-0.1c-0.1,0-0.3-0.1-0.4-0.1c0.2-0.1,0.2-0.2,0.3-0.2c0.8-0.4,1.5-0.8,2.3-1.2
	c1-0.5,2.3-0.7,3.4-0.4c1.3,0.3,2.6,0.2,3.8-0.2c1.2-0.3,2.4-0.9,3.3-1.8c0.4-0.3,0.7-0.7,0.8-1.2c0-0.5,0-1-0.1-1.5
	c-0.1-0.2-0.3-0.4-0.5-0.5c-0.4-0.2-0.9-0.4-1.3-0.5c-0.1,0-0.2,0-0.3,0c-0.9,0.2-1.8,0.4-2.6,0.7c-1.2,0.5-2.3,1.2-3.2,2.1
	c-0.9,0.7-1.7,1.4-2.3,2.3c-0.1,0.1-0.2,0.2-0.3,0.2c-1.4,0.7-2.8,1.3-4.1,1.9c-1.2,0.6-2.4,1.2-3.6,1.8c-1,0.5-2,1.1-2.8,1.7
	c-0.1,0.1-0.3,0.2-0.4,0.2c0-0.1,0-0.2,0.1-0.3c0.6-1,1-2,1.6-2.9c0.4-0.7,0.7-1.5,1-2.3c0.5-1.3,1.1-2.6,1.9-3.8
	c0.2-0.3,0.3-0.7,0.5-1c0.1-0.1,0.2-0.3,0.2-0.4c0.3-0.6,0.7-1.2,1-1.8c0.4-0.8,0.8-1.6,1.2-2.3c0.4-0.7,0.9-1.4,1.3-2
	c0.6-0.8,1.2-1.6,1.8-2.4c0.3-0.3,0.5-0.6,0.8-0.9c0.3-0.3,0.7-0.6,1.2-0.9c1.3-0.9,2.8-1.6,4.3-2.2c0.6-0.3,1.2-0.3,1.8-0.2
	c0.6,0.2,1.3,0.4,1.9,0.5c1.6,0.4,3.3,0.4,4.9-0.1c0.7-0.3,1.3-0.5,2-0.8c0.7-0.2,1.3-0.8,1.5-1.6c0.2-0.5,0.2-1-0.2-1.4
	c-0.7-0.7-1.7-1-2.6-0.6c-0.9,0.3-1.9,0.5-2.8,0.9c-0.7,0.2-1.4,0.6-2,1c-1.1,0.8-2.3,1.4-3.6,1.7c-1.2,0.3-2.3,0.7-3.5,1.2
	c-0.3,0.1-0.6,0.2-0.9,0.3l-0.1-0.1c0.1-0.3,0.3-0.6,0.5-0.9c0.5-0.7,1.1-1.4,1.7-2s0.9-1.3,1.8-1.5s1.3-0.9,2.1-1.2
	c0.5-0.3,0.9-0.6,1.5-0.9c1.8-0.9,3.2-2.4,4.2-4.2c0.1-0.1,0.1-0.3,0.2-0.5c0.1-0.4,0.1-0.8,0.2-1.3c0.2-0.8-0.3-1.5-1.1-1.7
	c-0.2,0-0.5,0-0.7,0c-0.9,0.2-1.8,0.7-2.5,1.4c-0.2,0.2-0.3,0.4-0.5,0.5c-1.2,1.1-2.2,2.4-2.9,3.9c-0.4,0.8-0.8,1.6-1.3,2.4
	c-0.2,0.4-0.4,0.8-0.1,1.3c-0.2,0.3-0.4,0.5-0.7,0.8c-0.7,0.9-1.5,1.7-2.2,2.6c-0.4,0.5-0.8,1.1-1.2,1.7c-1,1.4-2.1,2.7-3.1,4.1
	c-0.1,0.1-0.2,0.2-0.3,0.2c0-0.2,0-0.4,0.1-0.6c0.2-0.4,0.3-0.9,0.5-1.3s0.3-1.1,0.4-1.7c0.2-0.9,0.3-1.9,0.5-2.8
	c0-0.2,0.1-0.3,0.2-0.5c0.4-0.5,0.7-1.1,1-1.6c0.7-1.2,1.2-2.5,1.3-3.9c0-0.3,0-0.5,0.1-0.8c0.1-0.8,0-1.5-0.3-2.3
	c-0.1-0.3-0.3-0.5-0.6-0.7c-0.7-0.4-1.5-0.4-2.1,0c-0.1,0.1-0.2,0.1-0.3,0.2c-0.6,0.3-1,0.7-1.3,1.2c-0.8,1.4-1,3-0.6,4.6
	c0.4,1.4,1,2.8,1.9,4c0.1,0.1,0.1,0.3,0.1,0.4c0,0.3-0.1,0.5-0.1,0.8c-0.2,0.8-0.3,1.6-0.5,2.4c-0.1,0.3-0.2,0.6-0.3,0.8
	c-0.6,1.1-1,2.3-1.2,3.5c0,0.1,0,0.1,0,0.2c-0.4,0.8-0.8,1.7-1.2,2.5c-0.7,1.3-1.5,2.7-2.2,4c-0.4,0.7-0.7,1.4-1,2s-0.6,1.4-0.9,2.1
	c-0.8,1.4-1.6,2.9-2.3,4.3c-0.6,1-1.1,2-1.6,3s-1,2-1.4,3c-0.6,1.2-1.1,2.5-1.6,3.7c-0.2,0.4-0.3,0.7-0.4,1.1
	c-0.2,0.5-0.3,1.1-0.5,1.6c0,0.1-0.2,0.2-0.3,0.4c-0.1-0.5-0.3-0.9-0.3-1.3c-0.1-0.8-0.2-1.6-0.4-2.5c-0.2-1.5-0.5-2.9-0.7-4.3
	c-0.2-1.2-0.2-2.4-0.4-3.6s-0.3-2.5-0.5-3.8c-0.1-1-0.2-2-0.3-2.9c-0.1-0.8-0.2-1.5-0.3-2.3c-0.1-0.5-0.1-1.1-0.2-1.7
	c0-0.8-0.4-1.6,0.4-2.3c0,0,0.1-0.2,0.1-0.2c0.3-0.8,0.5-1.7,0.6-2.5c0.1-1.3,0.1-2.7,0-4c-0.1-1.1-0.6-2.2-1.3-3
	c-0.3-0.3-0.6-0.5-1-0.6c-0.4-0.1-0.9,0.1-1.1,0.5c-0.1,0.2-0.2,0.4-0.3,0.5c-0.2,0.5-0.4,1-0.6,1.5c-0.1,0.6-0.1,1.2-0.1,1.8
	c0,0.2,0,0.5,0.1,0.7c0.1,0.5,0.2,0.9,0.3,1.4c0.2,1.3,0.7,2.5,1.6,3.5c0.3,0.3,0.6,0.5,0.7,1c0.1,1.4,0.2,2.8,0.4,4.1
	c0.2,1.7,0.5,3.3,0.7,5c0.1,0.4,0.1,0.8,0,1.3c-0.1,0-0.1-0.1-0.2-0.2c-0.6-1-1.3-1.9-1.9-2.9c-0.2-0.4-0.6-0.8-0.2-1.3
	c0,0,0-0.1,0-0.1c0-0.8,0-1.6-0.2-2.4c-0.4-1.5-1.2-2.8-2.3-3.9c-0.5-0.6-1.4-0.6-1.9-0.1c-0.2,0.2-0.3,0.4-0.4,0.7
	c0,0.1,0,0.2-0.1,0.3c-0.2,0.9-0.1,1.8,0.2,2.6c0.3,0.8,0.7,1.6,1.2,2.3c0.6,1,1.6,1.7,2.7,1.9c0.2,0,0.4,0.1,0.6,0.3
	c0.3,0.5,0.6,1,0.9,1.5c0.6,0.9,1.1,1.9,1.4,2.9c0,0.1,0.1,0.4,0.2,0.4c0.4,0.1,0.4,0.5,0.4,0.8c0.2,1.6,0.4,3.2,0.6,4.8
	c0.1,0.7,0.2,1.4,0.3,2.1c0.3,1.8,0.5,3.5,0.8,5.3c0,0.1,0,0.3,0,0.4c-0.5,1.5-0.8,3-1.1,4.6c-0.4,2-0.7,4.1-0.9,6.2
	c-0.1,1-0.2,2-0.3,2.9c0,0.2-0.1,0.5-0.2,0.7c-0.5-0.4-0.9-0.7-1.3-1.1c-0.8-0.6-1.7-1.2-2.5-1.9c-0.5-0.4-0.9-0.8-1.3-1.2
	c-1.4-1.1-2.6-2.4-4-3.5c-0.8-0.6-1.5-1.3-2.1-2.1c-0.2-0.1-0.3-0.3-0.3-0.5c-0.1-0.8-0.4-1.6-0.9-2.3c-0.6-1-1.3-1.8-2.3-2.4
	c-0.5-0.3-0.9-0.5-1.4-0.8c-0.5-0.3-1-0.5-1.6-0.6c-0.8-0.1-1.4,0.5-1.5,1.2c0,0.1,0,0.3,0,0.4c0.1,0.5,0.2,1,0.4,1.4
	c0.7,1.1,1.6,2.1,2.8,2.7c0.7,0.3,1.4,0.7,2.1,1c0.5,0.3,1.2,0.5,1.8,0.4c0.2,0,0.4,0,0.6,0.2c0.6,0.6,1.2,1.2,1.8,1.8
	s1.2,1,1.8,1.6c0.2,0.2,0.5,0.3,0.6,0.8l-3.7-0.7c0-0.7-0.6-0.8-1-1c-0.8-0.5-1.8-0.8-2.7-0.9c-0.3-0.1-0.6-0.1-0.9-0.1
	c-1,0.1-2,0.3-2.9,0.6c-0.5,0.3-0.9,0.7-1.1,1.2c0,0.1,0,0.3,0,0.4c0.2,0.6,0.8,1.1,1.4,1.2c0.2,0,0.4,0.1,0.6,0.1
	c0.5,0.3,1,0.4,1.6,0.3c0.4,0,0.9,0.1,1.3,0c0.8-0.1,1.5-0.3,2.2-0.6c0.8-0.5,1.7-0.6,2.6-0.4c1.1,0.2,2.2,0.5,3.3,1
	c0.1,0.1,0.3,0.1,0.4,0.1c0.3,0,0.7,0.1,0.9,0.4c0.2,0.2,0.5,0.4,0.7,0.6c0.6,0.5,1.2,1,1.8,1.5s1.2,1.1,1.8,1.6
	c0.5,0.4,0.8,1.1,0.8,1.7c0,0.9,0,1.8,0,2.7v0.8l0.4,0.2v-0.2C85.5,447.8,85.5,447.3,85.5,446.7z M105.2,430.5
	c1.5-0.5,3.1-0.5,4.7-0.1c1,0.2,1.7,1,1.8,2c-0.5,0.5-1.1,0.8-1.8,0.8c-0.6,0-1.2,0-1.8,0c-0.9-0.1-1.7-0.4-2.5-0.9
	c-0.3-0.2-0.6-0.4-1-0.6c0.2-0.1,0.3-0.1,0.5-0.2c0.4,0,0.8,0,1.1,0.1c0.3,0.1,0.7,0,0.9-0.3c-0.2-0.6-0.3-0.7-0.9-0.5
	c-0.6,0.1-1.2,0.1-1.7,0C104.7,430.7,105,430.6,105.2,430.5z M106.7,425.5c1.1-0.8,2.3-1.5,3.5-2.2c0.9-0.4,1.9-0.5,2.8-0.2
	c0.5,0.1,0.8,0.6,0.6,1.1c0,0,0,0.1,0,0.1c-0.2,0.6-0.6,1.2-1.1,1.7c-1.7,1.4-3.8,2-6,1.8c-0.2,0-0.5-0.1-0.7-0.1
	c0.1-0.1,0.3-0.2,0.5-0.3c1.1-0.5,2.2-0.9,3.3-1.3c0.4-0.1,0.6-0.5,0.5-0.8c0,0,0-0.1,0-0.1l-4.8,2l-0.1-0.1
	C105.6,426.5,106.1,426,106.7,425.5z M108.3,410.9c0.4,0,0.8-0.1,1.2-0.1s1.1,0,1.6,0c0.6,0,1.2,0.1,1.8,0.2
	c0.5,0.1,0.9,0.4,1.2,0.7c0.2,0.2,0.2,0.5,0.1,0.7c-0.3,0.8-1,1.3-1.8,1.4c-1.5,0.2-2.9-0.2-4.1-1l-1.5-1h2.8
	c-0.1-0.3-0.2-0.4-0.4-0.4l-1.3-0.1l-0.8-0.1v-0.2C107.6,411,107.9,411,108.3,410.9L108.3,410.9z M110.7,404.9
	c0.6-0.3,1.3-0.5,1.9-0.7c0.7-0.2,1.5-0.1,2.2,0.2c0.2,0.1,0.4,0.3,0.4,0.6c0.2,1-0.4,1.5-1,2c-0.6,0.5-1.4,0.9-2.2,1.1
	c-0.2,0.1-0.4,0.2-0.6,0.3c-1.1,0.3-2.2,0.4-3.3,0.1c-0.1,0-0.2-0.1-0.3-0.1c0.1-0.1,0.1-0.1,0.2-0.2c0.6-0.2,1.3-0.4,1.8-0.7
	c0.4-0.2,0.8-0.3,1.3-0.3c0.1,0,0.2,0,0.3-0.1c0.1-0.1,0.2-0.3,0.2-0.3c-0.1-0.1-0.2-0.2-0.3-0.2c-0.2,0-0.4,0.1-0.6,0.2l-3.5,1.2
	l-0.1-0.1C108,406.7,109.3,405.7,110.7,404.9L110.7,404.9z M117,389.9c-0.6-0.5-1.2,0.2-1.8,0c0.1-0.1,0.2-0.2,0.3-0.3
	c1-0.7,2.2-1.3,3.4-1.6c0.6-0.2,1.2-0.3,1.8-0.4c0.5-0.1,1,0,1.4,0.3c0.3,0.1,0.4,0.4,0.4,0.8c0,0.4-0.2,0.7-0.5,1
	c-0.4,0.4-0.9,0.6-1.4,0.8c-0.7,0.2-1.4,0.4-2.1,0.7c-1,0.2-2.1,0.2-3.2-0.1c-0.2-0.1-0.5-0.1-0.7-0.2
	C115.3,390.5,116.2,390.4,117,389.9L117,389.9z M112.7,383.3c0.6-1.1,1.3-2,2.2-2.8c0.1-0.1,0.3-0.3,0.4-0.4
	c0.5-0.5,1.1-0.9,1.7-1.2c0.1,0,0.2-0.1,0.3-0.1c1-0.2,1.4,0.1,1.4,1.2c0,0.6-0.2,1.2-0.6,1.7c-0.5,0.9-1.2,1.7-2.1,2.4l-3.3,2
	l-0.4,0.3c-0.1-0.2,0-0.5,0.2-0.6c0.4-0.5,0.9-1,1.3-1.6c0.3-0.4,0.6-0.7,0.9-1c0.3-0.3,0.2-0.7,0.3-1.1c-0.8,0.5-1,1.4-1.7,2
	s-1.1,1.4-1.8,2l-0.1-0.1c0-0.1,0.1-0.3,0.1-0.4L112.7,383.3z M104.8,388.5c-0.1,0.2-0.3,0.4-0.4,0.5c-0.3-0.5,0-1-0.1-1.4
	s0.5-0.8,0-1.3c-0.3,0.5-0.5,1.2-0.5,1.8c0.1,0.4,0,0.8-0.2,1.2c-0.1-0.1-0.3-0.2-0.3-0.4c-0.5-1-0.8-2.2-1-3.3v-0.1
	c-0.1-1.2,0.3-2.3,1-3.3c0.3-0.3,0.6-0.5,0.9-0.8c0.6-0.4,1.4-0.2,1.8,0.4c0.1,0.1,0.1,0.2,0.2,0.4c0.1,0.4,0.2,0.7,0.1,1.1
	c0,1-0.2,2-0.5,3C105.5,387.1,105.2,387.8,104.8,388.5z M84.7,401.7c-0.2-1.5-0.4-3.1-0.4-4.6l-0.6-0.1l0.4,3.8l-0.2,0.1
	c0-0.1-0.1-0.1-0.1-0.2c-0.5-0.7-0.9-1.5-1.1-2.3c-0.3-1.1-0.4-2.2-0.3-3.3c0.1-0.7,0.3-1.4,0.7-2c0.2-0.3,0.7-0.5,1-0.2
	c0.1,0,0.1,0.1,0.2,0.1c0.7,0.7,1.1,1.6,1.3,2.5c0.1,0.5,0.1,1,0,1.5c-0.1,0.9-0.1,1.9-0.2,2.8C85.3,400.4,85.1,401.1,84.7,401.7
	L84.7,401.7z M81.9,408.9c-0.4,0.1-0.6-0.1-0.8-0.3c-0.8-0.8-1.5-1.7-1.9-2.7c-0.4-0.8-0.5-1.6-0.3-2.5c0-0.4,0.4-0.8,0.8-0.8
	c0.2,0,0.5,0.1,0.6,0.3c0.7,0.7,1.3,1.5,1.7,2.4c0.4,0.8,0.5,1.6,0.5,2.5c0,0.1-0.1,0.2-0.1,0.3c-0.5-0.4-0.3-1.2-1.1-1.4
	C81.1,407.6,81.8,408.2,81.9,408.9L81.9,408.9z M72.3,432.7c-0.3-0.1-0.6-0.1-0.8-0.2c-0.8-0.4-1.6-0.8-2.4-1.2
	c-1-0.6-1.8-1.4-2.3-2.4c-0.1-0.3-0.2-0.7-0.1-1c0.1-0.3,0.4-0.6,0.7-0.5c0.4,0,0.9,0.2,1.3,0.4c1.4,0.7,2.6,1.6,3.5,2.8
	c0.2,0.3,0.4,0.6,0.6,0.9c0,0.2,0,0.3,0,0.5c-0.3-0.1-0.6-0.3-0.8-0.6c-0.3-0.4-0.7-0.7-1.1-1c-0.5-0.3-0.9-0.8-1.2-1.4l-0.7-0.1
	c-0.2,0.5-0.2,0.5,0.2,0.8c1,0.8,1.9,1.5,2.9,2.3c0.2,0.2,0.3,0.4,0.5,0.5L72.3,432.7z M70.9,436.8l-0.1,0.6l1.7,0.3
	c0,0.1,0,0.1-0.1,0.2c-0.8,0.4-1.7,0.6-2.6,0.6c-0.8,0-1.7-0.2-2.5-0.4c-0.2-0.1-0.4-0.1-0.5-0.2c-0.6-0.3-0.7-0.7-0.2-1.1
	c0.3-0.3,0.6-0.5,0.9-0.6c1-0.4,2.1-0.4,3.1-0.2c0.9,0.2,1.7,0.5,2.4,1C72.4,437.1,71.7,436.5,70.9,436.8L70.9,436.8z"/>
<path class="st4" d="M399.7,4.7c-0.8,0.5-1.7,1-2.5,1.5c-0.7-0.8-1.8-1.2-2.9-1.1c-0.7,0-1.3,0.1-2,0.3c-2.1,0.5-3.9,1.4-5.5,2.8
	c-0.1,0.2-0.3,0.3-0.3,0.5c-0.3,0.1-0.6,0.2-0.9,0.4c-0.9,0.7-1.9,1.4-2.7,2.1c-0.8,0.7-1.6,1.5-2.3,2.3c-0.8,0.9-1.4,2.1-1.7,3.3
	c-0.3,0.7,0.1,1.4,0.7,1.6c0.1,0,0.1,0,0.2,0.1c0.5,0.1,1,0.2,1.6,0.1c1.8-0.5,3.7-1,5.5-1.6c1.2-0.4,2.3-0.9,3.5-1.6
	c1-0.6,1.9-1.3,2.9-1.9c1.5-1,2.7-2.2,3.8-3.6c0.5-0.5,0.7-1.2,0.6-1.9c0-0.3,0.1-0.6,0.3-0.8c1-1.1,2.2-1.9,3.5-2.4
	c0.1-0.1,0.2-0.1,0.2-0.2c0.9-0.7,1.8-1.3,2.8-1.8c0.3-0.2,0.7-0.4,1-0.6c0.8-0.5,1.6-1,2.5-1.3c-0.4,1.4-0.7,2.7-1.1,4
	c-0.2,0.8-0.5,1.6-0.8,2.4c-0.1,1-0.5,1.9-1.1,2.8c-0.1,0.1-0.1,0.2-0.1,0.3c-0.1,0.5-0.2,1-0.4,1.4c-0.3,0.5-0.5,1.1-0.7,1.6
	c-0.2,1-0.7,1.9-1.4,2.7c-0.7,0.9-1.4,1.7-2.2,2.4c-1.5,1.5-2.7,3.2-4.4,4.6c-1.9,1.6-3.6,3.4-5.5,5c-0.4,0.3-0.8,0.6-1.2,0.9
	c-0.8,0.8-1.6,1.6-2.5,2.4c-0.6,0.7-1.3,1.2-2,1.7c-0.5-0.1-0.9-0.3-1.2-0.3c-1.5-0.3-2.8,0.5-4.1,1.1c-0.6,0.3-1.1,0.6-1.6,0.9
	c-1.5,0.9-2.9,1.9-4.1,3.1c-0.8,0.9-1.7,1.8-2.5,2.7c-1.3,1.2-2.5,2.6-3.5,4.2c-0.8,1.1-1.1,2.6-0.6,3.9c0.1,0.2,0.3,0.4,0.4,0.6
	c0.6,0.5,1.4,0.6,2.1,0.4c1.2-0.2,2.3-0.7,3.3-1.3c0.9-0.4,1.7-0.9,2.6-1.4c0.8-0.5,1.8-1.3,2.7-1.8c1.2-0.7,2.2-1.5,3.2-2.4
	c1.2-1.1,2.2-2.3,3.2-3.6c0.7-0.7,1-1.6,1.1-2.6c0-0.5,0-1.1-0.1-1.6c-0.1-0.5,0.1-1.1,0.6-1.4c0.4-0.4,0.7-0.7,1.1-1l2-1.8
	c0.1,2,0.2,3.7,0.3,5.5c-0.4,0.1-0.7,0.2-1.1,0.3c-0.8,0.2-1.4,0.7-1.8,1.4c-0.4,0.8-0.6,1.6-0.8,2.4c-0.3,1.9-0.3,3.8-0.2,5.6
	c0.2,2.2,0.6,4.4,1.3,6.4c0.3,0.9,0.8,1.8,1.2,2.6c0.2,0.4,0.6,0.6,1,0.4c0.1-0.1,0.3-0.2,0.3-0.3c0.5-0.6,0.9-1.3,1.1-2
	c0.2-0.9,0.6-1.7,0.9-2.6c0.3-0.9,0.6-1.8,0.8-2.7c0.3-1.1,0.4-2.2,0.5-3.3c0-0.4,0-0.7,0-1.1c-0.1-1-0.2-2-0.3-3
	c0-1.3-0.5-2.5-1.3-3.5c-0.2-0.2-0.3-0.4-0.3-0.7c0-1.1,0-2.1-0.1-3.1c0-0.6,0-1.2-0.1-1.8s-0.1-0.9-0.1-1.3c-0.1-1,0.6-1.6,1.2-2.1
	c1.4-1.4,2.9-2.7,4.4-4.1c1.7-1.4,3.2-3,4.6-4.8c0.5-0.6,1-1.1,1.5-1.6c0.1,0.2,0.1,0.5,0,0.7c-0.6,2.1-1.2,4.2-1.7,6.3
	c-0.6,2.4-1.1,4.8-1.7,7.1c-0.3,1.2-0.5,2.4-0.8,3.6c-0.6,2-1.1,4.1-1.4,6.2c-0.4,2.5-0.8,5-1.2,7.5c-0.1,0.3-0.2,0.6-0.5,0.9
	c-0.7,0.5-1.2,1.1-1.7,1.8c-0.8,1.2-1.4,2.5-1.7,3.9c-0.2,0.9-0.3,1.9-0.3,2.9c-0.1,1.9,0.1,3.7,0.4,5.6c0.2,1.5,0.6,2.9,1,4.4
	c0.5,2.2,1.2,4.3,1.9,6.4c0.3,1,1.1,1.8,2.2,2.1c0.6,0.2,1.3,0,1.8-0.4c0.6-0.6,1-1.3,1.2-2.1c0.3-1.6,0.6-3.2,0.7-4.8
	c0.2-1.6,0.2-3,0.3-4.6c0-1.3,0-2.6,0-3.9c0-1,0-2.1-0.1-3.1s-0.3-1.9-0.4-2.8c-0.1-0.6-0.3-1.1-0.3-1.7c-0.1-1.7-1.1-3.1-2.6-3.8
	c-0.4-0.1-0.7-0.5-0.6-1c0,0,0,0,0,0c0.2-1.3,0.3-2.6,0.5-3.9c0.2-1.1,0.3-2.2,0.5-3.3s0.3-2.5,0.6-3.7c0.5-1.9,1-3.7,1.5-5.6
	c0.3-1.1,0.6-2.2,0.9-3.3c0.4-1.4,0.8-2.9,1.2-4.3c0.3-1.1,0.6-2.2,0.9-3.3c0.2-0.7,0.4-1.4,0.6-2.1c0.1-0.5,0.2-1,0.4-1.4
	c0.9-2.2,1.7-4.5,2.3-6.9c0.2-0.4,0.4-0.7,0.6-1c0.2,0.2,0.3,0.3,0.4,0.5c0.9,1.7,1.8,3.4,2.6,5.1c0.6,1.3,1.1,2.5,1.5,3.9
	c0.5,1,0.7,2,0.6,3.1c-0.2,2.1-0.6,4.1-1.2,6.1c-0.2,0.6-0.3,1.3-0.5,1.9s-0.4,1.1-0.6,1.6c-0.9-0.1-1.8,0.3-2.4,1
	c-0.6,0.8-1.2,1.6-1.6,2.5c-0.9,2-1.4,4.1-1.6,6.3c-0.2,1.5-0.3,3-0.3,4.5c0,0.4,0.1,0.9,0.1,1.3c0,2.1,0.1,4.1,0.4,6.2
	c0.1,0.7,0.7,1.3,1.4,1.5c0.6,0.2,1.2,0,1.7-0.5c0.9-1,1.6-2.2,2.1-3.4c0.3-0.7,0.5-1.4,0.7-2.1c0.8-2,1.5-4,1.9-6.1
	c0.4-2.4,0.5-4.9,0.3-7.4c0-0.8-0.2-1.5-0.6-2.2c-0.5-0.7-0.6-1.5-0.4-2.4c0.1-0.4,0.4-0.9,0.5-1.3c0.3-1.5,0.6-3.1,1-4.6
	c0-0.1,0.1-0.1,0.3-0.3c0.1,0.3,0.3,0.7,0.4,1c0.4,1.7,1,3.4,1.3,5.1c0.3,1.2,0.7,2.4,1.1,3.6c0.1,0.3,0.2,0.6,0.3,0.9
	c-1.1,1-1.8,2.3-2,3.8c-0.2,1-0.2,2,0,3c0.1,1.1,0.5,2.2,1,3.3c0.8,1.3,1.5,2.6,2.3,4s1.4,2.4,2.2,3.6c0.7,1,1.4,1.9,2.2,2.8
	c0.5,0.6,1.1,1.1,1.9,1.4c0.8,0.3,1.1,0.3,1.6-0.3c0.7-0.8,1-1.8,1-2.8c0-0.4,0-0.7,0-1.1c0-0.6,0-1.2-0.1-1.8c-0.2-1-0.4-2-0.7-3
	c-0.5-2-1.2-3.9-2-5.7c-0.9-2.1-2.1-4-3.7-5.7c-0.6-0.7-1.4-1.3-2.3-1.6c-0.3-1.1-0.5-2.1-0.8-3.2c-0.4-1.4-0.8-2.8-1.2-4.1
	c-0.3-0.9-0.6-1.8-1-2.6c-0.4-1.1-0.6-2.3-1.1-3.4c-0.6-1.4-1.2-2.8-1.8-4.2s-1.2-2.5-1.8-3.8c-0.9-1.8-1.7-3.5-2.6-5.3
	c-0.3-0.6-0.3-1.2,0-1.8c0.3-0.7,0.4-1.4,0.6-2c0.4-1.5,1-2.9,1.6-4.3h-3.4c-0.7,0.4-1.4,0.8-2.1,1.2C402.7,2.7,401.2,3.7,399.7,4.7
	z M381.3,14.1c0.7-1,1.5-1.8,2.5-2.5c1.2-1.1,2.5-2.1,3.8-3.1c1.5-1.1,3.1-1.9,4.9-2.3c1-0.3,2-0.2,3,0.2c0,0.5-0.2,0.6-0.6,0.7
	c-0.5,0.2-1.1,0.3-1.6,0.6c-1.2,0.6-2.4,1.2-3.6,1.8c-0.8,0.4-1.4,1-2.2,1.5c-1.1,0.7-2.2,1.4-3.2,2.1c-0.4,0.3-0.8,0.6-1.1,1
	c-0.8,0.7-1.8,1.3-2.7,1.8l-0.2-0.2L381.3,14.1z M395.8,9.8c-0.9,1.3-2.1,2.4-3.4,3.2c-0.8,0.5-1.6,1.1-2.5,1.5
	c-1.4,0.8-2.9,1.4-4.5,1.9c-1.2,0.4-2.4,0.7-3.6,1c-0.4,0.2-0.9,0.2-1.4,0l1.2-1c1.5-1.3,3.1-2.3,4.7-3.4c0.7-0.6,1.5-1.1,2.4-1.5
	c1.5-0.7,2.9-1.6,4.4-2.4c0.9-0.4,1.8-0.8,2.8-1.1C396.3,8.5,396.3,9.2,395.8,9.8L395.8,9.8z M368.1,48.4c-0.1-0.6-0.1-1.1,0-1.7
	c0.4-1.2,1.1-2.4,1.9-3.3c1.4-1.8,3-3.6,4.7-5.1c0.6-0.7,1.4-1.3,2.2-1.7c0.7-0.3,1.3-0.6,1.9-1c1-0.7,2.1-1.2,3.3-1.5
	c0.4-0.1,0.8-0.1,1.2-0.1c0.4,0,0.5,0.4,0.2,0.7c-0.7,0.9-1.5,1.6-2.4,2.3c-0.6,0.5-1.3,0.8-2,0.9c-0.1,1-0.9,1.4-1.5,1.9
	c-1.6,1.4-3.2,2.7-4.8,4.1c-0.8,0.7-1.5,1.5-2.2,2.3C370,47.1,369.1,47.8,368.1,48.4L368.1,48.4z M384.6,37.4
	c-0.1,0.5-0.3,0.9-0.6,1.3c-1.3,2-2.9,3.7-4.9,5.1c-1.6,1-3.1,2.1-4.7,3.1c-1,0.6-2.1,1.2-3.2,1.7c-0.5,0.2-1,0.3-1.5,0.4l-0.1-0.2
	l1.8-2c0.1-0.1,0.3-0.2,0.3-0.3c1-1.5,2.5-2.4,3.8-3.6c1.3-1.2,2.5-2.3,3.8-3.4c0.7-0.6,1.5-1.1,2.3-1.7s1.5-1.4,2.3-2
	c0.2-0.1,0.4-0.3,0.6-0.4C384.8,36.2,384.8,36.8,384.6,37.4L384.6,37.4z M389.1,45.3c0.1,1.1,0.1,2.2-0.1,3.2
	c-0.1,0.8-0.1,1.6,0,2.4c0,0.8,0,1.5-0.1,2.3c-0.7-0.8-1.1-1.7-1.3-2.6c-0.2-0.8-0.3-1.7-0.4-2.5c-0.4-2.2-0.5-4.5-0.3-6.8
	c0-1.1,0.4-2.2,1.1-3c0.3-0.2,0.6-0.4,1-0.7c0.1,0.3,0.2,0.7,0.3,1c0,2.1,0,4.2-0.1,6.4C389.1,45.1,389,45.2,389.1,45.3L389.1,45.3z
	 M391.2,38.8c0.2,0.4,0.4,0.9,0.5,1.3c0.2,1.5,0.4,3,0.5,4.5c0,0.8-0.1,1.6-0.3,2.4c-0.3,1.7-0.8,3.4-1.5,5.1
	c-0.1,0.4-0.2,0.8-0.3,1.1c-0.1-0.2-0.2-0.3-0.2-0.4c-0.1-1.2-0.1-2.4-0.1-3.6c0-1.1,0.2-2.2,0.5-3.2c0.1-0.7,0.1-1.4,0-2.1
	c0-1.6,0-3.2,0-4.8c0-0.2,0-0.5,0.1-0.7l0.2-0.1C390.8,38.4,391.1,38.6,391.2,38.8L391.2,38.8z M396.7,75.7
	c-0.7-0.6-1.3-1.4-1.5-2.4c-0.4-1-0.8-2-1-3.1c-0.3-2-1.2-3.8-1.3-5.8c0-1.4-0.3-2.9-0.5-4.3c-0.2-2.2,0.1-4.4,1-6.4
	c0.5-1,1.1-1.8,2-2.5c0,0.9,0,1.7,0,2.4s-0.1,1.7-0.1,2.5c0,1.6,0,3.1,0.2,4.7c0.1,1.1,0.1,2.2,0.2,3.3c0.1,0.7,0.2,1.5,0.3,2.2
	c0.3,2.6,0.5,5.1,0.8,7.6C396.8,74.5,396.8,75.1,396.7,75.7L396.7,75.7z M398.8,52.7c0.3,0.5,0.4,1,0.5,1.5c0.3,1.4,0.5,2.7,0.7,4.1
	c0,0.1,0,0.1,0,0.2c-0.1,1.6,0.3,3.3,0,4.9c-0.1,0.3,0.1,0.6,0,1c-0.1,1.4-0.1,2.8-0.2,4.2c-0.1,1.6-0.4,3.1-0.6,4.7
	c0,0.9-0.5,1.8-1.2,2.4c-0.1-0.7-0.3-1.2-0.4-1.8c-0.2-1.4-0.4-2.8-0.6-4.3c-0.1-0.7,0-1.4-0.1-2c-0.1-2.4-0.3-4.8-0.4-7.2
	c0-0.6-0.2-1.2-0.2-1.8c-0.1-2-0.1-4.1,0.1-6.1c0-0.4,0-0.9,0.1-1.4C397.8,51.2,398.3,52,398.8,52.7L398.8,52.7z M405.8,51.9
	c-0.1,0.5-0.2,1-0.3,1.6c-0.4-0.3-0.6-0.8-0.6-1.3c-0.3-2.3-0.4-4.6-0.3-6.9c0-2.1,0.3-4.3,0.9-6.4c0.4-1.3,0.9-2.6,1.5-3.8
	c0.4-0.8,1.1-1.5,1.9-1.9c0.2-0.1,0.3-0.1,0.5-0.2c-0.1,0.4-0.1,0.6-0.1,0.8c-0.4,1.6-0.8,3.1-1.1,4.7c-0.2,0.7-0.2,1.4-0.3,2.1
	c0,0.1,0,0.3-0.1,0.4c-0.4,1.4-0.7,2.8-0.8,4.2C406.6,47.6,406.1,49.8,405.8,51.9L405.8,51.9z M411.9,37.6c0.1,1.5,0,3-0.2,4.5
	c-0.3,1.4-0.6,2.8-1,4.1c-0.5,1.6-1,3.1-1.6,4.7c-0.3,1.1-1,2.2-1.8,3c-0.2,0.2-0.4,0.4-0.6,0.5l-0.2-0.1c0.1-0.8,0.2-1.5,0.3-2.3
	s0.1-1.7,0.3-2.6c0.2-1.1,0.4-2.3,0.6-3.4c0.1-1,0.3-1.9,0.4-2.9c0.1-0.7,0.2-1.4,0.5-2c0.3-0.8,0.5-1.6,0.6-2.5
	c0.4-1.5,0.7-3.1,1.1-4.6c0.1-0.2,0.1-0.3,0.2-0.5c0.3,0.3,0.5,0.4,0.6,0.6C411.5,35.2,411.8,36.4,411.9,37.6L411.9,37.6z M418.9,37
	c1.1,0.8,2,1.8,2.7,3c0.7,1.4,1.5,2.7,2.1,4.1c0.3,0.8,0.6,1.6,0.8,2.4c0.5,1.5,0.9,3,1.3,4.6c0.3,1.4,0.3,2.9-0.2,4.3
	c-0.1,0.3-0.3,0.6-0.5,0.9c-0.7-1.3-1.3-2.3-1.8-3.3s-1-2.4-1.6-3.5c-0.4-0.9-0.8-1.9-1.2-2.8c-0.3-0.6-0.4-1.2-0.4-1.9
	c0-0.1,0-0.3,0-0.4c-0.6-1.6-1.2-3.2-1.7-4.8c-0.3-0.8-0.6-1.7-0.8-2.5c0-0.2-0.1-0.4-0.1-0.6C418.1,36.5,418.5,36.7,418.9,37
	L418.9,37z M418.5,43.6c0.5,2.1,1.5,4.1,2.2,6.2c0.6,1.6,1.4,3.2,2.1,4.8c0,0.1,0,0.2,0,0.3l-0.1,0.1c-0.7-0.9-1.5-1.8-2.2-2.7
	c-0.8-1.1-1.6-2.3-2.4-3.5c-0.8-1.3-1.6-2.8-2.2-4.2c-0.7-1.7-1-3.6-0.6-5.4c0.1-0.7,0.5-1.3,0.9-1.8c0.1,0.2,0.2,0.4,0.3,0.6
	C417.2,39.8,418,41.7,418.5,43.6L418.5,43.6z"/>
<circle class="st3" cx="964.6" cy="91.4" r="5.4"/>
<circle class="st3" cx="626.4" cy="339.6" r="16.1"/>
<g>
	<path class="st5" d="M849.9,276.9l19.8-20.9c0,0,21.2,11.6,45.9,22.8c6.8-11.8,17.9-50.7,18.5-52.5c0.6-1.9-13-25.2-9.9-25.8
		c3-0.6,7,12.5,10.2,11.1c3.2-1.3,11.5-31.6,13.4-30c3.6,3.1-4.3,18.8-2.4,20c1.9,1.1,6.7-17.5,10.4-16.7c3.7,0.8-6.2,16.9-5.1,18.5
		c1.1,1.6,11.4-13.6,13.6-10.1c1.2,1.9-9.5,13.2-7.3,14.4c2.2,1.3,11.8-5.8,13-3.5c1.2,2.3-9,4.7-11.8,10.5
		c-2.8,5.8-7.9,8.1-9.6,19.1c-1.7,11-6.3,69.9-18.3,74.6C919.5,312.6,849.9,276.9,849.9,276.9z"/>
	<path class="st6" d="M892.4,488h-61.5L814,448.3l25.6-39.2l3.1-4.8l0.8-1.3l2.6-4l0.4-0.6l0.7-0.4c0,0,0,0,0.1,0l3.5-2l11.8-6.6
		c0.7,1.7,3.6,11.1,3.6,11.1s11.9,38.9,17.4,57.7C883.7,458.4,887.6,470.6,892.4,488z"/>
	<path class="st7" d="M862.7,389.5l-19.6,79.1l-1.5,19.4h-65.7c-0.7-2.9-1.1-4.5-1.1-4.5c-3.6-17.3,1.6-44.1,11.1-63
		c4.3-8.7,10.2-14.6,14.3-21.4c0.6-1,1.2-2.1,1.7-3.1c1.5-3,2.5-5.8,3.3-8.5c0.3-1,0.5-1.9,0.7-2.9c1.8-8,1-13.7,1-13.7L862.7,389.5
		z"/>
	<path class="st8" d="M868.6,196.3c-2.6-12.1-5.2-24.3-17.3-33c-9.7-7.1-20.2-9.1-31.3-5.1c-31.5,11.4-14.5,36.4-53.6,63
		c-12.1,8.3-16.7,11.2-25.4,22.2c-12.2,15.4-18.8,36.1-12.7,53.2c12.7,35.2,51.9,45.4,72.5,37.9c38.2-13.9,70.1-62.4,72.2-75.6
		C875.2,244.8,870.3,204.1,868.6,196.3z"/>
	<path class="st1" d="M871.6,290c8.9,4.1,24.9,10.2,24.9,10.2l9.1-28.9c-51.6-29.3-47.5-24.6-86.2-24c-30.9,0.4-43.9-5.5-70.5,66.4
		c0,0,20.3,9.1,27.5,12c3.1-8.9,8.8-26.6,12.1-16.5c5,15.3,8.6,30.7,11.1,46.5c1.6,9.4,4.9,21.4,3.2,31c0,0,21.1,4.3,37.1,5
		c0,0,0.1,0,0.1,0c7.8-0.2,15.7-0.9,22.8-2.4c0,0,3.2-66.7,4.8-69.5c1.9-3.1,9.7-13,3-27.9C869.4,289.5,869.7,289.2,871.6,290z"/>
	<path class="st5" d="M824.2,217.7c0,0-2.5,19.9-3.9,26.8c-1.5,7.2-3.8,30,11.2,33.7c15,3.7,10.4-24.8,10.6-32.1
		c0.2-7.3,4.5-33,4.5-33L824.2,217.7z"/>
	<path class="st9" d="M823.4,224c0.2,0.1,0.3,0.2,0.5,0.3c8.3,4.7,15.5,4,20.9,0.3c1-6.4,1.8-11.5,1.8-11.5l-22.4,4.6
		C824.2,217.7,823.9,220.3,823.4,224z"/>
	<path class="st5" d="M828.7,165.9c0,0-8.8,2.5-13.8,11.2c-5.1,8.7-7.6,33.8,11,44.4c18.6,10.7,31.9-6.4,31.3-22.4
		C856.6,183.1,852.2,161.9,828.7,165.9z"/>
	<path class="st5" d="M861.3,192.2c0.2,4.2-1.6,7.6-4,7.8c-2.4,0.1-4.5-3.2-4.7-7.3c-0.2-4.2,1.6-7.6,4-7.8
		C859,184.8,861.1,188,861.3,192.2z"/>
	<path class="st8" d="M831.3,165.2c0,0-10,26.2-19.9,29c-9.8,2.8-9,15.7-9,15.7s-1.3-29.8,7.7-37.1
		C819.1,165.5,831.3,165.2,831.3,165.2z"/>
	<path class="st5" d="M815.7,199.3c1.5,4.1,0.5,8.2-2.2,9.3c-2.7,1-6.2-1.4-7.7-5.5c-1.5-4.1-0.5-8.3,2.2-9.3
		C810.7,192.8,814.1,195.2,815.7,199.3z"/>
	<path class="st5" d="M832.8,405.8c0.4,0,2-0.2,3.4-0.1c1.9,0,3.5,0.3,3.5,0.3s0.7-0.6,2.1-1.3c0.6-0.3,1.5-0.4,2.2-0.7
		c0.7-0.3,1.2-0.9,1.9-1.2c1.6-0.7,3.2-0.9,3.7,0c0.4,0.7-8.7,6.3-8.7,6.3c-8.5,0-17.3,4.4-36.9-8.4c-11.2-4.9-65.6-31.8-66.7-37.6
		c-0.6-3.3,7.7-28.7,14.6-48c5.3,2.4,16.4,7.3,22.7,10c-5.7,12.2-12.5,28.3-11.8,30.3c0.2,0.5,0.9,1.4,37.6,25.5
		c0.9,0.6,1.9,1.2,2.8,1.9c2.6,1.7,5.4,3.5,8.3,5.4l10.5-1.1c0,0,16.6,1.1,17.1,3c0.2,0.9-1.2,1.3-2.9,1.5h0c-0.2,0-0.5,0.1-0.7,0.1
		c0,0,0,0,0,0c-1.8,0.2-3.7,0.2-4.2,0.4c-0.5,0.2-1.6,0.6-2.5,1.2c10.4,4.2,9.6,2.7,13,2.5c0.9-0.1,1.8,0.2,2.6,0.1
		c1.4-0.1,2.5-0.9,3.6-1c1.6-0.1,2.9,0.6,3.1,0.9c0.4,0.4-0.3,0.9-1.6,1.5c-8,3.5-14.6,2.1-16.7,2.7c-1.4,0.3,1.2,0.9,5.2,0.4
		c1-0.1,2.3,0.3,3.7,0c0.9-0.2,1.7-0.8,2.6-1c0.8-0.2,1.6-0.2,2.3-0.3c0.9-0.2,2.1-0.8,2.9-0.9c2.7-0.3,3.9,0.2,4.2,0.4
		c0.6,0.5-11.4,5.2-11.4,5.2s-8.3,1.2-10.2,1.2C831.8,404.9,830.7,405.4,832.8,405.8z"/>
	<polyline class="st10" points="748.8,313.8 776.3,325.8 779.1,318 751.5,306.6 748.8,313.4 	"/>
	<polygon class="st10" points="896.4,300.3 905.6,271.4 898.9,267.6 888.7,297.2 	"/>
	<path class="st8" d="M827.7,164.9c0,0,15.3,23.5,25.5,24.2c10.2,0.7,12.1,13.4,12.1,13.4s-5-29.4-15.3-34.6
		C839.7,162.6,827.7,164.9,827.7,164.9z"/>
	<path class="st11" d="M816.1,197.1c0.8-0.6,1.7-1.1,2.6-1.5c1-0.4,2-0.7,3-0.8c1-0.1,2.1-0.1,3.1,0.1c1,0.2,2,0.7,2.8,1.4
		c0.2,0.1,0.3,0.4,0.2,0.6c-0.1,0.2-0.4,0.3-0.6,0.2l0,0c-0.8-0.4-1.7-0.7-2.6-0.8c-0.9-0.1-1.8-0.1-2.7,0c-0.9,0.1-1.8,0.3-2.7,0.6
		c-0.9,0.3-1.8,0.6-2.6,1l0,0c-0.2,0.1-0.4,0.1-0.5-0.1C816,197.5,816,197.2,816.1,197.1L816.1,197.1z"/>
	<path class="st11" d="M836.7,194.1c0.2,0.7,0.3,1.3,0.4,2c0.1,0.7,0.1,1.3,0.2,2l0.1,1c0,0.2,0,0.3,0.1,0.4c0,0.2,0.1,0.3,0.1,0.5
		c0.1,0.4,0,0.9-0.1,1.3c-0.1,0.3-0.3,0.5-0.6,0.6c-0.2,0.1-0.5,0.1-0.7,0.1c-0.2,0-0.4-0.2-0.4-0.4c0,0,0,0,0,0
		c0-0.2,0.1-0.3,0.2-0.3l0.1-0.1c0.1-0.1,0.2-0.1,0.2-0.2c0,0,0-0.1,0-0.1c0-0.2,0-0.5-0.1-0.7l-0.1-0.5c0-0.2-0.1-0.4-0.1-0.5
		c0-0.4-0.1-0.7-0.1-1c0-0.7,0-1.3,0-2c0-0.7,0-1.3,0-2l0,0c0-0.2,0.2-0.4,0.4-0.4C836.5,193.8,836.6,193.9,836.7,194.1z"/>
	<path class="st11" d="M855.5,194.6c-0.9-0.2-1.9-0.4-2.8-0.5c-0.9-0.1-1.9-0.1-2.8-0.1c-0.9,0.1-1.8,0.3-2.6,0.6
		c-0.8,0.3-1.6,0.8-2.4,1.3l0,0c-0.2,0.1-0.5,0.1-0.6-0.1c-0.1-0.2-0.1-0.4,0-0.5c0.7-0.8,1.5-1.5,2.5-1.9c1-0.4,2-0.7,3.1-0.7
		c1-0.1,2.1,0,3.1,0.2c1,0.2,2,0.5,2.9,1c0.2,0.1,0.3,0.3,0.2,0.5C856,194.5,855.8,194.6,855.5,194.6L855.5,194.6z"/>
	<path class="st11" d="M840.6,213.2c-1.1,1-2.6,1.5-4.1,1.4c-1.5,0-2.9-0.7-3.9-1.8c-0.2-0.2-0.1-0.5,0-0.6c0,0,0,0,0,0
		c0.1-0.1,0.3-0.1,0.5-0.1l0,0c1,0.6,2.2,1,3.4,1c1.2,0.1,2.4-0.2,3.5-0.6l0,0c0.2-0.1,0.4,0,0.5,0.2
		C840.7,212.9,840.7,213.1,840.6,213.2z"/>
	<path class="st11" d="M858.6,187.8c-0.8-1.1-1.7-2.1-2.9-2.7c-0.1,0-0.1-0.1-0.2-0.1h0c0,0-0.1,0-0.1-0.1c-1.3-0.6-2.7-1.1-4.1-1.3
		c-2.9-0.5-5.8,0.2-8.3,1.9c-0.3,0.2-0.6,0.4-0.9,0.7c-0.3,0.3-0.5,0.5-0.7,0.8l-0.6,0.9l-0.5,0.9c-0.7,1.2-1.2,2.6-1.5,4
		c-0.1,0.3-0.1,0.7-0.1,1.1c-0.2,2.5,0.5,5.1,2,7.2c0.8,1.3,1.9,2.3,3.2,3c1.3,0.6,2.7,1,4.1,1.2c2.9,0.4,5.8-0.2,8.1-1.9
		c0.4-0.3,0.7-0.5,1-0.8c0.7-0.7,1.3-1.5,1.8-2.4c0.2-0.4,0.4-0.9,0.6-1.3v0c0.3-0.8,0.6-1.7,0.7-2.6
		C860.8,193.2,860.2,190.3,858.6,187.8z M859.8,196L859.8,196c-0.2,1.3-0.7,2.6-1.4,3.7c-0.3,0.5-0.7,1-1.2,1.5v0
		c-0.5,0.5-1,1-1.6,1.4c-2.1,1.6-4.9,2.3-7.5,1.9c-1.3-0.2-2.5-0.8-3.6-1.6c-1.1-0.7-2-1.6-2.9-2.6c-1.6-2.1-2.3-4.8-2-7.4
		c0.1-1.3,0.6-2.6,1.3-3.7c0.2-0.3,0.4-0.5,0.6-0.8c0.2-0.3,0.5-0.5,0.7-0.7c0.3-0.2,0.5-0.4,0.7-0.7c0.3-0.2,0.5-0.4,0.8-0.6
		c2.1-1.6,4.8-2.4,7.4-2c1.3,0.2,2.5,0.7,3.5,1.4c0,0,0.1,0.1,0.1,0.1c0.4,0.3,0.7,0.5,1,0.8c0.7,0.5,1.3,1.2,1.8,1.8
		C859.3,190.6,860.1,193.3,859.8,196z"/>
	<path class="st11" d="M833.8,193.9c-0.3-1.7-0.9-3.3-1.9-4.7c-0.9-1.2-2-2.2-3.3-2.8c-1.3-0.6-2.7-1-4.1-1.2
		c-1.1-0.1-2.2-0.1-3.3,0h0c-1.8,0.3-3.5,1-4.9,2.1c-0.3,0.2-0.6,0.4-0.8,0.7c-0.2,0.3-0.5,0.5-0.7,0.8l-0.6,0.9l-0.5,1
		c-0.6,1-1,2.1-1.3,3.3c-0.1,0.2-0.1,0.4-0.2,0.7c0,0,0,0,0,0.1c-0.4,2.9,0.3,5.9,2.1,8.2c0.5,0.8,1.2,1.5,1.9,2
		c0.4,0.3,0.9,0.6,1.3,0.8c1.3,0.6,2.7,1,4.2,1.1c2.9,0.3,5.8-0.4,8.1-2.2c1.1-0.9,2.1-2,2.7-3.3c0.6-1.3,1.1-2.6,1.3-4
		C834,196.2,834,195,833.8,193.9z M833.3,197.3L833.3,197.3c-0.4,2.7-1.9,5.1-4,6.7c-2.1,1.7-4.8,2.5-7.5,2.1
		c-1.3-0.2-2.6-0.7-3.6-1.5c-0.6-0.4-1.2-0.9-1.8-1.4c-0.4-0.4-0.8-0.7-1.2-1.2c-1.5-1.9-2.3-4.4-2.2-6.8c0-0.2,0-0.3,0-0.5
		c0-0.4,0.1-0.9,0.2-1.3c0.2-0.9,0.5-1.7,1-2.5c0.2-0.3,0.4-0.5,0.6-0.8c0.2-0.3,0.4-0.5,0.7-0.7c0.2-0.2,0.5-0.5,0.7-0.7
		c0.2-0.2,0.5-0.4,0.7-0.6c1-0.8,2.2-1.5,3.4-1.8c1.3-0.4,2.6-0.5,3.9-0.4c1.3,0.2,2.6,0.6,3.7,1.4c1.1,0.7,2.1,1.6,2.9,2.6
		C832.7,191.9,833.5,194.6,833.3,197.3z"/>
	<path class="st12" d="M833.6,194c1.5-1.2,3.6-1.2,5.2-0.1"/>
</g>
</svg>
