<?xml version="1.0" encoding="utf-8"?>
<!-- Generator: Adobe Illustrator 23.0.1, SVG Export Plug-In . SVG Version: 6.00 Build 0)  -->
<svg version="1.1" id="Layer_1" xmlns="http://www.w3.org/2000/svg" xmlns:xlink="http://www.w3.org/1999/xlink" x="0px" y="0px"
	 viewBox="0 0 1013 488" style="enable-background:new 0 0 1013 488;" xml:space="preserve">
<style type="text/css">
	.st0{fill:#A4C3B2;}
	.st1{fill:#6B9080;}
	.st2{fill:none;stroke:#FFFFFF;stroke-linecap:round;stroke-miterlimit:10;}
	.st3{fill:none;stroke:#FFFFFF;stroke-miterlimit:10;}
	.st4{fill:none;stroke:#FFFFFF;stroke-width:0.5;stroke-linecap:round;stroke-miterlimit:10;}
	.st5{fill:#FFCEC7;}
	.st6{fill:#606060;}
	.st7{fill:#686868;}
	.st8{fill:#333333;}
	.st9{fill:#F7A491;}
	.st10{fill:#B8D3C3;}
	.st11{fill:#7F7F7F;}
	.st12{fill:#F2B1AF;}
	.st13{fill:#EF8E89;}
	.st14{fill:none;stroke:#7F7F7F;stroke-width:1.67;stroke-linecap:round;stroke-linejoin:round;}
	.st15{fill:#595959;}
	.st16{fill:#3D3D3D;}
</style>
<title>hero2</title>
<rect x="0.9" y="-1" class="st0" width="1012.5" height="487.5"/>
<path class="st1" d="M794.3,405.3l-6.6-3.1l-3.3-1.5l-3.2-1.7l-6.4-3.5c-2.1-1.2-4.2-2.5-6.2-3.8c-4.2-2.5-8.1-5.3-12.2-8
	c-2-1.3-3.9-2.8-5.9-4.3l-5.8-4.4l-5.6-4.6c-1.9-1.6-3.8-3-5.6-4.7l-5.5-4.8c-0.9-0.8-1.8-1.6-2.7-2.4l-2.6-2.5l-5.3-5
	c-1.8-1.7-3.4-3.4-5.1-5.1s-3.4-3.4-5.1-5.2l-4.9-5.4c-3.3-3.5-6.4-7.3-9.6-11c-1.6-1.8-3.1-3.7-4.6-5.6l-4.5-5.7
	c-1.5-1.9-2.9-3.9-4.3-5.8c-1.5-1.9-2.9-3.9-4.3-5.9c-2.7-4-5.5-8-8.1-12.1c-1.3-2.1-2.6-4.1-3.9-6.2l-3.6-6.3
	c-2.5-4.2-4.7-8.6-6.7-13c-4-8.9-7.3-18.1-9.7-27.5c-2.4-9.5-3.9-19.1-4.4-28.9c-0.3-4.9-0.2-9.8,0.1-14.7s1-9.8,2-14.6
	c2.2-9.6,5.8-19.2,11.7-27.4c0.7-1,1.4-2,2.3-3c0.8-1,1.6-2,2.4-2.9l2.6-2.7c0.9-0.9,1.8-1.7,2.7-2.6c3.7-3.4,7.7-6.4,12-9
	c8.6-5.2,18.2-8.5,28.2-9.9c9.9-1.4,20.1-0.7,29.7,2c19.2,5.4,36.2,18.4,45.8,36l-4.3,1.2c-0.3-5.8,0.8-11.6,3-17
	c2.2-5.3,5.1-10.2,8.6-14.6c3.5-4.4,7.4-8.4,11.6-12.1c4.2-3.7,8.5-7.1,13.1-10.3c4.6-3.2,9.3-6.1,14.2-8.6c4.9-2.6,10-4.9,15.2-6.8
	l2-0.7c0.7-0.2,1.3-0.4,2-0.7c1.3-0.4,2.7-0.9,4-1.3c2.7-0.7,5.4-1.5,8.2-2l2.1-0.4l1-0.2l1-0.1l4.2-0.6c1.4-0.2,2.8-0.2,4.2-0.3
	l2.1-0.1c0.7,0,1.4,0,2.1,0c5.7,0,11.3,0.5,16.8,1.7c2.8,0.6,5.5,1.3,8.2,2.2c2.7,0.8,5.3,1.9,7.9,3c5.2,2.3,10.1,5,14.8,8.1
	l1.8,1.1c0.6,0.4,1.1,0.8,1.7,1.2l3.4,2.5l3.2,2.7l1.6,1.4l1.5,1.4l3.1,2.9l2.9,3c0.5,0.5,1,1,1.4,1.5l1.4,1.6
	c0.9,1.1,1.8,2.1,2.7,3.2c1.7,2.2,3.5,4.4,5,6.7c0.8,1.2,1.6,2.3,2.3,3.5l2.2,3.6c0.8,1.2,1.4,2.4,2,3.6s1.4,2.4,2,3.7
	c1.2,2.5,2.4,5,3.5,7.6c2.2,5.1,4,10.4,5.5,15.7s2.8,10.8,3.7,16.2l0.6,4.1l0.3,2l0.2,2.1l0.5,4.1l0.3,4.1c0.1,1.4,0.2,2.8,0.3,4.1
	l0.2,4.1c0,2.8,0.2,5.5,0.1,8.3c0,5.5-0.2,11.1-0.5,16.6s-1.2,11-1.8,16.5c-0.4,2.7-0.9,5.5-1.4,8.2l-0.7,4.1
	c-0.3,1.4-0.6,2.7-0.9,4l-1.9,8.1l-2.4,8l-1.2,4l-1.3,3.9c-0.9,2.6-1.8,5.2-2.8,7.8c-8.1,20.6-18.6,40.4-31.8,58
	c-13.1,17.8-28.6,33.7-46.1,47.2c-0.5,0.4-1.2,0.3-1.6-0.2c-0.4-0.5-0.3-1.2,0.2-1.5l0,0c33.4-28.2,59.1-64.5,74.5-105.4
	c0.9-2.6,1.8-5.1,2.7-7.7l1.3-3.9l1.1-3.9l2.3-7.8l1.9-7.9c0.3-1.3,0.7-2.6,1-3.9l0.8-4c0.5-2.7,1.1-5.3,1.6-8
	c0.8-5.4,1.8-10.7,2.3-16.1c2.3-21.6,1.1-43.7-5-64.5c-1.5-5.2-3.4-10.3-5.5-15.2c-1-2.5-2.3-4.9-3.4-7.3c-0.6-1.2-1.3-2.4-1.9-3.5
	s-1.3-2.4-2-3.5l-2.2-3.4c-0.7-1.1-1.5-2.2-2.3-3.3c-1.5-2.2-3.3-4.3-4.9-6.4c-0.9-1-1.8-2-2.7-3l-1.3-1.5c-0.5-0.5-0.9-1-1.4-1.4
	l-2.8-2.9l-3-2.7l-1.5-1.4l-1.6-1.3l-3.1-2.5l-3.3-2.3c-0.5-0.4-1.1-0.8-1.6-1.2l-1.6-1.1c-4.5-2.9-9.2-5.4-14.2-7.4l-3.7-1.4
	c-1.2-0.5-2.5-0.8-3.8-1.3c-2.5-0.9-5.1-1.4-7.7-2c-1.3-0.3-2.6-0.5-3.9-0.7c-1.3-0.3-2.6-0.4-3.9-0.6l-4-0.4
	c-1.3-0.1-2.7-0.1-4-0.1c-0.7,0-1.3-0.1-2-0.1h-2c-1.3,0.1-2.7,0-4,0.1l-4,0.3l-1,0.1l-1,0.1l-2,0.3c-2.7,0.3-5.3,1-7.9,1.5
	c-1.3,0.3-2.6,0.7-3.9,1c-0.7,0.2-1.3,0.3-2,0.5l-1.9,0.6c-10.2,3.5-19.9,8.5-28.7,14.8c-8.7,6.4-16.9,13.7-23.3,22.2
	c-3.2,4.2-5.8,8.8-7.8,13.8c-1.9,4.8-2.7,10-2.4,15.2l0,0c0.1,1.3-0.9,2.3-2.2,2.4c-0.9,0-1.7-0.4-2.1-1.2
	c-9-16.4-25.2-28.5-43.1-33.4c-4.5-1.2-9.1-2-13.8-2.3l-3.5-0.1l-3.5,0.1c-1.2,0-2.3,0.1-3.5,0.3c-1.2,0.1-2.3,0.2-3.5,0.5L700,126
	l-3.4,0.9c-1.1,0.3-2.2,0.7-3.3,1c-1.1,0.3-2.2,0.7-3.3,1.2c-4.3,1.7-8.5,3.8-12.4,6.2c-1,0.6-2,1.2-2.9,1.9l-2.8,2
	c-0.9,0.7-1.8,1.4-2.7,2.2l-1.3,1.1l-1.3,1.2c-3.4,3.1-6.5,6.5-9.3,10.3c-1.4,1.8-2.6,3.8-3.9,5.7l-1.7,3c-0.6,1-1,2.1-1.6,3.1
	c-2,4.2-3.6,8.6-4.9,13.1c-2.4,9.2-3.5,18.6-3.2,28.1c0.4,9.5,1.8,19,4.1,28.3s5.5,18.3,9.5,27c2,4.3,4.2,8.6,6.7,12.7l3.7,6.2
	c1.3,2,2.6,4,3.9,6.1c10.5,16.1,22.3,31.2,35.3,45.4c12.9,14.3,26.8,27.5,41.7,39.6l5.7,4.4c1.9,1.5,3.8,3,5.8,4.3
	c3.9,2.8,7.8,5.6,11.9,8.1c2,1.3,4,2.6,6.1,3.9l6.3,3.6l3.1,1.8l3.2,1.6l6.4,3.2h0.1c0.5,0.3,0.7,1,0.4,1.5
	C795.4,405.3,794.8,405.5,794.3,405.3L794.3,405.3z"/>
<path class="st2" d="M223.3,0.5c5.9,16.4,8.9,33.7,8.9,51.1c0.1,39.9-15.7,78.2-44,106.3c-28.1,28.3-66.4,44.1-106.3,44
	C53,202,24.7,193.7,0.5,178.1"/>
<path class="st2" d="M208.5,0.5c6.5,16.2,9.9,33.6,9.9,51.1c0,75.4-61.1,136.6-136.6,136.6c-29.3,0.1-57.8-9.4-81.3-26.8"/>
<path class="st2" d="M181.7,0.5c8.1,15.8,12.3,33.3,12.3,51.1c0,61.9-50.2,112.1-112.2,112.1c-30.7,0-60.2-12.6-81.3-34.9"/>
<circle class="st3" cx="679.6" cy="77.4" r="15.2"/>
<circle class="st3" cx="679.6" cy="77.4" r="10.6"/>
<g>
	<circle class="st3" cx="277.8" cy="439.9" r="22.2"/>
	<circle class="st3" cx="277.8" cy="439.9" r="15.5"/>
	<path class="st4" d="M275.6,440.8c-0.1-1-0.1-2,0.2-3c0-0.1,0-0.1,0-0.2c-0.1-1,0-2.1,0.2-3.1l1.1-1c0.2-0.2,0.5-0.5,0.7-0.7
		c0.5-0.4,1.1-0.8,1.6-1.3c1.1-0.8,2.2-1.6,3.4-2.4c0.7-0.5,1.4-1,2.2-1.4c0.3-0.2,0.5-0.4,0.9-0.3c0.2,0,0.3,0,0.5-0.1
		c0.8-0.4,1.6-0.8,2.4-1c0.1,0,0.1,0,0.2,0c0.3,0,0.6,0,0.9,0c1-0.1,1.9-0.3,2.8-0.5c0.6-0.1,1.2,0,1.7,0.4c0.4,0.3,0.8,0.6,1.3,0.8
		c1,0.5,2,0.8,3.1,0.8c1,0.1,2-0.1,2.9-0.5c0.2-0.1,0.5-0.2,0.6-0.4c0.2-0.2,0.3-0.4,0.3-0.7c0-0.4-0.2-0.9-0.4-1.2
		c-0.5-0.7-1.3-1.2-2.1-1.4c-1-0.2-2.1-0.3-3.1-0.2c-1.2,0.2-2.3,0.5-3.4,0.9c-0.2,0.1-0.4,0.2-0.5,0.4c-0.2,0.3-0.6,0.5-1,0.5
		c-0.8,0.1-1.6,0.2-2.3,0.3c-0.5,0-1.1,0.1-1.6,0.1c1.1-0.7,2.2-1.3,3.2-1.9c0.3-0.2,0.7-0.3,1-0.4c0.8-0.4,1.5-0.8,2.3-1.1
		c0.2-0.1,0.3-0.1,0.5,0c0.6,0.2,1.2,0.3,1.8,0.3c1,0.2,2,0.1,2.9-0.3c0.3-0.2,0.7-0.3,1-0.4c1.2-0.3,2.2-1,2.9-1.9
		c0.6-0.6,0.8-1.5,0.7-2.3c0-0.5-0.4-0.9-0.9-1.1c-1.3-0.4-2.8-0.3-4,0.4c-1.1,0.6-2.1,1.3-3.1,2c-0.7,0.5-1.4,1.2-2.1,1.8
		c-0.3,0.2-0.5,0.6-0.3,1c-1.2,0.6-2.3,1.2-3.4,1.8s-2.2,1.2-3.2,1.8c-1.1,0.7-2.2,1.3-3.4,1.9c-0.3,0.1-0.6,0.2-0.5,0.6
		c0,0.1-0.2,0.2-0.3,0.3c-0.6,0.4-1.2,0.8-1.8,1.2c-1.2,0.8-2.5,1.6-3.7,2.5c-0.5,0.3-1,0.8-1.6,1.2c-0.1-0.2-0.1-0.4-0.1-0.5
		c0-0.6,0.1-1.2,0.2-1.8c0.1-0.6,0.3-1.3,0.4-2c0.1-0.3,0.1-0.7,0.2-1c0.2-0.8,0.4-1.6,0.5-2.4c0.1-1.1,0.4-2.1,0.8-3.1
		c0.6-1.8,1.3-3.5,1.9-5.3c0.1-0.4,0.3-0.8,0.4-1.1c0.5-1,1-2,1.5-3c0.3-0.6,0.6-1.3,1-1.9c0.1-0.1,0.2-0.2,0.3-0.3
		c0.6-0.5,1.1-0.9,1.7-1.4c0.9-0.8,1.9-1.5,3-2c0.8-0.5,1.7-0.9,2.6-1.3c0.1-0.1,0.3-0.1,0.4-0.1c0.5,0.1,1.1,0.2,1.6,0.1
		c0.8,0,1.5,0,2.3,0c0.2,0,0.5,0.1,0.5,0.2c0.2,0.5,0.5,0.6,1,0.6c0.2,0,0.4,0.1,0.5,0.2l0.7,0.4c0.2,0.1,0.5,0.3,0.7,0.4
		c0.2,0.1,0.6,0.4,0.7,0.3c0.4-0.2,0.4,0.2,0.6,0.3c1.1,0.4,2.3,0.5,3.5,0.3c0.7-0.2,1.3-0.6,1.8-1.2c0.2-0.3,0.4-0.7,0.3-1.1
		c-0.1-0.7-0.6-1.3-1.3-1.5c-1.2-0.4-2.5-0.6-3.8-0.5c-0.5,0-1.1,0-1.6,0.2c-0.1,0-0.2,0-0.3,0c-0.7,0-1.4,0.2-2,0.6
		c-0.2,0.2-0.6,0.3-0.9,0.3c-1,0-1.9,0-2.9-0.1c-0.1,0-0.3-0.1-0.4-0.1c0.2-0.1,0.2-0.2,0.3-0.2c0.8-0.4,1.5-0.8,2.3-1.2
		c1-0.5,2.3-0.7,3.4-0.4c1.3,0.3,2.6,0.2,3.8-0.2c1.2-0.3,2.4-0.9,3.3-1.8c0.4-0.3,0.7-0.7,0.8-1.2c0-0.5,0-1-0.1-1.5
		c-0.1-0.2-0.3-0.4-0.5-0.5c-0.4-0.2-0.9-0.4-1.3-0.5c-0.1,0-0.2,0-0.3,0c-0.9,0.2-1.8,0.4-2.6,0.7c-1.2,0.5-2.3,1.2-3.2,2.1
		c-0.9,0.7-1.7,1.4-2.3,2.3c-0.1,0.1-0.2,0.2-0.3,0.2c-1.4,0.7-2.8,1.3-4.1,1.9c-1.2,0.6-2.4,1.2-3.6,1.8c-1,0.5-2,1.1-2.8,1.7
		c-0.1,0.1-0.3,0.2-0.4,0.2c0-0.1,0-0.2,0.1-0.3c0.6-1,1-2,1.6-2.9c0.4-0.7,0.7-1.5,1-2.3c0.5-1.3,1.1-2.6,1.9-3.8
		c0.2-0.3,0.3-0.7,0.5-1c0.1-0.1,0.2-0.3,0.2-0.4c0.3-0.6,0.7-1.2,1-1.8c0.4-0.8,0.8-1.6,1.2-2.3c0.4-0.7,0.9-1.4,1.3-2
		c0.6-0.8,1.2-1.6,1.8-2.4c0.3-0.3,0.5-0.6,0.8-0.9c0.3-0.3,0.7-0.6,1.2-0.9c1.3-0.9,2.8-1.6,4.3-2.2c0.6-0.3,1.2-0.3,1.8-0.2
		c0.6,0.2,1.3,0.4,1.9,0.5c1.6,0.4,3.3,0.4,4.9-0.1c0.7-0.3,1.3-0.5,2-0.8c0.7-0.2,1.3-0.8,1.5-1.6c0.2-0.5,0.2-1-0.2-1.4
		c-0.7-0.7-1.7-1-2.6-0.6c-0.9,0.3-1.9,0.5-2.8,0.9c-0.7,0.2-1.4,0.6-2,1c-1.1,0.8-2.3,1.4-3.6,1.7c-1.2,0.3-2.3,0.7-3.5,1.2
		c-0.3,0.1-0.6,0.2-0.9,0.3l-0.1-0.1c0.1-0.3,0.3-0.6,0.5-0.9c0.5-0.7,1.1-1.4,1.7-2c0.6-0.6,0.9-1.3,1.8-1.5s1.3-0.9,2.1-1.2
		c0.5-0.3,0.9-0.6,1.5-0.9c1.8-0.9,3.2-2.4,4.2-4.2c0.1-0.1,0.1-0.3,0.2-0.5c0.1-0.4,0.1-0.8,0.2-1.3c0.2-0.8-0.3-1.5-1.1-1.7
		c-0.2,0-0.5,0-0.7,0c-0.9,0.2-1.8,0.7-2.5,1.4c-0.2,0.2-0.3,0.4-0.5,0.5c-1.2,1.1-2.2,2.4-2.9,3.9c-0.4,0.8-0.8,1.6-1.3,2.4
		c-0.2,0.4-0.4,0.8-0.1,1.3c-0.2,0.3-0.4,0.5-0.7,0.8c-0.7,0.9-1.5,1.7-2.2,2.6c-0.4,0.5-0.8,1.1-1.2,1.7c-1,1.4-2.1,2.7-3.1,4.1
		c-0.1,0.1-0.2,0.2-0.3,0.2c0-0.2,0-0.4,0.1-0.6c0.2-0.4,0.3-0.9,0.5-1.3c0.2-0.4,0.3-1.1,0.4-1.7c0.2-0.9,0.3-1.9,0.5-2.8
		c0-0.2,0.1-0.3,0.2-0.5c0.4-0.5,0.7-1.1,1-1.6c0.7-1.2,1.2-2.5,1.3-3.9c0-0.3,0-0.5,0.1-0.8c0.1-0.8,0-1.5-0.3-2.3
		c-0.1-0.3-0.3-0.5-0.6-0.7c-0.7-0.4-1.5-0.4-2.1,0c-0.1,0.1-0.2,0.1-0.3,0.2c-0.6,0.3-1,0.7-1.3,1.2c-0.8,1.4-1,3-0.6,4.6
		c0.4,1.4,1,2.8,1.9,4c0.1,0.1,0.1,0.3,0.1,0.4c0,0.3-0.1,0.5-0.1,0.8c-0.2,0.8-0.3,1.6-0.5,2.4c-0.1,0.3-0.2,0.6-0.3,0.8
		c-0.6,1.1-1,2.3-1.2,3.5c0,0.1,0,0.1,0,0.2c-0.4,0.8-0.8,1.7-1.2,2.5c-0.7,1.3-1.5,2.7-2.2,4c-0.4,0.7-0.7,1.4-1,2
		c-0.3,0.6-0.6,1.4-0.9,2.1c-0.8,1.4-1.6,2.9-2.3,4.3c-0.6,1-1.1,2-1.6,3s-1,2-1.4,3c-0.6,1.2-1.1,2.5-1.6,3.7
		c-0.2,0.4-0.3,0.7-0.4,1.1c-0.2,0.5-0.3,1.1-0.5,1.6c0,0.1-0.2,0.2-0.3,0.4c-0.1-0.5-0.3-0.9-0.3-1.3c-0.1-0.8-0.2-1.6-0.4-2.5
		c-0.2-1.5-0.5-2.9-0.7-4.3c-0.2-1.2-0.2-2.4-0.4-3.6c-0.2-1.2-0.3-2.5-0.5-3.8c-0.1-1-0.2-2-0.3-2.9c-0.1-0.8-0.2-1.5-0.3-2.3
		c-0.1-0.5-0.1-1.1-0.2-1.7c0-0.8-0.4-1.6,0.4-2.3l0.1-0.2c0.3-0.8,0.5-1.7,0.6-2.5c0.1-1.3,0.1-2.7,0-4c-0.1-1.1-0.6-2.2-1.3-3
		c-0.3-0.3-0.6-0.5-1-0.6s-0.9,0.1-1.1,0.5c-0.1,0.2-0.2,0.4-0.3,0.5c-0.2,0.5-0.4,1-0.6,1.5c-0.1,0.6-0.1,1.2-0.1,1.8
		c0,0.2,0,0.5,0.1,0.7c0.1,0.5,0.2,0.9,0.3,1.4c0.2,1.3,0.7,2.5,1.6,3.5c0.3,0.3,0.6,0.5,0.7,1c0.1,1.4,0.2,2.8,0.4,4.1
		c0.2,1.7,0.5,3.3,0.7,5c0.1,0.4,0.1,0.8,0,1.3c-0.1,0-0.1-0.1-0.2-0.2c-0.6-1-1.3-1.9-1.9-2.9c-0.2-0.4-0.6-0.8-0.2-1.3v-0.1
		c0-0.8,0-1.6-0.2-2.4c-0.4-1.5-1.2-2.8-2.3-3.9c-0.5-0.6-1.4-0.6-1.9-0.1c-0.2,0.2-0.3,0.4-0.4,0.7c0,0.1,0,0.2-0.1,0.3
		c-0.2,0.9-0.1,1.8,0.2,2.6c0.3,0.8,0.7,1.6,1.2,2.3c0.6,1,1.6,1.7,2.7,1.9c0.2,0,0.4,0.1,0.6,0.3c0.3,0.5,0.6,1,0.9,1.5
		c0.6,0.9,1.1,1.9,1.4,2.9c0,0.1,0.1,0.4,0.2,0.4c0.4,0.1,0.4,0.5,0.4,0.8c0.2,1.6,0.4,3.2,0.6,4.8c0.1,0.7,0.2,1.4,0.3,2.1
		c0.3,1.8,0.5,3.5,0.8,5.3c0,0.1,0,0.3,0,0.4c-0.5,1.5-0.8,3-1.1,4.6c-0.4,2-0.7,4.1-0.9,6.2c-0.1,1-0.2,2-0.3,2.9
		c0,0.2-0.1,0.5-0.2,0.7c-0.5-0.4-0.9-0.7-1.3-1.1c-0.8-0.6-1.7-1.2-2.5-1.9c-0.5-0.4-0.9-0.8-1.3-1.2c-1.4-1.1-2.6-2.4-4-3.5
		c-0.8-0.6-1.5-1.3-2.1-2.1c-0.2-0.1-0.3-0.3-0.3-0.5c-0.1-0.8-0.4-1.6-0.9-2.3c-0.6-1-1.3-1.8-2.3-2.4c-0.5-0.3-0.9-0.5-1.4-0.8
		s-1-0.5-1.6-0.6c-0.8-0.1-1.4,0.5-1.5,1.2c0,0.1,0,0.3,0,0.4c0.1,0.5,0.2,1,0.4,1.4c0.7,1.1,1.6,2.1,2.8,2.7c0.7,0.3,1.4,0.7,2.1,1
		c0.5,0.3,1.2,0.5,1.8,0.4c0.2,0,0.4,0,0.6,0.2c0.6,0.6,1.2,1.2,1.8,1.8s1.2,1,1.8,1.6c0.2,0.2,0.5,0.3,0.6,0.8l-3.7-0.7
		c0-0.7-0.6-0.8-1-1c-0.8-0.5-1.8-0.8-2.7-0.9c-0.3-0.1-0.6-0.1-0.9-0.1c-1,0.1-2,0.3-2.9,0.6c-0.5,0.3-0.9,0.7-1.1,1.2
		c0,0.1,0,0.3,0,0.4c0.2,0.6,0.8,1.1,1.4,1.2c0.2,0,0.4,0.1,0.6,0.1c0.5,0.3,1,0.4,1.6,0.3c0.4,0,0.9,0.1,1.3,0
		c0.8-0.1,1.5-0.3,2.2-0.6c0.8-0.5,1.7-0.6,2.6-0.4c1.1,0.2,2.2,0.5,3.3,1c0.1,0.1,0.3,0.1,0.4,0.1c0.3,0,0.7,0.1,0.9,0.4
		c0.2,0.2,0.5,0.4,0.7,0.6c0.6,0.5,1.2,1,1.8,1.5s1.2,1.1,1.8,1.6c0.5,0.4,0.8,1.1,0.8,1.7c0,0.9,0,1.8,0,2.7v0.8l0.4,0.2v-0.2
		C275.6,441.9,275.6,441.4,275.6,440.8z M295.3,424.6c1.5-0.5,3.1-0.5,4.7-0.1c1,0.2,1.7,1,1.8,2c-0.5,0.5-1.1,0.8-1.8,0.8
		c-0.6,0-1.2,0-1.8,0c-0.9-0.1-1.7-0.4-2.5-0.9c-0.3-0.2-0.6-0.4-1-0.6c0.2-0.1,0.3-0.1,0.5-0.2c0.4,0,0.8,0,1.1,0.1
		c0.3,0.1,0.7,0,0.9-0.3c-0.2-0.6-0.3-0.7-0.9-0.5c-0.6,0.1-1.2,0.1-1.7,0C294.8,424.8,295.1,424.7,295.3,424.6z M296.8,419.6
		c1.1-0.8,2.3-1.5,3.5-2.2c0.9-0.4,1.9-0.5,2.8-0.2c0.5,0.1,0.8,0.6,0.6,1.1v0.1c-0.2,0.6-0.6,1.2-1.1,1.7c-1.7,1.4-3.8,2-6,1.8
		c-0.2,0-0.5-0.1-0.7-0.1c0.1-0.1,0.3-0.2,0.5-0.3c1.1-0.5,2.2-0.9,3.3-1.3c0.4-0.1,0.6-0.5,0.5-0.8v-0.1l-4.8,2l-0.1-0.1
		C295.7,420.6,296.2,420.1,296.8,419.6z M298.4,405c0.4,0,0.8-0.1,1.2-0.1s1.1,0,1.6,0c0.6,0,1.2,0.1,1.8,0.2
		c0.5,0.1,0.9,0.4,1.2,0.7c0.2,0.2,0.2,0.5,0.1,0.7c-0.3,0.8-1,1.3-1.8,1.4c-1.5,0.2-2.9-0.2-4.1-1l-1.5-1h2.8
		c-0.1-0.3-0.2-0.4-0.4-0.4l-1.3-0.1l-0.8-0.1v-0.2C297.7,405.1,298,405.1,298.4,405L298.4,405z M300.8,399c0.6-0.3,1.3-0.5,1.9-0.7
		c0.7-0.2,1.5-0.1,2.2,0.2c0.2,0.1,0.4,0.3,0.4,0.6c0.2,1-0.4,1.5-1,2s-1.4,0.9-2.2,1.1c-0.2,0.1-0.4,0.2-0.6,0.3
		c-1.1,0.3-2.2,0.4-3.3,0.1c-0.1,0-0.2-0.1-0.3-0.1c0.1-0.1,0.1-0.1,0.2-0.2c0.6-0.2,1.3-0.4,1.8-0.7c0.4-0.2,0.8-0.3,1.3-0.3
		c0.1,0,0.2,0,0.3-0.1c0.1-0.1,0.2-0.3,0.2-0.3c-0.1-0.1-0.2-0.2-0.3-0.2c-0.2,0-0.4,0.1-0.6,0.2l-3.5,1.2l-0.1-0.1
		C298.1,400.8,299.4,399.8,300.8,399L300.8,399z M307.1,384c-0.6-0.5-1.2,0.2-1.8,0c0.1-0.1,0.2-0.2,0.3-0.3c1-0.7,2.2-1.3,3.4-1.6
		c0.6-0.2,1.2-0.3,1.8-0.4c0.5-0.1,1,0,1.4,0.3c0.3,0.1,0.4,0.4,0.4,0.8s-0.2,0.7-0.5,1c-0.4,0.4-0.9,0.6-1.4,0.8
		c-0.7,0.2-1.4,0.4-2.1,0.7c-1,0.2-2.1,0.2-3.2-0.1c-0.2-0.1-0.5-0.1-0.7-0.2C305.4,384.6,306.3,384.5,307.1,384L307.1,384z
		 M302.8,377.4c0.6-1.1,1.3-2,2.2-2.8c0.1-0.1,0.3-0.3,0.4-0.4c0.5-0.5,1.1-0.9,1.7-1.2c0.1,0,0.2-0.1,0.3-0.1
		c1-0.2,1.4,0.1,1.4,1.2c0,0.6-0.2,1.2-0.6,1.7c-0.5,0.9-1.2,1.7-2.1,2.4l-3.3,2l-0.4,0.3c-0.1-0.2,0-0.5,0.2-0.6
		c0.4-0.5,0.9-1,1.3-1.6c0.3-0.4,0.6-0.7,0.9-1c0.3-0.3,0.2-0.7,0.3-1.1c-0.8,0.5-1,1.4-1.7,2c-0.7,0.6-1.1,1.4-1.8,2l-0.1-0.1
		c0-0.1,0.1-0.3,0.1-0.4L302.8,377.4z M294.9,382.6c-0.1,0.2-0.3,0.4-0.4,0.5c-0.3-0.5,0-1-0.1-1.4s0.5-0.8,0-1.3
		c-0.3,0.5-0.5,1.2-0.5,1.8c0.1,0.4,0,0.8-0.2,1.2c-0.1-0.1-0.3-0.2-0.3-0.4c-0.5-1-0.8-2.2-1-3.3v-0.1c-0.1-1.2,0.3-2.3,1-3.3
		c0.3-0.3,0.6-0.5,0.9-0.8c0.6-0.4,1.4-0.2,1.8,0.4c0.1,0.1,0.1,0.2,0.2,0.4c0.1,0.4,0.2,0.7,0.1,1.1c0,1-0.2,2-0.5,3
		C295.6,381.2,295.3,381.9,294.9,382.6z M274.8,395.8c-0.2-1.5-0.4-3.1-0.4-4.6l-0.6-0.1l0.4,3.8L274,395c0-0.1-0.1-0.1-0.1-0.2
		c-0.5-0.7-0.9-1.5-1.1-2.3c-0.3-1.1-0.4-2.2-0.3-3.3c0.1-0.7,0.3-1.4,0.7-2c0.2-0.3,0.7-0.5,1-0.2c0.1,0,0.1,0.1,0.2,0.1
		c0.7,0.7,1.1,1.6,1.3,2.5c0.1,0.5,0.1,1,0,1.5c-0.1,0.9-0.1,1.9-0.2,2.8C275.4,394.5,275.2,395.2,274.8,395.8L274.8,395.8z
		 M272,403c-0.4,0.1-0.6-0.1-0.8-0.3c-0.8-0.8-1.5-1.7-1.9-2.7c-0.4-0.8-0.5-1.6-0.3-2.5c0-0.4,0.4-0.8,0.8-0.8
		c0.2,0,0.5,0.1,0.6,0.3c0.7,0.7,1.3,1.5,1.7,2.4c0.4,0.8,0.5,1.6,0.5,2.5c0,0.1-0.1,0.2-0.1,0.3c-0.5-0.4-0.3-1.2-1.1-1.4
		C271.2,401.7,271.9,402.3,272,403L272,403z M262.4,426.8c-0.3-0.1-0.6-0.1-0.8-0.2c-0.8-0.4-1.6-0.8-2.4-1.2
		c-1-0.6-1.8-1.4-2.3-2.4c-0.1-0.3-0.2-0.7-0.1-1s0.4-0.6,0.7-0.5c0.4,0,0.9,0.2,1.3,0.4c1.4,0.7,2.6,1.6,3.5,2.8
		c0.2,0.3,0.4,0.6,0.6,0.9c0,0.2,0,0.3,0,0.5c-0.3-0.1-0.6-0.3-0.8-0.6c-0.3-0.4-0.7-0.7-1.1-1c-0.5-0.3-0.9-0.8-1.2-1.4l-0.7-0.1
		c-0.2,0.5-0.2,0.5,0.2,0.8c1,0.8,1.9,1.5,2.9,2.3c0.2,0.2,0.3,0.4,0.5,0.5L262.4,426.8z M261,430.9l-0.1,0.6l1.7,0.3
		c0,0.1,0,0.1-0.1,0.2c-0.8,0.4-1.7,0.6-2.6,0.6c-0.8,0-1.7-0.2-2.5-0.4c-0.2-0.1-0.4-0.1-0.5-0.2c-0.6-0.3-0.7-0.7-0.2-1.1
		c0.3-0.3,0.6-0.5,0.9-0.6c1-0.4,2.1-0.4,3.1-0.2c0.9,0.2,1.7,0.5,2.4,1C262.5,431.2,261.8,430.6,261,430.9L261,430.9z"/>
</g>
<path class="st4" d="M431.6,32.5c-1,0.6-2.1,1.2-3.1,1.8c-0.9-1-2.2-1.5-3.6-1.3c-0.9,0-1.6,0.1-2.4,0.4c-2.6,0.6-4.8,1.7-6.7,3.4
	c-0.1,0.2-0.4,0.4-0.4,0.6c-0.4,0.1-0.7,0.2-1.1,0.5c-1.1,0.9-2.3,1.7-3.3,2.6c-1,0.9-2,1.8-2.8,2.8c-1,1.1-1.7,2.6-2.1,4
	c-0.4,0.9,0.1,1.7,0.9,2c0.1,0,0.1,0,0.2,0.1c0.6,0.1,1.2,0.2,2,0.1c2.2-0.6,4.5-1.2,6.7-2c1.5-0.5,2.8-1.1,4.3-2
	c1.2-0.7,2.3-1.6,3.6-2.3c1.8-1.2,3.3-2.7,4.7-4.4c0.6-0.6,0.9-1.5,0.7-2.3c0-0.4,0.1-0.7,0.4-1c1.2-1.3,2.7-2.3,4.3-2.9
	c0.1-0.1,0.2-0.1,0.2-0.2c1.1-0.9,2.2-1.6,3.4-2.2c0.4-0.2,0.9-0.5,1.2-0.7c1-0.6,2-1.2,3.1-1.6c-0.5,1.7-0.9,3.3-1.3,4.9
	c-0.2,1-0.6,2-1,2.9c-0.1,1.2-0.6,2.3-1.3,3.4c-0.1,0.1-0.1,0.2-0.1,0.4c-0.1,0.6-0.2,1.2-0.5,1.7c-0.4,0.6-0.6,1.3-0.9,2
	c-0.2,1.2-0.9,2.3-1.7,3.3c-0.9,1.1-1.7,2.1-2.7,2.9c-1.8,1.8-3.3,3.9-5.4,5.6c-2.3,2-4.4,4.2-6.7,6.1c-0.5,0.4-1,0.7-1.5,1.1
	c-1,1-2,2-3.1,2.9c-0.7,0.9-1.6,1.5-2.4,2.1c-0.6-0.1-1.1-0.4-1.5-0.4c-1.8-0.4-3.4,0.6-5,1.3c-0.7,0.4-1.3,0.7-2,1.1
	c-1.8,1.1-3.6,2.3-5,3.8c-1,1.1-2.1,2.2-3.1,3.3c-1.6,1.5-3.1,3.2-4.3,5.1c-1,1.3-1.3,3.2-0.7,4.8c0.1,0.2,0.4,0.5,0.5,0.7
	c0.7,0.6,1.7,0.7,2.6,0.5c1.5-0.2,2.8-0.9,4-1.6c1.1-0.5,2.1-1.1,3.2-1.7c1-0.6,2.2-1.6,3.3-2.2c1.5-0.9,2.7-1.8,3.9-2.9
	c1.5-1.3,2.7-2.8,3.9-4.4c0.9-0.9,1.2-2,1.3-3.2c0-0.6,0-1.3-0.1-2s0.1-1.3,0.7-1.7c0.5-0.5,0.9-0.9,1.3-1.2l2.4-2.2
	c0.1,2.4,0.2,4.5,0.4,6.7c-0.5,0.1-0.9,0.2-1.3,0.4c-1,0.2-1.7,0.9-2.2,1.7c-0.5,1-0.7,2-1,2.9c-0.4,2.3-0.4,4.7-0.2,6.9
	c0.2,2.7,0.7,5.4,1.6,7.8c0.4,1.1,1,2.2,1.5,3.2c0.2,0.5,0.7,0.7,1.2,0.5c0.1-0.1,0.4-0.2,0.4-0.4c0.6-0.7,1.1-1.6,1.3-2.4
	c0.2-1.1,0.7-2.1,1.1-3.2c0.4-1.1,0.7-2.2,1-3.3c0.4-1.3,0.5-2.7,0.6-4c0-0.5,0-0.9,0-1.3c-0.1-1.2-0.2-2.4-0.4-3.7
	c0-1.6-0.6-3.1-1.6-4.3c-0.2-0.2-0.4-0.5-0.4-0.9c0-1.3,0-2.6-0.1-3.8c0-0.7,0-1.5-0.1-2.2s-0.1-1.1-0.1-1.6c-0.1-1.2,0.7-2,1.5-2.6
	c1.7-1.7,3.6-3.3,5.4-5c2.1-1.7,3.9-3.7,5.6-5.9c0.6-0.7,1.2-1.3,1.8-2c0.1,0.2,0.1,0.6,0,0.9c-0.7,2.6-1.5,5.1-2.1,7.7
	c-0.7,2.9-1.3,5.9-2.1,8.7c-0.4,1.5-0.6,2.9-1,4.4c-0.7,2.4-1.3,5-1.7,7.6c-0.5,3.1-1,6.1-1.5,9.2c-0.1,0.4-0.2,0.7-0.6,1.1
	c-0.9,0.6-1.5,1.3-2.1,2.2c-1,1.5-1.7,3.1-2.1,4.8c-0.2,1.1-0.4,2.3-0.4,3.6c-0.1,2.3,0.1,4.5,0.5,6.9c0.2,1.8,0.7,3.6,1.2,5.4
	c0.6,2.7,1.5,5.3,2.3,7.8c0.4,1.2,1.3,2.2,2.7,2.6c0.7,0.2,1.6,0,2.2-0.5c0.7-0.7,1.2-1.6,1.5-2.6c0.4-2,0.7-3.9,0.9-5.9
	c0.2-2,0.2-3.7,0.4-5.6c0-1.6,0-3.2,0-4.8c0-1.2,0-2.6-0.1-3.8c-0.1-1.2-0.4-2.3-0.5-3.4c-0.1-0.7-0.4-1.3-0.4-2.1
	c-0.1-2.1-1.3-3.8-3.2-4.7c-0.5-0.1-0.9-0.6-0.7-1.2l0,0c0.2-1.6,0.4-3.2,0.6-4.8c0.2-1.3,0.4-2.7,0.6-4s0.4-3.1,0.7-4.5
	c0.6-2.3,1.2-4.5,1.8-6.9c0.4-1.3,0.7-2.7,1.1-4c0.5-1.7,1-3.6,1.5-5.3c0.4-1.3,0.7-2.7,1.1-4c0.2-0.9,0.5-1.7,0.7-2.6
	c0.1-0.6,0.2-1.2,0.5-1.7c1.1-2.7,2.1-5.5,2.8-8.4c0.2-0.5,0.5-0.9,0.7-1.2c0.2,0.2,0.4,0.4,0.5,0.6c1.1,2.1,2.2,4.2,3.2,6.2
	c0.7,1.6,1.3,3.1,1.8,4.8c0.6,1.2,0.9,2.4,0.7,3.8c-0.2,2.6-0.7,5-1.5,7.5c-0.2,0.7-0.4,1.6-0.6,2.3c-0.2,0.7-0.5,1.3-0.7,2
	c-1.1-0.1-2.2,0.4-2.9,1.2c-0.7,1-1.5,2-2,3.1c-1.1,2.4-1.7,5-2,7.7c-0.2,1.8-0.4,3.7-0.4,5.5c0,0.5,0.1,1.1,0.1,1.6
	c0,2.6,0.1,5,0.5,7.6c0.1,0.9,0.9,1.6,1.7,1.8c0.7,0.2,1.5,0,2.1-0.6c1.1-1.2,2-2.7,2.6-4.2c0.4-0.9,0.6-1.7,0.9-2.6
	c1-2.4,1.8-4.9,2.3-7.5c0.5-2.9,0.6-6,0.4-9.1c0-1-0.2-1.8-0.7-2.7c-0.6-0.9-0.7-1.8-0.5-2.9c0.1-0.5,0.5-1.1,0.6-1.6
	c0.4-1.8,0.7-3.8,1.2-5.6c0-0.1,0.1-0.1,0.4-0.4c0.1,0.4,0.4,0.9,0.5,1.2c0.5,2.1,1.2,4.2,1.6,6.2c0.4,1.5,0.9,2.9,1.3,4.4
	c0.1,0.4,0.2,0.7,0.4,1.1c-1.3,1.2-2.2,2.8-2.4,4.7c-0.2,1.2-0.2,2.4,0,3.7c0.1,1.3,0.6,2.7,1.2,4c1,1.6,1.8,3.2,2.8,4.9
	c1,1.7,1.7,2.9,2.7,4.4c0.9,1.2,1.7,2.3,2.7,3.4c0.6,0.7,1.3,1.3,2.3,1.7c1,0.4,1.3,0.4,2-0.4c0.9-1,1.2-2.2,1.2-3.4
	c0-0.5,0-0.9,0-1.3c0-0.7,0-1.5-0.1-2.2c-0.2-1.2-0.5-2.4-0.9-3.7c-0.6-2.4-1.5-4.8-2.4-7c-1.1-2.6-2.6-4.9-4.5-7
	c-0.7-0.9-1.7-1.6-2.8-2c-0.4-1.3-0.6-2.6-1-3.9c-0.5-1.7-1-3.4-1.5-5c-0.4-1.1-0.7-2.2-1.2-3.2c-0.5-1.3-0.7-2.8-1.3-4.2
	c-0.7-1.7-1.5-3.4-2.2-5.1c-0.7-1.7-1.5-3.1-2.2-4.7c-1.1-2.2-2.1-4.3-3.2-6.5c-0.4-0.7-0.4-1.5,0-2.2c0.4-0.9,0.5-1.7,0.7-2.4
	c0.5-1.8,1.2-3.6,2-5.3h-4.2c-0.9,0.5-1.7,1-2.6,1.5C435.3,30,433.4,31.3,431.6,32.5z M409.1,44c0.9-1.2,1.8-2.2,3.1-3.1
	c1.5-1.3,3.1-2.6,4.7-3.8c1.8-1.3,3.8-2.3,6-2.8c1.2-0.4,2.4-0.2,3.7,0.2c0,0.6-0.2,0.7-0.7,0.9c-0.6,0.2-1.3,0.4-2,0.7
	c-1.5,0.7-2.9,1.5-4.4,2.2c-1,0.5-1.7,1.2-2.7,1.8c-1.3,0.9-2.7,1.7-3.9,2.6c-0.5,0.4-1,0.7-1.3,1.2c-1,0.9-2.2,1.6-3.3,2.2
	l-0.2-0.2L409.1,44z M426.8,38.7c-1.1,1.6-2.6,2.9-4.2,3.9c-1,0.6-2,1.3-3.1,1.8c-1.7,1-3.6,1.7-5.5,2.3c-1.5,0.5-2.9,0.9-4.4,1.2
	c-0.5,0.2-1.1,0.2-1.7,0l1.5-1.2c1.8-1.6,3.8-2.8,5.8-4.2c0.9-0.7,1.8-1.3,2.9-1.8c1.8-0.9,3.6-2,5.4-2.9c1.1-0.5,2.2-1,3.4-1.3
	C427.4,37.2,427.4,38,426.8,38.7L426.8,38.7z M392.9,86c-0.1-0.7-0.1-1.3,0-2.1c0.5-1.5,1.3-2.9,2.3-4c1.7-2.2,3.7-4.4,5.8-6.2
	c0.7-0.9,1.7-1.6,2.7-2.1c0.9-0.4,1.6-0.7,2.3-1.2c1.2-0.9,2.6-1.5,4-1.8c0.5-0.1,1-0.1,1.5-0.1c0.5,0,0.6,0.5,0.2,0.9
	c-0.9,1.1-1.8,2-2.9,2.8c-0.7,0.6-1.6,1-2.4,1.1c-0.1,1.2-1.1,1.7-1.8,2.3c-2,1.7-3.9,3.3-5.9,5c-1,0.9-1.8,1.8-2.7,2.8
	C395.2,84.4,394.1,85.3,392.9,86L392.9,86z M413.1,72.5c-0.1,0.6-0.4,1.1-0.7,1.6c-1.6,2.4-3.6,4.5-6,6.2c-2,1.2-3.8,2.6-5.8,3.8
	c-1.2,0.7-2.6,1.5-3.9,2.1c-0.6,0.2-1.2,0.4-1.8,0.5l-0.1-0.2l2.2-2.4c0.1-0.1,0.4-0.2,0.4-0.4c1.2-1.8,3.1-2.9,4.7-4.4
	s3.1-2.8,4.7-4.2c0.9-0.7,1.8-1.3,2.8-2.1c1-0.7,1.8-1.7,2.8-2.4c0.2-0.1,0.5-0.4,0.7-0.5C413.4,71.1,413.4,71.8,413.1,72.5
	L413.1,72.5z M418.6,82.2c0.1,1.3,0.1,2.7-0.1,3.9c-0.1,1-0.1,2,0,2.9c0,1,0,1.8-0.1,2.8c-0.9-1-1.3-2.1-1.6-3.2
	c-0.2-1-0.4-2.1-0.5-3.1c-0.5-2.7-0.6-5.5-0.4-8.3c0-1.3,0.5-2.7,1.3-3.7c0.4-0.2,0.7-0.5,1.2-0.9c0.1,0.4,0.2,0.9,0.4,1.2
	c0,2.6,0,5.1-0.1,7.8C418.6,82,418.5,82.1,418.6,82.2L418.6,82.2z M421.2,74.3c0.2,0.5,0.5,1.1,0.6,1.6c0.2,1.8,0.5,3.7,0.6,5.5
	c0,1-0.1,2-0.4,2.9c-0.4,2.1-1,4.2-1.8,6.2c-0.1,0.5-0.2,1-0.4,1.3c-0.1-0.2-0.2-0.4-0.2-0.5c-0.1-1.5-0.1-2.9-0.1-4.4
	c0-1.3,0.2-2.7,0.6-3.9c0.1-0.9,0.1-1.7,0-2.6c0-2,0-3.9,0-5.9c0-0.2,0-0.6,0.1-0.9l0.2-0.1C420.7,73.8,421.1,74,421.2,74.3
	L421.2,74.3z M427.9,119.4c-0.9-0.7-1.6-1.7-1.8-2.9c-0.5-1.2-1-2.4-1.2-3.8c-0.4-2.4-1.5-4.7-1.6-7.1c0-1.7-0.4-3.6-0.6-5.3
	c-0.2-2.7,0.1-5.4,1.2-7.8c0.6-1.2,1.3-2.2,2.4-3.1c0,1.1,0,2.1,0,2.9s-0.1,2.1-0.1,3.1c0,2,0,3.8,0.2,5.8c0.1,1.3,0.1,2.7,0.2,4
	c0.1,0.9,0.2,1.8,0.4,2.7c0.4,3.2,0.6,6.2,1,9.3C428.1,118,428.1,118.7,427.9,119.4L427.9,119.4z M430.5,91.3
	c0.4,0.6,0.5,1.2,0.6,1.8c0.4,1.7,0.6,3.3,0.9,5c0,0.1,0,0.1,0,0.2c-0.1,2,0.4,4,0,6c-0.1,0.4,0.1,0.7,0,1.2
	c-0.1,1.7-0.1,3.4-0.2,5.1c-0.1,2-0.5,3.8-0.7,5.8c0,1.1-0.6,2.2-1.5,2.9c-0.1-0.9-0.4-1.5-0.5-2.2c-0.2-1.7-0.5-3.4-0.7-5.3
	c-0.1-0.9,0-1.7-0.1-2.4c-0.1-2.9-0.4-5.9-0.5-8.8c0-0.7-0.2-1.5-0.2-2.2c-0.1-2.4-0.1-5,0.1-7.5c0-0.5,0-1.1,0.1-1.7
	C429.3,89.4,429.9,90.4,430.5,91.3L430.5,91.3z M439.1,90.3c-0.1,0.6-0.2,1.2-0.4,2c-0.5-0.4-0.7-1-0.7-1.6
	c-0.4-2.8-0.5-5.6-0.4-8.4c0-2.6,0.4-5.3,1.1-7.8c0.5-1.6,1.1-3.2,1.8-4.7c0.5-1,1.3-1.8,2.3-2.3c0.2-0.1,0.4-0.1,0.6-0.2
	c-0.1,0.5-0.1,0.7-0.1,1c-0.5,2-1,3.8-1.3,5.8c-0.2,0.9-0.2,1.7-0.4,2.6c0,0.1,0,0.4-0.1,0.5c-0.5,1.7-0.9,3.4-1,5.1
	C440.1,85,439.4,87.7,439.1,90.3L439.1,90.3z M446.5,72.8c0.1,1.8,0,3.7-0.2,5.5c-0.4,1.7-0.7,3.4-1.2,5c-0.6,2-1.2,3.8-2,5.8
	c-0.4,1.3-1.2,2.7-2.2,3.7c-0.2,0.2-0.5,0.5-0.7,0.6l-0.2-0.1c0.1-1,0.2-1.8,0.4-2.8s0.1-2.1,0.4-3.2c0.2-1.3,0.5-2.8,0.7-4.2
	c0.1-1.2,0.4-2.3,0.5-3.6c0.1-0.9,0.2-1.7,0.6-2.4c0.4-1,0.6-2,0.7-3.1c0.5-1.8,0.9-3.8,1.3-5.6c0.1-0.2,0.1-0.4,0.2-0.6
	c0.4,0.4,0.6,0.5,0.7,0.7C446.1,69.8,446.4,71.3,446.5,72.8L446.5,72.8z M455.1,72.1c1.3,1,2.4,2.2,3.3,3.7c0.9,1.7,1.8,3.3,2.6,5
	c0.4,1,0.7,2,1,2.9c0.6,1.8,1.1,3.7,1.6,5.6c0.4,1.7,0.4,3.6-0.2,5.3c-0.1,0.4-0.4,0.7-0.6,1.1c-0.9-1.6-1.6-2.8-2.2-4
	c-0.6-1.2-1.2-2.9-2-4.3c-0.5-1.1-1-2.3-1.5-3.4c-0.4-0.7-0.5-1.5-0.5-2.3c0-0.1,0-0.4,0-0.5c-0.7-2-1.5-3.9-2.1-5.9
	c-0.4-1-0.7-2.1-1-3.1c0-0.2-0.1-0.5-0.1-0.7C454.1,71.4,454.6,71.7,455.1,72.1L455.1,72.1z M454.6,80.1c0.6,2.6,1.8,5,2.7,7.6
	c0.7,2,1.7,3.9,2.6,5.9c0,0.1,0,0.2,0,0.4l-0.1,0.1c-0.9-1.1-1.8-2.2-2.7-3.3c-1-1.3-2-2.8-2.9-4.3c-1-1.6-2-3.4-2.7-5.1
	c-0.9-2.1-1.2-4.4-0.7-6.6c0.1-0.9,0.6-1.6,1.1-2.2c0.1,0.2,0.2,0.5,0.4,0.7C453,75.5,454,77.8,454.6,80.1L454.6,80.1z"/>
<circle class="st3" cx="964.6" cy="91.4" r="5.4"/>
<circle class="st3" cx="626.4" cy="339.6" r="16.1"/>
<g>
	<path class="st5" d="M765.8,308.4c-12-4.7-16.6-63.6-18.3-74.6c-1.7-11-6.8-13.3-9.6-19.1s-13-8.2-11.8-10.5s10.8,4.8,13,3.5
		c2.2-1.2-8.5-12.5-7.3-14.4c2.2-3.5,12.5,11.7,13.6,10.1c1.1-1.6-8.8-17.7-5.1-18.5s8.5,17.8,10.4,16.7c1.9-1.2-6-16.9-2.4-20
		c1.9-1.6,10.2,28.7,13.4,30c3.2,1.4,7.2-11.7,10.2-11.1c3.1,0.6-10.5,23.9-9.9,25.8c0.6,1.8,11.7,40.7,18.5,52.5
		c24.7-11.2,45.9-22.8,45.9-22.8l19.8,20.9C846.2,276.9,776.6,312.6,765.8,308.4z"/>
	<path class="st6" d="M812.5,458.2c5.5-18.8,17.4-57.7,17.4-57.7s2.9-9.4,3.6-11.1l11.8,6.6l3.5,2c0.1,0,0.1,0,0.1,0l0.7,0.4
		l0.4,0.6l2.6,4l0.8,1.3l3.1,4.8l25.6,39.2L865.2,488h-61.5C808.5,470.6,812.4,458.4,812.5,458.2z"/>
	<path class="st7" d="M889.2,370.9c0,0-0.8,5.7,1,13.7c0.2,1,0.4,1.9,0.7,2.9c0.8,2.7,1.8,5.5,3.3,8.5c0.5,1,1.1,2.1,1.7,3.1
		c4.1,6.8,10,12.7,14.3,21.4c9.5,18.9,14.7,45.7,11.1,63c0,0-0.4,1.6-1.1,4.5h-65.7l-1.5-19.4l-19.6-79.1L889.2,370.9z"/>
	<path class="st8" d="M823.1,258.9c2.1,13.2,34,61.7,72.2,75.6c20.6,7.5,59.8-2.7,72.5-37.9c6.1-17.1-0.5-37.8-12.7-53.2
		c-8.7-11-13.3-13.9-25.4-22.2c-39.1-26.6-22.1-51.6-53.6-63c-11.1-4-21.6-2-31.3,5.1c-12.1,8.7-14.7,20.9-17.3,33
		C825.8,204.1,820.9,244.8,823.1,258.9z"/>
	<path class="st1" d="M825.5,291.9c-6.7,14.9,1.1,24.8,3,27.9c1.6,2.8,4.8,69.5,4.8,69.5c7.1,1.5,15,2.2,22.8,2.4h0.1
		c16-0.7,37.1-5,37.1-5c-1.7-9.6,1.6-21.6,3.2-31c2.5-15.8,6.1-31.2,11.1-46.5c3.3-10.1,9,7.6,12.1,16.5c7.2-2.9,27.5-12,27.5-12
		c-26.6-71.9-39.6-66-70.5-66.4c-38.7-0.6-34.6-5.3-86.2,24l9.1,28.9c0,0,16-6.1,24.9-10.2C826.4,289.2,826.7,289.5,825.5,291.9z"/>
	<path class="st5" d="M849.5,213.1c0,0,4.3,25.7,4.5,33c0.2,7.3-4.4,35.8,10.6,32.1s12.7-26.5,11.2-33.7c-1.4-6.9-3.9-26.8-3.9-26.8
		L849.5,213.1z"/>
	<path class="st9" d="M871.9,217.7l-22.4-4.6c0,0,0.8,5.1,1.8,11.5c5.4,3.7,12.6,4.4,20.9-0.3c0.2-0.1,0.3-0.2,0.5-0.3
		C872.2,220.3,871.9,217.7,871.9,217.7z"/>
	<path class="st5" d="M838.9,199.1c-0.6,16,12.7,33.1,31.3,22.4c18.6-10.6,16.1-35.7,11-44.4c-5-8.7-13.8-11.2-13.8-11.2
		C843.9,161.9,839.5,183.1,838.9,199.1z"/>
	<path class="st5" d="M839.5,184.9c2.4,0.2,4.2,3.6,4,7.8c-0.2,4.1-2.3,7.4-4.7,7.3c-2.4-0.2-4.2-3.6-4-7.8S837.1,184.8,839.5,184.9
		z"/>
	<path class="st8" d="M886,172.8c9,7.3,7.7,37.1,7.7,37.1s0.8-12.9-9-15.7c-9.9-2.8-19.9-29-19.9-29S877,165.5,886,172.8z"/>
	<path class="st5" d="M888.1,193.8c2.7,1,3.7,5.2,2.2,9.3s-5,6.5-7.7,5.5c-2.7-1.1-3.7-5.2-2.2-9.3
		C882,195.2,885.4,192.8,888.1,193.8z"/>
	<path class="st5" d="M864,405c-1.9,0-10.2-1.2-10.2-1.2s-12-4.7-11.4-5.2c0.3-0.2,1.5-0.7,4.2-0.4c0.8,0.1,2,0.7,2.9,0.9
		c0.7,0.1,1.5,0.1,2.3,0.3c0.9,0.2,1.7,0.8,2.6,1c1.4,0.3,2.7-0.1,3.7,0c4,0.5,6.6-0.1,5.2-0.4c-2.1-0.6-8.7,0.8-16.7-2.7
		c-1.3-0.6-2-1.1-1.6-1.5c0.2-0.3,1.5-1,3.1-0.9c1.1,0.1,2.2,0.9,3.6,1c0.8,0.1,1.7-0.2,2.6-0.1c3.4,0.2,2.6,1.7,13-2.5
		c-0.9-0.6-2-1-2.5-1.2c-0.5-0.2-2.4-0.2-4.2-0.4l0,0c-0.2,0-0.5-0.1-0.7-0.1l0,0c-1.7-0.2-3.1-0.6-2.9-1.5c0.5-1.9,17.1-3,17.1-3
		l10.5,1.1c2.9-1.9,5.7-3.7,8.3-5.4c0.9-0.7,1.9-1.3,2.8-1.9c36.7-24.1,37.4-25,37.6-25.5c0.7-2-6.1-18.1-11.8-30.3
		c6.3-2.7,17.4-7.6,22.7-10c6.9,19.3,15.2,44.7,14.6,48c-1.1,5.8-55.5,32.7-66.7,37.6c-19.6,12.8-28.4,8.4-36.9,8.4
		c0,0-9.1-5.6-8.7-6.3c0.5-0.9,2.1-0.7,3.7,0c0.7,0.3,1.2,0.9,1.9,1.2c0.7,0.3,1.6,0.4,2.2,0.7c1.4,0.7,2.1,1.3,2.1,1.3
		s1.6-0.3,3.5-0.3c1.4-0.1,3,0.1,3.4,0.1C865.4,405.4,864.3,404.9,864,405z"/>
	<polyline class="st10" points="947.3,313.4 944.6,306.6 917,318 919.8,325.8 947.3,313.8 	"/>
	<polygon class="st10" points="807.4,297.2 797.2,267.6 790.5,271.4 799.7,300.3 	"/>
	<path class="st8" d="M846.1,167.9c-10.3,5.2-15.3,34.6-15.3,34.6s1.9-12.7,12.1-13.4s25.5-24.2,25.5-24.2S856.4,162.6,846.1,167.9z
		"/>
	<path class="st11" d="M880,197.1c0.1,0.1,0.1,0.4,0,0.7c-0.1,0.2-0.3,0.2-0.5,0.1l0,0c-0.8-0.4-1.7-0.7-2.6-1s-1.8-0.5-2.7-0.6
		s-1.8-0.1-2.7,0c-0.9,0.1-1.8,0.4-2.6,0.8l0,0c-0.2,0.1-0.5,0-0.6-0.2c-0.1-0.2,0-0.5,0.2-0.6c0.8-0.7,1.8-1.2,2.8-1.4
		c1-0.2,2.1-0.2,3.1-0.1s2,0.4,3,0.8C878.3,196,879.2,196.5,880,197.1L880,197.1z"/>
	<path class="st12" d="M859.8,193.8c0.2,0,0.4,0.2,0.4,0.4l0,0c0,0.7,0,1.3,0,2s0,1.3,0,2c0,0.3-0.1,0.6-0.1,1
		c0,0.1-0.1,0.3-0.1,0.5l-0.1,0.5c-0.1,0.2-0.1,0.5-0.1,0.7v0.1c0,0.1,0.1,0.1,0.2,0.2l0.1,0.1c0.1,0,0.2,0.1,0.2,0.3l0,0
		c0,0.2-0.2,0.4-0.4,0.4s-0.5,0-0.7-0.1c-0.3-0.1-0.5-0.3-0.6-0.6c-0.1-0.4-0.2-0.9-0.1-1.3c0-0.2,0.1-0.3,0.1-0.5
		c0.1-0.1,0.1-0.2,0.1-0.4l0.1-1c0.1-0.7,0.1-1.3,0.2-2c0.1-0.7,0.2-1.3,0.4-2C859.5,193.9,859.6,193.8,859.8,193.8z"/>
	<path class="st11" d="M840.6,194.6c-0.3,0-0.5-0.1-0.6-0.2c-0.1-0.2,0-0.4,0.2-0.5c0.9-0.5,1.9-0.8,2.9-1s2.1-0.3,3.1-0.2
		c1.1,0,2.1,0.3,3.1,0.7s1.8,1.1,2.5,1.9c0.1,0.1,0.1,0.3,0,0.5c-0.1,0.2-0.4,0.2-0.6,0.1l0,0c-0.8-0.5-1.6-1-2.4-1.3
		s-1.7-0.5-2.6-0.6c-0.9,0-1.9,0-2.8,0.1C842.5,194.2,841.5,194.4,840.6,194.6L840.6,194.6z"/>
	<path class="st13" d="M855.6,212.7c0.1-0.2,0.3-0.3,0.5-0.2l0,0c1.1,0.4,2.3,0.7,3.5,0.6c1.2,0,2.4-0.4,3.4-1l0,0
		c0.2,0,0.4,0,0.5,0.1l0,0c0.1,0.1,0.2,0.4,0,0.6c-1,1.1-2.4,1.8-3.9,1.8c-1.5,0.1-3-0.4-4.1-1.4
		C855.4,213.1,855.4,212.9,855.6,212.7z"/>
	<path class="st11" d="M835.9,196.3c0.1,0.9,0.4,1.8,0.7,2.6l0,0c0.2,0.4,0.4,0.9,0.6,1.3c0.5,0.9,1.1,1.7,1.8,2.4
		c0.3,0.3,0.6,0.5,1,0.8c2.3,1.7,5.2,2.3,8.1,1.9c1.4-0.2,2.8-0.6,4.1-1.2c1.3-0.7,2.4-1.7,3.2-3c1.5-2.1,2.2-4.7,2-7.2
		c0-0.4,0-0.8-0.1-1.1c-0.3-1.4-0.8-2.8-1.5-4l-0.5-0.9l-0.6-0.9c-0.2-0.3-0.4-0.5-0.7-0.8c-0.3-0.3-0.6-0.5-0.9-0.7
		c-2.5-1.7-5.4-2.4-8.3-1.9c-1.4,0.2-2.8,0.7-4.1,1.3c0,0.1-0.1,0.1-0.1,0.1l0,0c-0.1,0-0.1,0.1-0.2,0.1c-1.2,0.6-2.1,1.6-2.9,2.7
		C835.9,190.3,835.3,193.2,835.9,196.3z M838.6,188.5c0.5-0.6,1.1-1.3,1.8-1.8c0.3-0.3,0.6-0.5,1-0.8l0.1-0.1c1-0.7,2.2-1.2,3.5-1.4
		c2.6-0.4,5.3,0.4,7.4,2c0.3,0.2,0.5,0.4,0.8,0.6c0.2,0.3,0.4,0.5,0.7,0.7c0.2,0.2,0.5,0.4,0.7,0.7c0.2,0.3,0.4,0.5,0.6,0.8
		c0.7,1.1,1.2,2.4,1.3,3.7c0.3,2.6-0.4,5.3-2,7.4c-0.9,1-1.8,1.9-2.9,2.6c-1.1,0.8-2.3,1.4-3.6,1.6c-2.6,0.4-5.4-0.3-7.5-1.9
		c-0.6-0.4-1.1-0.9-1.6-1.4l0,0c-0.5-0.5-0.9-1-1.2-1.5c-0.7-1.1-1.2-2.4-1.4-3.7l0,0C836,193.3,836.8,190.6,838.6,188.5z"/>
	<path class="st11" d="M862.3,197.4c0.2,1.4,0.7,2.7,1.3,4c0.6,1.3,1.6,2.4,2.7,3.3c2.3,1.8,5.2,2.5,8.1,2.2
		c1.5-0.1,2.9-0.5,4.2-1.1c0.4-0.2,0.9-0.5,1.3-0.8c0.7-0.5,1.4-1.2,1.9-2c1.8-2.3,2.5-5.3,2.1-8.2c0-0.1,0-0.1,0-0.1
		c-0.1-0.3-0.1-0.5-0.2-0.7c-0.3-1.2-0.7-2.3-1.3-3.3l-0.5-1l-0.6-0.9c-0.2-0.3-0.5-0.5-0.7-0.8s-0.5-0.5-0.8-0.7
		c-1.4-1.1-3.1-1.8-4.9-2.1l0,0c-1.1-0.1-2.2-0.1-3.3,0c-1.4,0.2-2.8,0.6-4.1,1.2s-2.4,1.6-3.3,2.8c-1,1.4-1.6,3-1.9,4.7
		C862.1,195,862.1,196.2,862.3,197.4z M865.3,189.9c0.8-1,1.8-1.9,2.9-2.6c1.1-0.8,2.4-1.2,3.7-1.4c1.3-0.1,2.6,0,3.9,0.4
		c1.2,0.3,2.4,1,3.4,1.8c0.2,0.2,0.5,0.4,0.7,0.6s0.5,0.5,0.7,0.7c0.3,0.2,0.5,0.4,0.7,0.7c0.2,0.3,0.4,0.5,0.6,0.8
		c0.5,0.8,0.8,1.6,1,2.5c0.1,0.4,0.2,0.9,0.2,1.3c0,0.2,0,0.3,0,0.5c0.1,2.4-0.7,4.9-2.2,6.8c-0.4,0.5-0.8,0.8-1.2,1.2
		c-0.6,0.5-1.2,1-1.8,1.4c-1,0.8-2.3,1.3-3.6,1.5c-2.7,0.4-5.4-0.4-7.5-2.1c-2.1-1.6-3.6-4-4-6.7l0,0
		C862.6,194.6,863.4,191.9,865.3,189.9z"/>
	<path class="st14" d="M857.3,193.9c1.6-1.1,3.7-1.1,5.2,0.1"/>
	<path class="st15" d="M767.7,244.7c-4,2.1-18.5,2.6-18.5,2.6s-0.1-1.1-0.6-5c3.8,0.7,17.6-2.2,17.6-2.2S767,242.6,767.7,244.7z"/>
	<circle class="st16" cx="764.1" cy="243.4" r="0.4"/>
	<circle class="st16" cx="762" cy="243.8" r="0.4"/>
	<circle class="st16" cx="759.7" cy="244.2" r="0.4"/>
</g>
</svg>
