<?xml version="1.0" encoding="utf-8"?>
<!-- Generator: Adobe Illustrator 23.0.1, SVG Export Plug-In . SVG Version: 6.00 Build 0)  -->
<svg version="1.1" id="Layer_1" xmlns="http://www.w3.org/2000/svg" xmlns:xlink="http://www.w3.org/1999/xlink" x="0px" y="0px"
	 viewBox="0 0 1146 764" style="enable-background:new 0 0 1146 764;" xml:space="preserve">
<style type="text/css">
	.st0{fill:#FFFFFF;}
	.st1{fill:#A4C3B2;}
	.st2{fill:none;stroke:#FFFFFF;stroke-width:2;stroke-miterlimit:10;stroke-dasharray:11.93,11.93;}
	.st3{fill:#333333;}
	.st4{fill:#6B9080;}
	.st5{fill:#FFCEC7;}
	.st6{fill:#F2B1AF;}
	.st7{fill:#7F7F7F;}
	.st8{fill:#EF8E89;}
	.st9{enable-background:new    ;}
	.st10{fill:#595959;}
	.st11{fill:#686868;}
	.st12{fill:none;stroke:#FFFFFF;stroke-miterlimit:10;}
	.st13{fill:#CCE3DE;}
	.st14{fill:none;stroke:#6B9080;stroke-miterlimit:10;}
	.st15{fill:#F6FFF8;}
	.st16{fill:none;stroke:#6B9080;stroke-width:2;stroke-miterlimit:10;}
	.st17{fill:none;stroke:#595A5A;stroke-miterlimit:10;}
	.st18{fill:none;stroke:#A4C3B2;stroke-miterlimit:10;}
	.st19{fill:#FFFFFF;stroke:#A4C3B2;stroke-miterlimit:10;}
	.st20{fill:none;stroke:#FFFFFF;stroke-width:0.5;stroke-miterlimit:10;}
	.st21{fill:none;stroke:#6B9080;stroke-width:1.9;stroke-miterlimit:10;}
	.st22{fill:none;stroke:#FFFFFF;stroke-width:10;stroke-linecap:round;stroke-linejoin:round;}
</style>
<title>itsme</title>
<rect class="st0" width="1146" height="764"/>
<path class="st1" d="M286.2,704.6c-34.5,0-66.3-6.8-91.8-19.6c-39.1-19.6-79.5-68-76.4-111.9c1-15,7.5-30.6,18.7-45
	c5.3-6.8,11.2-12.4,17-17.9c8.4-8,16.3-15.5,20.8-25.4c12.3-27.2,6.8-56.1,1-86.6c-5.1-26.8-10.4-54.6-3.5-82.5
	c4.6-18.8,15-36.6,30.1-51.6c14.2-14,31.3-24.7,50.1-31.3c1.1-0.4,2.3-0.8,3.4-1.1c18.5-5.9,37.5-7.5,55.9-9.1
	c13.1-1.1,25.5-2.2,37.8-4.6c21.6-4.4,39.6-15.8,58.7-27.9c6.3-4,12.8-8.1,19.4-12c27.6-16,62.5-25.6,93.2-25.6
	c25.8,0,47.8,6.4,65.4,19c17,12.1,28.8,29.6,35.1,52c4.8,16.8,6.6,36.5,5.6,60.4c-0.4,9.3-1.2,18.7-1.9,27.9
	c-1.9,23.1-3.8,46.9,0.3,69.4c3.5,18.9,11.8,36.5,20.6,55c4.4,9.3,8.9,18.8,12.8,28.5c13.1,33.3,19.6,68.9,19.4,104.7
	c-0.3,26.5-6.9,50-19.1,67.9c-19.3,28.4-52.4,43.4-95.6,43.4c-16.4-0.1-32.7-2.1-48.7-6c-5.4-1.3-10.8-2.8-16-4.3
	c-14.2-4-27.6-7.7-41.3-7.7c-2.9,0-5.7,0.2-8.5,0.5c-16.2,2-31.2,8.7-47,15.9c-10.1,4.5-20.5,9.3-31.5,12.7
	C343,700.2,314.7,704.6,286.2,704.6L286.2,704.6z"/>
<path class="st1" d="M255.4,242.2c-34.1,11.9-65,40-73.8,75.8c-14,56.8,27,115.7,1.9,170.9c-8.6,18.9-26.5,29.3-39,45.3
	c-8.9,11.5-15.6,25.1-16.6,39.6c-2.8,40.7,36.5,85,70.9,102.3c49.5,24.8,116.6,22.5,168.3,6.1c27.1-8.6,51.7-25.5,80.3-29
	c24.3-3,46.4,6,69.5,11.6c45.4,11,104.6,9.3,133.6-33.3c12.3-18.1,17.1-40.5,17.4-62.4c0.2-34.5-6.1-68.8-18.7-100.9
	c-11.2-28.3-28.4-55.2-33.9-85.5c-6-32.8,0-66.5,1.4-99.5c1.6-37.9-3.3-80.1-36.5-103.9c-41.6-29.7-107.1-16.4-147.8,7.3
	c-26.7,15.5-50.3,34.8-81.2,41c-30.6,6.2-62.6,3.9-92.6,13.4C257.5,241.5,256.5,241.9,255.4,242.2z"/>
<path class="st2" d="M255.4,242.2c-34.1,11.9-65,40-73.8,75.8c-14,56.8,27,115.7,1.9,170.9c-8.6,18.9-26.5,29.3-39,45.3
	c-8.9,11.5-15.6,25.1-16.6,39.6c-2.8,40.7,36.5,85,70.9,102.3c49.5,24.8,116.6,22.5,168.3,6.1c27.1-8.6,51.7-25.5,80.3-29
	c24.3-3,46.4,6,69.5,11.6c45.4,11,104.6,9.3,133.6-33.3c12.3-18.1,17.1-40.5,17.4-62.4c0.2-34.5-6.1-68.8-18.7-100.9
	c-11.2-28.3-28.4-55.2-33.9-85.5c-6-32.8,0-66.5,1.4-99.5c1.6-37.9-3.3-80.1-36.5-103.9c-41.6-29.7-107.1-16.4-147.8,7.3
	c-26.7,15.5-50.3,34.8-81.2,41c-30.6,6.2-62.6,3.9-92.6,13.4C257.5,241.5,256.5,241.9,255.4,242.2z"/>
<polygon class="st0" points="211.2,614.7 202.1,620.3 196.5,629.4 192,620.3 181.8,614.7 192,609 196.5,600 200.9,609 "/>
<polygon class="st0" points="219.6,595 215.2,597.8 212.4,602.2 210.3,597.8 205.3,595 210.3,592.3 212.4,587.9 214.6,592.3 "/>
<polygon class="st0" points="555.5,326.8 550.3,330 547.1,335.2 544.6,330 538.7,326.8 544.6,323.6 547.1,318.4 549.6,323.6 "/>
<polygon class="st0" points="590.5,499.4 579.8,506.1 573,516.9 567.7,506.1 555.5,499.4 567.7,492.6 573,481.8 578.3,492.6 "/>
<path class="st3" d="M413.4,273.9c-11.4,4.3-21.8,11.1-30.3,19.9c-6.9,7.2-13.4,15-22.4,19.6c-23.3,12-52.6,4.8-74.5,20.5
	c-27.1,19.4-23.7,63.6-6.4,88.1c13.5,19.1,34.9,31.2,57.4,36.5c23.8,5.6,43,15,60.2,32.9c24,25,52.5,44.3,88.6,43.5
	c9.9-0.2,20-2,28.4-7.2c17.9-11.1,26.3-32.6,27.1-52.9c1-24-12.7-45-15.8-68.3c-3.3-25,7.4-49.8,2.8-74.7c-6.1-33-36.2-56.4-68-62.4
	C444.7,266.6,428.4,268.2,413.4,273.9z"/>
<path class="st3" d="M523.8,319.6c9.2,19.4,13.4,43.1,11.8,66c-1,14-4.2,28.5-0.8,41.9c1.4,5.8,4,10.9,6.2,16.2
	c5.9,13.8,8.7,28.6,8.5,43.5c-0.4,15.2-5,30.4-13.4,40.6"/>
<path class="st3" d="M395.2,294c-16.4,19.2-48.3,16.5-70.9,18.4c-31.4,2.6-61,25.8-64.3,58.3c-2,19.6,5.1,41.2,14.4,58.2
	c4.9,9,16.4,30.7,29.7,23.5"/>
<path class="st3" d="M413.9,275.4c-7.7,4.7-16.5,7-25.3,8.9c-8.5,1.9-17.9,3.1-25.5,7.4c-7,3.9-12.8,9.8-16.5,16.9
	c-3.5,6.6-4.8,14.8-12.2,18.3"/>
<path class="st4" d="M349.2,453.6c0,0,5.9,6,17.8,6.4l72.8-0.4l12.5-6c0,0,31.4,52.6,43.8,153.9c6.5,53.3,29.3,114.6,29.3,114.6
	H327.5V479.1L349.2,453.6"/>
<path class="st5" d="M327.3,471.2v159.2c0,0-11.5,37.9-42.2,44.5C285.1,674.9,223.6,430.7,327.3,471.2z"/>
<path class="st5" d="M273,495.8l54.3,40.6v9.7l-56.5-42.3C271.4,501,272.2,498.3,273,495.8z"/>
<path class="st4" d="M349.2,453.6c-69.9-47.4-81.3,38.3-81.3,38.3l59.5,44.5l13-41.4L349.2,453.6z"/>
<path class="st5" d="M474.3,471.2v159.2c0,0,11.5,37.9,42.2,44.5C516.5,674.9,578,430.7,474.3,471.2z"/>
<path class="st5" d="M528.7,495.8l-54.3,40.6v9.7l56.5-42.3C530.2,501,529.5,498.3,528.7,495.8z"/>
<path class="st5" d="M323.5,597.5l134.2,14.4c27.6-1.9,52.3,17,57.7,44.1c1.1,4.5,1.7,9.1,2,13.8c0.4,8.1-6.2,14.6-14.1,12.6
	c-26.2-6.9-92.1-30.8-184.8-64L323.5,597.5z"/>
<polygon class="st5" points="269.8,579.4 258.3,588.8 272.1,618.4 278.3,620.3 "/>
<path class="st5" d="M267.2,579.5l19.9-7c1.2-0.4,2.5-0.2,3.5,0.6l6.5,5.4l26.4,19l-5,20.8c-11.5,2.7-23.5,3.1-35.2,1l-7.7,1
	L267.2,579.5z"/>
<path class="st4" d="M452.4,453.6c69.9-47.4,81.3,38.3,81.3,38.3l-59.5,44.5l-13-41.4L452.4,453.6z"/>
<polygon class="st5" points="534.9,538.4 546.4,547.8 532.7,577.4 526.5,579.3 "/>
<path class="st5" d="M537.6,538.4l-19.9-7c-1.2-0.4-2.5-0.2-3.5,0.6l-6.5,5.4l-26.5,19l5,20.8c11.5,2.7,23.5,3.1,35.2,1l7.7,1
	L537.6,538.4z"/>
<path class="st5" d="M483.7,555.5l-153.1,49.9c-27.4,4-47.6,27.7-47,55.4c-0.1,4.6,0.3,9.3,1,13.9c1.4,8,9.2,13,16.4,9.3
	c24.2-12.3,104.8-55.4,188.3-107.6L483.7,555.5z"/>
<path class="st5" d="M452.3,453.6l-12.5,6l1.6-54.2l-58.8-3L367,460l-17.8-6.4c0,0-12.8,65.8,60,72.6
	C409.2,526.2,461.2,521.7,452.3,453.6z"/>
<path class="st5" d="M392.1,360.1c-5.3,7.4-15.6,9.1-23,3.8s-9.1-15.6-3.8-23c5.3-7.4,15.5-9.1,22.9-3.8
	C395.7,342.4,397.4,352.7,392.1,360.1C392.1,360.1,392.1,360.1,392.1,360.1z"/>
<path class="st5" d="M500,364.2c-20.6,81.9-78,83-84.8,81.9c-3.1-0.4-6.1-1.2-9-2.5c-55.6-26.8-15.7-124.9-15.7-124.9
	s21.4-39.3,72-18.9C462.6,299.9,511.9,317,500,364.2z"/>
<path class="st6" d="M415.2,446.1c-3.1-0.4-6.1-1.2-9-2.5c-14.2-6.9-22.2-18.4-26.2-31.8l-2.4,9c4.2,12.4,12,23.1,25.5,29.6
	c2.9,1.3,5.9,2.1,9,2.5c2.8,0.4,14.2,0.5,28.1-5.3l0.2-5.7C427.8,446.6,417.8,446.5,415.2,446.1z"/>
<path class="st3" d="M490.8,389.5c-2-2.1-3-5-3.7-7.9c-4.8-19.7,2.1-51.9-23.9-58.6c-9.4-2.4-19.2-0.9-28.7-0.1
	c-11.5,1-23.5,1-34.3-3.7c-2.5-1.1-4.9-2.6-6.9-4.5c-0.7,1-1.4,2-2,3c0,0-0.8,2-2,5.5c2,1.8,4.3,3.2,6.8,4.3
	c10.8,4.7,22.8,4.7,34.3,3.7c9.5-0.8,19.3-2.3,28.7,0.1c26,6.7,19.1,38.9,23.9,58.6c0.7,2.8,1.6,5.8,3.7,7.8
	c0.3,0.3,0.5,0.5,0.7,0.7c1.4-2.7,2.8-5.5,4.2-8.4C491.3,389.9,491.1,389.7,490.8,389.5z"/>
<path class="st3" d="M383.6,311.1c-0.4,3.8-0.8,7.6-1.1,11.4c-0.6,5.7-1,11.4-1.6,17.1c-0.3,2.9-0.6,5.7-0.9,8.5
	c-0.1,0.7-1.2,6.9,0,6.5c0.8-0.3,4.7-6.7,5.6-8c1.7-2.5,3.3-4.9,5-7.4c3.3-5.1,6.5-10.3,9.4-15.7c4.1-7.6,7.8-15.7,9.6-24.1
	c0-0.2,0.1-0.3,0.1-0.5L383.6,311.1z"/>
<path class="st3" d="M497.3,392.2c3.8-1.9,6.7-8,8.5-11.4c11.1-20.5,15.2-45,5.7-66.9c0,0-19.2-35.8-67.5-38.5
	c-11.6-0.6-23.2,2.1-33.4,7.7c-7.9,4.3-22.5,12.9-22.6,23.3c0,6.3,5.7,11.1,11.5,13.7c10.8,4.7,22.8,4.7,34.3,3.7
	c9.5-0.8,19.3-2.3,28.7,0.1c26,6.7,19.1,38.9,23.9,58.6c0.7,2.8,1.6,5.8,3.7,7.8C492.8,393,495.2,393.3,497.3,392.2z"/>
<path class="st7" d="M486.5,388.7c0,0-11.5-19.9-30-11.4C456.5,377.4,472.3,372.3,486.5,388.7z"/>
<path class="st7" d="M390.7,348.2c0,0,22-6.6,29.6,12.2C420.3,360.4,412.3,345.9,390.7,348.2z"/>
<path class="st8" d="M432,416.4c0,0-17.6,13.2-22.1-7.7L432,416.4z"/>
<path class="st0" d="M408.5,402.8c0.5,8.9,8,15.8,16.9,15.3c3.5-0.2,6.9-1.5,9.6-3.8L408.5,402.8z"/>
<polygon class="st8" points="433.2,413.5 424.7,407.7 423.1,407.5 420.7,405.8 410.3,403.6 "/>
<path class="st6" d="M426.5,396.8l6.4,1.6c0.4,0.1,0.9-0.2,1-0.6c0-0.1,0-0.2,0-0.3l-1.3-9.1c-0.1-0.5-0.5-0.8-0.9-0.7l-0.5,0.1
	c-0.4,0.1-0.8,0.5-0.7,0.9l0.9,5.9c0.1,0.4-0.2,0.9-0.7,0.9c-0.1,0-0.2,0-0.3,0l-3.3-0.8c-0.4-0.1-0.9,0.2-1,0.6l-0.1,0.5
	C425.8,396.2,426.1,396.7,426.5,396.8z"/>
<path class="st7" d="M476,396.2c0,0-5.2,1.5-17.7-7.3C458.2,388.9,463.6,401.3,476,396.2z"/>
<path class="st7" d="M410.5,369c0,0-5.4,0.7-16.4-10C394.2,359,397.5,372.1,410.5,369z"/>
<path class="st7" d="M497.7,399.4c0.6-1.5-2.6-2.7-4.6-3.3c2.6-11.8-4-24.3-16.2-29.1c-10.4-4.2-22.3-1.3-29.6,7.3
	c-5.3-6-13.2-9.1-21.2-8.4c0.6-11.2-6.2-21.5-16.7-25.5c-12.1-4.8-25.5-0.2-31.7,10.2c-1.8-0.9-5.1-2.4-5.8-0.8s2.4,2.9,4.3,3.6
	c-0.1,0.2-0.2,0.4-0.2,0.5c-5,12.8,1.7,27.4,15,32.7s28.3-0.8,33.3-13.6c0.6-1.5,1-3,1.3-4.5c2.2-0.3,4.4-0.2,6.6,0.2
	c5.2,0.9,10,3.7,13.4,7.7c-0.9,1.3-1.6,2.7-2.2,4.2c-5,12.8,1.7,27.4,15.1,32.6s28.3-0.8,33.3-13.6c0.1-0.2,0.1-0.4,0.2-0.6
	C494.1,399.9,497.1,400.8,497.7,399.4z M392.2,384.3c-12-4.7-18.1-17.9-13.6-29.3s17.9-16.9,29.9-12.1s18.1,17.9,13.6,29.3
	S404.2,389,392.2,384.3z M459.6,410.9c-12-4.7-18.1-17.9-13.6-29.3s18-16.9,30-12.1s18.1,17.9,13.6,29.3S471.6,415.6,459.6,410.9
	L459.6,410.9z"/>
<g class="st9">
	<path class="st0" d="M423.5,223.5c3.1,0,6,0.2,8.5,0.7c2.5,0.4,4.6,1,6.2,1.7c1.6,0.7,3,1.6,4.1,2.5c1.1,1,1.9,2,2.3,3
		c0.5,1,0.7,2.1,0.7,3.1l-11.7,1.8c0-0.1,0-0.2-0.1-0.4c-0.1-0.2-0.3-0.5-0.7-0.9c-0.4-0.4-0.9-0.8-1.5-1.1
		c-0.6-0.3-1.5-0.6-2.7-0.9c-1.2-0.3-2.6-0.4-4.2-0.4c-1.6,0-2.9,0.1-4.1,0.4c-1.2,0.3-2.1,0.6-2.7,0.9c-0.6,0.4-1.1,0.8-1.5,1.4
		c-0.4,0.6-0.6,1.1-0.7,1.5c-0.1,0.5-0.1,1-0.1,1.6c0,0.5,0,0.9,0.1,1.3c0.1,0.4,0.2,0.8,0.4,1.3c0.2,0.5,0.5,0.9,0.9,1.3
		c0.4,0.4,1,0.7,1.6,1c0.6,0.3,1.5,0.6,2.5,0.7c1,0.2,2.2,0.3,3.5,0.3c1.2,0,2.3-0.1,3.3-0.2c1-0.1,1.8-0.3,2.4-0.5
		c0.6-0.2,1.2-0.5,1.6-0.7c0.5-0.3,0.9-0.5,1.1-0.8s0.4-0.5,0.6-0.7c0.1-0.2,0.2-0.4,0.3-0.5l0-0.2l11.6,1.6c0,1.1-0.2,2.2-0.6,3.2
		c-0.4,1-1.1,2-2.2,3c-1,1-2.4,1.8-3.9,2.5c-1.6,0.7-3.6,1.3-6.1,1.7c-2.5,0.4-5.3,0.6-8.5,0.6c-3.1,0-5.8-0.3-8.2-0.8
		c-2.4-0.5-4.3-1.2-5.9-2c-1.5-0.9-2.8-1.9-3.8-3.2c-1-1.3-1.7-2.6-2.1-4c-0.4-1.4-0.6-3-0.6-4.7c0-4.7,1.6-8.3,4.9-10.9
		C411.5,224.8,416.6,223.5,423.5,223.5z"/>
</g>
<g class="st9">
	<path class="st0" d="M475.7,223.7c4.7,0,8.6,1,11.5,2.9c0.2,0.1,0.4,0.2,0.4,0.3l-4.4,8.9c-0.3-0.2-0.7-0.4-1.3-0.6
		c-0.6-0.3-1.6-0.6-3.2-1c-1.6-0.4-3-0.7-4.4-0.8c-1.2-0.1-2.4,0-3.5,0.2s-2,0.4-2.6,0.6c-0.6,0.2-1.3,0.6-2.1,1.2
		c-0.8,0.5-1.3,0.9-1.5,1.1c-0.2,0.2-0.6,0.6-1.2,1.1v15.2h-11.6v-29h0.9h10.8v4C465.6,225.1,469.7,223.7,475.7,223.7z"/>
</g>
<g class="st9">
	<path class="st0" d="M512.2,223c3.4,0,6.4,0.3,8.9,0.9s4.7,1.6,6.6,3c1.9,1.4,3.2,3.2,4.1,5.6c0.9,2.3,1.2,5.2,0.9,8.5H503
		c0.2,0.9,1,1.6,2.5,2.2c1.5,0.6,3.7,0.8,6.6,0.8c2.6,0,5.1-0.2,7.7-0.5c2.6-0.3,4.5-0.7,5.8-1l1.9-0.5l5,8.1
		c-0.1,0.1-0.3,0.2-0.6,0.3c-0.3,0.1-0.9,0.3-2,0.6c-1.1,0.3-2.3,0.6-3.7,0.8c-1.4,0.2-3.3,0.4-5.7,0.6c-2.4,0.2-5.1,0.3-8,0.3
		c-3.4,0-6.4-0.2-8.9-0.7c-2.5-0.5-4.6-1.1-6.2-2c-1.6-0.8-2.9-1.9-3.8-3.1s-1.6-2.6-2-4s-0.5-3.1-0.5-5c0-4.7,1.8-8.3,5.3-10.9
		S505.2,223,512.2,223z M512.3,232c-1.8,0-3.4,0.1-4.7,0.4s-2.3,0.6-2.8,1c-0.6,0.4-1,0.8-1.3,1.2c-0.3,0.4-0.4,0.8-0.4,1.2h17.9
		c0-1.1-0.7-2-2-2.8C517.6,232.3,515.4,232,512.3,232z"/>
</g>
<g class="st9">
	<path class="st0" d="M580.6,252.7h-11.5c0-0.8,0-1.7,0-2.6c-3.5,2.1-7.6,3.1-12.3,3.1c-1.4,0-2.5,0-3.5,0c-0.9,0-2.1-0.1-3.5-0.3
		c-1.4-0.1-2.6-0.3-3.5-0.5c-1-0.2-2-0.6-3.1-1c-1.1-0.5-1.9-1-2.6-1.7c-0.7-0.6-1.2-1.5-1.6-2.5c-0.4-1-0.6-2.1-0.6-3.4
		c0-1.6,0.5-2.9,1.5-4.1c1-1.2,2.4-2.1,4.2-2.7c1.8-0.7,3.7-1.2,5.8-1.5c2.1-0.3,4.4-0.5,6.8-0.5c4.1,0,7.9,0.6,11.2,1.9
		c-0.7-2-1.8-3.3-3.4-3.9c-1.6-0.6-4.1-0.9-7.5-0.9c-2.8,0-5.5,0.2-8.1,0.6c-2.6,0.4-4.2,0.7-4.9,0.9c-0.7,0.2-1.3,0.4-1.8,0.6
		l-2.6-7.9c5.7-2.1,11.7-3.2,18.1-3.2c1.4,0,2.8,0,4.1,0.1c1.3,0.1,2.9,0.3,4.8,0.6c1.8,0.3,3.5,0.7,4.9,1.3
		c1.4,0.5,2.8,1.3,4.1,2.3c1.3,1,2.3,2.2,2.8,3.5c1,2.2,1.6,5,1.9,8.3C580.5,242.6,580.6,247.1,580.6,252.7z M558.1,245.9
		c2.4,0,4.7-0.3,6.7-0.8c2-0.5,3.2-1,3.5-1.4c0-0.3,0-0.5,0-0.5c-0.9-0.9-4.1-1.3-9.6-1.3c-2.8,0-4.8,0.2-5.9,0.5
		c-1.2,0.3-1.8,0.8-1.8,1.5C551,245.2,553.4,245.9,558.1,245.9z"/>
</g>
<g class="st9">
	<path class="st0" d="M607,243.2c0.8,0,1.7-0.1,2.7-0.2c1-0.1,1.8-0.3,2.6-0.4c0.8-0.2,1.5-0.3,2.1-0.5c0.7-0.2,1.2-0.3,1.6-0.5
		c0.4-0.1,0.6-0.2,0.5-0.2l4.1,9c-0.5,0.2-1.2,0.4-2.2,0.7s-3,0.6-6.2,1c-3.2,0.5-6.5,0.7-9.9,0.7c-1.6,0-3-0.1-4-0.2
		c-1-0.1-2-0.4-2.9-0.8c-0.9-0.4-1.5-0.9-2-1.5c-0.5-0.6-0.9-1.5-1.2-2.7c-0.3-1.2-0.6-2.5-0.7-4s-0.2-3.3-0.2-5.6v-5.8h-5.8v-8.7
		h5.8v-6.1H603v6.1h14.1v8.7H603v5.8c0,0.1,0,0.2,0,0.3c0,0.1,0,0.4,0,0.7s0.1,0.7,0.2,1c0.1,0.3,0.2,0.7,0.4,1.1
		c0.2,0.4,0.4,0.7,0.7,1s0.7,0.5,1.1,0.7C606,243.1,606.5,243.2,607,243.2z"/>
</g>
<g class="st9">
	<path class="st10" d="M626.9,215.8h11.6v5.6h-11.6V215.8z M626.9,223.7h11.6v29h-11.6V223.7z"/>
</g>
<g class="st9">
	<path class="st10" d="M677.1,223.7H690l-15,29h-15.3l-14.9-29h13l9.5,18.8L677.1,223.7z"/>
</g>
<g class="st9">
	<path class="st10" d="M696.9,215.8h11.7v5.6h-11.7V215.8z M696.9,223.7h11.7v29h-11.7V223.7z"/>
</g>
<g class="st9">
	<path class="st10" d="M737.8,243.2c0.8,0,1.7-0.1,2.7-0.2c1-0.1,1.8-0.3,2.6-0.4s1.5-0.3,2.1-0.5c0.7-0.2,1.2-0.3,1.6-0.5
		c0.4-0.1,0.6-0.2,0.5-0.2l4.2,9c-0.5,0.2-1.2,0.4-2.2,0.7s-3,0.6-6.2,1c-3.2,0.5-6.5,0.7-9.9,0.7c-1.6,0-3-0.1-4-0.2
		c-1-0.1-2-0.4-2.9-0.8c-0.9-0.4-1.5-0.9-2-1.5c-0.5-0.6-0.9-1.5-1.2-2.7c-0.3-1.2-0.5-2.5-0.7-4c-0.1-1.5-0.1-3.3-0.1-5.6v-5.8
		h-5.8v-8.7h5.8v-6.1h11.6v6.1H748v8.7h-14.2v5.8c0,0.1,0,0.2,0,0.3c0,0.1,0,0.4,0,0.7s0.1,0.7,0.2,1c0.1,0.3,0.2,0.7,0.4,1.1
		c0.2,0.4,0.4,0.7,0.7,1s0.7,0.5,1.1,0.7C736.8,243.1,737.3,243.2,737.8,243.2z"/>
</g>
<g class="st9">
	<path class="st10" d="M771.1,251.8L755.4,224h13.5l8.9,16.2l8.3-16.2H800l-20.8,38.6h-13.8L771.1,251.8z"/>
</g>
<path class="st4" d="M178.4,235.1L153,246c-1.6,0.7-2,2.8-0.7,3.9l4.1,3.9c1,0.9,1,2.4,0.1,3.4l-23.1,24.7c-1,1.1-0.8,2.8,0.4,3.6
	l4.2,3c1,0.7,2.4,0.6,3.2-0.4l21.9-24.5c0.9-1,2.5-1.1,3.4-0.1l5.7,5.4c1.4,1.3,3.7,0.6,4-1.3l5.4-29.9
	C182.1,235.9,180.2,234.3,178.4,235.1z"/>
<path class="st1" d="M1029.5,642.4l-308.1-4.1c-11.4-0.2-20.6-9.2-20.9-20.6l-4.7-176c-0.3-11.7,8.9-21.4,20.6-21.7
	c0.2,0,0.3,0,0.5,0h317.5c11.7,0,21.2,9.5,21.2,21.2c0,0.2,0,0.4,0,0.5l-4.8,180C1050.7,633.3,1041.1,642.5,1029.5,642.4z"/>
<path class="st0" d="M884.8,468.1h30.6c5,0,9,4,9,9v30.6c0,5-4,9-9,9h-30.6c-5,0-9-4-9-9v-30.6C875.8,472.1,879.8,468.1,884.8,468.1
	z"/>
<path class="st0" d="M942.6,468.1h30.6c5,0,9,4,9,9v30.6c0,5-4,9-9,9h-30.6c-5,0-9-4-9-9v-30.6C933.6,472.1,937.6,468.1,942.6,468.1
	z"/>
<path class="st0" d="M1000.8,468.1h30.6c5,0,9,4,9,9v30.6c0,5-4,9-9,9h-30.6c-5,0-9-4-9-9v-30.6
	C991.8,472.1,995.8,468.1,1000.8,468.1z"/>
<rect x="710.5" y="459.9" class="st4" width="112.3" height="112.3"/>
<rect x="914.5" y="548.2" class="st0" width="125.9" height="9"/>
<rect x="914.5" y="563.2" class="st0" width="125.9" height="9"/>
<rect x="914.5" y="578.2" class="st0" width="125.9" height="9"/>
<rect x="914.5" y="593.1" class="st0" width="125.9" height="9"/>
<path class="st11" d="M716.8,420h318.4c11.3,0,20.5,9.2,20.5,20.5v0v12.3l0,0H695.9l0,0V441C695.9,429.4,705.2,420,716.8,420z"/>
<path class="st0" d="M926.3,432.6h111.3c1.5,0,2.6,1.2,2.6,2.6v0c0,1.5-1.2,2.6-2.6,2.6H926.3c-1.5,0-2.6-1.2-2.6-2.6v0
	C923.6,433.8,924.8,432.6,926.3,432.6z"/>
<circle class="st0" cx="742.6" cy="518.8" r="16.7"/>
<circle class="st0" cx="845.1" cy="455.3" r="14.2"/>
<circle class="st12" cx="743" cy="517.4" r="32"/>
<circle class="st12" cx="845.1" cy="455.3" r="27.2"/>
<path class="st0" d="M726.9,582.7h157.4c8.8,0,15.9,7.1,15.9,15.9v12.9c0,8.8-7.1,15.9-15.9,15.9H726.9c-8.8,0-15.9-7.1-15.9-15.9
	v-12.9C711,589.8,718.1,582.7,726.9,582.7z"/>
<circle class="st13" cx="258.5" cy="199.7" r="7.8"/>
<circle class="st14" cx="590.5" cy="706.1" r="16.2"/>
<path class="st4" d="M332.1,25.6H465c10,0,18.2,8.1,18.2,18.2v83.6c0,11.4-9.3,20.7-20.7,20.7H339.7c-15,0-27.2-12.2-27.2-27.2V45.2
	C312.5,34.4,321.3,25.6,332.1,25.6z"/>
<path class="st15" d="M341.6,39h111.6c1.3,0,2.3,1,2.3,2.3v65.7c0,1.3-1,2.3-2.3,2.3H341.6c-1.3,0-2.3-1-2.3-2.3V41.3
	C339.3,40.1,340.4,39,341.6,39z"/>
<path class="st1" d="M341.6,125.6h111.6c1.3,0,2.3,1,2.3,2.3v2.5c0,1.3-1,2.3-2.3,2.3H341.6c-1.3,0-2.3-1-2.3-2.3v-2.5
	C339.3,126.6,340.4,125.6,341.6,125.6z"/>
<path class="st15" d="M341.6,125.6h47.6c1.3,0,2.3,1,2.3,2.3v2.5c0,1.3-1,2.3-2.3,2.3h-47.6c-1.3,0-2.3-1-2.3-2.3v-2.5
	C339.3,126.6,340.4,125.6,341.6,125.6z"/>
<path class="st4" d="M386,60.5v28.1c0,1.3,1,2.3,2.3,2.3c0.4,0,0.9-0.1,1.2-0.4l22.6-14.4c1.1-0.7,1.4-2.1,0.7-3.2
	c-0.2-0.3-0.4-0.6-0.7-0.7l-22.7-13.7c-1.1-0.6-2.5-0.3-3.1,0.8C386.1,59.7,386,60.1,386,60.5z"/>
<rect x="83.1" y="370.1" transform="matrix(0.7071 -0.7071 0.7071 0.7071 -243.869 182.888)" class="st1" width="31.4" height="31.4"/>
<rect x="582" y="69.3" transform="matrix(0.7071 -0.7071 0.7071 0.7071 114.9556 447.5182)" class="st4" width="31.4" height="31.4"/>
<circle class="st1" cx="984.9" cy="289.8" r="27.9"/>
<circle class="st16" cx="984.9" cy="289.8" r="53.9"/>
<path class="st17" d="M738.7,35.4h167.1c10.8,0,19.6,8.8,19.6,19.6v121.2c0,10.8-8.8,19.6-19.6,19.6H738.7
	c-10.8,0-19.6-8.8-19.6-19.6V55C719,44.2,727.8,35.4,738.7,35.4z"/>
<path class="st11" d="M738,35.4h168.4c10.5,0,19,8.5,19,19l0,0v3.2l0,0H719l0,0v-3.3C719,43.9,727.5,35.4,738,35.4z"/>
<path class="st18" d="M747.7,75.1h82.9c3.9,0,7,3.1,7,7v57.6c0,3.9-3.1,7-7,7h-82.9c-3.9,0-7-3.1-7-7V82.1
	C740.7,78.2,743.9,75.1,747.7,75.1z"/>
<path class="st18" d="M735.5,67.1h11.7c1.2,0,2.2,1,2.2,2.2v11.7c0,1.2-1,2.2-2.2,2.2h-11.7c-1.2,0-2.2-1-2.2-2.2V69.3
	C733.3,68.1,734.3,67.1,735.5,67.1z"/>
<path class="st18" d="M831.8,67.1h11.7c1.2,0,2.2,1,2.2,2.2v11.7c0,1.2-1,2.2-2.2,2.2h-11.7c-1.2,0-2.2-1-2.2-2.2V69.3
	C829.7,68.1,830.6,67.1,831.8,67.1z"/>
<path class="st19" d="M740.7,116.3l33.5-31l31.5,34.6l12.4-12.4l19.6,15.4v16.6c0,4-3.2,7.2-7.2,7.2c0,0,0,0,0,0h-82.6
	c-4,0-7.2-3.2-7.2-7.2c0,0,0,0,0,0L740.7,116.3z"/>
<circle class="st4" cx="808.8" cy="94.2" r="8.8"/>
<polygon class="st18" points="872.2,80.2 887.3,80.2 900.1,94.2 900.1,110.9 872.2,110.9 "/>
<polygon class="st1" points="901.5,75.1 908.8,78.6 893.4,96.1 885.2,98.9 885.2,91.3 "/>
<rect x="737.1" y="164.2" class="st13" width="29.3" height="16.5"/>
<rect x="772.7" y="164.2" class="st13" width="29.3" height="16.5"/>
<rect x="806.7" y="164.2" class="st13" width="29.3" height="16.5"/>
<rect x="863.5" y="121" class="st1" width="45.4" height="7.7"/>
<rect x="863.5" y="136.4" class="st1" width="45.4" height="7.7"/>
<rect x="863.5" y="151.8" class="st1" width="45.4" height="7.7"/>
<path class="st18" d="M735.4,136.4h11.7c1.2,0,2.2,1,2.2,2.2v11.7c0,1.2-1,2.2-2.2,2.2h-11.7c-1.2,0-2.2-1-2.2-2.2v-11.7
	C733.3,137.4,734.2,136.4,735.4,136.4z"/>
<path class="st18" d="M831.8,138.8h11.7c1.2,0,2.2,1,2.2,2.2v11.7c0,1.2-1,2.2-2.2,2.2h-11.7c-1.2,0-2.2-1-2.2-2.2v-11.7
	C829.7,139.8,830.6,138.8,831.8,138.8z"/>
<circle class="st13" cx="900.8" cy="46.2" r="4.1"/>
<circle class="st1" cx="887.2" cy="46.2" r="4.1"/>
<circle class="st4" cx="873.8" cy="46.2" r="4.1"/>
<circle class="st18" cx="131.9" cy="118.6" r="70.3"/>
<circle class="st18" cx="131.9" cy="118.6" r="48.3"/>
<circle class="st4" cx="152.4" cy="98.5" r="8.6"/>
<rect x="128.6" y="107.1" transform="matrix(0.7071 -0.7071 0.7071 0.7071 -37.6322 131.3197)" class="st4" width="22.2" height="7.9"/>
<path class="st4" d="M134.1,101.2l15.4,15.4c1.1,1.1,1.1,2.8,0,3.9l-0.4,0.4c-1.1,1.1-2.8,1.1-3.9,0l-15.4-15.4
	c-1.1-1.1-1.1-2.8,0-3.9l0.4-0.4C131.3,100.2,133.1,100.2,134.1,101.2z"/>
<path class="st4" d="M133.2,106l10.6,10.6l0,0l-25.1,25.1c-2.6,2.6-6.9,2.6-9.5,0l0,0l-1.1-1.1c-2.6-2.6-2.6-6.9,0-9.5l0,0
	L133.2,106L133.2,106z"/>
<path class="st4" d="M110.8,138.7l0.5,0.5c1.1,1.1,1.1,2.8,0,3.9l-3.3,3.3c-1.1,1.1-2.8,1.1-3.9,0l-0.5-0.5c-1.1-1.1-1.1-2.8,0-3.9
	l3.3-3.3C108,137.7,109.8,137.7,110.8,138.7z"/>
<path class="st11" d="M673.6,350.9h34.8c7,0,12.8,5.7,12.8,12.8v20.5c0,7-5.7,12.8-12.8,12.8h-34.8c-7,0-12.8-5.7-12.8-12.8v-20.5
	C660.8,356.6,666.5,350.9,673.6,350.9z"/>
<rect x="686.7" y="356.2" transform="matrix(0.7071 -0.7071 0.7071 0.7071 -62.0559 598.8934)" class="st0" width="10.4" height="36.3"/>
<rect x="673.8" y="369.1" transform="matrix(0.7071 -0.7071 0.7071 0.7071 -62.0543 598.8884)" class="st0" width="36.3" height="10.4"/>
<path class="st20" d="M675.4,353h31.1c7,0,12.8,5.7,12.8,12.8V382c0,7-5.7,12.8-12.8,12.8h-31.1c-7,0-12.8-5.7-12.8-12.8v-16.3
	C662.7,358.7,668.4,353,675.4,353z"/>
<path class="st21" d="M719.3,674.6v42.8h-14.2v-3.8c-3.1,2.2-8.2,4.1-16.4,4.1c-10.7,0-22.9-1.9-22.9-18.3
	c0-11.9,10.8-17.3,22.6-17.3c5.8-0.1,11.5,1.2,16.7,3.7v-11.2H719.3z M705.1,697.6c-1.9-5.3-11.8-5.3-14.5-5.3s-9.7-0.3-9.7,7.3
	c0,6.4,5.9,7.3,10.6,7.3c7.4,0,11.2-0.7,13.6-4.5V697.6z"/>
<path class="st21" d="M779.1,703h-36.3c0.4,2,3.4,3.7,11.1,3.7c6.3,0,12.6-0.8,18.8-2.4l6.1,9.9c0,0-5.5,3.2-24.4,3.2
	c-21.2,0-26.1-7.3-26.1-18.1c0-11.2,8.3-18.1,25.8-18.1C770.1,681.1,780.3,686.4,779.1,703z M742.8,696.8h21.9
	c0-2.3-2.3-4.7-10.6-4.7C744.6,692,742.8,695,742.8,696.8L742.8,696.8z"/>
<path class="st21" d="M835.3,706.5c0,9.3-3.6,12.1-24.8,12.1c-10,0-19.2-0.5-21.9-3.1l3.9-10.1c2.1,1.4,11.6,2.3,18.5,2.3
	c8.1,0,11,0.2,11-1s-2.8-2-11.9-2c-15.1,0-22.8-1.9-22.8-11.3c0-10.7,7.6-11.8,24-11.8c15.6,0,19.3,1.4,23.3,3.5l-4.4,9.7
	c-3.8-1.5-12.5-2.6-19.8-2.6s-9.4-0.1-9.4,1.2c0,1,1.8,1.8,9.3,1.8C830.3,695.3,835.3,697.2,835.3,706.5z"/>
<path class="st21" d="M858.6,672.3v6.9h-14.2v-6.9H858.6z M858.6,681.9v35.4h-14.2v-35.4H858.6z"/>
<path class="st21" d="M921.8,682.5v30c0,14-7.7,20.6-26.8,20.6s-26.2-3.8-26.2-3.8l4.7-11c0,0,4.9,4.2,18.5,4.2
	c16.6,0,15.6-9.5,15.6-9.5v-1.5c-1.4,3.5-8.8,6.3-16.7,6.3c-11.8,0-22.6-3.5-22.6-16.1c0-17.4,12.2-19.4,22.9-19.4
	c8.3,0,13.3,2,16.4,4.3v-4L921.8,682.5z M907.6,701.1v-2.7c0-3.9-7.3-5.5-14.7-5.5c-4.6,0-10.3,1-10.3,7c0,7.1,8.5,7.2,10.5,7.2
	S906.1,707.1,907.6,701.1L907.6,701.1z"/>
<path class="st21" d="M979.9,714.5v2.8h-14.2v-11.7c0-5.3,0.3-13.1-9.4-13.1c-5.7,0-8.4,2-10.6,4.3v20.5h-14.3v-35.4h14.3v4.9
	c3.9-2.8,7.3-5.2,15.4-5.2c6.6,0,13.9,0.8,16.8,7.5C979.9,694,979.9,701.3,979.9,714.5z"/>
<path class="st4" d="M52.1,472.2h119.2c10.2,0,18.5,8.3,18.5,18.5V560c0,10.2-8.3,18.5-18.5,18.5H52.1c-10.2,0-18.5-8.3-18.5-18.5
	v-69.3C33.7,480.5,41.9,472.2,52.1,472.2z"/>
<polyline class="st22" points="83.5,502.3 56.5,525.9 83.5,548.4 "/>
<polyline class="st22" points="139.9,548.4 166.9,524.9 139.9,502.3 "/>
<line class="st22" x1="123.8" y1="499" x2="100.9" y2="551.8"/>
</svg>
