<?xml version="1.0" encoding="utf-8"?>
<!-- Generator: Adobe Illustrator 27.9.0, SVG Export Plug-In . SVG Version: 6.00 Build 0)  -->
<svg version="1.1" id="Layer_1" xmlns="http://www.w3.org/2000/svg" xmlns:xlink="http://www.w3.org/1999/xlink" x="0px" y="0px"
	 viewBox="0 0 1146 1417.2" style="enable-background:new 0 0 1146 1417.2;" xml:space="preserve">
<style type="text/css">
	.st0{display:none;}
	.st1{display:inline;fill:#FFFFFF;}
	.st2{display:inline;fill:#A4C3B2;}
	.st3{display:inline;fill:none;stroke:#FFFFFF;stroke-width:2;stroke-miterlimit:10;stroke-dasharray:11.93,11.93;}
	.st4{display:inline;fill:#333333;}
	.st5{display:inline;fill:#6B9080;}
	.st6{display:inline;fill:#FFCEC7;}
	.st7{display:inline;fill:#F2B1AF;}
	.st8{display:inline;fill:#7F7F7F;}
	.st9{display:inline;fill:#EF8E89;}
	.st10{display:inline;enable-background:new    ;}
	.st11{fill:#FFFFFF;}
	.st12{fill:#595959;}
	.st13{display:inline;fill:#686868;}
	.st14{display:inline;fill:none;stroke:#FFFFFF;stroke-miterlimit:10;}
	.st15{display:inline;fill:#CCE3DE;}
	.st16{display:inline;fill:none;stroke:#6B9080;stroke-miterlimit:10;}
	.st17{display:inline;fill:#F6FFF8;}
	.st18{display:inline;fill:none;stroke:#6B9080;stroke-width:2;stroke-miterlimit:10;}
	.st19{display:inline;fill:none;stroke:#595A5A;stroke-miterlimit:10;}
	.st20{display:inline;fill:none;stroke:#A4C3B2;stroke-miterlimit:10;}
	.st21{display:inline;fill:#FFFFFF;stroke:#A4C3B2;stroke-miterlimit:10;}
	.st22{display:inline;fill:none;stroke:#FFFFFF;stroke-width:0.5;stroke-miterlimit:10;}
	.st23{display:inline;fill:none;stroke:#6B9080;stroke-width:1.9;stroke-miterlimit:10;}
	.st24{display:inline;fill:none;stroke:#FFFFFF;stroke-width:10;stroke-linecap:round;stroke-linejoin:round;}
	.st25{display:inline;}
	.st26{fill:#D3E6EF;}
	.st27{fill:#113FFB;}
	.st28{clip-path:url(#SVGID_00000168834847885764622540000000957032718948826794_);}
	.st29{fill:#001466;}
	.st30{fill:#FFAAE0;}
	.st31{fill:#FDB870;}
	.st32{fill:#FF7757;}
	.st33{fill:#E6F3FB;}
	.st34{fill:none;stroke:#001466;stroke-width:5;stroke-miterlimit:10;}
	.st35{clip-path:url(#SVGID_00000168834847885764622540000000957032718948826794_);fill:#FFAAE0;}
</style>
<g class="st0">
	<rect class="st1" width="1146" height="764"/>
	<path class="st2" d="M286.2,704.6c-34.5,0-66.3-6.8-91.8-19.6c-39.1-19.6-79.5-68-76.4-111.9c1-15,7.5-30.6,18.7-45
		c5.3-6.8,11.2-12.4,17-17.9c8.4-8,16.3-15.5,20.8-25.4c12.3-27.2,6.8-56.1,1-86.6c-5.1-26.8-10.4-54.6-3.5-82.5
		c4.6-18.8,15-36.6,30.1-51.6c14.2-14,31.3-24.7,50.1-31.3c1.1-0.4,2.3-0.8,3.4-1.1c18.5-5.9,37.5-7.5,55.9-9.1
		c13.1-1.1,25.5-2.2,37.8-4.6c21.6-4.4,39.6-15.8,58.7-27.9c6.3-4,12.8-8.1,19.4-12c27.6-16,62.5-25.6,93.2-25.6
		c25.8,0,47.8,6.4,65.4,19c17,12.1,28.8,29.6,35.1,52c4.8,16.8,6.6,36.5,5.6,60.4c-0.4,9.3-1.2,18.7-1.9,27.9
		c-1.9,23.1-3.8,46.9,0.3,69.4c3.5,18.9,11.8,36.5,20.6,55c4.4,9.3,8.9,18.8,12.8,28.5c13.1,33.3,19.6,68.9,19.4,104.7
		c-0.3,26.5-6.9,50-19.1,67.9c-19.3,28.4-52.4,43.4-95.6,43.4c-16.4-0.1-32.7-2.1-48.7-6c-5.4-1.3-10.8-2.8-16-4.3
		c-14.2-4-27.6-7.7-41.3-7.7c-2.9,0-5.7,0.2-8.5,0.5c-16.2,2-31.2,8.7-47,15.9c-10.1,4.5-20.5,9.3-31.5,12.7
		C343,700.2,314.7,704.6,286.2,704.6L286.2,704.6z"/>
	<path class="st2" d="M255.4,242.2c-34.1,11.9-65,40-73.8,75.8c-14,56.8,27,115.7,1.9,170.9c-8.6,18.9-26.5,29.3-39,45.3
		c-8.9,11.5-15.6,25.1-16.6,39.6c-2.8,40.7,36.5,85,70.9,102.3c49.5,24.8,116.6,22.5,168.3,6.1c27.1-8.6,51.7-25.5,80.3-29
		c24.3-3,46.4,6,69.5,11.6c45.4,11,104.6,9.3,133.6-33.3c12.3-18.1,17.1-40.5,17.4-62.4c0.2-34.5-6.1-68.8-18.7-100.9
		c-11.2-28.3-28.4-55.2-33.9-85.5c-6-32.8,0-66.5,1.4-99.5c1.6-37.9-3.3-80.1-36.5-103.9c-41.6-29.7-107.1-16.4-147.8,7.3
		c-26.7,15.5-50.3,34.8-81.2,41c-30.6,6.2-62.6,3.9-92.6,13.4C257.5,241.5,256.5,241.9,255.4,242.2z"/>
	<path class="st3" d="M255.4,242.2c-34.1,11.9-65,40-73.8,75.8c-14,56.8,27,115.7,1.9,170.9c-8.6,18.9-26.5,29.3-39,45.3
		c-8.9,11.5-15.6,25.1-16.6,39.6c-2.8,40.7,36.5,85,70.9,102.3c49.5,24.8,116.6,22.5,168.3,6.1c27.1-8.6,51.7-25.5,80.3-29
		c24.3-3,46.4,6,69.5,11.6c45.4,11,104.6,9.3,133.6-33.3c12.3-18.1,17.1-40.5,17.4-62.4c0.2-34.5-6.1-68.8-18.7-100.9
		c-11.2-28.3-28.4-55.2-33.9-85.5c-6-32.8,0-66.5,1.4-99.5c1.6-37.9-3.3-80.1-36.5-103.9c-41.6-29.7-107.1-16.4-147.8,7.3
		c-26.7,15.5-50.3,34.8-81.2,41c-30.6,6.2-62.6,3.9-92.6,13.4C257.5,241.5,256.5,241.9,255.4,242.2z"/>
	<polygon class="st1" points="211.2,614.7 202.1,620.3 196.5,629.4 192,620.3 181.8,614.7 192,609 196.5,600 200.9,609 	"/>
	<polygon class="st1" points="219.6,595 215.2,597.8 212.4,602.2 210.3,597.8 205.3,595 210.3,592.3 212.4,587.9 214.6,592.3 	"/>
	<polygon class="st1" points="555.5,326.8 550.3,330 547.1,335.2 544.6,330 538.7,326.8 544.6,323.6 547.1,318.4 549.6,323.6 	"/>
	<polygon class="st1" points="590.5,499.4 579.8,506.1 573,516.9 567.7,506.1 555.5,499.4 567.7,492.6 573,481.8 578.3,492.6 	"/>
	<path class="st4" d="M413.4,273.9c-11.4,4.3-21.8,11.1-30.3,19.9c-6.9,7.2-13.4,15-22.4,19.6c-23.3,12-52.6,4.8-74.5,20.5
		c-27.1,19.4-23.7,63.6-6.4,88.1c13.5,19.1,34.9,31.2,57.4,36.5c23.8,5.6,43,15,60.2,32.9c24,25,52.5,44.3,88.6,43.5
		c9.9-0.2,20-2,28.4-7.2c17.9-11.1,26.3-32.6,27.1-52.9c1-24-12.7-45-15.8-68.3c-3.3-25,7.4-49.8,2.8-74.7
		c-6.1-33-36.2-56.4-68-62.4C444.7,266.6,428.4,268.2,413.4,273.9z"/>
	<path class="st4" d="M523.8,319.6c9.2,19.4,13.4,43.1,11.8,66c-1,14-4.2,28.5-0.8,41.9c1.4,5.8,4,10.9,6.2,16.2
		c5.9,13.8,8.7,28.6,8.5,43.5c-0.4,15.2-5,30.4-13.4,40.6"/>
	<path class="st4" d="M395.2,294c-16.4,19.2-48.3,16.5-70.9,18.4c-31.4,2.6-61,25.8-64.3,58.3c-2,19.6,5.1,41.2,14.4,58.2
		c4.9,9,16.4,30.7,29.7,23.5"/>
	<path class="st4" d="M413.9,275.4c-7.7,4.7-16.5,7-25.3,8.9c-8.5,1.9-17.9,3.1-25.5,7.4c-7,3.9-12.8,9.8-16.5,16.9
		c-3.5,6.6-4.8,14.8-12.2,18.3"/>
	<path class="st5" d="M349.2,453.6c0,0,5.9,6,17.8,6.4l72.8-0.4l12.5-6c0,0,31.4,52.6,43.8,153.9c6.5,53.3,29.3,114.6,29.3,114.6
		H327.5v-243L349.2,453.6"/>
	<path class="st6" d="M327.3,471.2v159.2c0,0-11.5,37.9-42.2,44.5C285.1,674.9,223.6,430.7,327.3,471.2z"/>
	<path class="st6" d="M273,495.8l54.3,40.6v9.7l-56.5-42.3C271.4,501,272.2,498.3,273,495.8z"/>
	<path class="st5" d="M349.2,453.6c-69.9-47.4-81.3,38.3-81.3,38.3l59.5,44.5l13-41.4L349.2,453.6z"/>
	<path class="st6" d="M474.3,471.2v159.2c0,0,11.5,37.9,42.2,44.5C516.5,674.9,578,430.7,474.3,471.2z"/>
	<path class="st6" d="M528.7,495.8l-54.3,40.6v9.7l56.5-42.3C530.2,501,529.5,498.3,528.7,495.8z"/>
	<path class="st6" d="M323.5,597.5l134.2,14.4c27.6-1.9,52.3,17,57.7,44.1c1.1,4.5,1.7,9.1,2,13.8c0.4,8.1-6.2,14.6-14.1,12.6
		c-26.2-6.9-92.1-30.8-184.8-64L323.5,597.5z"/>
	<polygon class="st6" points="269.8,579.4 258.3,588.8 272.1,618.4 278.3,620.3 	"/>
	<path class="st6" d="M267.2,579.5l19.9-7c1.2-0.4,2.5-0.2,3.5,0.6l6.5,5.4l26.4,19l-5,20.8c-11.5,2.7-23.5,3.1-35.2,1l-7.7,1
		L267.2,579.5z"/>
	<path class="st5" d="M452.4,453.6c69.9-47.4,81.3,38.3,81.3,38.3l-59.5,44.5l-13-41.4L452.4,453.6z"/>
	<polygon class="st6" points="534.9,538.4 546.4,547.8 532.7,577.4 526.5,579.3 	"/>
	<path class="st6" d="M537.6,538.4l-19.9-7c-1.2-0.4-2.5-0.2-3.5,0.6l-6.5,5.4l-26.5,19l5,20.8c11.5,2.7,23.5,3.1,35.2,1l7.7,1
		L537.6,538.4z"/>
	<path class="st6" d="M483.7,555.5l-153.1,49.9c-27.4,4-47.6,27.7-47,55.4c-0.1,4.6,0.3,9.3,1,13.9c1.4,8,9.2,13,16.4,9.3
		c24.2-12.3,104.8-55.4,188.3-107.6L483.7,555.5z"/>
	<path class="st6" d="M452.3,453.6l-12.5,6l1.6-54.2l-58.8-3L367,460l-17.8-6.4c0,0-12.8,65.8,60,72.6
		C409.2,526.2,461.2,521.7,452.3,453.6z"/>
	<path class="st6" d="M392.1,360.1c-5.3,7.4-15.6,9.1-23,3.8s-9.1-15.6-3.8-23c5.3-7.4,15.5-9.1,22.9-3.8
		C395.7,342.4,397.4,352.7,392.1,360.1L392.1,360.1z"/>
	<path class="st6" d="M500,364.2c-20.6,81.9-78,83-84.8,81.9c-3.1-0.4-6.1-1.2-9-2.5c-55.6-26.8-15.7-124.9-15.7-124.9
		s21.4-39.3,72-18.9C462.6,299.9,511.9,317,500,364.2z"/>
	<path class="st7" d="M415.2,446.1c-3.1-0.4-6.1-1.2-9-2.5c-14.2-6.9-22.2-18.4-26.2-31.8l-2.4,9c4.2,12.4,12,23.1,25.5,29.6
		c2.9,1.3,5.9,2.1,9,2.5c2.8,0.4,14.2,0.5,28.1-5.3l0.2-5.7C427.8,446.6,417.8,446.5,415.2,446.1z"/>
	<path class="st4" d="M490.8,389.5c-2-2.1-3-5-3.7-7.9c-4.8-19.7,2.1-51.9-23.9-58.6c-9.4-2.4-19.2-0.9-28.7-0.1
		c-11.5,1-23.5,1-34.3-3.7c-2.5-1.1-4.9-2.6-6.9-4.5c-0.7,1-1.4,2-2,3c0,0-0.8,2-2,5.5c2,1.8,4.3,3.2,6.8,4.3
		c10.8,4.7,22.8,4.7,34.3,3.7c9.5-0.8,19.3-2.3,28.7,0.1c26,6.7,19.1,38.9,23.9,58.6c0.7,2.8,1.6,5.8,3.7,7.8
		c0.3,0.3,0.5,0.5,0.7,0.7c1.4-2.7,2.8-5.5,4.2-8.4C491.3,389.9,491.1,389.7,490.8,389.5z"/>
	<path class="st4" d="M383.6,311.1c-0.4,3.8-0.8,7.6-1.1,11.4c-0.6,5.7-1,11.4-1.6,17.1c-0.3,2.9-0.6,5.7-0.9,8.5
		c-0.1,0.7-1.2,6.9,0,6.5c0.8-0.3,4.7-6.7,5.6-8c1.7-2.5,3.3-4.9,5-7.4c3.3-5.1,6.5-10.3,9.4-15.7c4.1-7.6,7.8-15.7,9.6-24.1
		c0-0.2,0.1-0.3,0.1-0.5L383.6,311.1z"/>
	<path class="st4" d="M497.3,392.2c3.8-1.9,6.7-8,8.5-11.4c11.1-20.5,15.2-45,5.7-66.9c0,0-19.2-35.8-67.5-38.5
		c-11.6-0.6-23.2,2.1-33.4,7.7c-7.9,4.3-22.5,12.9-22.6,23.3c0,6.3,5.7,11.1,11.5,13.7c10.8,4.7,22.8,4.7,34.3,3.7
		c9.5-0.8,19.3-2.3,28.7,0.1c26,6.7,19.1,38.9,23.9,58.6c0.7,2.8,1.6,5.8,3.7,7.8C492.8,393,495.2,393.3,497.3,392.2z"/>
	<path class="st8" d="M486.5,388.7c0,0-11.5-19.9-30-11.4C456.5,377.4,472.3,372.3,486.5,388.7z"/>
	<path class="st8" d="M390.7,348.2c0,0,22-6.6,29.6,12.2C420.3,360.4,412.3,345.9,390.7,348.2z"/>
	<path class="st9" d="M432,416.4c0,0-17.6,13.2-22.1-7.7L432,416.4z"/>
	<path class="st1" d="M408.5,402.8c0.5,8.9,8,15.8,16.9,15.3c3.5-0.2,6.9-1.5,9.6-3.8L408.5,402.8z"/>
	<polygon class="st9" points="433.2,413.5 424.7,407.7 423.1,407.5 420.7,405.8 410.3,403.6 	"/>
	<path class="st7" d="M426.5,396.8l6.4,1.6c0.4,0.1,0.9-0.2,1-0.6c0-0.1,0-0.2,0-0.3l-1.3-9.1c-0.1-0.5-0.5-0.8-0.9-0.7l-0.5,0.1
		c-0.4,0.1-0.8,0.5-0.7,0.9l0.9,5.9c0.1,0.4-0.2,0.9-0.7,0.9c-0.1,0-0.2,0-0.3,0l-3.3-0.8c-0.4-0.1-0.9,0.2-1,0.6l-0.1,0.5
		C425.8,396.2,426.1,396.7,426.5,396.8z"/>
	<path class="st8" d="M476,396.2c0,0-5.2,1.5-17.7-7.3C458.2,388.9,463.6,401.3,476,396.2z"/>
	<path class="st8" d="M410.5,369c0,0-5.4,0.7-16.4-10C394.2,359,397.5,372.1,410.5,369z"/>
	<path class="st8" d="M497.7,399.4c0.6-1.5-2.6-2.7-4.6-3.3c2.6-11.8-4-24.3-16.2-29.1c-10.4-4.2-22.3-1.3-29.6,7.3
		c-5.3-6-13.2-9.1-21.2-8.4c0.6-11.2-6.2-21.5-16.7-25.5c-12.1-4.8-25.5-0.2-31.7,10.2c-1.8-0.9-5.1-2.4-5.8-0.8s2.4,2.9,4.3,3.6
		c-0.1,0.2-0.2,0.4-0.2,0.5c-5,12.8,1.7,27.4,15,32.7s28.3-0.8,33.3-13.6c0.6-1.5,1-3,1.3-4.5c2.2-0.3,4.4-0.2,6.6,0.2
		c5.2,0.9,10,3.7,13.4,7.7c-0.9,1.3-1.6,2.7-2.2,4.2c-5,12.8,1.7,27.4,15.1,32.6s28.3-0.8,33.3-13.6c0.1-0.2,0.1-0.4,0.2-0.6
		C494.1,399.9,497.1,400.8,497.7,399.4z M392.2,384.3c-12-4.7-18.1-17.9-13.6-29.3s17.9-16.9,29.9-12.1s18.1,17.9,13.6,29.3
		S404.2,389,392.2,384.3z M459.6,410.9c-12-4.7-18.1-17.9-13.6-29.3s18-16.9,30-12.1s18.1,17.9,13.6,29.3S471.6,415.6,459.6,410.9
		L459.6,410.9z"/>
	<g class="st10">
		<path class="st11" d="M423.5,223.5c3.1,0,6,0.2,8.5,0.7c2.5,0.4,4.6,1,6.2,1.7s3,1.6,4.1,2.5c1.1,1,1.9,2,2.3,3
			c0.5,1,0.7,2.1,0.7,3.1l-11.7,1.8c0-0.1,0-0.2-0.1-0.4s-0.3-0.5-0.7-0.9c-0.4-0.4-0.9-0.8-1.5-1.1s-1.5-0.6-2.7-0.9
			c-1.2-0.3-2.6-0.4-4.2-0.4s-2.9,0.1-4.1,0.4c-1.2,0.3-2.1,0.6-2.7,0.9c-0.6,0.4-1.1,0.8-1.5,1.4c-0.4,0.6-0.6,1.1-0.7,1.5
			c-0.1,0.5-0.1,1-0.1,1.6c0,0.5,0,0.9,0.1,1.3c0.1,0.4,0.2,0.8,0.4,1.3c0.2,0.5,0.5,0.9,0.9,1.3c0.4,0.4,1,0.7,1.6,1
			s1.5,0.6,2.5,0.7c1,0.2,2.2,0.3,3.5,0.3c1.2,0,2.3-0.1,3.3-0.2c1-0.1,1.8-0.3,2.4-0.5s1.2-0.5,1.6-0.7c0.5-0.3,0.9-0.5,1.1-0.8
			s0.4-0.5,0.6-0.7c0.1-0.2,0.2-0.4,0.3-0.5v-0.2l11.6,1.6c0,1.1-0.2,2.2-0.6,3.2s-1.1,2-2.2,3c-1,1-2.4,1.8-3.9,2.5
			c-1.6,0.7-3.6,1.3-6.1,1.7s-5.3,0.6-8.5,0.6c-3.1,0-5.8-0.3-8.2-0.8c-2.4-0.5-4.3-1.2-5.9-2c-1.5-0.9-2.8-1.9-3.8-3.2
			s-1.7-2.6-2.1-4s-0.6-3-0.6-4.7c0-4.7,1.6-8.3,4.9-10.9C411.5,224.8,416.6,223.5,423.5,223.5z"/>
	</g>
	<g class="st10">
		<path class="st11" d="M475.7,223.7c4.7,0,8.6,1,11.5,2.9c0.2,0.1,0.4,0.2,0.4,0.3l-4.4,8.9c-0.3-0.2-0.7-0.4-1.3-0.6
			c-0.6-0.3-1.6-0.6-3.2-1s-3-0.7-4.4-0.8c-1.2-0.1-2.4,0-3.5,0.2s-2,0.4-2.6,0.6c-0.6,0.2-1.3,0.6-2.1,1.2
			c-0.8,0.5-1.3,0.9-1.5,1.1c-0.2,0.2-0.6,0.6-1.2,1.1v15.2h-11.6v-29h0.9h10.8v4C465.6,225.1,469.7,223.7,475.7,223.7z"/>
	</g>
	<g class="st10">
		<path class="st11" d="M512.2,223c3.4,0,6.4,0.3,8.9,0.9s4.7,1.6,6.6,3c1.9,1.4,3.2,3.2,4.1,5.6c0.9,2.3,1.2,5.2,0.9,8.5H503
			c0.2,0.9,1,1.6,2.5,2.2c1.5,0.6,3.7,0.8,6.6,0.8c2.6,0,5.1-0.2,7.7-0.5c2.6-0.3,4.5-0.7,5.8-1l1.9-0.5l5,8.1
			c-0.1,0.1-0.3,0.2-0.6,0.3s-0.9,0.3-2,0.6s-2.3,0.6-3.7,0.8s-3.3,0.4-5.7,0.6c-2.4,0.2-5.1,0.3-8,0.3c-3.4,0-6.4-0.2-8.9-0.7
			s-4.6-1.1-6.2-2c-1.6-0.8-2.9-1.9-3.8-3.1s-1.6-2.6-2-4s-0.5-3.1-0.5-5c0-4.7,1.8-8.3,5.3-10.9S505.2,223,512.2,223z M512.3,232
			c-1.8,0-3.4,0.1-4.7,0.4s-2.3,0.6-2.8,1c-0.6,0.4-1,0.8-1.3,1.2s-0.4,0.8-0.4,1.2H521c0-1.1-0.7-2-2-2.8
			C517.6,232.3,515.4,232,512.3,232z"/>
	</g>
	<g class="st10">
		<path class="st11" d="M580.6,252.7h-11.5c0-0.8,0-1.7,0-2.6c-3.5,2.1-7.6,3.1-12.3,3.1c-1.4,0-2.5,0-3.5,0c-0.9,0-2.1-0.1-3.5-0.3
			c-1.4-0.1-2.6-0.3-3.5-0.5c-1-0.2-2-0.6-3.1-1c-1.1-0.5-1.9-1-2.6-1.7c-0.7-0.6-1.2-1.5-1.6-2.5c-0.4-1-0.6-2.1-0.6-3.4
			c0-1.6,0.5-2.9,1.5-4.1c1-1.2,2.4-2.1,4.2-2.7c1.8-0.7,3.7-1.2,5.8-1.5s4.4-0.5,6.8-0.5c4.1,0,7.9,0.6,11.2,1.9
			c-0.7-2-1.8-3.3-3.4-3.9c-1.6-0.6-4.1-0.9-7.5-0.9c-2.8,0-5.5,0.2-8.1,0.6c-2.6,0.4-4.2,0.7-4.9,0.9s-1.3,0.4-1.8,0.6l-2.6-7.9
			c5.7-2.1,11.7-3.2,18.1-3.2c1.4,0,2.8,0,4.1,0.1s2.9,0.3,4.8,0.6c1.8,0.3,3.5,0.7,4.9,1.3c1.4,0.5,2.8,1.3,4.1,2.3
			s2.3,2.2,2.8,3.5c1,2.2,1.6,5,1.9,8.3C580.5,242.6,580.6,247.1,580.6,252.7z M558.1,245.9c2.4,0,4.7-0.3,6.7-0.8s3.2-1,3.5-1.4
			c0-0.3,0-0.5,0-0.5c-0.9-0.9-4.1-1.3-9.6-1.3c-2.8,0-4.8,0.2-5.9,0.5c-1.2,0.3-1.8,0.8-1.8,1.5C551,245.2,553.4,245.9,558.1,245.9
			z"/>
	</g>
	<g class="st10">
		<path class="st11" d="M607,243.2c0.8,0,1.7-0.1,2.7-0.2c1-0.1,1.8-0.3,2.6-0.4c0.8-0.2,1.5-0.3,2.1-0.5c0.7-0.2,1.2-0.3,1.6-0.5
			c0.4-0.1,0.6-0.2,0.5-0.2l4.1,9c-0.5,0.2-1.2,0.4-2.2,0.7s-3,0.6-6.2,1c-3.2,0.5-6.5,0.7-9.9,0.7c-1.6,0-3-0.1-4-0.2
			c-1-0.1-2-0.4-2.9-0.8c-0.9-0.4-1.5-0.9-2-1.5s-0.9-1.5-1.2-2.7s-0.6-2.5-0.7-4s-0.2-3.3-0.2-5.6v-5.8h-5.8v-8.7h5.8v-6.1H603v6.1
			h14.1v8.7H603v5.8c0,0.1,0,0.2,0,0.3s0,0.4,0,0.7s0.1,0.7,0.2,1c0.1,0.3,0.2,0.7,0.4,1.1c0.2,0.4,0.4,0.7,0.7,1s0.7,0.5,1.1,0.7
			C606,243.1,606.5,243.2,607,243.2z"/>
	</g>
	<g class="st10">
		<path class="st12" d="M626.9,215.8h11.6v5.6h-11.6V215.8z M626.9,223.7h11.6v29h-11.6V223.7z"/>
	</g>
	<g class="st10">
		<path class="st12" d="M677.1,223.7H690l-15,29h-15.3l-14.9-29h13l9.5,18.8L677.1,223.7z"/>
	</g>
	<g class="st10">
		<path class="st12" d="M696.9,215.8h11.7v5.6h-11.7V215.8z M696.9,223.7h11.7v29h-11.7V223.7z"/>
	</g>
	<g class="st10">
		<path class="st12" d="M737.8,243.2c0.8,0,1.7-0.1,2.7-0.2c1-0.1,1.8-0.3,2.6-0.4s1.5-0.3,2.1-0.5c0.7-0.2,1.2-0.3,1.6-0.5
			c0.4-0.1,0.6-0.2,0.5-0.2l4.2,9c-0.5,0.2-1.2,0.4-2.2,0.7s-3,0.6-6.2,1c-3.2,0.5-6.5,0.7-9.9,0.7c-1.6,0-3-0.1-4-0.2
			c-1-0.1-2-0.4-2.9-0.8c-0.9-0.4-1.5-0.9-2-1.5s-0.9-1.5-1.2-2.7s-0.5-2.5-0.7-4c-0.1-1.5-0.1-3.3-0.1-5.6v-5.8h-5.8v-8.7h5.8v-6.1
			h11.6v6.1H748v8.7h-14.2v5.8c0,0.1,0,0.2,0,0.3s0,0.4,0,0.7s0.1,0.7,0.2,1c0.1,0.3,0.2,0.7,0.4,1.1c0.2,0.4,0.4,0.7,0.7,1
			s0.7,0.5,1.1,0.7C736.8,243.1,737.3,243.2,737.8,243.2z"/>
	</g>
	<g class="st10">
		<path class="st12" d="M771.1,251.8L755.4,224h13.5l8.9,16.2l8.3-16.2H800l-20.8,38.6h-13.8L771.1,251.8z"/>
	</g>
	<path class="st5" d="M178.4,235.1L153,246c-1.6,0.7-2,2.8-0.7,3.9l4.1,3.9c1,0.9,1,2.4,0.1,3.4l-23.1,24.7c-1,1.1-0.8,2.8,0.4,3.6
		l4.2,3c1,0.7,2.4,0.6,3.2-0.4l21.9-24.5c0.9-1,2.5-1.1,3.4-0.1l5.7,5.4c1.4,1.3,3.7,0.6,4-1.3l5.4-29.9
		C182.1,235.9,180.2,234.3,178.4,235.1z"/>
	<path class="st2" d="M1029.5,642.4l-308.1-4.1c-11.4-0.2-20.6-9.2-20.9-20.6l-4.7-176c-0.3-11.7,8.9-21.4,20.6-21.7
		c0.2,0,0.3,0,0.5,0h317.5c11.7,0,21.2,9.5,21.2,21.2c0,0.2,0,0.4,0,0.5l-4.8,180C1050.7,633.3,1041.1,642.5,1029.5,642.4z"/>
	<path class="st1" d="M884.8,468.1h30.6c5,0,9,4,9,9v30.6c0,5-4,9-9,9h-30.6c-5,0-9-4-9-9v-30.6
		C875.8,472.1,879.8,468.1,884.8,468.1z"/>
	<path class="st1" d="M942.6,468.1h30.6c5,0,9,4,9,9v30.6c0,5-4,9-9,9h-30.6c-5,0-9-4-9-9v-30.6
		C933.6,472.1,937.6,468.1,942.6,468.1z"/>
	<path class="st1" d="M1000.8,468.1h30.6c5,0,9,4,9,9v30.6c0,5-4,9-9,9h-30.6c-5,0-9-4-9-9v-30.6
		C991.8,472.1,995.8,468.1,1000.8,468.1z"/>
	<rect x="710.5" y="459.9" class="st5" width="112.3" height="112.3"/>
	<rect x="914.5" y="548.2" class="st1" width="125.9" height="9"/>
	<rect x="914.5" y="563.2" class="st1" width="125.9" height="9"/>
	<rect x="914.5" y="578.2" class="st1" width="125.9" height="9"/>
	<rect x="914.5" y="593.1" class="st1" width="125.9" height="9"/>
	<path class="st13" d="M716.8,420h318.4c11.3,0,20.5,9.2,20.5,20.5l0,0v12.3l0,0H695.9l0,0V441C695.9,429.4,705.2,420,716.8,420z"/>
	<path class="st1" d="M926.3,432.6h111.3c1.5,0,2.6,1.2,2.6,2.6l0,0c0,1.5-1.2,2.6-2.6,2.6H926.3c-1.5,0-2.6-1.2-2.6-2.6l0,0
		C923.6,433.8,924.8,432.6,926.3,432.6z"/>
	<circle class="st1" cx="742.6" cy="518.8" r="16.7"/>
	<circle class="st1" cx="845.1" cy="455.3" r="14.2"/>
	<circle class="st14" cx="743" cy="517.4" r="32"/>
	<circle class="st14" cx="845.1" cy="455.3" r="27.2"/>
	<path class="st1" d="M726.9,582.7h157.4c8.8,0,15.9,7.1,15.9,15.9v12.9c0,8.8-7.1,15.9-15.9,15.9H726.9c-8.8,0-15.9-7.1-15.9-15.9
		v-12.9C711,589.8,718.1,582.7,726.9,582.7z"/>
	
		<ellipse transform="matrix(0.1602 -0.9871 0.9871 0.1602 19.9715 422.8737)" class="st15" cx="258.5" cy="199.7" rx="7.8" ry="7.8"/>
	<circle class="st16" cx="590.5" cy="706.1" r="16.2"/>
	<path class="st5" d="M332.1,25.6H465c10,0,18.2,8.1,18.2,18.2v83.6c0,11.4-9.3,20.7-20.7,20.7H339.7c-15,0-27.2-12.2-27.2-27.2
		V45.2C312.5,34.4,321.3,25.6,332.1,25.6z"/>
	<path class="st17" d="M341.6,39h111.6c1.3,0,2.3,1,2.3,2.3V107c0,1.3-1,2.3-2.3,2.3H341.6c-1.3,0-2.3-1-2.3-2.3V41.3
		C339.3,40.1,340.4,39,341.6,39z"/>
	<path class="st2" d="M341.6,125.6h111.6c1.3,0,2.3,1,2.3,2.3v2.5c0,1.3-1,2.3-2.3,2.3H341.6c-1.3,0-2.3-1-2.3-2.3v-2.5
		C339.3,126.6,340.4,125.6,341.6,125.6z"/>
	<path class="st17" d="M341.6,125.6h47.6c1.3,0,2.3,1,2.3,2.3v2.5c0,1.3-1,2.3-2.3,2.3h-47.6c-1.3,0-2.3-1-2.3-2.3v-2.5
		C339.3,126.6,340.4,125.6,341.6,125.6z"/>
	<path class="st5" d="M386,60.5v28.1c0,1.3,1,2.3,2.3,2.3c0.4,0,0.9-0.1,1.2-0.4l22.6-14.4c1.1-0.7,1.4-2.1,0.7-3.2
		c-0.2-0.3-0.4-0.6-0.7-0.7l-22.7-13.7c-1.1-0.6-2.5-0.3-3.1,0.8C386.1,59.7,386,60.1,386,60.5z"/>
	
		<rect x="83.1" y="370.1" transform="matrix(0.7071 -0.7071 0.7071 0.7071 -243.8846 182.862)" class="st2" width="31.4" height="31.4"/>
	
		<rect x="582" y="69.3" transform="matrix(0.7071 -0.7071 0.7071 0.7071 114.9645 447.525)" class="st5" width="31.4" height="31.4"/>
	<circle class="st2" cx="984.9" cy="289.8" r="27.9"/>
	<circle class="st18" cx="984.9" cy="289.8" r="53.9"/>
	<path class="st19" d="M738.7,35.4h167.1c10.8,0,19.6,8.8,19.6,19.6v121.2c0,10.8-8.8,19.6-19.6,19.6H738.7
		c-10.8,0-19.6-8.8-19.6-19.6V55C719,44.2,727.8,35.4,738.7,35.4z"/>
	<path class="st13" d="M738,35.4h168.4c10.5,0,19,8.5,19,19l0,0v3.2l0,0H719l0,0v-3.3C719,43.9,727.5,35.4,738,35.4z"/>
	<path class="st20" d="M747.7,75.1h82.9c3.9,0,7,3.1,7,7v57.6c0,3.9-3.1,7-7,7h-82.9c-3.9,0-7-3.1-7-7V82.1
		C740.7,78.2,743.9,75.1,747.7,75.1z"/>
	<path class="st20" d="M735.5,67.1h11.7c1.2,0,2.2,1,2.2,2.2V81c0,1.2-1,2.2-2.2,2.2h-11.7c-1.2,0-2.2-1-2.2-2.2V69.3
		C733.3,68.1,734.3,67.1,735.5,67.1z"/>
	<path class="st20" d="M831.8,67.1h11.7c1.2,0,2.2,1,2.2,2.2V81c0,1.2-1,2.2-2.2,2.2h-11.7c-1.2,0-2.2-1-2.2-2.2V69.3
		C829.7,68.1,830.6,67.1,831.8,67.1z"/>
	<path class="st21" d="M740.7,116.3l33.5-31l31.5,34.6l12.4-12.4l19.6,15.4v16.6c0,4-3.2,7.2-7.2,7.2l0,0h-82.6
		c-4,0-7.2-3.2-7.2-7.2l0,0V116.3z"/>
	<circle class="st5" cx="808.8" cy="94.2" r="8.8"/>
	<polygon class="st20" points="872.2,80.2 887.3,80.2 900.1,94.2 900.1,110.9 872.2,110.9 	"/>
	<polygon class="st2" points="901.5,75.1 908.8,78.6 893.4,96.1 885.2,98.9 885.2,91.3 	"/>
	<rect x="737.1" y="164.2" class="st15" width="29.3" height="16.5"/>
	<rect x="772.7" y="164.2" class="st15" width="29.3" height="16.5"/>
	<rect x="806.7" y="164.2" class="st15" width="29.3" height="16.5"/>
	<rect x="863.5" y="121" class="st2" width="45.4" height="7.7"/>
	<rect x="863.5" y="136.4" class="st2" width="45.4" height="7.7"/>
	<rect x="863.5" y="151.8" class="st2" width="45.4" height="7.7"/>
	<path class="st20" d="M735.4,136.4h11.7c1.2,0,2.2,1,2.2,2.2v11.7c0,1.2-1,2.2-2.2,2.2h-11.7c-1.2,0-2.2-1-2.2-2.2v-11.7
		C733.3,137.4,734.2,136.4,735.4,136.4z"/>
	<path class="st20" d="M831.8,138.8h11.7c1.2,0,2.2,1,2.2,2.2v11.7c0,1.2-1,2.2-2.2,2.2h-11.7c-1.2,0-2.2-1-2.2-2.2V141
		C829.7,139.8,830.6,138.8,831.8,138.8z"/>
	<circle class="st15" cx="900.8" cy="46.2" r="4.1"/>
	<circle class="st2" cx="887.2" cy="46.2" r="4.1"/>
	<circle class="st5" cx="873.8" cy="46.2" r="4.1"/>
	<circle class="st20" cx="131.9" cy="118.6" r="70.3"/>
	<circle class="st20" cx="131.9" cy="118.6" r="48.3"/>
	<circle class="st5" cx="152.4" cy="98.5" r="8.6"/>
	
		<rect x="128.6" y="107.1" transform="matrix(0.7071 -0.7071 0.7071 0.7071 -37.6229 131.2929)" class="st5" width="22.2" height="7.9"/>
	<path class="st5" d="M134.1,101.2l15.4,15.4c1.1,1.1,1.1,2.8,0,3.9l-0.4,0.4c-1.1,1.1-2.8,1.1-3.9,0l-15.4-15.4
		c-1.1-1.1-1.1-2.8,0-3.9l0.4-0.4C131.3,100.2,133.1,100.2,134.1,101.2z"/>
	<path class="st5" d="M133.2,106l10.6,10.6l0,0l-25.1,25.1c-2.6,2.6-6.9,2.6-9.5,0l0,0l-1.1-1.1c-2.6-2.6-2.6-6.9,0-9.5l0,0
		L133.2,106L133.2,106z"/>
	<path class="st5" d="M110.8,138.7l0.5,0.5c1.1,1.1,1.1,2.8,0,3.9l-3.3,3.3c-1.1,1.1-2.8,1.1-3.9,0l-0.5-0.5c-1.1-1.1-1.1-2.8,0-3.9
		l3.3-3.3C108,137.7,109.8,137.7,110.8,138.7z"/>
	<path class="st13" d="M673.6,350.9h34.8c7,0,12.8,5.7,12.8,12.8v20.5c0,7-5.7,12.8-12.8,12.8h-34.8c-7,0-12.8-5.7-12.8-12.8v-20.5
		C660.8,356.6,666.5,350.9,673.6,350.9z"/>
	
		<rect x="686.7" y="356.2" transform="matrix(0.7071 -0.7071 0.7071 0.7071 -62.0583 598.8854)" class="st1" width="10.4" height="36.3"/>
	
		<rect x="673.7" y="369.1" transform="matrix(0.7071 -0.7071 0.7071 0.7071 -62.0044 598.8644)" class="st1" width="36.3" height="10.4"/>
	<path class="st22" d="M675.4,353h31.1c7,0,12.8,5.7,12.8,12.8V382c0,7-5.7,12.8-12.8,12.8h-31.1c-7,0-12.8-5.7-12.8-12.8v-16.3
		C662.7,358.7,668.4,353,675.4,353z"/>
	<path class="st23" d="M719.3,674.6v42.8h-14.2v-3.8c-3.1,2.2-8.2,4.1-16.4,4.1c-10.7,0-22.9-1.9-22.9-18.3
		c0-11.9,10.8-17.3,22.6-17.3c5.8-0.1,11.5,1.2,16.7,3.7v-11.2H719.3z M705.1,697.6c-1.9-5.3-11.8-5.3-14.5-5.3s-9.7-0.3-9.7,7.3
		c0,6.4,5.9,7.3,10.6,7.3c7.4,0,11.2-0.7,13.6-4.5L705.1,697.6L705.1,697.6z"/>
	<path class="st23" d="M779.1,703h-36.3c0.4,2,3.4,3.7,11.1,3.7c6.3,0,12.6-0.8,18.8-2.4l6.1,9.9c0,0-5.5,3.2-24.4,3.2
		c-21.2,0-26.1-7.3-26.1-18.1c0-11.2,8.3-18.1,25.8-18.1C770.1,681.1,780.3,686.4,779.1,703z M742.8,696.8h21.9
		c0-2.3-2.3-4.7-10.6-4.7C744.6,692,742.8,695,742.8,696.8L742.8,696.8z"/>
	<path class="st23" d="M835.3,706.5c0,9.3-3.6,12.1-24.8,12.1c-10,0-19.2-0.5-21.9-3.1l3.9-10.1c2.1,1.4,11.6,2.3,18.5,2.3
		c8.1,0,11,0.2,11-1s-2.8-2-11.9-2c-15.1,0-22.8-1.9-22.8-11.3c0-10.7,7.6-11.8,24-11.8c15.6,0,19.3,1.4,23.3,3.5l-4.4,9.7
		c-3.8-1.5-12.5-2.6-19.8-2.6s-9.4-0.1-9.4,1.2c0,1,1.8,1.8,9.3,1.8C830.3,695.3,835.3,697.2,835.3,706.5z"/>
	<path class="st23" d="M858.6,672.3v6.9h-14.2v-6.9H858.6z M858.6,681.9v35.4h-14.2v-35.4H858.6z"/>
	<path class="st23" d="M921.8,682.5v30c0,14-7.7,20.6-26.8,20.6s-26.2-3.8-26.2-3.8l4.7-11c0,0,4.9,4.2,18.5,4.2
		c16.6,0,15.6-9.5,15.6-9.5v-1.5c-1.4,3.5-8.8,6.3-16.7,6.3c-11.8,0-22.6-3.5-22.6-16.1c0-17.4,12.2-19.4,22.9-19.4
		c8.3,0,13.3,2,16.4,4.3v-4L921.8,682.5z M907.6,701.1v-2.7c0-3.9-7.3-5.5-14.7-5.5c-4.6,0-10.3,1-10.3,7c0,7.1,8.5,7.2,10.5,7.2
		S906.1,707.1,907.6,701.1L907.6,701.1z"/>
	<path class="st23" d="M979.9,714.5v2.8h-14.2v-11.7c0-5.3,0.3-13.1-9.4-13.1c-5.7,0-8.4,2-10.6,4.3v20.5h-14.3v-35.4h14.3v4.9
		c3.9-2.8,7.3-5.2,15.4-5.2c6.6,0,13.9,0.8,16.8,7.5C979.9,694,979.9,701.3,979.9,714.5z"/>
	<path class="st5" d="M52.1,472.2h119.2c10.2,0,18.5,8.3,18.5,18.5V560c0,10.2-8.3,18.5-18.5,18.5H52.1c-10.2,0-18.5-8.3-18.5-18.5
		v-69.3C33.7,480.5,41.9,472.2,52.1,472.2z"/>
	<polyline class="st24" points="83.5,502.3 56.5,525.9 83.5,548.4 	"/>
	<polyline class="st24" points="139.9,548.4 166.9,524.9 139.9,502.3 	"/>
	<line class="st24" x1="123.8" y1="499" x2="100.9" y2="551.8"/>
</g>
<g class="st0">
	<g class="st25">
		<path class="st26" d="M729.7,97c-84.2-4.4-168.4-8.9-252.6-6.6c-68.7,0-137.4-4.4-206.1-4.4c-13.3,0-22.2,11.1-22.2,22.2v113
			c0,13.3,11.1,22.2,22.2,22.2h618.2c13.3,0,22.2-11.1,22.2-22.2V119.2c0-11.1-8.9-22.2-22.2-22.2C840.5,90.4,774,99.2,729.7,97z"/>
	</g>
	<g class="st25">
		<path class="st27" d="M397.4,88.1c-42.1-2.2-86.4-2.2-128.5-4.4c-13.3,0-22.2,11.1-22.2,22.2v113c0,13.3,11.1,22.2,22.2,22.2
			h128.5V88.1z"/>
	</g>
	<g class="st25">
		<path class="st11" d="M353.1,200c-1.4,0-2.8-0.5-3.9-1.6L335,184.3c-12.8,9.4-29.4,8.2-41.3-3.6c-13.2-13.2-13.2-32.3,0-45.5
			c13.7-11,34.7-10.8,45.5,0l0,0l0,0l0,0c6.4,6.4,9.9,14.5,9.9,22.8c0,6.5-2.2,13-6.3,18.5l14.1,14.1c2.2,2.2,2.2,5.7,0,7.8
			C355.9,199.5,354.5,200,353.1,200z M317.4,138c-5.7,0-11.8,1.8-16.2,5.4c-8.5,8.5-8.5,20.5,0.5,29.4c8.9,8.9,20.9,8.9,29.8,0
			c4.4-4.4,6.7-9.5,6.7-14.9s-2.3-10.5-6.7-14.9l0,0C328.1,139.7,322.9,138,317.4,138z M800.6,169H510.4c-3.1,0-5.5-2.5-5.5-5.5
			s2.5-5.5,5.5-5.5h290.2c3.1,0,5.5,2.5,5.5,5.5S803.7,169,800.6,169z"/>
	</g>
</g>
<g>
	<defs>
		<rect id="SVGID_1_" width="1146" height="1417.2"/>
	</defs>
	<clipPath id="SVGID_00000163037839471938064190000009650688699473879168_">
		<use xlink:href="#SVGID_1_"  style="overflow:visible;"/>
	</clipPath>
	<g style="clip-path:url(#SVGID_00000163037839471938064190000009650688699473879168_);">
		<g>
			<path class="st29" d="M267.9,247.8c1.2,5.4-1.6,10.8-7,12.1c-5.4,1.2-10.8-1.6-12.1-7L267.9,247.8z"/>
		</g>
		<g>
			<path class="st30" d="M159.7,175.4c-0.5-2.3-1.8-4.4-2.5-7.5c-10.5-39.6,13.9-81.3,53.3-92.6C251.4,63.7,294,88,304.8,129
				l1.6,6.9c6.6,36.4-18.5,71.8-55.1,80.9l-3.8,0.9C211.9,228,172.5,210.4,159.7,175.4z"/>
		</g>
		<g>
			<path class="st27" d="M266.6,248.8c9.2-2.1,14.4-11.3,12.3-20.5c-1-4.6-4.1-11.1-8.1-18.3c-5.8,2.9-12.4,6-18.5,7.4l-4.6,1
				c-6.9,1.6-13,2.9-20.3,3c0.2,8,1.1,15.9,2.2,20.5c2.8,9.1,12.1,14.2,21.1,11.4L266.6,248.8z"/>
		</g>
		<g>
			<path class="st11" d="M252.9,240.1c-8.3,1.9-16.9,2.8-26,2.7c-1.1,0-2-0.9-1.9-2c0-1.1,0.9-2,2-1.9c20.4,0.1,38.5-4.8,55.2-14.8
				c0.9-0.5,2.2-0.3,2.7,0.6c0.5,0.9,0.3,2.2-0.6,2.7C274.2,233.4,263.9,237.6,252.9,240.1z M249.8,230.3c-8.3,1.9-16.9,2.8-26,2.7
				c-1.1,0-2-0.9-1.9-2c0-1.1,0.9-2,2-1.9c20.4,0.1,38.5-4.8,55.2-14.8c0.9-0.5,2.2-0.3,2.7,0.6s0.3,2.2-0.6,2.7
				C271.2,223.6,260.8,227.8,249.8,230.3z M237.5,181.4c-1.4,0.3-2.8,0.4-4.4,0.4c-6.7-0.2-12.8-3-17.6-8.3
				c-1.7-1.4-3.3-3.1-4.7-4.7c-0.5,0.4-0.9,0.9-1.5,1.3c-4.8,4.4-13.1,6-20.3,3.7c-1.1-0.3-1.7-1.4-1.3-2.5c0.3-1.1,1.4-1.7,2.5-1.3
				c5.9,1.8,12.8,0.6,16.7-3c0.6-0.5,1.1-1,1.6-1.6c-2.3-3.4-4.2-7.3-5.7-11.8c-0.8-3.5-1.9-8.6,2.4-10.8c3.1-1.9,5.9-0.7,7.7,0.4
				c2.6,1.6,3.1,3.8,3.6,6.2c1.3,5.6,0.1,11.3-3,15.9c1.4,1.8,3.1,3.5,4.9,5c4.3,4.7,9.3,7.1,15,7.1c9,0.2,15.6-8.6,16.4-16.8
				c1-10.7-5.9-19.8-10.1-24.2c-2.1-2-4.1-4-6.4-6.8c-1.8-2.8-2.7-7.3-1.5-10.6c1.7-3.7,5.4-5.8,10.6-5.6c4.2,1,7.8,3.8,9.6,7.3
				c1.4,2.7,3.2,6.6,3.9,10c0.6,2.8,1.5,5.5,2.2,8c0.8,2.5,1.4,4.9,1.9,7.1c0.4,1.7,1.4,4.7,3.6,5.5c1.6,0.6,3.6-1.2,5.2-2.7
				c3.1-3.9,4.4-8.6,3.5-12.8c-0.2-1.1,0.4-2.1,1.5-2.3s2.1,0.4,2.3,1.5c1.2,5.3-0.4,11.2-4.4,16.3c-1.4,1.4-5.2,5.5-9.6,3.8
				c-2.9-1.1-5-4-6-8.3c-0.5-2.1-1.2-4.5-1.9-6.9c-0.8-2.7-1.7-5.4-2.3-8.3c-0.7-3-2.4-6.6-3.6-9.2c-1.2-2.5-3.8-4.6-6.5-5.2
				c-2,0-5.2,0.5-6.4,3.2c-0.7,1.8-0.1,5,1,6.8c2,2.3,3.9,4.3,6,6.1c4.8,5,12.6,15.2,11.3,27.5C252.6,170.3,246.7,179.3,237.5,181.4
				z M208.1,146.1c-0.3,0.1-0.6,0.2-1,0.5c-1.5,0.8-1.2,3.2-0.5,6.2c1.1,3.4,2.6,6.6,4.3,9.4c1.9-3.4,2.6-7.5,1.6-11.5
				c-0.5-2.3-0.7-3.1-1.9-3.8C209.6,146.1,208.9,145.9,208.1,146.1z"/>
		</g>
	</g>
	<g style="clip-path:url(#SVGID_00000163037839471938064190000009650688699473879168_);">
		<g>
			<path class="st11" d="M303.5,941.4c-27.7-1.5-27.7,136.5,0,142.5c93,20.2,502.5,5.2,614.9,0c27.7-1.5,27.7-143.2,0-142.5
				C805.9,945.9,396.5,945.9,303.5,941.4z"/>
		</g>
		<g>
			<path class="st27" d="M812.7,943.6c44.2-0.7,81-1.5,105-2.2c27.7-0.7,27.7,141,0,142.5c-24,0.7-60.7,2.2-105,3.7
				C805.2,1038.9,805.2,990.9,812.7,943.6z"/>
		</g>
		<g>
			<path class="st29" d="M513.3,1096c-94,0-175.1-2.7-210.2-10.3c-20.3-4.4-25.7-67.2-20.3-106.9c3.5-25.9,10.7-39.8,20.8-39.3
				c93.6,4.5,501.5,4.5,614.8,0c0.1,0,0.2,0,0.3,0c14.6,0,21.1,31.6,22.3,61.3c1.3,32.3-3.6,83.9-22.4,84.9
				C833.1,1089.7,657.9,1096,513.3,1096z M303,943.2c-7.4,0-13.6,13.4-16.6,36.1c-5.7,42.4,1.4,99.2,17.4,102.7
				c88.9,19.3,473.7,6.5,614.5,0c13.2-0.7,20.4-42.5,18.8-81c-1.4-34.1-9-57.7-18.5-57.7c-0.1,0-0.1,0-0.2,0
				c-113.3,4.5-521.4,4.5-615.1,0C303.3,943.3,303.2,943.2,303,943.2z"/>
		</g>
		<g>
			<path class="st11" d="M849.4,1036.2c-0.5,0-1-0.2-1.3-0.5c-0.7-0.7-0.7-1.9,0-2.7l11.5-11.5c-7.6-8.9-7.2-22,1.3-30.5l0,0
				c8.2-8.2,22.8-8.3,31.8-0.1c9,9,9,23,0.1,32c-8.5,8.5-21.6,8.9-30.5,1.3l-11.5,11.5C850.4,1036.1,849.9,1036.2,849.4,1036.2z
				 M863.5,1020.3c7.6,7.6,19,7.6,26.6,0c7.5-7.5,7.5-19.1,0-26.6c-7.4-6.7-19.9-6.7-26.6,0C856,1001.2,856,1012.8,863.5,1020.3z"/>
		</g>
		<g>
			<path class="st29" d="M658.9,711.2c0,31.5-25.5,57.7-57.7,57.7c-31.5,0-57.7-25.5-57.7-57.7c0-31.5,25.5-57.7,57.7-57.7
				S658.9,679.7,658.9,711.2z"/>
		</g>
		<g>
			<path class="st29" d="M555.5,501.9c0,0,67.5-15.7,80.2,54.7c13.5,70.5-60,106.5-24.7,154.5c35.2,48-18.7,162-93,78
				s-53.2-243.7-53.2-243.7L555.5,501.9z"/>
		</g>
		<g>
			<path class="st11" d="M964.9,891.9c6.7,3,4.5,15.7-42.7,21.7c-9,1.5-18.7,1.5-28.5,1.5c-26.2,0.7-51,10.5-69.7,27.7
				c-36,33-93,84.7-94.5,85.5l0,0c-26.2,24-67.5,19.5-87.7-9.7l-21.7-39.7l-8.2-15.7l-14.2-24l-120-207c19.5-30,12-39.7-6.7-69
				c-7.5-14.2-12-31.5-12-49.5c0-51.7,35.2-94.5,78.7-94.5s72.7,42.7,72.7,94.5c0,37.5-15,69.7-39.7,84.7
				c-17.2,10.5-16.5,9.7-13.5,30v0.7c1.5,10.5,9.7,18.7,20.2,21.7c30.7,8.2,30,6,45,12.7c29.2,13.5,78.7,199.5,78.7,199.5l66.7-51.7
				c7.5-5.2,13.5-12,17.2-20.2c9-17.2,28.5-47.2,52.5-50.2c26.2-3,49.5-19.5,59.2-27.7c3.7-3,9-2.2,11.2,1.5c3.7,6.7,3,18-22.5,33
				c0,0,30.7,12,78.7,3c6.7-1.5,12,7.5-1.5,13.5c3-0.7,6-0.7,9-1.5c6.7-1.5,11.2,6.7,0.7,12.7C978.4,877.6,979.9,885.9,964.9,891.9
				L964.9,891.9z"/>
			<path class="st29" d="M689.7,1045.7c-2.3,0-4.5-0.1-6.8-0.4c-17.3-2-32.9-11.3-42.8-25.6l-21.8-39.9L610,964l-14.2-23.9l-120-207
				c-0.4-0.6-0.3-1.4,0.1-2c18.2-28.1,12.4-37.2-5-64.3l-1.7-2.7c-8.1-15.3-12.3-32.7-12.3-50.5c0-53.1,36.2-96.4,80.6-96.4
				c42.5,0,74.6,41.4,74.6,96.4c0,38.1-15.6,71.1-40.7,86.3l-0.7,0.4c-14.8,9-14.8,9-12.3,25.2l0.4,3.6c1.3,9.1,8.7,17,18.9,19.9
				c11.7,3.1,18.8,4.7,24,5.9c8.4,1.9,11.8,2.7,21.2,6.9c28.1,13,72.6,174,79.1,198l64.5-50c7.6-5.3,13.2-11.9,16.7-19.5
				c7.5-14.4,27.7-48,54-51.3c27.9-3.2,51.6-21.7,58.3-27.3c2.3-1.9,5.3-2.6,8-2.1c2.6,0.5,4.7,1.9,6,4.1c4,7.2,3.6,18.7-19.6,33.4
				c9.6,2.8,36.6,8.7,73.9,1.7c3.9-0.8,7.7,1.1,8.8,4.5c0.7,2.2,0.3,5-2,7.7c0.2,0,0.4-0.1,0.6-0.1c4-0.9,7.6,0.8,8.9,4.2
				c1.1,2.8,0.4,6.8-4.2,10.3c1.7,1.4,2.6,3.4,2.7,5.5c0,2.6-1.3,7.3-10.1,11.6c0.9,1.2,1.3,2.7,1,4.2c-0.6,4-6.3,13.7-47.1,18.9
				c-9.1,1.5-19.1,1.5-28.7,1.5c-25.8,0.7-50.2,10.4-68.5,27.3c-18.1,16.6-88.1,80.5-94.5,85.5l0,0
				C719.4,1040.1,704.8,1045.7,689.7,1045.7z M479.7,732.2l119.4,206l14.2,24l8.3,15.8l21.7,39.7c9.2,13.3,23.8,22,40,23.9
				c16.3,1.8,32.6-3.5,44.8-14.6c0.1-0.1,0.3-0.2,0.4-0.3c2.4-1.7,56-50.3,94.1-85.2c19-17.4,44.2-27.5,71-28.2
				c9.6,0,19.4,0,28.2-1.5c33.5-4.3,43.4-11.9,44-15.8c0.2-1.4-1-2.1-1.7-2.4c-0.7-0.3-1.1-1-1.1-1.8c0-0.8,0.5-1.4,1.2-1.7
				c9.9-4,10.6-8.1,10.6-9.3c0-1.6-1.2-3-3.1-3.7c-0.7-0.3-1.1-0.9-1.2-1.6c-0.1-0.7,0.3-1.4,0.9-1.8c4.8-2.8,5.8-5.7,5.1-7.4
				c-0.6-1.5-2.5-2.3-4.5-1.9c-1.5,0.4-3.1,0.6-4.7,0.8c-1.4,0.2-2.8,0.4-4.3,0.7c-1,0.3-1.9-0.3-2.2-1.2c-0.3-0.9,0.1-1.9,1-2.3
				c6.3-2.8,7.8-6,7.2-7.9c-0.5-1.6-2.5-2.5-4.5-2c-48,9-78.6-2.6-79.8-3.1c-0.7-0.3-1.1-0.9-1.2-1.6c-0.1-0.7,0.3-1.4,0.9-1.8
				c19.1-11.2,26.6-21.8,21.8-30.5c-0.7-1.2-2-2-3.4-2.3c-1.8-0.3-3.5,0.2-5,1.4c-6.8,5.7-31.3,24.8-60.2,28.1
				c-24.5,3.1-43.8,35.5-51,49.2c-3.7,8.2-9.7,15.2-17.8,20.9l-66.7,51.7c-0.5,0.4-1.1,0.5-1.8,0.3c-0.6-0.2-1-0.7-1.2-1.3
				c-17-64-55.2-187.9-77.7-198.3c-9.1-4.1-12.2-4.8-20.5-6.7c-5.2-1.2-12.4-2.8-24.2-6c-11.6-3.3-20.1-12.5-21.6-23.3l0-1l-0.4-2.3
				c-2.7-18.1-2.3-18.9,14.1-28.9l0.7-0.4c24-14.5,38.8-46.4,38.8-83.1c0-52.8-30.5-92.6-70.9-92.6c-42.4,0-76.9,41.5-76.9,92.6
				c0,17.2,4.1,34,11.8,48.6l1.6,2.5C491.2,691.6,498.4,702.8,479.7,732.2z"/>
		</g>
		<g>
			<path class="st29" d="M631.2,936.9l-11.2,42l-9-15.7l-14.2-24L631.2,936.9z"/>
		</g>
		<g>
			<path class="st11" d="M886.2,847.6c0,0,1.5,23.2-28.5,23.2 M963.4,864.9c0,0-18.7,6-42,3 M973.9,876.1c0,0-18.7,6-42,3
				 M965.7,891.1c0,0-18.7,6-42,3"/>
			<path class="st29" d="M937.1,896.9c-4.3,0-8.9-0.2-13.6-0.9c-1-0.1-1.8-1.1-1.6-2.1c0.1-1,1.1-1.7,2.1-1.6
				c22.6,2.9,41-2.9,41.2-2.9c1-0.3,2,0.2,2.4,1.2c0.3,1-0.2,2-1.2,2.4C965.6,893.1,953.7,896.9,937.1,896.9z M945.3,881.9
				c-4.3,0-8.9-0.2-13.6-0.9c-1-0.1-1.8-1.1-1.6-2.1c0.1-1,1.1-1.7,2.1-1.6c22.6,2.9,41-2.9,41.2-2.9c1-0.3,2,0.2,2.4,1.2
				c0.3,1-0.2,2-1.2,2.4C973.9,878.1,961.9,881.9,945.3,881.9z M857.7,872.8c-1,0-1.9-0.8-1.9-1.9c0-1,0.8-1.9,1.9-1.9
				c9.6,0,16.8-2.4,21.3-7.3c5.7-6,5.3-13.9,5.3-14c-0.1-1,0.7-1.9,1.8-2c1.2,0,1.9,0.7,2,1.8c0,0.4,0.5,9.5-6.3,16.7
				C876.5,869.9,868.4,872.8,857.7,872.8z M934.8,870.6c-4.3,0-8.9-0.2-13.6-0.9c-1-0.1-1.8-1.1-1.6-2.1c0.1-1,1.1-1.7,2.1-1.6
				c22.6,2.9,41-2.9,41.2-2.9c1-0.3,2,0.2,2.4,1.2c0.3,1-0.2,2-1.2,2.4C963.4,866.9,951.4,870.6,934.8,870.6z"/>
		</g>
		<g>
			<path class="st29" d="M679.9,979.2c-0.6,0-1.2-0.3-1.6-0.9c-0.6-0.9-0.3-2,0.6-2.6l21-13.5c0.9-0.6,2-0.3,2.6,0.6
				c0.6,0.9,0.3,2-0.6,2.6l-21,13.5C680.6,979.2,680.3,979.2,679.9,979.2z"/>
		</g>
		<g>
			<path class="st11" d="M753.4,923.4c5.2,24,19.5,38.2,44.2,43.5 M578.7,1021.6c0.7-3.7,1.5-6.7,2.2-9c4.5-18.7,15.7-36,30.7-48.7
				c15-13.5,25.5-30.7,27.7-51c2.2-18-10.5-38.2-16.5-50.2c-3.7-6.7-9.7-19.5-8.2-30.7l-17.2-33.7l-177,97.5v-12.7l-10.5,102
				l-7.5,36h176.2V1021.6z"/>
			<path class="st29" d="M578.7,1023.5c-0.1,0-0.1,0-0.2,0c-0.5-0.1-1-0.3-1.3-0.7H402.5c-0.6,0-1.1-0.3-1.5-0.7
				c-0.4-0.4-0.5-1-0.4-1.6l7.5-36l10.5-101.8c0.1-1,0.9-1.6,2-1.7c1,0.1,1.8,0.9,1.8,1.9v9.6l174.2-96c0.4-0.2,1-0.3,1.5-0.2
				c0.5,0.2,0.9,0.5,1.1,0.9l17.2,33.7c0.2,0.3,0.2,0.7,0.2,1.1c-1.4,10.6,4.4,23.1,8,29.6c0.9,1.8,1.9,3.8,3,5.8
				c6.6,12.5,15.7,29.6,13.7,45.6c-2.2,19.4-12,37.4-28.4,52.2c-15.2,12.9-25.9,29.9-30.2,47.8c-0.8,2.3-1.5,5.3-2.2,8.9
				C580.4,1022.9,579.6,1023.5,578.7,1023.5z M404.8,1019h172.6c0.6-2.8,1.2-5.1,1.8-7c4.4-18.5,15.6-36.2,31.3-49.6
				c15.7-14.1,25.1-31.3,27.1-49.8c1.8-14.8-6.9-31.3-13.3-43.4c-1.1-2.1-2.1-4.1-3-5.8c-4.6-8.2-9.7-20.3-8.5-31.2l-16.1-31.5
				l-175.3,96.6c-0.2,0.1-0.3,0.2-0.5,0.2l-9,87.6L404.8,1019z M797.7,968.8c-0.1,0-0.3,0-0.4,0c-25.3-5.4-40.3-20.1-45.7-44.9
				c-0.2-1,0.4-2,1.4-2.2c1.1-0.2,2,0.4,2.2,1.4c5.1,23.3,19.1,37,42.8,42.1c1,0.2,1.7,1.2,1.4,2.2
				C799.3,968.2,798.6,968.8,797.7,968.8z"/>
		</g>
		<g>
			<path class="st29" d="M582.5,865.6c-33,14.2-108.7,91.5-179.2,154.5l7.5-62.2l159.7-112.5C570.5,845.4,582.5,865.6,582.5,865.6z"
				/>
		</g>
		<g>
			<path class="st29" d="M542.3,763.2c-8.7,0-19.1-1.2-31.5-4.5c-1-0.3-1.6-1.3-1.3-2.3c0.3-1,1.3-1.6,2.3-1.3
				c46.1,12.3,64-5.3,64.2-5.5c0.7-0.7,1.9-0.8,2.6,0c0.7,0.7,0.8,1.9,0.1,2.6C578,752.8,567.6,763.2,542.3,763.2z"/>
		</g>
		<g>
			<path class="st29" d="M512,613.7c2.2,2.2,4.5,23.2,1.5,31.5c0,2.2-6.7-2.2-8.2-3.7c-6.7-9-4.5-21.7-24.7-18
				c-21,3.7-15,33,0.7,33.7c18.7,0.7,15.7,14.2,15.7,14.2s66,52.5,15.7,90c0,0-8.2-36-66.7-39.7c0,0,7.5,27-4.5,48.7
				c-9,17.2-28.5,30-51,30c-31.5,0-57-25.5-57-57.7c0-14.2,5.2-27.7,14.2-37.5c-14.2-7.5-23.2-22.5-23.2-39.7
				c0-24,18.7-42.7,41.2-45c-8.2-9.7-13.5-21.7-13.5-35.2c0-29.2,24-53.2,53.2-53.2h5.2c10.5-18.7,24-35.2,42.7-44.2
				c64.5-31.5,117.7,5.2,121.5,37.5C575,525.9,584,592.7,512,613.7z"/>
		</g>
		<g>
			<path class="st11" d="M399.5,904.6l69.7-47.2c34.5-24.7,80.2-58.5,108-66.7c60-18,154.5,16.5,136.5,27
				c-7.5,4.5-66.7-8.2-66.7-8.2s12.7,12.7-4.5,16.5c0,0,4.5,12.7-8.2,14.2c0,0,10.5,13.5-16.5,18.7c0,0-24,2.2-47.2,5.2
				c-18,3.7-132,108-180.7,153c-12.7,12-31.5,14.2-47.2,6l0,0c-15.7-8.2-24-26.2-21-43.5L353,816.9c3-47.2,39.7-91.5,87-95.2
				c15-0.7,81.7,2.2,92.2,67.5"/>
			<path class="st29" d="M362.2,1030c-6.9,0-14-1.7-20.6-5.2c-16.1-8.5-25.2-27.2-22-45.5l31.5-162.8c3.2-50.5,42.2-93.1,88.7-96.8
				c3.4-0.2,82.6-3.3,94.2,69.1c0.2,1-0.5,2-1.6,2.1c-1,0.1-2-0.5-2.1-1.6c-11.1-69.1-87.1-66.1-90.3-65.9
				c-44.7,3.5-82.1,44.6-85.2,93.5l-31.5,163c-2.9,16.7,5.3,33.8,20,41.5c15.2,8,32.9,5.7,45.1-5.7c73.8-68.1,165.2-150,181.6-153.5
				c23.2-3,47.2-5.3,47.5-5.3c11.7-2.3,15.4-6,16.4-8.8c1.3-3.6-1.2-6.9-1.2-6.9c-0.4-0.5-0.5-1.3-0.2-1.9c0.3-0.6,0.8-1.1,1.5-1.1
				c3-0.4,5.2-1.5,6.3-3.3c2.1-3.4,0.4-8.4,0.4-8.5c-0.2-0.5-0.1-1.1,0.1-1.5c0.3-0.5,0.7-0.8,1.2-0.9c3-0.6,6.6-1.9,7.4-4.5
				c0.9-3.1-2.4-7.4-3.8-8.8c-0.6-0.6-0.7-1.5-0.3-2.2c0.4-0.7,1.3-1.1,2-0.9c22.6,4.9,60.4,11.4,65.4,8.5c1.7-1,1.4-1.7,1.2-2.3
				c-4.9-11.3-82.4-37.5-136.1-21.3c-25.6,7.6-67,37.4-100.3,61.3l-7.2,5.1l-69.8,47.3c-0.9,0.6-2,0.4-2.6-0.5s-0.4-2,0.5-2.6
				l69.7-47.3l7.1-5.1c33.5-24.1,75.2-54.1,101.4-61.9c54.1-16.2,134.5,9.3,140.6,23.4c1.2,2.7,0.2,5.3-2.7,7
				c-6.8,4.1-47.1-3.7-63.2-7c1.4,2.4,2.5,5.4,1.6,8.3c-0.9,3.1-3.7,5.3-8.3,6.7c0.5,2.4,0.8,6.4-1.3,9.7c-1.4,2.2-3.5,3.7-6.4,4.5
				c0.8,2,1.5,4.9,0.4,8c-2,5.3-8.5,9.1-19.4,11.2c-0.4,0.1-24.4,2.3-47.4,5.3c-12,2.5-75.9,56.7-179.7,152.5
				C383,1026.1,372.7,1030,362.2,1030z"/>
		</g>
		<g>
			<path class="st29" d="M434,838.6v32.2l24-5.2l-39.7,27L434,838.6z"/>
		</g>
		<g>
			<path class="st11" d="M575,615.9c0,0,10.5,17.2,6.7,21.7c-1.5,1.5-9,0-9,0 M486.5,658.7c-12-0.7-21.7-10.5-21.7-21
				c0-10.5,10.5-18,22.5-16.5c12,0.7,21.7,10.5,21.7,21"/>
			<path class="st29" d="M486.5,660.5c0,0-0.1,0-0.1,0c-12.7-0.8-23.5-11.3-23.5-22.9c0-5,2.1-9.6,6-13.1c4.8-4.2,11.5-6.2,18.6-5.3
				c12.6,0.8,23.4,11.3,23.4,22.9c0,1-0.8,1.9-1.9,1.9c-1,0-1.9-0.8-1.9-1.9c0-9.7-9.2-18.4-20-19.1c-6-0.8-11.7,0.8-15.7,4.4
				c-3.1,2.7-4.8,6.4-4.8,10.3c0,9.7,9.2,18.5,20,19.1c1,0.1,1.8,1,1.8,2C488.3,659.8,487.4,660.5,486.5,660.5z M578.4,640.2
				c-1.9,0-4.1-0.3-6-0.7c-1-0.2-1.7-1.2-1.5-2.2c0.2-1,1.2-1.7,2.2-1.5c3.1,0.6,6.7,0.8,7.4,0.4c1.5-1.9-2.4-11.6-7.1-19.4
				c-0.5-0.9-0.3-2,0.6-2.6c0.9-0.5,2-0.3,2.6,0.6c2.6,4.3,10.9,18.8,6.6,23.9C582.2,639.9,580.4,640.2,578.4,640.2z"/>
		</g>
		<g>
			<path class="st29" d="M418.2,893.8c-0.2,0-0.3,0-0.5-0.1c-1-0.3-1.6-1.3-1.3-2.3l26.2-93c0.3-1,1.3-1.6,2.3-1.3
				c1,0.3,1.6,1.3,1.3,2.3l-26.2,93C419.8,893.2,419,893.8,418.2,893.8z M479.7,644.8c-0.8,0-1.6-0.5-1.8-1.4c-0.3-1,0.3-2,1.3-2.3
				c0.9-0.2,3.4-1.3,4.2-3.1c0.4-1,0.4-2.1-0.2-3.4c-0.4-0.9,0-2.1,1-2.5c0.9-0.4,2.1,0,2.5,1c1.3,2.9,0.8,5.2,0.2,6.5
				c-1.7,3.6-6.1,4.9-6.6,5.1C480,644.8,479.9,644.8,479.7,644.8z"/>
		</g>
		<g>
			<path class="st11" d="M477.5,852.1c0.7,25.5,12,44.2,32.2,55.5"/>
			<path class="st29" d="M509.7,909.5c-0.3,0-0.6-0.1-0.9-0.2c-21-11.7-32.5-31.4-33.2-57.1c0-1,0.8-1.9,1.8-1.9
				c1.1,0.1,1.9,0.8,1.9,1.8c0.7,24.6,11.2,42.8,31.3,53.9c0.9,0.5,1.2,1.6,0.7,2.5C511,909.2,510.4,909.5,509.7,909.5z"/>
		</g>
		<g>
			<path class="st29" d="M634.2,843.5c-0.3,0-0.6-0.1-0.9-0.2c-7.7-4.2-14.7-5.8-22.2-5c-1,0.1-1.9-0.7-2.1-1.7
				c-0.1-1,0.6-1.9,1.7-2.1c8.1-0.8,16.1,1,24.3,5.5c0.9,0.5,1.2,1.6,0.8,2.5C635.5,843.2,634.9,843.5,634.2,843.5z M642.4,829.3
				c-0.3,0-0.6-0.1-0.9-0.2c-7.7-4.2-14.7-5.8-22.2-5c-1,0.1-2-0.6-2.1-1.7c-0.1-1,0.6-2,1.7-2.1c8.1-0.8,16.1,1,24.3,5.5
				c0.9,0.5,1.2,1.6,0.8,2.5C643.8,828.9,643.1,829.3,642.4,829.3z M648.4,812.8c-0.3,0-0.6-0.1-0.9-0.2c-7.7-4.2-14.7-5.8-22.2-5
				c-1,0.1-1.9-0.6-2.1-1.7c-0.1-1,0.6-2,1.7-2.1c8.1-0.8,16.1,1,24.3,5.5c0.9,0.5,1.2,1.6,0.8,2.5
				C649.7,812.4,649.1,812.8,648.4,812.8z"/>
		</g>
		<g>
			<path class="st11" d="M963.4,832.6c0,0,0,0.7-0.7,0.7c-9,12.7-24,19.5-38.2,24c-24,7.5-50.2,9.7-74.2,3.7
				c-19.5-5.2-36.7-15.7-48.7-31.5c16.5-21,54.7-50.2,118.5-33C937.9,801.9,952.9,815.4,963.4,832.6z"/>
		</g>
		<g>
			<path class="st29" d="M615.4,1023.5h-222c-1,0-1.9-0.8-1.9-1.9c0-1,0.8-1.9,1.9-1.9h222c1,0,1.9,0.8,1.9,1.9
				C617.3,1022.7,616.5,1023.5,615.4,1023.5z"/>
		</g>
		<g>
			<path class="st11" d="M583.2,598.7c0,0,8.2-8.2,18-1.5 M545.7,598.7c0,0,8.2-8.2,18-2.2"/>
			<path class="st29" d="M545.7,600.5c-0.5,0-1-0.2-1.3-0.6c-0.7-0.7-0.7-1.9,0-2.6c3.2-3.2,11.6-7.9,20.3-2.5
				c0.9,0.5,1.2,1.7,0.6,2.6c-0.5,0.9-1.7,1.2-2.6,0.6c-8.3-5.1-15.4,1.7-15.7,2C546.7,600.4,546.2,600.5,545.7,600.5z M583.2,600.5
				c-0.5,0-1-0.2-1.3-0.6c-0.7-0.7-0.7-1.9,0-2.6c3.2-3.2,11.7-7.8,20.4-1.7c0.9,0.6,1.1,1.8,0.5,2.6c-0.6,0.8-1.8,1.1-2.6,0.5
				c-8.3-5.7-15.3,1-15.6,1.3C584.2,600.4,583.7,600.5,583.2,600.5z"/>
		</g>
		<g>
			<path class="st29" d="M592.2,657.2c-0.7,5.2-3.7,15-12,19.5c-3,1.5-6.7,2.2-10.5,2.2s-6.7-1.5-9-3c-6-4.5-8.2-13.5-9-18
				c0-1.5,0.7-2.2,2.2-1.5c5.2,3,19.5,7.5,36-0.7C591.4,655.7,592.2,656.4,592.2,657.2z"/>
		</g>
		<g>
			<path class="st11" d="M577.2,674.4c-2.2,0.7-4.5,1.5-7.5,1.5c-2.2,0-4.5-0.7-6-2.2c1.5-2.2,3.7-4.5,7.5-4.5
				C574.2,669.9,576.5,672.2,577.2,674.4z"/>
		</g>
		<g>
			<path class="st11" d="M555.5,614.4c0,0,1.5-4.5,3-5.2c1.5,0,4.5,3.7,4.5,3.7 M591.4,612.9c0,0,1.5-4.5,3-5.2
				c1.5,0,4.5,3.7,4.5,3.7"/>
			<path class="st29" d="M555.5,616.3c-0.2,0-0.4,0-0.6-0.1c-1-0.3-1.5-1.4-1.2-2.4c0.5-1.6,2-5.3,3.9-6.3c2-1,4.9,1.9,6.8,4.3
				c0.6,0.8,0.5,2-0.3,2.6c-0.8,0.6-2,0.5-2.6-0.3c-0.8-1.1-1.9-2.1-2.6-2.7c-0.5,0.8-1.2,2.2-1.6,3.6
				C557,615.8,556.2,616.3,555.5,616.3z M591.5,614.8c-0.2,0-0.4,0-0.6-0.1c-1-0.3-1.5-1.4-1.2-2.4c0.5-1.6,2-5.3,3.9-6.3
				c2-1,4.9,1.9,6.8,4.3c0.6,0.8,0.5,2-0.3,2.6c-0.8,0.7-2,0.5-2.6-0.3c-0.8-1.1-1.9-2.1-2.6-2.7c-0.5,0.8-1.2,2.2-1.6,3.6
				C593,614.3,592.2,614.8,591.5,614.8z"/>
		</g>
		<g>
			<path class="st29" d="M336.2,750.2l1-1.6L336.2,750.2c-2.3-1.5-4.7-3.1-7-5.5c-11.7-10.9-13.7-29-4.7-42.1
				c0.6-0.8,1.8-1.1,2.6-0.5c0.9,0.6,1.1,1.8,0.5,2.6c-8,11.6-6.1,27.6,4.2,37.3c2.2,2.2,4.3,3.6,6.5,5L336.2,750.2z M649.2,710.8
				c-0.4,0-0.7-0.1-1.1-0.3c-0.9-0.6-1.1-1.8-0.5-2.6c11.7-16.8,9.2-40.3-5.8-54.6c-2.7-2-5.7-4.3-9.4-6.5c-0.9-0.5-1.2-1.7-0.6-2.6
				c0.5-0.9,1.7-1.2,2.6-0.6c3.9,2.3,6.9,4.6,9.9,6.9c16.5,15.7,19.2,41.2,6.4,59.6C650.4,710.5,649.8,710.8,649.2,710.8z
				 M347,607.3c-0.9,0-1.7-0.6-1.8-1.5c-0.7-3.6-1.5-8.3-1.5-13.1c0-23.6,17.4-44.4,40.6-48.3c1-0.2,2,0.5,2.2,1.5
				c0.2,1-0.5,2-1.5,2.2c-21.3,3.7-37.4,22.9-37.4,44.6c0,4.5,0.8,9,1.5,12.4c0.2,1-0.5,2-1.5,2.2
				C347.2,607.3,347.1,607.3,347,607.3z"/>
		</g>
		<g>
			<g>
				<path class="st11" d="M934.5,816.5c-31.5-1.5-63-3-95.2-3c-25.5,0.7-51.7-1.5-77.2-1.5c-4.5,0-9,3.7-9,9v42
					c0,4.5,3.7,8.2,8.2,8.2h231c4.5,0,8.2-3.7,8.2-8.2v-38.2c0-4.5-3.7-8.2-8.2-8.2C977.3,814.3,951.8,817.3,934.5,816.5z"/>
				<path class="st29" d="M992.3,873.1h-231c-5.6,0-10.1-4.5-10.1-10.1v-42c0-6.5,5.6-10.9,10.9-10.9c10.9,0,22.2,0.4,33.1,0.8
					c14.5,0.5,29.6,1.1,44.1,0.7c0,0,0,0,0,0c32.3,0,64.4,1.5,95.4,3c7,0.3,15.8,0,24.2-0.4c12.2-0.5,24.8-1,33.8,0.4c0,0,0,0,0,0
					c5.2,0,9.8,4.6,9.8,10.1V863C1002.4,868.6,997.9,873.1,992.3,873.1z M762.1,813.9c-3.4,0-7.1,2.9-7.1,7.1v42
					c0,3.5,2.9,6.4,6.4,6.4h231c3.5,0,6.4-2.9,6.4-6.4v-38.2c0-3.5-2.9-6.4-6.4-6.4c-8.9-1.3-21.3-0.8-33.3-0.4
					c-8.5,0.3-17.3,0.7-24.5,0.4h0c-30.9-1.5-63-3-95.2-3c-14.6,0.4-29.7-0.1-44.3-0.7C784.2,814.3,772.9,813.9,762.1,813.9z"/>
			</g>
			<g>
				<path class="st29" d="M809.3,813.5c-15.7-0.7-31.5-0.7-47.2-1.5c-4.5,0-9,3.7-9,9v42c0,4.5,3.7,8.2,8.2,8.2h47.2v-57.7
					L809.3,813.5z"/>
			</g>
			<g>
				<path class="st31" d="M859.5,843.5c0,9-7.5,16.5-16.5,16.5s-16.5-7.5-16.5-16.5s7.5-16.5,16.5-16.5S859.5,834.5,859.5,843.5z"/>
			</g>
			<g>
				<path class="st27" d="M900.8,843.5c0,9-7.5,16.5-16.5,16.5s-16.5-7.5-16.5-16.5s7.5-16.5,16.5-16.5S900.8,834.5,900.8,843.5z"/>
			</g>
			<g>
				<path class="st30" d="M942,843.5c0,9-7.5,16.5-16.5,16.5s-16.5-7.5-16.5-16.5s7.5-16.5,16.5-16.5S942,834.5,942,843.5z"/>
			</g>
			<g>
				<path class="st32" d="M984,843.5c0,9-7.5,16.5-16.5,16.5s-16.5-7.5-16.5-16.5s7.5-16.5,16.5-16.5S984,834.5,984,843.5z"/>
			</g>
		</g>
	</g>
	<g style="clip-path:url(#SVGID_00000163037839471938064190000009650688699473879168_);">
		<g>
			<path class="st29" d="M723,292.3c-1.5,0-2.8-1.2-2.8-2.8v-19.9c0-1.5,1.2-2.8,2.8-2.8s2.8,1.2,2.8,2.8v19.9
				C725.8,291,724.6,292.3,723,292.3z M723,252.5c-1.5,0-2.8-1.2-2.8-2.8v-19.9c0-1.5,1.2-2.8,2.8-2.8s2.8,1.2,2.8,2.8v19.9
				C725.8,251.2,724.6,252.5,723,252.5z M723,212.7c-1.5,0-2.8-1.2-2.8-2.8V190c0-1.5,1.2-2.8,2.8-2.8s2.8,1.2,2.8,2.8v19.9
				C725.8,211.4,724.6,212.7,723,212.7z M723,172.9c-1.5,0-2.8-1.2-2.8-2.8v-19.9c0-1.5,1.2-2.8,2.8-2.8s2.8,1.2,2.8,2.8v19.9
				C725.8,171.7,724.6,172.9,723,172.9z"/>
		</g>
		<g>
			<path class="st29" d="M692.1,323h-19.9c-1.5,0-2.8-1.2-2.8-2.8c0-1.5,1.2-2.8,2.8-2.8h19.9c1.5,0,2.8,1.2,2.8,2.8
				C694.9,321.8,693.7,323,692.1,323z M652.3,323h-19.9c-1.5,0-2.8-1.2-2.8-2.8c0-1.5,1.2-2.8,2.8-2.8h19.9c1.5,0,2.8,1.2,2.8,2.8
				C655.1,321.8,653.9,323,652.3,323z M612.5,323h-19.9c-1.5,0-2.8-1.2-2.8-2.8c0-1.5,1.2-2.8,2.8-2.8h19.9c1.5,0,2.8,1.2,2.8,2.8
				C615.3,321.8,614.1,323,612.5,323z M572.8,323h-19.9c-1.5,0-2.8-1.2-2.8-2.8c0-1.5,1.2-2.8,2.8-2.8h19.9c1.5,0,2.8,1.2,2.8,2.8
				C575.5,321.8,574.3,323,572.8,323z"/>
		</g>
		<g>
			<path class="st29" d="M522.1,292.1c-1.5,0-2.8-1.2-2.8-2.8v-19.9c0-1.5,1.2-2.8,2.8-2.8c1.5,0,2.8,1.2,2.8,2.8v19.9
				C524.9,290.9,523.6,292.1,522.1,292.1z M522.1,252.3c-1.5,0-2.8-1.2-2.8-2.8v-19.9c0-1.5,1.2-2.8,2.8-2.8c1.5,0,2.8,1.2,2.8,2.8
				v19.9C524.9,251.1,523.6,252.3,522.1,252.3z M522.1,212.5c-1.5,0-2.8-1.2-2.8-2.8v-19.9c0-1.5,1.2-2.8,2.8-2.8
				c1.5,0,2.8,1.2,2.8,2.8v19.9C524.9,211.3,523.6,212.5,522.1,212.5z M522.1,172.7c-1.5,0-2.8-1.2-2.8-2.8v-19.9
				c0-1.5,1.2-2.8,2.8-2.8c1.5,0,2.8,1.2,2.8,2.8V170C524.9,171.5,523.6,172.7,522.1,172.7z"/>
		</g>
		<g>
			<path class="st29" d="M692.3,122.1h-19.9c-1.5,0-2.8-1.2-2.8-2.8c0-1.5,1.2-2.8,2.8-2.8h19.9c1.5,0,2.8,1.2,2.8,2.8
				C695.1,120.8,693.8,122.1,692.3,122.1z M652.5,122.1h-19.9c-1.5,0-2.8-1.2-2.8-2.8c0-1.5,1.2-2.8,2.8-2.8h19.9
				c1.5,0,2.8,1.2,2.8,2.8C655.3,120.8,654,122.1,652.5,122.1z M612.7,122.1h-19.9c-1.5,0-2.8-1.2-2.8-2.8c0-1.5,1.2-2.8,2.8-2.8
				h19.9c1.5,0,2.8,1.2,2.8,2.8C615.5,120.8,614.2,122.1,612.7,122.1z M572.9,122.1H553c-1.5,0-2.8-1.2-2.8-2.8
				c0-1.5,1.2-2.8,2.8-2.8h19.9c1.5,0,2.8,1.2,2.8,2.8C575.7,120.8,574.4,122.1,572.9,122.1z"/>
		</g>
		<g>
			<path class="st31" d="M705.4,240.8c-1.1,16.6-2.2,54.1-3.3,56.3c-6.6,6.6-141.3,9.9-155.7,1.1c-3.3-2.2-4.4-71.8-4.4-104.9
				c0-18.8,1.1-45.3,3.3-47.5c7.7-13.2,153.5-8.8,157.9-3.3C705.4,145.8,706.5,207.7,705.4,240.8z"/>
		</g>
		<g>
			<path class="st29" d="M736.3,119.3c0,7.7-6.6,13.2-13.2,13.2c-7.7,0-13.2-5.5-13.2-13.2s6.6-13.2,13.2-13.2
				C730.8,106.1,736.3,111.6,736.3,119.3z M736.3,318.1c0,7.7-6.6,13.2-13.2,13.2c-7.7,0-13.2-5.5-13.2-13.2s6.6-13.2,13.2-13.2
				C730.8,304.8,736.3,310.3,736.3,318.1z M535.3,119.3c0,7.7-6.6,13.2-13.2,13.2c-7.7,0-13.2-5.5-13.2-13.2s6.6-13.2,13.2-13.2
				C529.8,106.1,535.3,111.6,535.3,119.3z M535.3,317c0,7.7-6.6,13.2-13.2,13.2c-7.7,0-13.2-5.5-13.2-13.2s6.6-13.2,13.2-13.2
				C529.8,303.7,535.3,309.2,535.3,317z"/>
		</g>
		<g>
			<path class="st11" d="M609.3,246.8c-22.6,0-40.3-17.7-40.3-40.3s17.7-40.3,40.3-40.3c22.6,0,40.3,17.7,40.3,40.3
				S631.9,246.8,609.3,246.8z M609.3,171.8c-19.5,0-34.8,15.3-34.8,34.8s15.3,34.8,34.8,34.8c19.5,0,34.8-15.3,34.8-34.8
				S628.8,171.8,609.3,171.8z"/>
		</g>
		<g>
			<path class="st11" d="M641.3,256.8c-12.5,0-22.6-10.2-22.6-22.6s10.2-22.6,22.6-22.6c4.9-0.6,10.3,1.4,14.7,5.3
				c5,4.5,8,11,8,17.4C664,246.6,653.8,256.8,641.3,256.8z M642.8,217c-0.4,0-0.8,0-1.2,0.1c-9.7,0-17.4,7.7-17.4,17.1
				c0,9.4,7.7,17.1,17.1,17.1c9.6,0,17.1-7.5,17.1-17.1c0-4.8-2.3-9.8-6.1-13.2C649.5,218.4,646.1,217,642.8,217z"/>
		</g>
		<g>
			<path class="st11" d="M649.1,225.9c-10.8,0-19.3-8.5-19.3-19.3c0-10.3,9-19.3,19.3-19.3c4.4-0.6,9,0.9,12.7,4.2
				c4.2,3.7,6.6,9.2,6.6,15.2C668.4,217.4,659.9,225.9,649.1,225.9z M650.7,192.6c-0.4,0-0.9,0-1.3,0.1c-7.7,0-14.1,6.5-14.1,13.8
				c0,6.7,4.8,13.8,13.8,13.8c7.9,0,13.8-5.9,13.8-13.8c0-4.3-1.7-8.4-4.7-11C656,193.6,653.4,192.6,650.7,192.6z"/>
		</g>
	</g>
	<g style="clip-path:url(#SVGID_00000163037839471938064190000009650688699473879168_);">
		<g>
			<path class="st31" d="M174.2,1124.7c-53.3,0-77,41.4-78.9,48.7c-2.6,10.5-4.6,21.1-4.6,32.2h83.6V1124.7z"/>
		</g>
		<g>
			<path class="st27" d="M257.8,1205.6c0-7.2-0.7-14.5-2.6-21.7c-5.9-24.3-23.7-47.4-48-53.9c-12.5-3.3-23.7-4.6-33.6-4.6v80.9h84.2
				V1205.6z"/>
		</g>
		<g>
			<path class="st30" d="M174.2,1205.6v80.9c12.5,0,25.7-2.6,38.2-6.6c13.2-3.9,25.7-9.9,33.6-21.1c0,0,0-0.7,0.7-0.7
				c5.9-7.9,7.9-18.4,9.9-27.6c1.3-8.6,2-16.4,2-25H174.2z"/>
		</g>
		<g>
			<path class="st33" d="M90,1205.6c-0.7,13.2,0.7,26.3,6.6,38.2c2,4.6,4.6,8.6,7.2,11.8c10.5,13.8,26.3,23,42.8,27.6
				c9.2,2.6,17.8,3.3,27,3.3v-80.9H90z"/>
		</g>
		<g>
			<path class="st11" d="M234.1,1133.9l-28.3,29.6c-2,2-4.6,3.3-7.2,4.6l-14.5,4.6c-1.3,0.7-2.6-0.7-2.6-2.6l3.3-15.1
				c0.7-2.6,2-5.3,3.9-7.2l28.3-29.6C217,1118.1,234.1,1133.9,234.1,1133.9z"/>
			<path class="st29" d="M183.4,1174.5c-0.6,0-1.2-0.2-1.7-0.5c-1.2-0.7-1.9-2.3-1.9-4l3.3-15.5c0.8-3.2,2.4-6,4.4-8.1l28.3-29.6
				c0.6-0.6,1.6-0.7,2.3-0.1l17.1,15.8c0.3,0.3,0.5,0.7,0.5,1.2s-0.1,0.9-0.5,1.2l-28.3,29.6c-2.2,2.2-4.9,3.6-7.6,4.9l-14.8,4.7
				C184.2,1174.5,183.8,1174.5,183.4,1174.5z M217,1120.4l-27.2,28.4c-1.7,1.7-2.9,4-3.5,6.5l-3.3,15.1c0,0.4,0.3,0.8,0.4,0.8
				l14.6-4.7c2.4-1.2,4.8-2.4,6.6-4.2l27.1-28.4L217,1120.4z"/>
		</g>
		<g>
			<path class="st27" d="M194.6,1141.8l-4.6,5.3c-2,2-3.3,4.6-3.9,7.2l-3.3,15.1c-0.7,1.3,1.3,2.6,2.6,2.6l14.5-4.6
				c2.6-0.7,5.3-2.6,7.2-4.6l10.5-10.5L194.6,1141.8z"/>
			<path class="st29" d="M185.4,1173.7c-1.5,0-3.2-0.9-3.9-2.2c-0.6-0.9-0.6-1.9-0.2-2.9l3.2-14.7c0.8-3.2,2.4-6,4.4-8.1l4.5-5.2
				c0.5-0.6,1.3-0.7,1.9-0.4l23,10.5c0.5,0.2,0.8,0.7,0.9,1.2c0.1,0.5-0.1,1.1-0.5,1.5l-10.5,10.5c-1.5,1.5-4.6,4.2-8,5l-14.4,4.6
				C185.7,1173.7,185.6,1173.7,185.4,1173.7z M195,1143.8l-3.8,4.3c-1.7,1.7-3,4-3.6,6.6l-3.3,15.1c0,0.2,0.5,0.5,0.8,0.6l14.2-4.5
				c2.1-0.5,4.4-2,6.6-4.2l8.8-8.8L195,1143.8z"/>
		</g>
		<g>
			<path class="st11" d="M243.3,1137.2l5.3-5.9c1.3-1.3,1.3-3.9,0-5.3l-25-23.7c-1.3-1.3-3.9-1.3-5.3,0l-4.6,6.6
				c-1.3,1.3-1.3,3.9,0,5.3l25,23.7C240,1139.2,242,1138.5,243.3,1137.2z"/>
			<path class="st29" d="M240.4,1140.2c-1.1,0-2.1-0.4-2.9-1.2l-25-23.7c-1-1-1.5-2.3-1.5-3.8c0-1.5,0.5-2.9,1.5-3.8l4.4-6.4
				c2.1-2.2,5.8-2.2,7.8-0.2l25,23.7c1,1,1.5,2.3,1.5,3.8c0,1.5-0.5,2.9-1.5,3.8l-5.2,5.8c0,0,0,0-0.1,0.1c-0.9,0.9-2,1.5-3.1,1.8
				C241,1140.2,240.7,1140.2,240.4,1140.2z M243.3,1137.2L243.3,1137.2L243.3,1137.2z M220.9,1103c-0.6,0-1.1,0.2-1.5,0.5l-4.4,6.4
				c-0.5,0.5-0.7,1.1-0.7,1.7c0,0.6,0.2,1.2,0.5,1.5l25,23.7c0.2,0.2,0.4,0.3,0.8,0.2c0.5-0.1,1-0.4,1.4-0.8l5.2-5.9
				c0.4-0.4,0.6-0.9,0.6-1.5c0-0.6-0.2-1.2-0.5-1.5l-25-23.7C222.1,1103.2,221.5,1103,220.9,1103z"/>
		</g>
		<g>
			<path class="st11" d="M257.1,1114.2l-9.9,10.5l-21.7-20.4l9.9-10.5c5.9-5.9,15.1-5.9,21.1-0.7l0,0
				C262.4,1099,262.4,1108.2,257.1,1114.2z"/>
			<path class="st29" d="M247.2,1126.3c-0.4,0-0.8-0.2-1.1-0.4l-21.7-20.4c-0.7-0.6-0.7-1.7-0.1-2.3l9.9-10.5
				c6.4-6.4,16.6-6.7,23.3-0.8c6.4,6.4,6.8,16.7,0.8,23.4c0,0,0,0,0,0l-9.9,10.5C248.1,1126.1,247.7,1126.3,247.2,1126.3
				C247.3,1126.3,247.2,1126.3,247.2,1126.3z M227.8,1104.2l19.3,18.1l8.7-9.3c4.8-5.4,4.5-13.6-0.6-18.8
				c-5.3-4.7-13.6-4.5-18.7,0.7L227.8,1104.2z M257.1,1114.2L257.1,1114.2L257.1,1114.2z"/>
		</g>
	</g>
	<g style="clip-path:url(#SVGID_00000163037839471938064190000009650688699473879168_);">
		<g>
			<path class="st31" d="M347.3,433.5v7.9c-2.4,42.8-38.8,75.3-81.6,76.9h-4.8c-42.8,1.6-81.6-27.7-87.2-70.5c0-3.2-0.8-5.5-0.8-8.7
				c-1.6-46.7,36.4-87.2,82.4-89.5C304.5,347.1,345.7,385.1,347.3,433.5z"/>
		</g>
		<g>
			<path class="st11" d="M321.2,433.5v5.5c-1.6,29.3-26.9,52.3-57,53.1h-3.2c-29.3,1.6-57-19-61-48.3c0-2.4-0.8-4-0.8-6.3
				c-0.8-32.5,25.4-61,57.8-62.6C291.1,373.3,319.6,399.4,321.2,433.5z"/>
			<path class="st29" d="M257.6,494.2c-29.8,0-55.7-21.5-59.6-50.1c0-1.3-0.2-2.2-0.4-3c-0.2-1-0.4-2.2-0.4-3.6
				c-0.8-33.4,26.5-63,59.7-64.6c34.8-1.7,64.6,25.5,66.3,60.5c0,0,0,0.1,0,0.1v5.5c-1.6,30.1-27.5,54.2-59,55.1h-3.2
				C259.8,494.1,258.7,494.2,257.6,494.2z M259.9,376.8c-0.9,0-1.9,0-2.8,0.1c-31.1,1.5-56.7,29.3-55.9,60.6c0,1.1,0.2,2,0.4,2.8
				c0.2,1,0.4,2.2,0.4,3.6c3.7,27.5,29.7,47.9,58.9,46.4l3.3,0c29.3-0.8,53.6-23.3,55.1-51.2l0-5.4
				C317.7,401.7,291.3,376.8,259.9,376.8z"/>
		</g>
		<g>
			<path class="st29" d="M260.1,465.6c-1.1,0-2-0.9-2-2v-2.9c-7.2-0.9-12.7-7-12.7-14.5c0-1.1,0.9-2,2-2c1.1,0,2,0.9,2,2
				c0,6,4.7,10.7,10.7,10.7c6,0,10.7-4.7,10.7-10.7c0-6-4.7-10.7-10.7-10.7c-8.2,0-14.7-6.4-14.7-14.7c0-7.5,5.4-13.6,12.7-14.5
				v-2.1c0-1.1,0.9-2,2-2s2,0.9,2,2v2.1c7.2,0.9,12.7,7,12.7,14.5c0,1.1-0.9,2-2,2s-2-0.9-2-2c0-5.5-3.9-9.9-9.2-10.6
				c-0.7,0.9-2.3,0.9-3,0c-5.3,0.7-9.2,5.1-9.2,10.6c0,6,4.7,10.7,10.7,10.7c8.2,0,14.7,6.4,14.7,14.7c0,7.5-5.4,13.6-12.7,14.5v2.9
				C262.1,464.7,261.2,465.6,260.1,465.6z"/>
		</g>
	</g>
	<g style="clip-path:url(#SVGID_00000163037839471938064190000009650688699473879168_);">
		<g>
			<path class="st32" d="M1119.2,720.7c-3,8.9-5.9,15.9-6.9,16.8c-5,3-87.2,1-95.1-4c-2-1,4-25.8,8.9-44.6c3-9.9,5.9-17.8,6.9-19.8
				c6.9-6.9,95.1,0,97.1,4C1131.1,674.1,1125.2,701.9,1119.2,720.7z"/>
		</g>
		<g>
			<path class="st11" d="M1058.8,726.2c-0.3,0-0.6-0.1-1-0.2c-1.3-0.5-1.9-2-1.3-3.2l17.8-42.6c0.5-1.3,2-1.9,3.2-1.3
				c1.3,0.5,1.9,2,1.3,3.2l-17.8,42.6C1060.7,725.6,1059.8,726.2,1058.8,726.2z M1081.6,721.2c-0.9,0-1.7-0.5-2.2-1.3
				c-0.7-1.2-0.2-2.7,1-3.4c3.6-2,7.3-4.9,7.7-6c-0.4-0.7-4-3.5-7.7-5.6c-1.2-0.7-1.6-2.2-1-3.4c0.7-1.2,2.2-1.6,3.4-1
				c3.8,2.1,10.2,6.2,10.2,10.1c0,3.9-6.4,8-10.2,10.1C1082.4,721.1,1082,721.2,1081.6,721.2z M1053.8,704.4c-0.4,0-0.8-0.1-1.2-0.3
				c-3.8-2.1-10.2-6.2-10.2-10.1c0-3.9,6.4-8,10.2-10.1c1.2-0.7,2.7-0.2,3.4,1c0.7,1.2,0.2,2.7-1,3.4c-3.6,2-7.3,4.9-7.7,6
				c0.4,0.7,4,3.6,7.7,5.6c1.2,0.7,1.6,2.2,1,3.4C1055.5,703.9,1054.7,704.4,1053.8,704.4z"/>
		</g>
	</g>
	<g style="clip-path:url(#SVGID_00000163037839471938064190000009650688699473879168_);">
		<g>
			<path class="st27" d="M348.2,599.4c3.9,2,7.2,79.6,0,80.9c-23.7,3.9-96.7,2-126.3,0.7c-9.9-0.7-7.9-78.9,0-80.9
				C245.6,594.2,325.9,590.2,348.2,599.4z"/>
		</g>
		<g>
			<path class="st11" d="M271.9,653.1c-0.9,0-1.6-0.7-1.6-1.6l-0.6-23.7l-6.2,0.3c-0.9-0.1-1.7-0.7-1.7-1.6c0-0.9,0.7-1.7,1.6-1.7
				l6.9-0.3c0.3-0.2,0.6-0.4,1-0.4c0.4,0,0.7,0.1,1,0.3l6.9-0.3c0.8-0.1,1.7,0.7,1.7,1.6c0,0.9-0.7,1.7-1.6,1.7l-6.3,0.3l0.6,23.7
				C273.6,652.3,272.9,653,271.9,653.1C272,653.1,271.9,653.1,271.9,653.1z M237.1,653.1c-0.9,0-1.6-0.7-1.6-1.6v-25
				c0-0.9,0.7-1.6,1.6-1.6s1.6,0.7,1.6,1.6v10.9h12.1l-0.3-10.8c0-0.9,0.7-1.7,1.6-1.7c1,0,1.7,0.7,1.7,1.6l0.3,11.5
				c0.2,0.3,0.4,0.6,0.4,1c0,0.4-0.1,0.7-0.3,1l0.3,11.5c0,0.9-0.7,1.7-1.6,1.7c-0.9,0.2-1.7-0.7-1.7-1.6l-0.3-10.9h-12.2v10.9
				C238.7,652.3,238,653.1,237.1,653.1z M314,652.4c-0.7,0-1.4-0.5-1.6-1.2L307,630l-5.3,11.6c-0.3,0.6-0.8,0.9-1.5,1
				c-0.5,0-1.2-0.3-1.5-0.9l-5.8-11.5l-4.3,21c-0.2,0.9-1.1,1.4-1.9,1.3c-0.9-0.2-1.5-1.1-1.3-1.9l5.3-25.7c0.1-0.7,0.7-1.2,1.4-1.3
				c0.7,0,1.4,0.3,1.7,0.9l6.4,12.7l5.8-12.7c0.3-0.6,0.9-1,1.6-1c0.7,0.1,1.3,0.6,1.4,1.2l6.6,25.7c0.2,0.9-0.3,1.8-1.2,2
				C314.3,652.4,314.2,652.4,314,652.4z M336.4,651.7h-14.5c-0.9,0-1.6-0.7-1.6-1.6l-0.7-25c0-0.9,0.7-1.7,1.6-1.7c0,0,0,0,0,0
				c0.9,0,1.6,0.7,1.6,1.6l0.6,23.4h12.9c0.9,0,1.6,0.7,1.6,1.6C338,651,337.3,651.7,336.4,651.7z"/>
		</g>
	</g>
	<g style="clip-path:url(#SVGID_00000163037839471938064190000009650688699473879168_);">
		<path class="st34" d="M138.3,866c-26.8,0-48.5-21.8-48.5-48.5c0-26.8,21.8-48.5,48.5-48.5c26.8,0,48.5,21.8,48.5,48.5
			C186.9,844.2,165.1,866,138.3,866z"/>
		<circle class="st30" cx="138.3" cy="817.4" r="30.8"/>
	</g>
	<g style="clip-path:url(#SVGID_00000163037839471938064190000009650688699473879168_);">
		<path class="st34" d="M1009.5,408.5c-41.8,0-75.8-34-75.8-75.8s34-75.8,75.8-75.8c41.8,0,75.8,34,75.8,75.8
			S1051.3,408.5,1009.5,408.5z"/>
		<circle class="st32" cx="1009.5" cy="332.7" r="48"/>
	</g>
	<g style="clip-path:url(#SVGID_00000163037839471938064190000009650688699473879168_);">
		<path class="st29" d="M702.6,505.7v87.7c0,3.9,2.6,6.5,6.5,6.5h21l-5.2,14.4c-1.3,3.9,2.6,7.9,6.5,5.2l36.7-21h90.4
			c3.9,0,6.5-2.6,6.5-6.5v-90.4c0-3.9-2.6-6.5-6.5-6.5c-21,0-7.9,1.3-28.8,1.3c-26.2,0-52.4,1.3-78.6,2.6
			c-14.4,1.3-27.5-1.3-40.6-1.3C705.2,497.9,702.6,501.8,702.6,505.7z"/>
		<path class="st11" d="M757.6,547.6c0,6.5-5.2,11.8-11.8,11.8s-11.8-5.2-11.8-11.8c0-6.5,5.2-11.8,11.8-11.8
			S757.6,541.1,757.6,547.6z M798.2,547.6c0,6.5-5.2,11.8-11.8,11.8s-11.8-5.2-11.8-11.8c0-6.5,5.2-11.8,11.8-11.8
			S798.2,541.1,798.2,547.6z M838.8,547.6c0,6.5-5.2,11.8-11.8,11.8s-11.8-5.2-11.8-11.8c0-6.5,5.2-11.8,11.8-11.8
			S838.8,541.1,838.8,547.6z"/>
	</g>
	<path style="clip-path:url(#SVGID_00000163037839471938064190000009650688699473879168_);fill:#FFAAE0;" d="M1009.7,1043.3l12.3,68
		c0.7,4.3,5.9,5.9,9.1,3l13-12.3c2-2.3,5.7-2,7.7,0.2l49.8,55.7c1.8,2.3,5,2.5,7.3,0.9l9.6-6.8c2.7-1.8,3.2-5.7,0.9-8.2l-52.6-56.2
		c-2-2.3-2-5.7,0.2-7.7l9.3-8.9c3-2.5,2-7.3-1.6-8.9l-57.8-24.8C1012.9,1035.6,1008.5,1039.2,1009.7,1043.3z"/>
	<g style="clip-path:url(#SVGID_00000163037839471938064190000009650688699473879168_);">
		<g>
			<path class="st27" d="M644.9,1227.3c11.6,14.9,19.8,28.1,19.8,31.4c-1.7,11.6-114,105.8-133.9,109.1c-3.3,0-38-39.7-61.2-69.4
				c-13.2-16.5-23.1-31.4-23.1-34.7c-1.7-18.2,125.6-114,133.9-110.7C583.7,1151.3,621.7,1195.9,644.9,1227.3z"/>
		</g>
		<g>
			<path class="st11" d="M605.2,1247.1l-8.3-1.7v-1.7c-1.7-5-3.3-8.3-5-11.6l5-6.6c1.7-1.7,0-3.3,0-5l-6.6-6.6c-1.7-1.7-3.3-1.7-5,0
				l-6.6,5c-1.7-1.7-3.3-1.7-5-1.7c-3.3,0-5-1.7-6.6-1.7l-1.7-9.9c0-1.7-1.7-3.3-3.3-3.3h-11.6c-1.7,0-3.3,1.7-3.3,3.3l-1.7,9.9
				c-5,1.7-8.3,3.3-11.6,5l-8.3-5c-1.7-1.7-3.3,0-5,0l-6.6,6.6c-1.7,1.7-1.7,3.3,0,5l5,6.6c-1.7,3.3-3.3,5-3.3,6.6s-1.7,5-1.7,6.6
				l-8.3,1.7c-1.7,0-3.3,1.7-3.3,3.3v9.9c0,1.7,1.7,3.3,3.3,3.3l8.3,1.7c0,3.3,1.7,6.6,3.3,9.9c0,1.7,1.7,3.3,3.3,5l-5,6.6
				c-1.7,1.7,0,3.3,0,5l6.6,6.6c1.7,1.7,3.3,1.7,5,0l6.6-5c3.3,1.7,5,1.7,8.3,3.3c1.7,0,3.3,0,5,1.7l1.7,9.9c0,1.7,1.7,3.3,3.3,3.3
				h9.9c1.7,0,3.3-1.7,3.3-3.3l1.7-9.9c3.3,0,6.6-1.7,9.9-1.7c1.7,0,3.3-1.7,3.3-1.7l6.6,5c1.7,1.7,3.3,0,5,0l6.6-6.6
				c1.7-1.7,1.7-3.3,0-5l-3.3-5c1.7-3.3,3.3-8.3,3.3-11.6v-3.3l8.3-1.7c1.7,0,3.3-1.7,3.3-3.3v-9.9
				C608.5,1248.8,606.9,1247.1,605.2,1247.1z M575.4,1260.4c0,3.3-1.7,5-3.3,6.6c-1.7,3.3-5,5-8.3,5c-5,1.7-11.6,1.7-16.5,1.7
				c-5-1.7-9.9-5-13.2-9.9s-1.7-11.6,0-18.2c0-1.7,8.3-16.5,28.1-11.6c6.6,1.7,9.9,8.3,11.6,13.2
				C577.1,1253.8,577.1,1257.1,575.4,1260.4z"/>
		</g>
	</g>
	<g style="clip-path:url(#SVGID_00000163037839471938064190000009650688699473879168_);">
		<g>
			<path class="st31" d="M860.2,1264c-4.2,15.4-8.4,26.6-9.8,26.6c-7,4.2-121.9-19.6-131.7-30.8c-2.8-2.8,5.6-42,14-72.9
				c4.2-16.8,8.4-29.4,9.8-32.2c9.8-9.8,131.7,22.4,134.5,29.4C878.5,1189.7,868.7,1234.6,860.2,1264z"/>
		</g>
		<g>
			<path class="st11" d="M830.8,1230.4c0,5.6-46.2,26.6-54.7,22.4c-11.2-5.6,2.8-58.9,14-64.5C800,1182.7,830.8,1217.8,830.8,1230.4
				z"/>
		</g>
	</g>
</g>
</svg>
