<svg id="Layer_1" data-name="Layer 1" xmlns="http://www.w3.org/2000/svg" xmlns:xlink="http://www.w3.org/1999/xlink" viewBox="0 0 1146 764"><defs><style>.cls-1,.cls-12,.cls-29{fill:#fff;}.cls-2{fill:#a4c3b2;}.cls-22,.cls-24,.cls-26,.cls-27,.cls-28,.cls-3,.cls-30,.cls-31,.cls-32{fill:none;}.cls-22,.cls-3,.cls-30,.cls-32{stroke:#fff;}.cls-22,.cls-24,.cls-26,.cls-27,.cls-28,.cls-29,.cls-3,.cls-30,.cls-31{stroke-miterlimit:10;}.cls-26,.cls-3{stroke-width:2px;}.cls-3{stroke-dasharray:11.93 11.93;}.cls-4{fill:#333;}.cls-5{fill:#686868;}.cls-6{fill:#ffcec7;}.cls-7{fill:#6b9080;}.cls-8{fill:#f2b1af;}.cls-9{fill:#7f7f7f;}.cls-10{fill:#ef8e89;}.cls-11{fill:url(#Gold);}.cls-12{font-size:50px;font-family:HansonBold, Hanson;letter-spacing:0.08em;}.cls-13{letter-spacing:0.02em;}.cls-14{letter-spacing:0.08em;}.cls-15{letter-spacing:0.04em;}.cls-16,.cls-18{letter-spacing:0.07em;}.cls-17,.cls-18,.cls-19,.cls-20,.cls-21{fill:#595959;}.cls-17{letter-spacing:0.06em;}.cls-19{letter-spacing:0.1em;}.cls-20{letter-spacing:0.02em;}.cls-21{letter-spacing:0.1em;}.cls-23{fill:#cce3de;}.cls-24,.cls-26,.cls-31{stroke:#6b9080;}.cls-25{fill:#f6fff8;}.cls-27{stroke:#595a5a;}.cls-28,.cls-29{stroke:#a4c3b2;}.cls-30{stroke-width:0.5px;}.cls-31{stroke-width:1.9px;}.cls-32{stroke-linecap:round;stroke-linejoin:round;stroke-width:10px;}</style><linearGradient id="Gold" x1="370.42" y1="355.33" x2="377.71" y2="369.1" gradientUnits="userSpaceOnUse"><stop offset="0.01" stop-color="#fbca11"/><stop offset="0.25" stop-color="#ffffbf"/><stop offset="0.3" stop-color="#f9f3ae"/><stop offset="0.39" stop-color="#e8d381"/><stop offset="0.52" stop-color="#cea139"/><stop offset="0.6" stop-color="#be820e"/><stop offset="0.86" stop-color="#e8d56a"/><stop offset="0.87" stop-color="#eada6f"/><stop offset="1" stop-color="#ffffbf"/></linearGradient></defs><title>itsme</title><rect class="cls-1" width="1146" height="764"/><path class="cls-2" d="M427.19,627.58c-34.51,0-66.27-6.76-91.83-19.57-39.15-19.6-79.5-68-76.44-111.9,1-15,7.52-30.61,18.72-45,5.26-6.78,11.22-12.44,17-17.92,8.4-8,16.33-15.54,20.81-25.41,12.34-27.19,6.83-56.06,1-86.63-5.12-26.84-10.41-54.6-3.53-82.55C317.52,219.8,327.92,202,343,187a134.49,134.49,0,0,1,50.15-31.29c1.14-.39,2.29-.78,3.44-1.14,18.52-5.87,37.52-7.49,55.89-9.05,13.12-1.11,25.51-2.16,37.76-4.64,21.56-4.37,39.61-15.8,58.71-27.91,6.27-4,12.76-8.08,19.42-12C596,85,630.87,75.33,661.53,75.33c25.83,0,47.85,6.38,65.44,19,17,12.13,28.78,29.64,35.13,52.05,4.76,16.79,6.58,36.54,5.56,60.39-.39,9.31-1.16,18.74-1.9,27.87-1.87,23.08-3.8,46.94.31,69.37,3.46,18.92,11.78,36.46,20.6,55,4.39,9.25,8.93,18.82,12.79,28.54a281.65,281.65,0,0,1,19.39,104.7c-.31,26.48-6.91,50-19.11,67.88-19.31,28.38-52.36,43.38-95.57,43.38a210.8,210.8,0,0,1-48.65-6c-5.43-1.31-10.81-2.81-16-4.25-14.19-3.95-27.59-7.68-41.34-7.68a70.5,70.5,0,0,0-8.55.51c-16.17,2-31.16,8.73-47,15.88-10.1,4.55-20.54,9.25-31.46,12.71a281.51,281.51,0,0,1-83.91,12.89Z" transform="translate(-141 77.02)"/><path class="cls-2" d="M396.41,165.2c-34.12,11.89-65,40-73.8,75.76-14,56.76,27,115.73,1.93,170.92-8.59,18.92-26.51,29.25-39,45.34-8.91,11.47-15.64,25.09-16.65,39.58-2.83,40.7,36.54,85,70.94,102.27,49.53,24.81,116.62,22.45,168.26,6.08,27.09-8.58,51.67-25.49,80.31-29,24.3-3,46.37,6.05,69.47,11.63,45.39,11,104.63,9.28,133.6-33.3,12.32-18.1,17.13-40.47,17.38-62.36a271.77,271.77,0,0,0-18.69-100.9c-11.23-28.3-28.39-55.16-33.93-85.46-6-32.8,0-66.54,1.44-99.46,1.61-37.89-3.29-80.12-36.52-103.89C679.59,72.7,614,86.06,573.37,109.7c-26.69,15.53-50.28,34.76-81.18,41-30.62,6.2-62.59,3.9-92.61,13.42C398.52,164.48,397.47,164.83,396.41,165.2Z" transform="translate(-141 77.02)"/><path class="cls-3" d="M396.41,165.2c-34.12,11.89-65,40-73.8,75.76-14,56.76,27,115.73,1.93,170.92-8.59,18.92-26.51,29.25-39,45.34-8.91,11.47-15.64,25.09-16.65,39.58-2.83,40.7,36.54,85,70.94,102.27,49.53,24.81,116.62,22.45,168.26,6.08,27.09-8.58,51.67-25.49,80.31-29,24.3-3,46.37,6.05,69.47,11.63,45.39,11,104.63,9.28,133.6-33.3,12.32-18.1,17.13-40.47,17.38-62.36a271.77,271.77,0,0,0-18.69-100.9c-11.23-28.3-28.39-55.16-33.93-85.46-6-32.8,0-66.54,1.44-99.46,1.61-37.89-3.29-80.12-36.52-103.89C679.59,72.7,614,86.06,573.37,109.7c-26.69,15.53-50.28,34.76-81.18,41-30.62,6.2-62.59,3.9-92.61,13.42C398.52,164.48,397.47,164.83,396.41,165.2Z" transform="translate(-141 77.02)"/><polygon class="cls-1" points="211.16 614.68 202.14 620.35 196.47 629.37 192.01 620.35 181.78 614.68 192.01 609 196.47 599.99 200.93 609 211.16 614.68"/><polygon class="cls-1" points="219.55 595.05 215.18 597.79 212.43 602.16 210.27 597.79 205.31 595.05 210.27 592.3 212.43 587.93 214.59 592.3 219.55 595.05"/><polygon class="cls-1" points="555.47 326.81 550.33 330.04 547.1 335.18 544.56 330.04 538.73 326.81 544.56 323.58 547.1 318.44 549.64 323.58 555.47 326.81"/><polygon class="cls-1" points="590.53 499.38 579.77 506.14 573 516.91 567.68 506.14 555.47 499.38 567.68 492.61 573 481.84 578.32 492.61 590.53 499.38"/><path class="cls-4" d="M554.4,196.88a81.87,81.87,0,0,0-30.27,19.87c-6.86,7.21-13.38,15-22.37,19.62-23.26,12-52.63,4.78-74.55,20.47-27.14,19.43-23.71,63.6-6.39,88.1,13.52,19.13,34.91,31.2,57.4,36.53,23.79,5.64,43,15,60.21,32.9,24.05,25,52.52,44.27,88.59,43.54,9.89-.19,20-2,28.41-7.16,17.89-11.1,26.26-32.58,27.09-52.89,1-24-12.73-45-15.84-68.32-3.32-25,7.39-49.76,2.8-74.71-6.08-33-36.19-56.39-68-62.35A87.84,87.84,0,0,0,554.4,196.88Z" transform="translate(-141 77.02)"/><path class="cls-4" d="M664.79,242.63c9.23,19.44,13.44,43.09,11.76,66-1,14-4.15,28.54-.8,41.91,1.44,5.77,4,10.89,6.23,16.21a106.6,106.6,0,0,1,8.49,43.53c-.44,15.17-5,30.39-13.36,40.58" transform="translate(-141 77.02)"/><path class="cls-4" d="M536.24,217c-16.38,19.2-48.3,16.49-70.9,18.39-31.36,2.63-61,25.77-64.25,58.27-1.95,19.59,5.13,41.16,14.44,58.18,4.93,9,16.38,30.66,29.68,23.46" transform="translate(-141 77.02)"/><path class="cls-4" d="M554.93,198.38c-7.73,4.67-16.54,7-25.26,8.93-8.45,1.91-17.89,3.11-25.53,7.37a41.65,41.65,0,0,0-16.52,16.89c-3.45,6.61-4.84,14.76-12.22,18.32" transform="translate(-141 77.02)"/><path class="cls-5" d="M490.24,376.63s5.85,6,17.81,6.43l72.77-.39,12.5-6s31.44,52.59,43.79,153.93c6.49,53.25,29.26,114.64,29.26,114.64H468.5V402.07l21.73-25.45" transform="translate(-141 77.02)"/><path class="cls-6" d="M468.31,394.16V553.38s-11.49,37.92-42.18,44.52C426.13,597.9,364.65,353.7,468.31,394.16Z" transform="translate(-141 77.02)"/><path class="cls-6" d="M414,418.73l54.32,40.64v9.73l-56.52-42.29C412.43,424,413.16,421.3,414,418.73Z" transform="translate(-141 77.02)"/><path class="cls-7" d="M490.23,376.62c-69.92-47.41-81.34,38.31-81.34,38.31l59.45,44.48,13-41.38Z" transform="translate(-141 77.02)"/><path class="cls-6" d="M615.32,394.16V553.38s11.49,37.92,42.18,44.52C657.5,597.9,719,353.7,615.32,394.16Z" transform="translate(-141 77.02)"/><path class="cls-6" d="M669.65,418.73l-54.32,40.64v9.73l56.53-42.29C671.22,424,670.48,421.3,669.65,418.73Z" transform="translate(-141 77.02)"/><path class="cls-6" d="M464.47,520.52l134.2,14.36A54.85,54.85,0,0,1,656.35,579a80.78,80.78,0,0,1,2,13.76c.37,8.12-6.24,14.64-14.09,12.58-26.21-6.87-92.14-30.76-184.78-64Z" transform="translate(-141 77.02)"/><polygon class="cls-6" points="269.83 579.44 258.3 588.85 272.06 618.4 278.25 620.35 269.83 579.44"/><path class="cls-6" d="M408.18,502.43l19.91-7a3.53,3.53,0,0,1,3.46.63l6.48,5.42,26.44,19-5,20.81a87.57,87.57,0,0,1-35.18,1l-7.69,1Z" transform="translate(-141 77.02)"/><path class="cls-7" d="M593.4,376.62c69.92-47.41,81.34,38.31,81.34,38.31l-59.45,44.48-13-41.38Z" transform="translate(-141 77.02)"/><polygon class="cls-6" points="534.91 538.42 546.44 547.83 532.68 577.38 526.5 579.32 534.91 538.42"/><path class="cls-6" d="M678.56,461.4l-19.9-7a3.56,3.56,0,0,0-3.46.63l-6.48,5.43-26.45,19,5,20.81a87.36,87.36,0,0,0,35.18,1l7.69,1Z" transform="translate(-141 77.02)"/><path class="cls-6" d="M624.69,478.46,471.62,528.4a54.85,54.85,0,0,0-47,55.39,79.27,79.27,0,0,0,1,13.88c1.36,8,9.2,13,16.43,9.3,24.16-12.27,104.81-55.36,188.28-107.56Z" transform="translate(-141 77.02)"/><path class="cls-6" d="M593.32,376.63l-12.5,6,1.63-54.23-58.83-3-15.57,57.63-17.81-6.43s-12.8,65.8,60,72.59C550.24,449.22,602.21,444.72,593.32,376.63Z" transform="translate(-141 77.02)"/><path class="cls-6" d="M533.12,283.12a16.47,16.47,0,1,1-3.85-23A16.47,16.47,0,0,1,533.12,283.12Z" transform="translate(-141 77.02)"/><path class="cls-6" d="M641.05,287.15c-20.62,81.89-78,83-84.83,81.94a31.25,31.25,0,0,1-9-2.47c-55.6-26.83-15.65-124.89-15.65-124.89s21.41-39.31,72-18.86C603.57,222.87,652.93,240,641.05,287.15Z" transform="translate(-141 77.02)"/><path class="cls-8" d="M556.23,369.07a30.92,30.92,0,0,1-9-2.46c-14.23-6.87-22.18-18.4-26.17-31.75l-2.42,9c4.18,12.44,12,23.11,25.48,29.61a31,31,0,0,0,9,2.46c2.79.42,14.19.48,28.07-5.32l.17-5.68C568.84,369.54,558.83,369.46,556.23,369.07Z" transform="translate(-141 77.02)"/><path class="cls-4" d="M631.82,312.47c-2.05-2.08-3-5-3.69-7.85-4.84-19.69,2.06-51.86-23.94-58.56-9.38-2.41-19.22-.9-28.72-.09-11.5,1-23.54,1-34.31-3.71a25.44,25.44,0,0,1-6.94-4.45,35.69,35.69,0,0,0-2,3s-.81,2-2,5.51a25.55,25.55,0,0,0,6.76,4.29c10.78,4.72,22.82,4.69,34.32,3.71,9.49-.81,19.34-2.32,28.72.1,26,6.69,19.09,38.87,23.94,58.56.7,2.84,1.64,5.76,3.69,7.84.25.25.5.46.74.67q2.16-4,4.16-8.41C632.3,312.9,632.06,312.71,631.82,312.47Z" transform="translate(-141 77.02)"/><path class="cls-4" d="M524.61,234.12q-.57,5.69-1.12,11.38c-.56,5.7-1,11.4-1.62,17.1-.28,2.85-.58,5.69-.93,8.54-.08.66-1.15,6.93,0,6.48.8-.31,4.72-6.7,5.6-8q2.52-3.69,5-7.43c3.33-5.1,6.53-10.29,9.39-15.66,4.06-7.61,7.79-15.66,9.6-24.13,0-.16.06-.31.1-.46Z" transform="translate(-141 77.02)"/><path class="cls-4" d="M638.29,315.22c3.81-1.9,6.68-8,8.5-11.35,11.13-20.49,15.2-45,5.7-66.94,0,0-19.15-35.84-67.49-38.46a62.83,62.83,0,0,0-33.4,7.67c-7.88,4.32-22.55,12.93-22.61,23.33,0,6.31,5.71,11.15,11.5,13.68,10.77,4.72,22.81,4.69,34.32,3.71,9.49-.81,19.34-2.32,28.72.1,26,6.7,19.09,38.87,23.93,58.56.7,2.84,1.64,5.76,3.7,7.84C633.8,316,636.19,316.27,638.29,315.22Z" transform="translate(-141 77.02)"/><path class="cls-8" d="M587.31,330.61a10.89,10.89,0,1,0,14.92-3.79A10.88,10.88,0,0,0,587.31,330.61Z" transform="translate(-141 77.02)"/><path class="cls-8" d="M526.18,306.5a10.89,10.89,0,1,0,14.92-3.79A10.89,10.89,0,0,0,526.18,306.5Z" transform="translate(-141 77.02)"/><path class="cls-9" d="M627.5,311.72s-11.51-19.85-30-11.36C597.52,300.36,613.29,295.25,627.5,311.72Z" transform="translate(-141 77.02)"/><path class="cls-9" d="M531.71,271.17s22-6.6,29.64,12.23C561.35,283.4,553.34,268.88,531.71,271.17Z" transform="translate(-141 77.02)"/><path class="cls-10" d="M573,339.37s-17.57,13.22-22.1-7.73Z" transform="translate(-141 77.02)"/><path class="cls-1" d="M549.51,325.83a16.15,16.15,0,0,0,26.56,11.51Z" transform="translate(-141 77.02)"/><polygon class="cls-10" points="433.19 413.54 424.7 407.74 423.09 407.54 420.73 405.82 410.3 403.63 433.19 413.54"/><path class="cls-8" d="M567.55,319.77l6.43,1.64a.83.83,0,0,0,1-.93l-1.35-9.06a.83.83,0,0,0-.94-.7l-.48.07a.84.84,0,0,0-.7.94l.88,5.89a.82.82,0,0,1-1,.92l-3.32-.84a.83.83,0,0,0-1,.6l-.12.47A.83.83,0,0,0,567.55,319.77Z" transform="translate(-141 77.02)"/><path class="cls-9" d="M617,319.18s-5.23,1.53-17.74-7.32C599.23,311.86,604.61,324.29,617,319.18Z" transform="translate(-141 77.02)"/><path class="cls-9" d="M551.55,292s-5.4.69-16.38-10C535.17,282,538.55,295.12,551.55,292Z" transform="translate(-141 77.02)"/><circle class="cls-11" cx="373.15" cy="360.5" r="2.94"/><path class="cls-9" d="M638.65,322.36c.59-1.5-2.61-2.69-4.59-3.27,2.63-11.8-4-24.31-16.15-29.08a25.91,25.91,0,0,0-29.57,7.25,25.1,25.1,0,0,0-21.23-8.35,25.9,25.9,0,0,0-16.66-25.51c-12.1-4.77-25.52-.18-31.65,10.24-1.81-.92-5.14-2.36-5.75-.82s2.42,2.88,4.34,3.62c-.07.19-.16.37-.23.55-5,12.75,1.72,27.4,15.05,32.66s28.27-.84,33.3-13.59a23.74,23.74,0,0,0,1.27-4.49,21.75,21.75,0,0,1,6.57.16,23.07,23.07,0,0,1,13.43,7.69,23.91,23.91,0,0,0-2.16,4.18c-5,12.75,1.73,27.4,15.06,32.65s28.26-.83,33.29-13.58c.07-.19.13-.38.2-.56C635.1,322.87,638.09,323.78,638.65,322.36ZM533.17,307.23c-12-4.73-18.1-17.87-13.6-29.29s17.93-16.86,29.93-12.12,18.1,17.87,13.59,29.29S545.16,312,533.17,307.23Zm67.46,26.61c-12-4.73-18.1-17.87-13.59-29.29S605,287.69,617,292.42s18.1,17.88,13.6,29.3S612.63,338.57,600.63,333.84Z" transform="translate(-141 77.02)"/><text class="cls-12" transform="translate(395.94 252.68)">c<tspan class="cls-13" x="48.5" y="0">r</tspan><tspan class="cls-14" x="87.8" y="0">e</tspan><tspan class="cls-15" x="136.15" y="0">a</tspan><tspan class="cls-16" x="182.35" y="0">t</tspan><tspan class="cls-17" x="223.5" y="0">i</tspan><tspan class="cls-18" x="241" y="0">v</tspan><tspan class="cls-19" x="293.45" y="0">i</tspan><tspan class="cls-20" x="313.15" y="0">t</tspan><tspan class="cls-21" x="352.1" y="0">y</tspan></text><polygon class="cls-7" points="182.51 233.34 149.69 247.41 158.18 255.51 131.56 283.9 139.77 289.76 164.75 261.79 175.48 272.02 182.51 233.34"/><path class="cls-2" d="M1170.54,565.36l-308.06-4.07a21.16,21.16,0,0,1-20.87-20.59l-4.73-176A21.16,21.16,0,0,1,858,343h317.54a21.17,21.17,0,0,1,21.15,21.72l-4.75,180A21.17,21.17,0,0,1,1170.54,565.36Z" transform="translate(-141 77.02)"/><rect class="cls-1" x="875.8" y="468.09" width="48.64" height="48.64" rx="9"/><rect class="cls-1" x="933.62" y="468.09" width="48.64" height="48.64" rx="9"/><rect class="cls-1" x="991.76" y="468.09" width="48.64" height="48.64" rx="9"/><rect class="cls-7" x="710.53" y="459.89" width="112.32" height="112.32"/><rect class="cls-1" x="914.47" y="548.23" width="125.93" height="9.02"/><rect class="cls-1" x="914.47" y="563.2" width="125.93" height="9.02"/><rect class="cls-1" x="914.47" y="578.16" width="125.93" height="9.02"/><rect class="cls-1" x="914.47" y="593.12" width="125.93" height="9.02"/><path class="cls-5" d="M716.82,420H1035.2a20.53,20.53,0,0,1,20.53,20.53v12.29a0,0,0,0,1,0,0H695.87a0,0,0,0,1,0,0V441A21,21,0,0,1,716.82,420Z"/><rect class="cls-1" x="923.61" y="432.62" width="116.62" height="5.27" rx="2.64"/><circle class="cls-1" cx="742.62" cy="518.78" r="16.7"/><circle class="cls-1" cx="845.07" cy="455.28" r="14.21"/><circle class="cls-22" cx="742.97" cy="517.36" r="31.97"/><circle class="cls-22" cx="845.07" cy="455.28" r="27.2"/><rect class="cls-1" x="711" y="582.67" width="189.12" height="44.59" rx="15.86"/><circle class="cls-23" cx="258.48" cy="199.68" r="7.84"/><circle class="cls-24" cx="590.53" cy="706.13" r="16.15"/><path class="cls-23" d="M332.09,25.61H465a18.18,18.18,0,0,1,18.18,18.18v83.59a20.71,20.71,0,0,1-20.71,20.71H339.67a27.21,27.21,0,0,1-27.21-27.21V45.23A19.63,19.63,0,0,1,332.09,25.61Z"/><rect class="cls-25" x="339.33" y="39.04" width="116.15" height="70.32" rx="2.29"/><rect class="cls-2" x="339.33" y="125.59" width="116.15" height="7.11" rx="2.29"/><rect class="cls-7" x="339.33" y="125.59" width="52.15" height="7.11" rx="2.29"/><path class="cls-7" d="M527-16.52V11.59a2.29,2.29,0,0,0,3.52,1.93L553.08-.84a2.29,2.29,0,0,0,0-3.89L530.43-18.48A2.29,2.29,0,0,0,527-16.52Z" transform="translate(-141 77.02)"/><rect class="cls-2" x="224.14" y="293.11" width="31.38" height="31.38" transform="translate(147.6 -2.12) rotate(45)"/><rect class="cls-7" x="723" y="-7.71" width="31.38" height="31.38" transform="translate(80.99 -442.98) rotate(45)"/><circle class="cls-2" cx="984.94" cy="289.76" r="27.89"/><circle class="cls-26" cx="984.94" cy="289.76" r="53.93"/><rect class="cls-27" x="719.05" y="35.38" width="206.29" height="160.39" rx="19.61"/><path class="cls-5" d="M738,35.38H906.38a19,19,0,0,1,19,19v3.21a0,0,0,0,1,0,0H719a0,0,0,0,1,0,0V54.34A19,19,0,0,1,738,35.38Z"/><rect class="cls-28" x="740.71" y="75.09" width="96.96" height="71.69" rx="7.03"/><rect class="cls-28" x="733.29" y="67.09" width="15.99" height="15.99" rx="2.17"/><rect class="cls-28" x="829.67" y="67.09" width="15.99" height="15.99" rx="2.17"/><path class="cls-29" d="M881.71,39.33,915.24,8.38,946.7,42.94l12.37-12.38L978.67,46V62.56a7.19,7.19,0,0,1-7.19,7.2H888.91a7.2,7.2,0,0,1-7.2-7.2Z" transform="translate(-141 77.02)"/><circle class="cls-7" cx="808.79" cy="94.17" r="8.77"/><polygon class="cls-28" points="872.22 80.24 887.25 80.24 900.07 94.17 900.07 110.93 872.22 110.93 872.22 80.24"/><polygon class="cls-2" points="901.54 75.09 908.84 78.6 893.38 96.08 885.22 98.91 885.22 91.35 901.54 75.09"/><rect class="cls-23" x="737.1" y="164.21" width="29.34" height="16.5"/><rect class="cls-23" x="772.69" y="164.21" width="29.34" height="16.5"/><rect class="cls-23" x="806.72" y="164.21" width="29.34" height="16.5"/><rect class="cls-2" x="863.46" y="120.99" width="45.38" height="7.74"/><rect class="cls-2" x="863.46" y="136.4" width="45.38" height="7.74"/><rect class="cls-2" x="863.46" y="151.82" width="45.38" height="7.74"/><rect class="cls-28" x="733.26" y="136.4" width="15.99" height="15.99" rx="2.17"/><rect class="cls-28" x="829.67" y="138.78" width="15.99" height="15.99" rx="2.17"/><circle class="cls-23" cx="900.77" cy="46.16" r="4.08"/><circle class="cls-2" cx="887.17" cy="46.16" r="4.08"/><circle class="cls-7" cx="873.81" cy="46.16" r="4.08"/><circle class="cls-28" cx="131.92" cy="118.57" r="70.3"/><circle class="cls-28" cx="131.92" cy="118.57" r="48.27"/><circle class="cls-7" cx="152.41" cy="98.53" r="8.6"/><rect class="cls-7" x="276.76" y="22.95" width="7.89" height="22.23" transform="translate(-34.7 -111.49) rotate(45)"/><rect class="cls-7" x="267.08" y="31.03" width="27.25" height="6.08" rx="2.73" transform="translate(-34.7 -111.49) rotate(45)"/><path class="cls-7" d="M257,28.13h15.06a0,0,0,0,1,0,0V63.68a6.75,6.75,0,0,1-6.75,6.75h-1.56A6.75,6.75,0,0,1,257,63.68V28.13a0,0,0,0,1,0,0Z" transform="translate(-28.68 -95.6) rotate(45)"/><rect class="cls-7" x="245.38" y="60.46" width="6.19" height="10.2" rx="2.77" transform="translate(-21.87 -79.48) rotate(45)"/><rect class="cls-5" x="660.81" y="350.86" width="60.31" height="46" rx="12.76"/><rect class="cls-1" x="827.7" y="279.2" width="10.41" height="36.27" transform="translate(-107.3 753.06) rotate(-45)"/><rect class="cls-1" x="827.7" y="279.2" width="10.41" height="36.27" transform="translate(313.19 -424.85) rotate(45)"/><rect class="cls-30" x="662.68" y="352.95" width="56.59" height="41.82" rx="12.76"/><path class="cls-31" d="M860.32,597.54v42.78H846.11v-3.81c-3.12,2.22-8.17,4.1-16.44,4.1-10.68,0-22.89-1.9-22.89-18.31,0-11.89,10.76-17.3,22.61-17.3a37.2,37.2,0,0,1,16.72,3.72V597.54Zm-14.21,23.08c-1.93-5.27-11.79-5.27-14.48-5.27s-9.7-.25-9.7,7.35c0,6.42,5.92,7.29,10.56,7.29,7.37,0,11.18-.67,13.62-4.52Z" transform="translate(-141 77.02)"/><path class="cls-31" d="M920.11,626H883.79c.36,2,3.4,3.72,11.08,3.72a73.49,73.49,0,0,0,18.75-2.43l6.13,9.89s-5.55,3.16-24.42,3.16c-21.23,0-26.14-7.3-26.14-18.13,0-11.21,8.33-18.13,25.79-18.13C911.07,604.05,921.3,609.42,920.11,626Zm-36.32-6.25h21.88c0-2.35-2.26-4.7-10.61-4.7C885.62,615,883.79,618,883.79,619.72Z" transform="translate(-141 77.02)"/><path class="cls-31" d="M976.28,629.51c0,9.3-3.57,12.14-24.85,12.14-10,0-19.2-.54-21.92-3.07l3.94-10.14c2.07,1.36,11.63,2.27,18.53,2.27,8.06,0,11,.17,11-1s-2.83-2-11.87-2c-15.12,0-22.76-1.94-22.76-11.27,0-10.74,7.62-11.82,24-11.82,15.57,0,19.3,1.39,23.25,3.53l-4.4,9.73c-3.83-1.45-12.52-2.57-19.77-2.57s-9.42-.1-9.42,1.24c0,1,1.79,1.75,9.31,1.75C971.34,618.25,976.29,620.17,976.28,629.51Z" transform="translate(-141 77.02)"/><path class="cls-31" d="M999.61,595.25v6.9H985.4v-6.9Zm0,9.66v35.4H985.4v-35.4Z" transform="translate(-141 77.02)"/><path class="cls-31" d="M1062.84,605.5v30c0,14-7.71,20.56-26.77,20.56s-26.15-3.82-26.15-3.82l4.65-11s4.89,4.17,18.49,4.17c16.58,0,15.57-9.5,15.57-9.5v-1.49c-1.41,3.5-8.82,6.26-16.73,6.26-11.85,0-22.6-3.54-22.6-16.11,0-17.36,12.2-19.37,22.89-19.37,8.27,0,13.31,2,16.44,4.34v-4Zm-14.21,18.61v-2.72c0-3.9-7.32-5.45-14.65-5.45-4.61,0-10.28,1-10.28,7,0,7.08,8.53,7.16,10.54,7.16s12.9,0,14.39-6Z" transform="translate(-141 77.02)"/><path class="cls-31" d="M1120.93,637.52v2.79h-14.22V628.63c0-5.25.35-13.13-9.4-13.13-5.74,0-8.37,2-10.64,4.35v20.46h-14.35v-35.4h14.35v4.87c3.92-2.75,7.29-5.17,15.37-5.17,6.63,0,13.89.84,16.8,7.52C1120.94,616.94,1120.94,624.25,1120.93,637.52Z" transform="translate(-141 77.02)"/><rect class="cls-7" x="33.65" y="472.23" width="156.13" height="106.26" rx="18.48"/><polyline class="cls-32" points="83.53 502.3 56.54 525.86 83.53 548.43"/><polyline class="cls-32" points="139.91 548.43 166.9 524.88 139.91 502.3"/><line class="cls-32" x1="123.81" y1="498.98" x2="100.94" y2="551.75"/></svg>