<svg xmlns="http://www.w3.org/2000/svg" enable-background="new 0 0 110 110" viewBox="0 0 110 110" id="business-foreseeing"><g><path fill="#fff" stroke="#001466" stroke-linecap="round" stroke-linejoin="round" stroke-miterlimit="10" stroke-width=".5" d="M93.4 42.7c-.5-1.2-2-1.8-3.3-2.1l-.6 1.3 3.6 1.2.3-.4zM71.8 43.2c.5-1.2 2-1.8 3.3-2.1l.6 1.3-3.7 1-.2-.2z"></path><path fill="#fdb870" d="M93.6 36.4v1c-.3 5.4-4.9 9.5-10.3 9.7h-.6c-5.4.2-10.3-3.5-11-8.9 0-.4-.1-.7-.1-1.1-.2-5.9 4.6-11 10.4-11.3 6.2-.3 11.4 4.5 11.6 10.6z"></path><path fill="#fff" stroke="#001466" stroke-linecap="round" stroke-linejoin="round" stroke-miterlimit="10" stroke-width=".5" d="M90.3 36.4v.7c-.2 3.7-3.4 6.6-7.2 6.7h-.4c-3.7.2-7.2-2.4-7.7-6.1 0-.3-.1-.5-.1-.8-.1-4.1 3.2-7.7 7.3-7.9 4.3-.2 7.9 3.1 8.1 7.4z"></path><path fill="none" stroke="#001466" stroke-linecap="round" stroke-linejoin="round" stroke-miterlimit="10" stroke-width=".5" d="M81 38c0 .9.7 1.6 1.6 1.6.9 0 1.6-.7 1.6-1.6 0-.9-.7-1.6-1.6-1.6-.9 0-1.6-.7-1.6-1.6 0-.9.7-1.6 1.6-1.6.9 0 1.6.7 1.6 1.6M82.6 33.3v-.6M82.6 40.2v-.6"></path><path fill="#fff" stroke="#001466" stroke-linecap="round" stroke-linejoin="round" stroke-miterlimit="10" stroke-width=".5" d="M91.1 43.2h-.2M78.5 84.2l-2.7-6.1c-3.3-1.5-3.9-4-3-6.9 0 0-9.5-9.4-10.1-10.6-.5-1.2 7.8-14.2 7.8-14.2s.3-2.8 1.6-3.6c1.3-.8 2.7-.9 4-1 1.3 0 1.9.6-1.3 1.3.4-.1.8-.1 1.3-.1 1.3 0 1.9.6-1.3 1.3.3 0 .6-.1 1-.1 1.3 0 1.9.6-1.3 1.3L69 59.6l7.1 5.7 1.4-.1 5.4-.5 4.1.3 2.6.3 7.1-5.7-5.4-13.9c-3.3-.7-2.6-1.4-1.3-1.4.4 0 .7 0 1 .1-3.2-.7-2.6-1.3-1.3-1.3.5 0 .9 0 1.3.1-3.2-.7-2.6-1.4-1.3-1.3 1.3 0 2.7.1 4 1 1.2.8 1.6 3.6 1.6 3.6s8.3 13.1 7.8 14.2C102.5 61.9 93 71.3 93 71.3l4.8 13M91 44.4h0M74.7 44.4h0M74.8 43.2h-.2M74.7 44.4h0s0 0 0 0M7 84.2l5.7-19.6c.7-2.6 3.8-3.8 6.1-2.4.9.5 1.6 1.3 2 1.8l3-2.2s4.2-2.2 8.1-.3c4.3-.2 14.4-.3 14.4-.3l-5-7.4c-.8-.9-2.7-1.5-3.2-2.4-1.3-2.5.6-7.8 1.7-6.6.4.5.2 1.6.2 1.6s.8-1.1 1.3.1c0 0 .9-.5 1.2.4 0 0 .8-1.4 1.6.5 0 0 .2 1 .4 1.7.2.6.6.9 1 1.4l8.4 11.3c1.5 2.1.3 5.1-2.3 5.5L35 69.6M61.5 38.8c1.4 3.2 3.1 5.6 4 5.6l-16.6 3.3c-.3.1-.5-.1-.7-.3l-2.1-4.8c-.1-.3 0-.6.2-.7l13.8-9.8c-.5.6 0 3.5 1.4 6.7z"></path><path fill="#113ffb" stroke="#001466" stroke-linecap="round" stroke-linejoin="round" stroke-miterlimit="10" stroke-width=".5" d="m48.4 47.6-8 2c-.3.1-.6-.1-.7-.3l-.8-1.9c-.1-.3 0-.6.2-.7l7-4.4 2.3 5.3z"></path><path fill="#fff" stroke="#001466" stroke-linecap="round" stroke-linejoin="round" stroke-miterlimit="10" stroke-width=".5" d="m39.7 49.3-7 2.5c-.3.1-.6 0-.7-.3h0c-.1-.3 0-.6.3-.7l6.6-3.3.8 1.8zM64.6 37.5c-1.5-3.4-3.4-5.9-4.2-5.6-.9.4-.3 3.4 1.1 6.9 1.5 3.4 3.4 5.9 4.2 5.5.8-.3.3-3.4-1.1-6.8z"></path><path fill="#001466" d="M63.9 37.8c-.9-2-1.9-3.4-2.4-3.2-.5.2-.2 2 .7 4 .9 2 1.9 3.4 2.4 3.2.5-.2.2-2-.7-4zM27.3 48.2s4.7 2.1 1.9 6.8c0 0 4 2.1-.2 4.4s-5.5-.6-5.5-.6l3.8-10.6z"></path><path fill="#fff" stroke="#001466" stroke-linecap="round" stroke-linejoin="round" stroke-miterlimit="10" stroke-width=".5" d="M17.7 61.7h0s4.1 7.2 7.8 5.9c3.7-1.3 2.4-6.8 2.4-6.8-.7 0-1.5.2-2.2.4l-.2-5.1c2.5-1.4 2.4-6 2.1-8.3-.1-1.3-.8-2.4-1.9-3-.8-.4-1.8-.7-3.1-.3-3.1 1-3.5 3.7-3.5 3.7s-1.6.1-1.6 1.9c-.1 1.8 1.8 1.7 1.8 1.7s-.2 1.7.7 3h-.1l.1 3.4c0 1.5-.9 2.9-2.3 3.5z"></path><path fill="#001466" d="M24.5 46.7s3.6 1.8 4.1-1.9c.5-3.7-3.6-6.1-5.7-2.5 0 0-5.2-1.6-7.1 2.5s-4.6 4.8-6.4 6c-.8.6-1.9 2.3.5 3.8 0 0-3.3 4 3.5 4 0 0 2.9 3.5 6.6 1.2 3.4-2.2.3-4.6.3-4.6s1.7-2.7-.9-3.4c-1.8-.5 1.2-4.8 1.2-4.8s1.9 2.2 3.9-.3z"></path><path fill="none" stroke="#001466" stroke-linecap="round" stroke-linejoin="round" stroke-miterlimit="10" stroke-width=".5" d="M18.1 71.8h0c-.7.4-1.3 1.2-1.5 2l-3.3 10.4"></path><path fill="#fff" stroke="#001466" stroke-linecap="round" stroke-linejoin="round" stroke-miterlimit="10" stroke-width=".5" d="M20.8 50.2c-.3-.6-1-.9-1.6-.7-.6.3-.9 1-.7 1.7.3.6 1 .9 1.6.7M24.9 49.5s-.1.8.5 1.2c.1.1.8.7-.2.5"></path><path fill="#001466" d="M26.3 52.7s-.8.7-2.3-.2c0 0 .5 1.4 1.4 1.4 1 .1.9-1.2.9-1.2z"></path><path fill="none" stroke="#001466" stroke-linecap="round" stroke-linejoin="round" stroke-miterlimit="10" stroke-width=".5" d="M24 49c-.5-.3-.9-.2-1.2.2M26.9 48.9c-.5-.3-.9-.2-1.2.2M23.8 50.2s-.2-.3-.3-.3c-.1 0-.2.3-.2.3M26.8 50.2s-.2-.3-.3-.3c-.1 0-.2.3-.2.3M19.8 50.8h-.4"></path><path fill="#fff" stroke="#001466" stroke-linecap="round" stroke-linejoin="round" stroke-miterlimit="10" stroke-width=".5" d="M39.1 52.4c-.2-.2-.4-.3-.6-.5-1.4-1.3-1.2-3.6.2-4.8h0c2.1-2 3.3-1.3 2.1.3l-1.3 1.8s2.4.3 1.6 2.6M46.8 52.2c-1.4 1.2-3.1 2.1-4.9 2.6"></path><path fill="#001466" d="M91.3 58.1c0 2.5-2 4.6-4.6 4.6-2.5 0-4.6-2-4.6-4.6 0-2.5 2-4.6 4.6-4.6 2.6.1 4.6 2.1 4.6 4.6z"></path><path fill="#001466" d="M83.4 58.1c0 2.3-1.8 4.1-4.1 4.1s-4.1-1.8-4.1-4.1 1.9-4.1 4.1-4.1c2.2 0 4.1 1.9 4.1 4.1z"></path><path fill="#001466" d="M85.6 53.6c0 2.5-2 4.5-4.5 4.5s-4.5-2-4.5-4.5 2-4.5 4.5-4.5c2.4-.1 4.5 2 4.5 4.5z"></path><path fill="#001466" d="M90.6 52.7c0 3-2.4 5.4-5.4 5.4s-5.4-2.4-5.4-5.4c0-3 2.4-5.4 5.4-5.4s5.4 2.5 5.4 5.4z"></path><path fill="#113ffb" stroke="#001466" stroke-linecap="round" stroke-linejoin="round" stroke-miterlimit="10" stroke-width=".5" d="M87 65v.2c-.5 2.5-2.5 4.2-5 4.2s-4.4-1.8-4.5-4.3l5.4-.5 4.1.4z"></path><path fill="#fff" stroke="#001466" stroke-linecap="round" stroke-linejoin="round" stroke-miterlimit="10" stroke-width=".5" d="M88 58.7c-.4 1.9-2.7 1.3-2.7 1.3s-1.5 3.5-.3 4.9c-.7 3.5-5.5 3.4-5.5.1 0 0 1.9-1.4 1.8-3.6 0 0-3.6.8-3.8-2.3-.2-3.9 1.7-7.4 4.1-8.6.5-.2.9-.4 1.4-.4 2.9-.2 2.8 6.3 2.8 7v.1h.2c.2 0 .6 0 1 .1.6 0 1.2.4 1 1.4z"></path><path fill="#001466" d="M85.8 57.2c-2.4 0-4.4-2.7-4.4-5.3 0-.5.1-.9.2-1.3.5-.2.9-.4 1.4-.4 2.9-.3 2.8 6.3 2.8 7zM87 57.2h-.2c-.3 0-.5 0-.8-.1.3 0 .6 0 1 .1zM79.8 55.3c0 .3-.2.5-.5.5s-.5-.2-.5-.5.2-.5.5-.5c.2 0 .5.2.5.5z"></path><path fill="none" stroke="#001466" stroke-linecap="round" stroke-linejoin="round" stroke-miterlimit="10" stroke-width=".5" d="M78.8 54s.8-.4 1.8.5"></path><path fill="#001466" d="M83.3 56.1c0 .3-.2.5-.5.5s-.5-.2-.5-.5.2-.5.5-.5.5.2.5.5z"></path><path fill="none" stroke="#001466" stroke-linecap="round" stroke-linejoin="round" stroke-miterlimit="10" stroke-width=".5" d="M82.3 54.8s.8-.4 1.8.5M81.3 55.3s-1.7 1.7-1 1.9M79.3 58.7s.3.7 1.3.1M86 58.5h.4M73.7 69.7l-.9 1.5"></path><path fill="#ff7757" d="M26.9 28.6v6.7c0 .3.2.5.5.5H29l-.4 1.1c-.1.3.2.6.5.4l2.8-1.6h6.9c.3 0 .5-.2.5-.5v-6.9c0-.3-.2-.5-.5-.5-1.6 0-.6.1-2.2.1-2 0-4 .1-6 .2-1.1.1-2.1-.1-3.1-.1-.4 0-.6.3-.6.6z"></path><path fill="#fff" d="M31.1 31.8c0 .5-.4.9-.9.9s-.9-.4-.9-.9.4-.9.9-.9.9.4.9.9zM34.2 31.8c0 .5-.4.9-.9.9s-.9-.4-.9-.9.4-.9.9-.9.9.4.9.9zM37.3 31.8c0 .5-.4.9-.9.9s-.9-.4-.9-.9.4-.9.9-.9.9.4.9.9z"></path><path fill="none" stroke="#001466" stroke-linecap="round" stroke-linejoin="round" stroke-miterlimit="10" stroke-width=".5" d="m34.9 67.5-.1 2.2s1.6 5.2-3.3 6.7L29 84.2M92.9 71.2l-.7-1.3M67.8 58.6l1.2 1M92.5 48.7l3.5-.9M69.4 48.1l3.4 1.1M96.7 59.6l.9-.6"></path><path fill="#113ffb" stroke="#001466" stroke-linecap="round" stroke-linejoin="round" stroke-miterlimit="10" stroke-width=".5" d="m46.3 61.3 1.6 1.7"></path><path fill="#001466" stroke="#001466" stroke-linecap="round" stroke-linejoin="round" stroke-miterlimit="10" stroke-width=".5" d="M25.5 56.1s-.7.3-2.3-.2c0 0 .8 1.4 2.4 1.6l-.1-1.4zM15.4 77.4l-.1 6.8-2-.1z"></path></g></svg>