<?xml version="1.0" encoding="utf-8"?>
<!-- Generator: Adobe Illustrator 27.9.0, SVG Export Plug-In . SVG Version: 6.00 Build 0)  -->
<svg version="1.1" id="coding" xmlns="http://www.w3.org/2000/svg" xmlns:xlink="http://www.w3.org/1999/xlink" x="0px" y="0px"
	 viewBox="0 0 1920 1280" style="enable-background:new 0 0 1920 1280;" xml:space="preserve">
<style type="text/css">
	.st0{fill:#FFFFFF;}
	.st1{fill:#001466;}
	.st2{fill:#113FFB;}
	.st3{fill:#FF7757;}
	.st4{fill:#1000DD;}
	.st5{fill:#FDB870;}
</style>
<rect class="st0" width="1920" height="1280"/>
<g>
	<g>
		<path class="st0" d="M654.2,657.1l48-69.1c0,0,122.9,71,168.9-136.3c0,0,28.8-9.6,26.9-17.3c-3.8-11.5-26.9-1.9-42.2-28.8
			c-15.4-26.9,23-167-111.3-230.3S592.7,278.9,502.5,597.6L654.2,657.1z"/>
		<path class="st1" d="M654.2,663.8c-0.8,0-1.6-0.1-2.5-0.4l-151.7-59.5c-3.2-1.3-4.9-4.8-4-8.1c13.8-48.8,25.9-94.1,37-135.5
			c45.3-169.4,72.7-271.7,130.1-298.3c23.3-10.8,50.8-8.5,84.1,7.3C852,218.6,855.4,311.7,857.5,367.4c0.6,15.9,1.1,29.7,4.1,34.9
			c7.7,13.6,17.3,16,25.8,18.2c6.7,1.7,14.3,3.7,17,11.8c2.3,9.1-7,17.2-27.5,24.5c-17.4,75.8-47.3,123.4-88.7,141.6
			c-36.5,16-70.7,4.1-83.7-1.9l-44.7,64.3C658.4,662.8,656.3,663.8,654.2,663.8z M510.6,593.6l141,55.3l45-64.7c2-2.9,5.8-3.8,8.9-2
			c0.4,0.2,38,21.3,77.3,3.9c37.9-16.7,65.4-62.5,81.7-135.9c0.5-2.3,2.2-4.2,4.4-4.9c8.7-2.9,17.7-7.2,21.3-10
			c-1.4-0.5-3.7-1.2-6.2-1.8c-9.4-2.4-23.5-6.1-34.1-24.5c-4.6-8.1-5.1-21.9-5.8-41.1c-1.9-52.6-5.2-140.6-102.5-186.5
			c-29.4-13.9-53.2-16.2-72.7-7.2c-51.7,24-80,129.6-122.8,289.6C535.4,503.5,523.8,546.9,510.6,593.6z"/>
	</g>
	<g>
		<path class="st1" d="M665.7,739.6c0,0,53.7-49.9-13.4-117.1C585.1,557.3,542.8,517,502.5,520.8c-30.7,3.8-34.6,149.7-34.6,149.7
			L665.7,739.6z"/>
	</g>
	<g>
		<path class="st1" d="M817.3,232.9l-5.8-7.7c0,0-25,138.2-130.5,151.6c-105.6,13.4-3.8,5.8-3.8,5.8l-1.9,63.3
			c-15.4,9.6-25,30.7-11.5,59.5c9.6,21.1,23,40.3,17.3,63.3c-7.7,36.5-48,57.6-86.4,57.6c-38.4,1.9-74.9,0-111.3-1.9
			c-59.5-1.9-128.6,21.1-155.5,72.9C297.1,755,253,778,239.5,835.6c-5.8,28.8-11.5,61.4-36.5,76.8c-17.3,11.5-42.2,11.5-63.3,5.8
			c-44.1-13.4-80.6-48-94.1-90.2C28.4,778,39.9,722.4,66.8,678.2c26.9-46.1,67.2-80.6,109.4-111.3s86.4-57.6,126.7-92.1
			c26.9-21.1,49.9-46.1,71-71c3.8-3.8,7.7-9.6,11.5-13.4c11.5-15.4,19.2-32.6,25-51.8c23-96,74.9-222.7,178.5-247.6
			C802,37.1,817.3,232.9,817.3,232.9z"/>
	</g>
	<g>
		<path class="st1" d="M845.3,502.1c-4.9,0-9.5-1.1-13.8-3.2c-17.1-8.6-22.5-31.3-22.7-32.2c-0.8-3.6,1.4-7.2,5.1-8
			c3.6-0.8,7.2,1.4,8.1,5c0,0.2,4.2,17.5,15.6,23.2c5.4,2.7,11.7,2.4,19.2-1c3.3-1.5,7.4,0,8.9,3.4c1.5,3.4,0,7.4-3.4,8.9
			C856.3,500.8,850.7,502.1,845.3,502.1z"/>
	</g>
	<g>
		<path class="st0" d="M683,442.1c-11.5,7.7-26.9,7.7-40.3,0c-17.3-11.5-23-34.6-13.4-51.8c11.5-17.3,34.6-23,51.8-13.4
			c5.8,3.8,11.5,9.6,15.4,15.4"/>
		<path class="st1" d="M663.5,454.6c-8.1,0-16.5-2.2-24.2-6.6c-20.6-13.7-27.4-40.3-16-60.9c13.7-20.6,40.4-27.5,61-16.1
			c7,4.6,13.4,11.1,17.7,17.5c2.1,3.1,1.2,7.3-1.9,9.3c-3.1,2.1-7.3,1.2-9.3-1.9c-3.3-5-8.5-10.2-13.5-13.5
			c-13.8-7.6-33.1-2.6-42.5,11.6c-7.6,13.8-2.6,33.1,11.6,42.5c10.8,6.2,23.5,6.2,32.9,0c3.1-2.1,7.3-1.2,9.3,1.9
			c2.1,3.1,1.2,7.3-1.9,9.3C679.8,452.3,671.8,454.6,663.5,454.6z"/>
	</g>
	<g>
		<path class="st1" d="M652.2,425.8c-3.7,0-6.7-3-6.7-6.7c0-3.7,3-6.7,6.7-6.7c1.3,0,2.8,0,3.3-0.1c0.5-0.5,0.7-0.8,1.4-1.1
			c2.1-1,3.4-2.5,3.8-4c0.3-1.2,0.1-2.4-0.7-3.5c-2.1-3.1-1.2-7.3,1.9-9.3c3.1-2.1,7.3-1.2,9.3,1.9c2.9,4.3,3.8,9.4,2.5,14.4
			c-1.3,5.1-4.9,9.4-9.9,12.2C660.2,425.8,656.3,425.8,652.2,425.8z"/>
	</g>
	<g>
		<path class="st1" d="M815.4,376.8c-3.8,5.8-11.5,7.7-17.3,3.8c-5.8-3.8-7.7-11.5-3.8-17.3c3.8-5.8,11.5-7.7,17.3-3.8
			C817.3,361.5,819.2,369.2,815.4,376.8z"/>
	</g>
	<g>
		<path class="st1" d="M777,345.2c-1.5,0-3-0.5-4.2-1.5c-2.9-2.3-3.3-6.6-1-9.4c8.8-10.8,18.9-16.6,30-17.2
			c17.7-1.2,31.2,12.2,31.8,12.8c2.6,2.6,2.6,6.8,0,9.5c-2.6,2.6-6.9,2.6-9.5,0c-0.1-0.1-9.7-9.9-21.7-8.9
			c-7.1,0.4-13.9,4.5-20.2,12.2C780.9,344.3,779,345.2,777,345.2z"/>
	</g>
	<g>
		<path class="st0" d="M1602.4,1062.1c0,9.6-94.1,17.3-211.2,17.3c-117.1,0-211.2-7.7-211.2-17.3s94.1-17.3,211.2-17.3
			C1506.5,1042.9,1602.4,1050.6,1602.4,1062.1z M1660,1188.8l-134.4,84.5c-1.9,1.9-5.8,1.9-7.7,1.9l-583.5-57.6
			c-13.4-1.9-17.3-17.3-5.8-25l126.7-74.9c1.9-1.9,5.8-1.9,7.7-1.9l591.2,48C1667.7,1165.8,1671.5,1183.1,1660,1188.8z"/>
		<path class="st1" d="M1518,1280l-584-57.6c-8.5-1.2-14.8-6.7-16.5-14.2c-1.7-7.4,1.6-14.9,8.5-19.5l126.9-75
			c2.4-2.6,7.6-2.6,10.1-2.6l591.6,48c8.8,1.2,15.4,7.6,16.8,15.9c1.2,7.5-2.3,14.5-9,18l-134.2,84.3
			C1525.7,1280,1520.5,1280,1518,1280z M1062.6,1120.7c-2.6,0-3.6,0.3-4,0.6l-127.6,75.5c-3.4,2.3-5.1,5.8-4.3,9.3
			c0.8,3.6,4,6.2,8.3,6.8l583.3,57.5c2.5,0,3.5-0.3,3.8-0.6l135.2-85.1c0.1-0.1,0.3-0.2,0.4-0.2c4.6-2.3,4.3-6.7,4-8
			c-0.5-3.2-3-7.1-8.3-7.9L1062.6,1120.7z M1391.3,1084.2c-50.7,0-216-1.6-216-22.1c0-20.5,165.3-22.1,216-22.1
			c96-1.6,200.2,3.6,213.5,16.6c2,2,2.5,4.1,2.5,5.5C1607.2,1082.6,1441.9,1084.2,1391.3,1084.2z M1188.6,1062.1
			c18.8,5.8,91.1,12.5,202.7,12.5c113.9,0,187-7,203.8-12.8c-16.2-6.7-89.2-14-203.7-12.1
			C1279.7,1049.7,1207.3,1056.4,1188.6,1062.1z M1598.1,1063.5h0.1H1598.1z"/>
	</g>
	<g>
		<path class="st2" d="M1504.5,1243.5h-15.4c-2.6,0-4.8-2.2-4.8-4.8c0-2.6,2.2-4.8,4.8-4.8h15.4c2.6,0,4.8,2.2,4.8,4.8
			C1509.3,1241.4,1507.2,1243.5,1504.5,1243.5z M1458.5,1239.7c-0.2,0-0.4,0-0.6,0l-15.4-1.9c-2.6-0.3-4.5-2.7-4.2-5.4
			c0.3-2.6,2.5-4.5,5.4-4.2l15.4,1.9c2.6,0.3,4.5,2.7,4.2,5.4C1462.9,1237.9,1460.9,1239.7,1458.5,1239.7z M1412.4,1233.9
			c-0.2,0-0.4,0-0.6,0l-15.4-1.9c-2.6-0.3-4.5-2.7-4.2-5.4c0.3-2.6,2.5-4.4,5.4-4.2l15.4,1.9c2.6,0.3,4.5,2.7,4.2,5.4
			C1416.9,1232.1,1414.8,1233.9,1412.4,1233.9z M1368.3,1228.2c-0.2,0-0.4,0-0.5,0l-17.3-1.9c-2.6-0.3-4.5-2.7-4.2-5.3
			c0.3-2.6,2.6-4.8,5.3-4.2l17.3,1.9c2.6,0.3,4.5,2.7,4.2,5.3C1372.7,1226.3,1370.7,1228.2,1368.3,1228.2z M1533.3,1222.4
			c-0.2,0-0.4,0-0.6,0l-15.4-1.9c-2.6-0.3-4.5-2.7-4.2-5.4c0.3-2.6,2.4-4.5,5.4-4.2l15.4,1.9c2.6,0.3,4.5,2.7,4.2,5.4
			C1537.8,1220.6,1535.7,1222.4,1533.3,1222.4z M1322.2,1222.4h-15.4c-2.6,0-4.8-2.2-4.8-4.8c0-2.6,2.2-4.8,4.8-4.8h15.4
			c2.6,0,4.8,2.2,4.8,4.8C1327,1220.3,1324.8,1222.4,1322.2,1222.4z M1487.2,1216.7c-0.2,0-0.4,0-0.6,0l-15.4-1.9
			c-2.6-0.3-4.5-2.7-4.2-5.4c0.3-2.6,2.4-4.5,5.4-4.2l15.4,1.9c2.6,0.3,4.5,2.7,4.2,5.4C1491.7,1214.9,1489.6,1216.7,1487.2,1216.7z
			 M1276.1,1216.7h-15.4c-2.6,0-4.8-2.2-4.8-4.8c0-2.6,2.2-4.8,4.8-4.8h15.4c2.6,0,4.8,2.2,4.8,4.8
			C1280.9,1214.5,1278.7,1216.7,1276.1,1216.7z M1441.2,1210.9c-0.2,0-0.4,0-0.6,0l-15.4-1.9c-2.6-0.3-4.5-2.7-4.2-5.4
			c0.3-2.6,2.5-4.4,5.4-4.2l15.4,1.9c2.6,0.3,4.5,2.7,4.2,5.4C1445.7,1209.1,1443.6,1210.9,1441.2,1210.9z M1397,1205.1h-17.3
			c-2.6,0-4.8-2.2-4.8-4.8c0-2.6,2.2-4.8,4.8-4.8h17.3c2.6,0,4.8,2.2,4.8,4.8C1401.8,1203,1399.7,1205.1,1397,1205.1z M1351,1201.3
			c-0.2,0-0.4,0-0.6,0l-15.4-1.9c-2.6-0.3-4.5-2.7-4.2-5.4c0.3-2.6,2.5-4.4,5.4-4.2l15.4,1.9c2.6,0.3,4.5,2.7,4.2,5.4
			C1355.4,1199.5,1353.4,1201.3,1351,1201.3z M1562.1,1199.4c-0.2,0-0.4,0-0.6,0l-15.4-1.9c-2.6-0.3-4.5-2.7-4.2-5.4
			c0.3-2.6,2.5-4.4,5.4-4.2l15.4,1.9c2.6,0.3,4.5,2.7,4.2,5.4C1566.6,1197.6,1564.5,1199.4,1562.1,1199.4z M1304.9,1195.5
			c-0.2,0-0.4,0-0.6,0l-15.4-1.9c-2.6-0.3-4.5-2.7-4.2-5.4c0.3-2.6,2.6-4.4,5.4-4.2l15.4,1.9c2.6,0.3,4.5,2.7,4.2,5.4
			C1309.4,1193.8,1307.3,1195.5,1304.9,1195.5z M1516,1193.6h-15.4c-2.6,0-4.8-2.2-4.8-4.8s2.2-4.8,4.8-4.8h15.4
			c2.6,0,4.8,2.2,4.8,4.8S1518.7,1193.6,1516,1193.6z M1047.7,1191.7c-0.2,0-0.4,0-0.6,0l-15.4-1.9c-2.6-0.3-4.5-2.7-4.2-5.4
			c0.3-2.6,2.5-4.5,5.4-4.2l15.4,1.9c2.6,0.3,4.5,2.7,4.2,5.4C1052.1,1189.9,1050.1,1191.7,1047.7,1191.7z M1470,1189.8
			c-0.2,0-0.4,0-0.6,0l-15.4-1.9c-2.6-0.3-4.5-2.7-4.2-5.4c0.3-2.6,2.5-4.4,5.4-4.2l15.4,1.9c2.6,0.3,4.5,2.7,4.2,5.4
			C1474.4,1188,1472.4,1189.8,1470,1189.8z M1425.8,1184c-0.2,0-0.4,0-0.6,0l-15.4-1.9c-2.6-0.3-4.5-2.7-4.2-5.4
			c0.3-2.6,2.5-4.5,5.4-4.2l15.4,1.9c2.6,0.3,4.5,2.7,4.2,5.4C1430.3,1182.2,1428.2,1184,1425.8,1184z M1379.8,1178.3
			c-0.2,0-0.4,0-0.6,0l-15.4-1.9c-2.6-0.3-4.5-2.7-4.2-5.4c0.3-2.6,2.4-4.5,5.4-4.2l15.4,1.9c2.6,0.3,4.5,2.7,4.2,5.4
			C1384.2,1176.5,1382.1,1178.3,1379.8,1178.3z M1333.7,1172.5h-15.4c-2.6,0-4.8-2.2-4.8-4.8c0-2.6,2.2-4.8,4.8-4.8h15.4
			c2.6,0,4.8,2.2,4.8,4.8C1338.5,1170.3,1336.3,1172.5,1333.7,1172.5z M1287.6,1168.7c-0.2,0-0.4,0-0.6,0l-15.4-1.9
			c-2.6-0.3-4.5-2.7-4.2-5.4c0.3-2.6,2.5-4.5,5.4-4.2l15.4,1.9c2.6,0.3,4.5,2.7,4.2,5.4C1292.1,1166.9,1290,1168.7,1287.6,1168.7z
			 M1076.5,1168.7c-0.2,0-0.4,0-0.6,0l-15.4-1.9c-2.6-0.3-4.5-2.7-4.2-5.4c0.3-2.6,2.4-4.5,5.4-4.2l15.4,1.9
			c2.6,0.3,4.5,2.7,4.2,5.4C1080.9,1166.9,1078.9,1168.7,1076.5,1168.7z M1243.5,1162.9c-0.2,0-0.4,0-0.5,0l-17.3-1.9
			c-2.6-0.3-4.5-2.7-4.2-5.3c0.3-2.6,2.6-4.8,5.3-4.2l17.3,1.9c2.6,0.3,4.5,2.7,4.2,5.3C1248,1161.1,1245.9,1162.9,1243.5,1162.9z
			 M1197.4,1157.1c-0.2,0-0.4,0-0.6,0l-15.4-1.9c-2.6-0.3-4.5-2.7-4.2-5.4c0.3-2.6,2.6-4.4,5.4-4.2l15.4,1.9
			c2.6,0.3,4.5,2.7,4.2,5.4C1201.9,1155.4,1199.8,1157.1,1197.4,1157.1z M1151.3,1151.4H1136c-2.6,0-4.8-2.2-4.8-4.8
			c0-2.6,2.2-4.8,4.8-4.8h15.4c2.6,0,4.8,2.2,4.8,4.8C1156.1,1149.2,1154,1151.4,1151.3,1151.4z M1105.3,1145.6h-15.4
			c-2.6,0-4.8-2.2-4.8-4.8c0-2.6,2.2-4.8,4.8-4.8h15.4c2.6,0,4.8,2.2,4.8,4.8C1110.1,1143.5,1107.9,1145.6,1105.3,1145.6z"/>
	</g>
	<g>
		<path class="st3" d="M1694.6,885.5c-7.7,19.2-26.9,30.7-46.1,32.6h-71c19.2-1.9,36.5-15.4,44.1-32.6
			c51.8-111.3,201.6-464.5,184.3-481.8c-15.4-17.3-57.6-26.9-115.2-34.6c92.1,5.8,165.1,17.3,186.2,40.3
			C1894.2,426.8,1746.4,774.2,1694.6,885.5z"/>
		<path class="st1" d="M1577.5,923c-2.5,0-4.7-2-4.8-4.6c-0.1-2.6,1.8-4.8,4.3-5c16.9-1.7,33.1-13.6,40.2-29.8
			c58.9-126.6,195.2-453.8,185-476.9c-16-17.9-68.3-26.9-112.1-32.8c-2.6-0.3-4.4-2.7-4.1-5.2c0.2-2.6,2.4-4.6,5.1-4.3
			c109.3,6.8,169.5,20.1,189.4,41.9c24.3,24.4-177.1,471.6-181.5,481.2c-7.8,19.3-27.4,33.3-50,35.5L1577.5,923z M1604.1,913.4h44.4
			c18.7-1.9,35.2-13.5,41.6-29.6c0-0.1,0.1-0.2,0.1-0.2c59.9-128.7,193.3-448.2,183-471c-11.7-12.7-43.3-22.8-94.2-30
			c14.5,5.2,24.2,11.1,30.4,18.1c24.4,24.5-181.4,482.5-183.5,487C1621.3,898.1,1613.5,907.1,1604.1,913.4z"/>
	</g>
	<g>
		<path class="st0" d="M1807.8,401.8c15.4,17.3-132.4,370.5-186.2,481.8c-9.6,19.2-28.8,32.6-48,32.6c0,0-564.4,0-662.2-17.3
			c-63.3-11.5,136.3-579.7,180.4-572C1297.2,365.3,1748.3,336.5,1807.8,401.8z"/>
		<path class="st1" d="M1573.6,921c-23.1,0-565.9-0.2-663.1-17.4c-17.6-3.2-20.9-32.4-10.3-92c26.8-151,150.4-496.4,192.4-489.4
			c84.5,15.8,211.6,20.2,334.6,24.5c178.9,6.2,347.8,12.1,384.1,51.9c0,0,0,0,0,0c20.2,22.7-152.6,418.9-185.5,487.1
			C1615.4,906.8,1594.3,921,1573.6,921z M1090.3,331.6c-28.1,0-150.4,311.8-180.6,481.7c-10.2,57.5-5.4,79.5,2.5,80.9
			c96.3,17,655.7,17.2,661.4,17.2c17.2,0,34.7-12.1,43.7-30c58-120.1,194.7-452.1,186.7-476.7c-34.2-36.6-208.5-42.6-377.1-48.5
			c-123.3-4.3-250.8-8.7-335.9-24.6C1090.7,331.6,1090.6,331.6,1090.3,331.6z"/>
	</g>
	<g>
		<path class="st2" d="M909.5,804.9c-11.5,55.7-11.5,92.1,3.8,96c97.9,17.3,662.2,17.3,662.2,17.3c19.2,0,38.4-13.4,48-32.6
			c9.6-21.1,11.5-23,25-55.7L909.5,804.9z"/>
		<path class="st1" d="M1575.6,923c-23.1,0-565.9-0.2-663.1-17.3c-18.5-4.6-20.9-37.8-7.7-101.7c0.5-2.3,2.7-3.7,4.9-3.8l739,25
			c1.6,0.1,3,0.9,3.9,2.2c0.9,1.3,1,3,0.4,4.4c-9.2,22.3-13.1,30.4-17.6,39.9c-2.1,4.4-4.4,9.2-7.5,16
			C1617.3,908.8,1596.3,923,1575.6,923z M913.4,809.8c-12.1,60.4-7.4,84.3,1.1,86.4c96,16.9,655.4,17.1,661.1,17.1
			c17.2,0,34.7-12,43.7-30c3-6.7,5.3-11.5,7.5-16c4-8.3,7.5-15.7,14.7-33L913.4,809.8z"/>
	</g>
	<g>
		<path class="st2" d="M563.9,1275.2H101.3c0,0-1.9-32.6,21.1-67.2c7.7-13.4,21.1-26.9,36.5-40.3l11.5,5.8
			c94.1,28.8,205.4,38.4,334,26.9c9.6,0,19.2-5.8,26.9-13.4c11.5,11.5,25,32.6,30.7,57.6C563.9,1254.1,565.9,1265.6,563.9,1275.2z"
			/>
	</g>
	<g>
		<path class="st4" d="M562,1244.5c-3.8,0-7.7,1.9-11.5,1.9c-36.5,5.8-72.9,7.7-109.4,7.7c-65.3,1.9-130.5-3.8-193.9-17.3
			c-32.6-5.8-63.3-13.4-96-23c-9.6-1.9-21.1-3.8-32.6-7.7c7.7-13.4,21.1-26.9,36.5-40.3l11.5,5.8c94.1,28.8,205.4,38.4,334,26.9
			c9.6,0,19.2-5.8,26.9-13.4C544.8,1198.4,558.2,1219.5,562,1244.5z"/>
	</g>
	<g>
		<path class="st1" d="M563.9,1280H101.3c-2.6,0-4.7-2.1-4.8-4.6c-0.1-2.6-1.3-64.4,59.4-113.3c1.4-1.2,3.4-1.4,5.2-0.6l11.5,5.8
			c93.9,28.7,205.6,37.7,331.4,26.4c9.9-2,17.8-6,23.9-12.1c1.8-1.8,4.7-1.9,6.6-0.2c21.2,19.1,40,55.7,34.2,94.5
			C568.3,1278.3,566.3,1280,563.9,1280z M106.3,1270.4h453.4c3.2-31.8-11.3-61.6-28.5-78.9c-6.9,5.7-15.4,9.5-25.9,11.6
			c-127.6,11.4-240.5,2.3-336.4-27l-9.5-4.7C114.2,1209.4,107.3,1255.8,106.3,1270.4z"/>
	</g>
	<g>
		<path class="st0" d="M1310.7,1179.2c-9.6-7.7-23-21.1-30.7-30.7c5.8,9.6,7.7,19.2,3.8,23c-3.8,3.8-11.5,1.9-19.2-1.9
			c3.8,7.7,3.8,13.4,0,17.3c-3.8,3.8-7.7,1.9-15.4,0c0,3.8,0,7.7-1.9,9.6c-5.8,3.8-15.4,0-26.9-5.8c-5.8,11.5-11.5,17.3-71,0
			c0,0-314.8,67.2-351.3,55.7c-30.7-9.6-92.1-88.3-144-167l0,0c-11.5,11.5-23,17.3-34.6,23c-26.9,11.5-51.8,5.8-51.8,5.8l-23,61.4
			c-5.8,17.3-21.1,28.8-40.3,30.7c-130.5,11.5-241.9,1.9-334-26.9c-25-7.7-38.4-32.6-30.7-57.6c32.6-109.4,122.9-401.2,218.8-466.5
			c26.9-19.2,69.1-26.9,94.1-28.8c74.9-1.9,213.1,23,264.9,130.5C790.5,904.7,892.2,1089,892.2,1089l245.7-17.3
			c0,0,51.8-9.6,88.3-7.7c34.6,1.9,101.7,80.6,111.3,97.9C1360.6,1196.5,1329.9,1192.7,1310.7,1179.2z"/>
		<path class="st1" d="M811.2,1252.4c-6.5,0-11.4-0.4-14.5-1.4c-39.6-12.4-116.1-123.1-143.4-164.2c-10.7,9.5-21.3,14.8-31.6,19.9
			c-21.9,9.4-42.3,8-50.9,6.9l-21.7,57.7c-6.2,18.7-23.2,31.7-44.3,33.8c-129,11.4-242,2.3-335.9-27.1
			c-27.4-8.4-42.2-36.3-33.9-63.6c79.2-265.5,153.4-423.3,220.7-469c25.7-18.3,66.6-27.3,96.4-29.6c75.5-1.9,216.9,23.9,269.6,133.2
			c67.3,141.7,160.3,311.6,173.1,334.9l242.6-17.1c1.6-0.3,52.2-9.4,88.9-7.7c38.5,2.1,107.1,85.7,115.3,100.4
			c9.5,14.2,11.4,24.6,5.4,30.4c-7.9,7.8-26.2,2.2-39.2-6.9c-0.1-0.1-0.2-0.1-0.2-0.2c-5.1-4.1-11.3-9.8-17.2-15.7
			c-0.3,3-1.3,5.6-3.3,7.6c-3.4,3.5-8.5,4.3-15,2.7c0.7,6.1-1.6,10.1-4.2,12.6c-4.5,4.5-9.2,4-14.2,2.8c-0.4,2.6-1.2,5-3.1,6.9
			c-7.9,5.3-17.8,2.1-28.3-2.9c-7.5,11.5-20.3,13.9-73.2-1.3C1127,1200.4,880.9,1252.4,811.2,1252.4z M654.2,1074.6
			c0.2,0,0.3,0,0.5,0c1.4,0.1,2.7,0.9,3.5,2.1c60.9,92.5,116.4,157.3,141.4,165.1c28.9,9.1,261.6-37.2,348.8-55.8
			c0.7-0.2,1.6-0.2,2.3,0.1c58.3,16.9,61.2,10.9,65.4,2.5c0.6-1.1,1.6-2,2.8-2.4c1.2-0.4,2.5-0.3,3.7,0.3c5.8,2.9,17.8,9,22.1,6.1
			c-0.2-0.2-0.2-3.6-0.2-5.6c0-1.5,0.7-2.9,1.9-3.8c1.2-0.9,2.7-1.2,4.1-0.9l3.3,0.9c6,1.6,6.4,1.4,7.5,0.4
			c2.2-2.2,1.9-6.1-0.9-11.7c-0.9-1.9-0.6-4.1,0.9-5.5c1.5-1.5,3.7-1.8,5.5-0.9c7.6,3.8,12.3,4.1,13.7,2.8c1.3-1.3,0.9-8.1-4.6-17.2
			c-1.3-2.2-0.7-5,1.4-6.4c2-1.4,4.9-1,6.5,0.9c7.4,9.3,20.5,22.4,29.9,29.9c11.6,8.1,24.3,10.3,26.9,7.8c0.9-0.9,1.5-6-6.9-18.6
			c-10.6-19-76.1-94-107.6-95.8c-35.2-2.1-86.6,7.5-87.1,7.6l-246.3,17.3c-1.9,0.4-3.6-0.8-4.5-2.5c-1-1.9-102.7-186.2-174.8-338.1
			c-50.6-104.9-187.6-129.8-260.4-127.8c-28.2,2.2-67.3,10.7-91.4,27.9c-45.1,30.6-119.2,135.9-217,463.9
			c-6.9,22.5,4.9,44.7,27.5,51.6c92.7,29,204.5,37.9,332.2,26.7c17.5-1.7,31-12,36.2-27.4l23.1-61.6c0.8-2.2,3.2-3.5,5.6-3
			c0.2,0.1,23.8,5.2,48.9-5.5c11.2-5.6,22.1-11,33.1-22C651.7,1075.1,652.9,1074.6,654.2,1074.6z"/>
	</g>
	<g>
		<path class="st1" d="M654.2,1084.8c-1.7,0-3.4-0.8-4.5-2.4c-51.3-76-95.7-151.2-96.2-151.9c-0.4-0.8-9.4-21.5-24.9-25.1
			c-8.1-1.9-17,1.2-26.5,9.2c-2.2,1.9-5.6,1.6-7.6-0.6c-1.9-2.3-1.6-5.7,0.6-7.6c12.2-10.4,24.3-14.3,35.9-11.5
			c20.9,4.9,31.6,29.7,32,30.8c0.1,0.1,44.3,75,95.5,150.8c1.7,2.5,1,5.8-1.4,7.5C656.3,1084.5,655.2,1084.8,654.2,1084.8z"/>
	</g>
	<g>
		<path class="st0" d="M1253.1,1154.3c3.8,3.8,7.7,7.7,11.5,13.4 M1239.6,1173.5c3.8,3.8,7.7,7.7,9.6,11.5 M1197.4,1181.1
			c7.7,1.9,15.4,3.8,23,9.6"/>
		<path class="st1" d="M1220.4,1196.1c-1.1,0-2.2-0.4-3.2-1.1c-6.8-5.1-13.7-6.8-21-8.7l2.5-10.4l-1.3,5.2l1.4-5.2
			c8,2,16.3,4.1,24.9,10.5c2.4,1.8,2.8,5.2,1.1,7.5C1223.7,1195.4,1222.1,1196.1,1220.4,1196.1z M1249.2,1190.4c-2,0-3.9-1.1-4.8-3
			c-1.6-3.1-5.3-6.8-8.6-10.1c-2.1-2.1-2.1-5.5,0-7.6c2.1-2.1,5.5-2.1,7.6,0c3.9,3.8,8.2,8.2,10.6,12.9c1.3,2.7,0.3,5.9-2.4,7.2
			C1250.9,1190.2,1250,1190.4,1249.2,1190.4z M1264.6,1173.1c-1.7,0-3.4-0.8-4.5-2.4c-3.6-5.3-7.1-8.8-10.9-12.6
			c-2.1-2.1-2.1-5.5,0-7.6c2.1-2.1,5.5-2.1,7.6,0c4,4,8,8,12.2,14.2c1.6,2.5,1,5.8-1.5,7.4
			C1266.6,1172.8,1265.6,1173.1,1264.6,1173.1z"/>
	</g>
	<g>
		<path class="st0" d="M1481.5,1058.3h-153.6l-76.8-144l157.4,3.8L1481.5,1058.3z"/>
		<path class="st1" d="M1481.5,1063.1h-153.6c-1.8,0-3.4-1-4.2-2.5l-76.8-144c-0.8-1.5-0.7-3.3,0.2-4.8c0.9-1.5,2.5-2.2,4.2-2.3
			l157.4,3.8c1.7,0,3.3,1,4.1,2.6l72.9,140.1c0.8,1.5,0.7,3.3-0.2,4.7C1484.7,1062.2,1483.2,1063.1,1481.5,1063.1z M1330.8,1053.5
			h142.8l-68-130.6l-146.4-3.5L1330.8,1053.5z"/>
	</g>
	<g>
		<path class="st0" d="M1448.9,1058.3h-153.6l-76.8-144l157.4,3.8L1448.9,1058.3z"/>
		<path class="st1" d="M1448.9,1063.1h-153.6c-1.8,0-3.4-1-4.2-2.5l-76.8-144c-0.8-1.5-0.7-3.3,0.2-4.8c0.9-1.5,2.3-2.2,4.2-2.3
			l157.4,3.8c1.7,0,3.3,1,4.1,2.6l72.9,140.1c0.8,1.5,0.7,3.3-0.1,4.7C1452.1,1062.2,1450.5,1063.1,1448.9,1063.1z M1298.2,1053.5
			h142.8l-68-130.6l-146.4-3.5L1298.2,1053.5z"/>
	</g>
	<g>
		<path class="st1" d="M1036.2,1218.6c-2.2,0-4.1-1.5-4.7-3.7l-30.7-130.5c-0.6-2.6,1-5.2,3.6-5.8c2.7-0.6,5.2,1,5.8,3.6l30.7,130.5
			c0.6,2.6-1,5.2-3.6,5.8C1036.9,1218.5,1036.5,1218.6,1036.2,1218.6z M1327.9,738.7c0,0-0.1,0-0.1,0l-170.8-3.8
			c-2.6-0.1-4.7-2.2-4.7-4.9c0.1-2.6,2.3-4.6,4.9-4.7l170.8,3.8c2.6,0.1,4.7,2.2,4.7,4.9C1332.7,736.6,1330.5,738.7,1327.9,738.7z
			 M1066.9,732.9h-44.1c-2.6,0-4.8-2.2-4.8-4.8c0-2.6,2.2-4.8,4.8-4.8h44.1c2.6,0,4.8,2.2,4.8,4.8
			C1071.7,730.8,1069.5,732.9,1066.9,732.9z M1327.9,694.5c0,0-0.1,0-0.1,0l-151.6-3.8c-2.7-0.1-4.8-2.3-4.7-4.9
			c0.1-2.7,1.7-4.7,4.9-4.7l151.6,3.8c2.7,0.1,4.7,2.3,4.7,4.9C1332.7,692.5,1330.5,694.5,1327.9,694.5z M1086.1,688.8h-42.2
			c-2.6,0-4.8-2.2-4.8-4.8c0-2.6,2.2-4.8,4.8-4.8h42.2c2.6,0,4.8,2.2,4.8,4.8C1090.9,686.6,1088.7,688.8,1086.1,688.8z
			 M1354.8,650.4c0,0-0.1,0-0.1,0l-157.4-3.8c-2.7-0.1-4.7-2.3-4.7-4.9s2.3-4.2,4.9-4.7l157.4,3.8c2.7,0.1,4.7,2.3,4.7,4.9
			C1359.6,648.3,1357.4,650.4,1354.8,650.4z M1086.1,644.6h-44.1c-2.6,0-4.8-2.1-4.8-4.8s2.2-4.8,4.8-4.8h44.1
			c2.6,0,4.8,2.1,4.8,4.8S1088.7,644.6,1086.1,644.6z M1592.8,610.1C1592.8,610.1,1592.8,610.1,1592.8,610.1l-376.3-7.7
			c-2.7-0.1-4.8-2.2-4.7-4.9c0.1-2.7,2.2-4.3,4.9-4.7l376.2,7.7c2.7,0.1,4.8,2.2,4.7,4.9C1597.6,608,1595.4,610.1,1592.8,610.1z
			 M1105.3,600.5c-0.1,0-0.1,0-0.2,0l-44.1-1.9c-2.6-0.1-4.7-2.4-4.6-5c0.1-2.7,2.4-4.6,5-4.6l44.1,1.9c2.6,0.1,4.7,2.4,4.6,5
			C1110,598.5,1107.8,600.5,1105.3,600.5z M1487.2,562.1C1487.2,562.1,1487.2,562.1,1487.2,562.1l-249.6-3.8c-2.6,0-4.8-2.2-4.7-4.9
			c0-2.6,2.2-5.2,4.9-4.7l249.5,3.8c2.6,0,4.8,2.2,4.7,4.9C1492,560,1489.9,562.1,1487.2,562.1z M1147.5,556.3h-44.2
			c-2.6,0-4.8-2.1-4.8-4.8c0-2.7,2.2-4.8,4.8-4.8h44.2c2.6,0,4.8,2.1,4.8,4.8C1152.3,554.2,1150.1,556.3,1147.5,556.3z
			 M1506.4,517.9C1506.4,517.9,1506.4,517.9,1506.4,517.9l-249.6-3.8c-2.6,0-4.8-2.2-4.7-4.9c0-2.6,2.2-4.7,4.8-4.7c0,0,0.1,0,0.1,0
			l249.5,3.8c2.6,0,4.8,2.2,4.7,4.9C1511.2,515.8,1509.1,517.9,1506.4,517.9z M1166.7,512.2h-44.2c-2.6,0-4.8-2.1-4.8-4.8
			c0-2.7,2.2-4.8,4.8-4.8h44.2c2.6,0,4.8,2.1,4.8,4.8C1171.5,510,1169.3,512.2,1166.7,512.2z M1652.3,475.7
			C1652.3,475.7,1652.3,475.7,1652.3,475.7l-374.4-5.8c-2.6,0-4.8-2.2-4.7-4.9c0-2.6,2.2-4.7,4.8-4.7c0,0,0.1,0,0.1,0l374.3,5.8
			c2.6,0,4.8,2.2,4.7,4.9C1657.1,473.6,1655,475.7,1652.3,475.7z M1164.8,468c-0.1,0-0.1,0-0.2,0l-44.1-1.9c-2.6-0.1-4.7-2.4-4.6-5
			c0.1-2.7,2.3-4.4,5-4.6l44.1,1.9c2.6,0.1,4.7,2.4,4.6,5C1169.5,466,1167.3,468,1164.8,468z M1671.5,431.6
			C1671.5,431.6,1671.5,431.6,1671.5,431.6l-374.4-5.8c-2.6,0-4.8-2.2-4.7-4.9c0-2.7,2.1-4.9,4.9-4.7l374.3,5.8
			c2.6,0,4.8,2.2,4.7,4.9C1676.3,429.5,1674.2,431.6,1671.5,431.6z M1185.9,423.9c-0.1,0-0.1,0-0.2,0l-44.2-1.9
			c-2.6-0.1-4.7-2.4-4.6-5c0.1-2.7,2.5-4.5,5-4.6l44.2,1.9c2.6,0.1,4.7,2.4,4.6,5C1190.6,421.9,1188.4,423.9,1185.9,423.9z"/>
	</g>
	<g>
		
			<ellipse transform="matrix(0.6917 -0.7222 0.7222 0.6917 -152.0218 1382.5787)" class="st0" cx="1543.3" cy="869.3" rx="19.2" ry="15.4"/>
	</g>
	<g>
		<path class="st3" d="M1575.6,737.7c-5.8,17.3-11.5,30.7-13.4,32.6c-9.6,5.8-168.9,1.9-184.3-7.7c-3.8-1.9,7.7-49.9,17.3-86.4
			c5.8-19.2,11.5-34.6,13.4-38.4c13.4-13.4,184.3,0,188.1,7.7C1598.6,647.5,1587.1,701.2,1575.6,737.7z"/>
	</g>
	<g>
		<path class="st0" d="M1458.5,748.3c-0.6,0-1.3-0.1-1.9-0.4c-2.4-1-3.6-3.8-2.6-6.3l34.6-82.5c1-2.4,3.9-3.6,6.3-2.6
			c2.4,1,3.6,3.8,2.6,6.3l-34.6,82.5C1462.1,747.2,1460.3,748.3,1458.5,748.3z M1502.6,738.7c-1.7,0-3.3-0.9-4.2-2.5
			c-1.3-2.3-0.4-5.2,1.9-6.5c7-3.9,14.1-9.4,14.8-11.5c-0.7-1.3-7.8-6.8-14.8-10.8c-2.3-1.3-3.1-4.2-1.9-6.5
			c1.3-2.3,4.2-3.2,6.5-1.9c7.4,4.1,19.7,12.1,19.7,19.6s-12.4,15.4-19.7,19.6C1504.2,738.5,1503.4,738.7,1502.6,738.7z M1448.9,706
			c-0.8,0-1.6-0.2-2.3-0.6c-7.4-4.1-19.7-12.1-19.7-19.6c0-7.5,12.4-15.4,19.7-19.6c2.3-1.3,5.2-0.4,6.5,1.9
			c1.3,2.3,0.4,5.2-1.9,6.5c-7,3.9-14.1,9.4-14.8,11.5c0.7,1.3,7.8,6.8,14.8,10.8c2.3,1.3,3.1,4.2,1.9,6.5
			C1452.2,705.2,1450.5,706,1448.9,706z"/>
	</g>
	<g>
		<path class="st5" d="M1329.9,16c11.5,5.8,21.1,232.3,0,236.1c-69.1,11.5-282.2,5.8-368.6,1.9c-28.8-1.9-23-230.3,0-236.1
			C1030.4,0.6,1264.6-10.9,1329.9,16z"/>
	</g>
	<g>
		<path class="st0" d="M1107.2,172.4c-2.6,0-4.7-2.1-4.8-4.7l-1.8-69l-18.2,0.8c-0.1,0-0.1,0-0.2,0c-2.6,0-4.7-2-4.8-4.6
			c-0.1-2.6,1.9-4.9,4.6-5l20.2-0.8c0.8-0.7,1.8-1.1,2.9-1.1c1.6-0.1,2,0.3,2.8,0.8l20.1-0.8c0.1,0,0.1,0,0.2,0c2.6,0,4.7,2,4.8,4.6
			c0.1,2.6-1.9,4.9-4.6,5l-18.3,0.8l1.8,69.2c0.1,2.7-2,4.9-4.7,4.9C1107.3,172.4,1107.2,172.4,1107.2,172.4z M1005.4,172.4
			c-2.6,0-4.8-2.1-4.8-4.8V94.7c0-2.7,2.2-4.8,4.8-4.8c2.6,0,4.8,2.1,4.8,4.8v31.7h35.4l-0.8-31.5c-0.1-2.7,2-4.9,4.7-4.9
			c0.1,0,0.1,0,0.1,0c2.6,0,4.7,2.1,4.8,4.7l0.9,33.6c0.7,0.8,1,1.9,1,3c0,1-0.3,2-0.9,2.8l0.9,33.6c0.1,2.7-2,4.9-4.7,4.9
			c-0.1,0-0.1,0-0.1,0c-2.6,0-4.7-2.1-4.8-4.7l-0.8-31.8h-35.6v31.7C1010.2,170.3,1008.1,172.4,1005.4,172.4z M1230,170.5
			c-2.1,0-4.1-1.4-4.6-3.6l-15.8-61.7l-15.5,33.8c-0.8,1.7-2.4,2.8-4.3,2.8c-1.9,0-3.5-1-4.4-2.7l-16.8-33.7l-12.6,61.3
			c-0.5,2.6-3.1,4.3-5.7,3.7c-2.6-0.5-4.3-3.1-3.7-5.7l15.4-74.9c0.4-2,2-3.5,4.1-3.8c2.1-0.2,4,0.8,4.9,2.6l18.5,37.1l16.9-37
			c0.8-1.9,2.8-2.9,4.8-2.8c2,0.2,3.7,1.6,4.2,3.6l19.2,74.9c0.7,2.6-0.9,5.2-3.4,5.8C1230.8,170.4,1230.4,170.5,1230,170.5z
			 M1295.3,168.6h-42.2c-2.6,0-4.7-2.1-4.8-4.7l-1.9-72.9c-0.1-2.7,2-4.9,4.7-4.9c0.1,0,0.1,0,0.1,0c2.6,0,4.7,2.1,4.8,4.7l1.8,68.3
			h37.5c2.6,0,4.8,2.1,4.8,4.8C1300.1,166.4,1297.9,168.6,1295.3,168.6z"/>
	</g>
	<g>
		<path class="st1" d="M654.2,1073.6v5.8c-11.5,11.5-23,17.3-34.6,23l-61.4-176.6L654.2,1073.6z"/>
	</g>
	<g>
		<path class="st0" d="M894.1,1090.9l17.3,28.8"/>
		<path class="st1" d="M911.4,1124.5c-1.6,0-3.2-0.8-4.1-2.3l-17.3-28.8c-1.4-2.3-0.6-5.2,1.6-6.6c2.3-1.3,5.2-0.6,6.6,1.6
			l17.3,28.8c1.4,2.3,0.6,5.2-1.6,6.6C913.1,1124.3,912.2,1124.5,911.4,1124.5z"/>
	</g>
</g>
</svg>
