<?xml version="1.0" encoding="utf-8"?>
<!-- Generator: Adobe Illustrator 27.9.0, SVG Export Plug-In . SVG Version: 6.00 Build 0)  -->
<svg version="1.1" id="data-analytics" xmlns="http://www.w3.org/2000/svg" xmlns:xlink="http://www.w3.org/1999/xlink" x="0px"
	 y="0px" viewBox="0 0 1920 1280" style="enable-background:new 0 0 1920 1280;" xml:space="preserve">
<style type="text/css">
	.st0{fill:#FFFFFF;}
	.st1{fill:#001466;}
	.st2{fill:#113FFB;}
	.st3{fill:#FDB870;}
	.st4{fill:#FF7757;}
	.st5{fill:#E6F3FB;}
</style>
<g>
	<rect class="st0" width="1920" height="1280"/>
	<g>
		<g>
			<path class="st1" d="M1283.6,327.1H1489c48.7,0,91.9-32.4,104.1-79.8c4.1-16.2,6.8-33.8,6.8-52.7v-5.4
				C1599.9,85.2,1514.7,0,1410.6,0c-10.8,0-21.6,1.4-32.4,2.7c-5.4,0-12.2,0-17.6-1.4c-204.1-21.6-185.2,220.3-185.2,220.3v1.4
				C1176.8,281.2,1225.5,327.1,1283.6,327.1z"/>
		</g>
		<g>
			<path class="st0" d="M1398.5,454.2c5.4-4.1,12.2-8.1,18.9-9.5c1.4-2.7,2.7-4.1,2.7-6.8c-1.4-2.7-1.4-5.4-1.4-8.1
				c-2.7-6.8-5.4-14.9-5.4-23c-8.1-16.2-9.5-35.1-4.1-52.7c1.4-5.4,2.7-9.5,5.4-14.9c-6.8-29.7,25.7-50,39.2-64.9
				c23-23,78.4-78.4-41.9-123c-27-9.5-43.3-21.6-54.1-35.1c-20.3-28.4-17.6-55.4-2.7-83.8c-70.3,1.4-125.7,89.2-120.3,174.4
				c6.8,114.9,35.1,133.8,83.8,136.5c0,36.5-9.5,74.3-37.8,104.1c6.8,46,52.7,43.3,89.2,27C1378.2,466.4,1386.3,458.2,1398.5,454.2z
				"/>
		</g>
		<g>
			<path class="st1" d="M724,560.3c-1.5,0-2.9-1-3.3-2.6c-0.4-1.8,0.7-3.6,2.5-4.1C767.3,543,792.7,540,841.6,540
				c1.9,0,3.4,1.5,3.4,3.4s-1.5,3.4-3.4,3.4c-48.2,0-73.3,2.9-116.8,13.4C724.5,560.3,724.2,560.3,724,560.3z M1418.7,437.3
				c-1.1,0-2.3-0.6-2.9-1.7c-31.7-53.7-2.7-112.9-1.5-115.4c0.8-1.7,2.9-2.3,4.5-1.5c1.7,0.8,2.3,2.9,1.5,4.5
				c-0.3,0.6-28.5,58.5,1.2,109c0.9,1.6,0.4,3.7-1.2,4.6C1419.9,437.1,1419.3,437.3,1418.7,437.3z"/>
		</g>
		<g>
			<path class="st1" d="M1382.3,204.1c0,6.8-5.4,12.2-12.2,12.2c-6.8,0-12.2-5.4-12.2-12.2s5.4-12.2,12.2-12.2
				C1376.8,192,1382.3,197.4,1382.3,204.1z M1289,204.1c0,6.8-5.4,12.2-12.2,12.2s-12.2-5.4-12.2-12.2s5.4-12.2,12.2-12.2
				S1289,197.4,1289,204.1z"/>
		</g>
		<g>
			<path class="st1" d="M1144.4,1013.1c-0.2,0-0.5,0-0.7-0.1c-1.8-0.4-3-2.2-2.6-4l6.8-32.4c11.4-48.3-2.9-100.8-38.4-140.3
				c-18.9-22.7-31.1-45.7-37.3-70.4c-0.3-1.1,0-2.2,0.7-3c-11.9-58.2,20.1-108.4,35.6-132.7c1.8-2.8,3.4-5.3,4.6-7.4
				c17.1-29.3-10.1-50.1-11.3-51c-1.5-1.1-1.8-3.2-0.7-4.7c1.1-1.5,3.2-1.8,4.7-0.7c0.3,0.3,33.3,25.2,13.1,59.8
				c-1.3,2.2-2.9,4.7-4.8,7.6c-15.3,24-47,73.8-34,130.5c0.2,1,0,2-0.6,2.8c6.1,22.6,17.6,43.8,35.1,64.7
				c36.9,41.1,51.8,95.8,39.9,146.2l-6.7,32.4C1147.3,1012,1145.9,1013.1,1144.4,1013.1z M755.1,306.2c-1.1,0-2.1-0.5-2.8-1.4
				c-0.2-0.2-15.8-22.2-34.8-28.5c-10.7-2.4-29.9,5.3-30.1,5.3c-1.7,0.7-3.7-0.2-4.4-1.9c-0.7-1.7,0.1-3.7,1.9-4.4
				c0.9-0.3,21.4-8.4,34.4-5.6c21.4,7.1,37.8,30.1,38.5,31.1c1.1,1.5,0.7,3.6-0.8,4.7C756.4,306,755.7,306.2,755.1,306.2z"/>
		</g>
		<g>
			<path class="st1" d="M798.9,921.1c-8.7,0-17-1.3-24.8-4.2c-68.2-26.7-62.5-434.1-61.7-476.2c-15.2-2.8-74-14.5-82.4-32
				c-1.6-3.4-1.5-7,0.4-10.3c4.9-9.9,22.8-7.8,41.6-5.6c11.8,1.4,26.4,3.1,30.2-0.3c0.4-0.3,0.8-0.8,0.8-2
				c0-9.9-35.1-59.4-52.1-67.2c-3.9-2-11.2,10.2-16.4,19.1c-7.6,13.1-15.2,26.6-25.7,25.8c-5.4-0.5-10.1-5.6-12.6-13.4
				c-6.4-20.2,2-53.3,35-81.7c33.1-27.3,91.2,24.9,93.7,27.1c1.4,1.3,1.5,3.4,0.2,4.8c-1.3,1.4-3.4,1.5-4.8,0.2
				c-0.6-0.5-56.3-50.4-84.8-26.9c-35,30.1-37.2,61-32.9,74.5c1.8,5.8,4.7,8.5,6.8,8.7c0.1,0,0.2,0,0.3,0c5.8,0,13.1-12.4,18.9-22.4
				c8-13.7,15.6-26.6,25.2-21.8c18.6,8.6,55.9,59.9,55.9,73.3c0,2.8-1.1,5.3-3,7c-6.1,5.4-19.7,3.8-35.4,1.9
				c-14.2-1.7-32-3.8-34.9,2c-0.9,1.6-0.9,2.8-0.3,4.2c5.7,11.9,52.2,24,80.3,28.8c1.6,0.3,2.8,1.7,2.8,3.4
				c-3.3,154.4,4.5,451.9,57.3,472.6c50.1,18.4,129.8-36.5,200-85c35.4-24.5,68.9-47.6,97.4-60.9c1.7-0.8,3.7-0.1,4.5,1.6
				c0.8,1.7,0.1,3.7-1.6,4.5c-28,13.1-61.2,36.1-96.4,60.4C916.2,875.5,850.2,921.1,798.9,921.1z M788.8,303.5
				c-1.2,0-2.3-0.6-2.9-1.7c-0.1-0.2-11.9-20.8-28.2-28.3c-8.6-3.8-24.1,3.5-29.3,6.6c-1.6,1-3.7,0.4-4.6-1.2
				c-1-1.6-0.4-3.7,1.2-4.6c0.9-0.5,22-13,35.6-7c18.4,8.5,30.8,30.2,31.3,31.2c0.9,1.6,0.3,3.7-1.3,4.6
				C790,303.3,789.4,303.5,788.8,303.5z"/>
		</g>
		<g>
			<path class="st1" d="M872.7,676.5c-0.3,0-0.6,0-0.9-0.1c-1.1-0.3-1.9-1-2.3-2.1c-1.8-4.9-4.9-19.4-10.6-45.7
				c-7.4-34.4-18.5-86.4-35.5-157.4c-7.5-34.6-9.3-64.2-5.5-93.1c3.2-30.6,3.7-51.8,1.4-66.6c-1.5-10.6-7.2-28.8-28.3-32.3
				c-7.4-1.3-20.3,1.3-20.4,1.3c-1.8,0.4-3.6-0.8-4-2.7c-0.4-1.8,0.8-3.6,2.7-4c0.6-0.1,14.2-2.8,22.8-1.4c26.3,4.4,32.5,28,33.9,38
				c2.4,15.4,2,37.2-1.3,68.4c-3.7,28.3-2,57.1,5.4,90.8c17,71,28.1,123,35.5,157.5c4.2,19.4,7.1,32.9,8.9,40.1
				c29.2-24.3,212-175.7,264-209.2c53.2-34.2,129.1-15.5,142.7-11.8c23-24.8,34.9-57.5,35.5-97.1c-50.3-3.6-77.1-27.6-83.8-140.8
				c-3.2-51,15-104.8,47.7-140.2c22.2-24.1,48.5-37.2,76-37.7c1.2,0.1,2.3,0.6,2.9,1.6c0.6,1,0.7,2.3,0.1,3.4
				c-11.4,21.3-20.2,52.5,2.3,80.1c1.2,1.4,1,3.6-0.5,4.8c-1.4,1.2-3.6,1-4.8-0.5c-24-29.3-15.1-62.3-5.7-82.3
				c-23.5,2.1-46,14.2-65.4,35.2c-31.4,34.1-49,86-45.9,135.2c6.5,111.2,31.2,132,80.6,134.7c1.8,0.1,3.2,1.6,3.2,3.4
				c0,43.6-13,79.5-38.8,106.4c-0.9,0.9-2.2,1.3-3.4,0.9c-0.8-0.3-84.4-24.8-139.1,10.4c-55.9,36-265.2,210.2-267.3,212
				C874.2,676.3,873.4,676.5,872.7,676.5z"/>
		</g>
		<g>
			<path class="st1" d="M1101.1,646.1c0,0-74.3,46-73,101.4h41.9C1070,747.5,1074.1,681.3,1101.1,646.1z"/>
		</g>
		<g>
			<path class="st1" d="M1326,489.7c-18.8,0-32.3-4.3-40.2-12.9c-10.9-11.8-7-26.9-6.8-27.5c0.5-1.8,2.4-2.9,4.1-2.4
				c1.8,0.5,2.9,2.3,2.4,4.1c-0.1,0.5-3.1,12.2,5.3,21.3c7.3,7.8,25.2,15.4,69.2,7c1.8-0.4,3.6,0.9,3.9,2.7c0.4,1.8-0.8,3.6-2.7,4
				C1348,488.4,1336.2,489.7,1326,489.7z"/>
		</g>
		<g>
			<path class="st0" d="M1448.5,196c12.2-16.2,33.8-21.6,51.4-9.5c16.2,10.8,21.6,33.8,9.5,51.4c-12.2,16.2-35.1,20.3-51.4,9.5"/>
			<path class="st1" d="M1478.1,256.8c-7.7,0-15.4-2.1-22-6.6c-1.6-1-2-3.1-0.9-4.7c1-1.6,3.1-2,4.7-0.9c14.8,9.9,35.8,6,46.8-8.7
				c5.1-7.4,7-16.4,5.4-25.2c-1.7-8.7-6.8-16.5-14-21.3c-15.4-10.6-35-7-46.8,8.7c-1.1,1.5-3.2,1.8-4.7,0.7
				c-1.5-1.1-1.8-3.2-0.7-4.7c13.8-18.4,37.8-22.8,56-10.2c8.7,5.8,14.8,15.1,16.8,25.6c2,10.6-0.3,21.5-6.5,30.5
				C1503.9,250.8,1491,256.8,1478.1,256.8z"/>
		</g>
		<g>
			<path class="st1" d="M1476.9,227.8c-0.9,0-1.7-0.3-2.4-1c-6.7-6.8-6.7-16.9,0-23.7c1.3-1.3,3.4-1.3,4.8,0c1.3,1.3,1.3,3.5,0,4.8
				c-4.1,4.1-4.1,10,0,14.1c1.3,1.3,1.3,3.5,0,4.8C1478.6,227.4,1477.7,227.8,1476.9,227.8z"/>
		</g>
		<g>
			<path class="st0" d="M1260.6,762.4c16.2,21.6,24.3,460.9,1.4,483.9c-28.4,27-547.4,46-604.2,12.2c-18.9-10.8-28.4-442-8.1-477.2
				C682.1,727.2,1243,739.4,1260.6,762.4z"/>
			<path class="st1" d="M871.5,1280c-100.4,0-192.4-4.9-215.5-18.6c-2.1-1.2-3.7-4.2-5.3-10c-15.5-57.4-23.6-437.8-4-471.8
				c10.8-17.9,71.2-30.1,179.6-36.2c160.5-9,422.9-1.5,436.9,16.9c0,0,0,0,0,0c13.9,18.6,29,460.4,1,488.3
				c-16.2,15.4-163.6,26.3-293.8,29.9C938.1,1279.5,904.3,1280,871.5,1280z M981.7,746.1c-71.9,0-146.4,2.3-207.8,7.8
				c-95.6,8.7-117.1,21.9-121.4,29.1c-17.7,30.7-11.4,454.7,7.1,472.6c56.9,33.9,576,11.1,600-11.8c9-9,14.3-107.7,13-240
				c-1.3-122.8-7.8-230.1-14.7-239.4C1249.2,754.6,1120.1,746.1,981.7,746.1z"/>
		</g>
		<g>
			<path class="st0" d="M1260.6,762.4c16.2,21.6,24.3,460.9,1.4,483.9c-28.4,27-547.4,46-604.2,12.2c-18.9-10.8-28.4-442-8.1-477.2
				C682.1,727.2,1243,739.4,1260.6,762.4z"/>
			<path class="st1" d="M871.5,1280c-100.4,0-192.4-4.9-215.5-18.6c-2.1-1.2-3.7-4.2-5.3-10c-15.5-57.4-23.6-437.8-4-471.8
				c10.8-17.9,71.2-30.1,179.6-36.2c160.5-9,422.9-1.5,436.9,16.9c0,0,0,0,0,0c13.9,18.6,29,460.4,1,488.3
				c-16.2,15.4-163.6,26.3-293.8,29.9C938.1,1279.5,904.3,1280,871.5,1280z M981.7,746.1c-71.9,0-146.4,2.3-207.8,7.8
				c-95.6,8.7-117.1,21.9-121.4,29.1c-17.7,30.7-11.4,454.7,7.1,472.6c56.9,33.9,576,11.1,600-11.8c9-9,14.3-107.7,13-240
				c-1.3-122.8-7.8-230.1-14.7-239.4C1249.2,754.6,1120.1,746.1,981.7,746.1z"/>
		</g>
		<g>
			<path class="st2" d="M1268.7,821.9c-2.7-40.6-5.4-54.1-8.1-59.5c-17.6-24.3-578.5-35.1-611,18.9c-2.7,5.4-5.4,20.3-8.1,43.3
				L1268.7,821.9z"/>
		</g>
		<g>
			<path class="st1" d="M641.5,827.9c-1,0-1.9-0.4-2.5-1.1c-0.6-0.7-1-1.7-0.8-2.7c2.8-24.2,5.6-38.7,8.4-44.4
				c14.9-24.9,123.7-34.5,212.4-38.3c162-6.9,391.6,1.2,404.4,18.9c2.8,5.5,5.8,16.6,8.7,61.2c0.1,0.9-0.3,1.8-0.9,2.5
				c-0.6,0.7-1.5,1.1-2.5,1.1L641.5,827.9C641.5,827.9,641.5,827.9,641.5,827.9z M983.9,745.6c-59,0-120.3,1.6-175.9,5.4
				c-123.6,8.4-150.5,23.7-155.5,32c-1.5,3-4,12.3-7.2,38.1l619.8-2.7c-2.2-31.3-4.6-48.7-7.5-54.6
				C1250,754.5,1123.5,745.6,983.9,745.6z"/>
		</g>
		<g>
			<path class="st0" d="M1147.1,789.4c0,8.1-6.8,13.5-14.9,13.5c-8.1,0-13.5-6.8-13.5-13.5c0-8.1,6.8-13.5,13.5-13.5
				C1140.3,775.9,1147.1,781.3,1147.1,789.4z M1187.6,790.8c0,8.1-6.8,13.5-14.9,13.5c-8.1,0-13.5-6.8-13.5-13.5
				c0-8.1,6.8-13.5,13.5-13.5C1182.2,777.3,1187.6,782.7,1187.6,790.8z M1228.2,792.1c0,8.1-6.8,13.5-14.9,13.5
				c-8.1,0-13.5-6.8-13.5-13.5c0-8.1,6.8-13.5,13.5-13.5C1221.4,777.3,1228.2,784,1228.2,792.1z"/>
		</g>
		<g>
			<path class="st2" d="M1029.5,1180.1c-1.4,8.1-4.1,17.6-8.1,24.3c-6.8,9.5-18.9,14.9-29.7,18.9c-18.9,5.4-39.2,8.1-58.1,2.7
				c-14.9-4.1-28.4-12.2-37.8-24.3c-2.7-2.7-5.4-6.8-6.8-10.8c-9.5-18.9-6.8-41.9-1.4-62.2c1.4-8.1,31.1-58.1,100-39.2
				c21.6,5.4,37.8,25.7,41.9,47.3C1032.2,1151.7,1032.2,1166.5,1029.5,1180.1z"/>
		</g>
		<g>
			<path class="st3" d="M490.1,413.6c-109.5,0-158.2,85.2-162.2,100c-5.4,21.6-9.5,43.3-9.5,66.2h171.7V413.6z"/>
		</g>
		<g>
			<path class="st2" d="M661.8,579.9c0-14.9-1.4-29.7-5.4-44.6c-12.2-50-48.7-97.3-98.7-110.8c-25.7-6.8-48.7-9.5-68.9-9.5v166.3
				h173V579.9z"/>
		</g>
		<g>
			<path class="st4" d="M490.1,579.9v166.3c25.7,0,52.7-5.4,78.4-13.5c27-8.1,52.7-20.3,68.9-43.3c0,0,0-1.4,1.4-1.4
				c12.2-16.2,16.2-37.8,20.3-56.8c2.7-17.6,4.1-33.8,4.1-51.4H490.1z"/>
		</g>
		<g>
			<path class="st5" d="M317.1,579.9c-1.4,27,1.4,54.1,13.5,78.4c4.1,9.5,9.5,17.6,14.9,24.3c21.6,28.4,54.1,47.3,87.9,56.8
				c18.9,5.4,36.5,6.8,55.4,6.8V579.9H317.1z"/>
		</g>
		<g>
			<path class="st0" d="M613.1,432.6L555,493.4c-4.1,4.1-9.5,6.8-14.9,9.5l-29.7,9.5c-2.7,1.4-5.4-1.4-5.4-5.4l6.8-31.1
				c1.4-5.4,4.1-10.8,8.1-14.9l58.1-60.8C578,400.1,613.1,432.6,613.1,432.6z"/>
			<path class="st1" d="M509.1,516.1c-1.1,0-2.4-0.3-3.5-1c-2.5-1.5-4-4.7-4-8.2l6.8-31.8c1.6-6.5,4.8-12.3,9-16.5l58.1-60.8
				c1.3-1.3,3.4-1.4,4.7-0.1l35.1,32.4c0.7,0.6,1.1,1.5,1.1,2.4c0,0.9-0.3,1.8-0.9,2.4l-58.1,60.8c-4.5,4.5-10.2,7.4-15.7,10.1
				l-30.3,9.7C510.7,515.9,509.9,516.1,509.1,516.1z M578.1,404.9l-55.8,58.4c-3.4,3.4-6,8.1-7.3,13.4l-6.7,31
				c0.1,0.8,0.7,1.6,0.9,1.7l30-9.7c4.9-2.5,9.8-5,13.5-8.6l55.7-58.3L578.1,404.9z"/>
		</g>
		<g>
			<path class="st2" d="M532,448.8l-9.5,10.8c-4.1,4.1-6.8,9.5-8.1,14.9l-6.8,31.1c-1.4,2.7,2.7,5.4,5.4,5.4l29.7-9.5
				c5.4-1.4,10.8-5.4,14.9-9.5l21.6-21.6L532,448.8z"/>
		</g>
		<g>
			<path class="st0" d="M632.1,439.3l10.8-12.2c2.7-2.7,2.7-8.1,0-10.8l-51.4-48.7c-2.7-2.7-8.1-2.7-10.8,0l-9.5,13.5
				c-2.7,2.7-2.7,8.1,0,10.8l51.4,48.7C625.3,443.4,629.3,442,632.1,439.3z"/>
			<path class="st1" d="M626.1,445.5c-2.3,0-4.3-0.9-5.9-2.5l-51.3-48.6c-4.1-4.1-4.1-11.6-0.1-15.7l9.1-13.1
				c2.3-2.4,5.4-3.2,8.2-3.5c3,0,5.9,1.1,7.8,3l51.3,48.6c4.1,4.1,4.1,11.6,0.1,15.7l-10.7,12c0,0.1-0.1,0.1-0.1,0.1
				C632,444.1,629,445.5,626.1,445.5z M632,439.3L632,439.3L632,439.3z M586.1,369c-1.2,0-2.4,0.4-3,1l-9.1,13.1
				c-1.8,1.8-1.8,5.1-0.4,6.5l51.3,48.6c1.3,1.3,3.1,0.3,4.7-1.2l10.7-12.1c1.5-1.5,1.5-4.8,0.1-6.2l-51.3-48.6
				C588.5,369.4,587.3,369,586.1,369C586.1,369,586.1,369,586.1,369z"/>
		</g>
		<g>
			<path class="st0" d="M660.4,392l-20.3,21.6l-44.6-41.9l20.3-21.6c12.2-12.2,31.1-12.2,43.3-1.4l0,0
				C671.3,360.9,671.3,379.8,660.4,392z M1270.1,598.8c0,0,144.6-262.2,287.9-154.1c55.4,41.9,43.3,313.6,32.4,455.5
				c-4.1,52.7-37.8,100-86.5,120.3l-214.9,75.7c-64.9,48.7-86.5,50-101.4,37.8c-10.8,12.2-20.3,23-28.4,18.9
				c-5.4-1.4-8.1-5.4-9.5-10.8c-6.8,5.4-12.2,9.5-17.6,6.8c-8.1-2.7-10.8-9.5-10.8-20.3c-8.1,8.1-16.2,14.9-23,12.2
				c-13.5-4.1-12.2-25.7-4.1-48.7c-10.8,13.5-31.1,40.6-44.6,62.2c-20.3,32.4-35.1,12.2-33.8,6.8
				c13.5-106.8,152.7-143.3,213.6-154.1c20.3-4.1,39.2-10.8,55.4-21.6L1441.7,880V648.8l-20.3-10.8"/>
			<path class="st1" d="M1027.8,1175.7c-2.3,0-4.3-0.5-5.8-1.2c-6.6-2.8-10.4-9.9-9.3-14.2c13.8-109.1,155.8-145.9,216.2-156.6
				c21.6-4.3,39.3-11.2,54.1-21.1l155.3-104.4V650.9l-18.5-9.9c-1.7-0.9-2.3-2.9-1.4-4.6c0.9-1.7,3-2.3,4.6-1.4l20.3,10.8
				c1.1,0.6,1.8,1.7,1.8,3V880c0,1.1-0.6,2.2-1.5,2.8l-156.8,105.4c-15.6,10.4-34.1,17.6-56.6,22.1c-59,10.5-197.6,46.2-210.9,151.2
				c-0.1,1.4,1.9,5.7,6,7c6,2,14-3.8,21.6-16c14.6-23.3,35.7-51.1,44.8-62.5c1-1.3,2.8-1.7,4.3-0.8c1.4,0.8,2.1,2.5,1.5,4.1
				c-6.2,17.6-7.6,32-3.9,39.4c1.3,2.5,3.2,4.1,5.7,4.9c5.3,2.1,12.9-4.6,19.6-11.3c1-1,2.4-1.3,3.7-0.7c1.3,0.5,2.1,1.8,2.1,3.1
				c0,11.8,3.4,15.4,8.5,17.1c3.9,1.9,8-1.1,14.4-6.2c0.9-0.7,2.1-0.9,3.2-0.6c1.1,0.4,1.9,1.3,2.2,2.4c1.2,4.9,3.4,7.4,7,8.4
				c6.3,3,15.2-6.8,24.6-17.3c1.2-1.4,3.7-2.1,5.2-0.9c13.8,11.2,34.8,8.8,97.2-37.9c0.3-0.2,0.6-0.4,0.9-0.5l214.9-75.7
				c47.2-19.7,80.3-65.8,84.3-117.4c9.3-122,24.9-410.3-31.1-452.6c-29.5-22.3-61.4-30-94.8-22.9c-102,21.7-187.3,174.4-188.1,175.9
				c-0.9,1.6-2.9,2.2-4.6,1.3c-1.6-0.9-2.2-3-1.3-4.6c3.5-6.4,87.6-156.8,192.6-179.3c35.4-7.5,69.1,0.6,100.3,24.1
				c56.5,42.7,45.4,305.6,33.8,458.5c-4.2,54.1-38.9,102.5-88.6,123.2l-214.6,75.6c-62.5,46.8-86.1,50.8-102.5,39.4
				c-11.2,12.5-20.6,22.2-30.4,17.4c-4.1-1-7.4-3.8-9.6-8.3c-5.5,4.2-11.3,7.3-17.5,4.2c-8.2-2.7-11.2-9.1-12.2-15.9
				c-6.8,6.1-14.2,10.7-21.3,7.9c-4.1-1.2-7.4-4-9.5-8.2c-3.8-7.5-3.2-18.1-1.2-27.9c-10.2,13.5-23.6,32-33.8,48.3
				C1042.8,1171.9,1034,1175.7,1027.8,1175.7z M640.2,417c-0.9,0-1.7-0.3-2.3-0.9l-44.6-41.9c-1.4-1.3-1.4-3.4-0.1-4.8l20.3-21.6
				c13.1-13.2,34.2-13.8,48-1.6c13.2,13.2,13.9,34.2,1.6,48c0,0,0,0-0.1,0.1L642.6,416c-0.6,0.7-1.5,1-2.4,1.1
				C640.2,417,640.2,417,640.2,417z M600.3,371.6l39.7,37.3l17.9-19.1c9.8-11.1,9.3-28-1.2-38.6c-11-9.7-27.9-9.2-38.5,1.4
				L600.3,371.6z M660.4,392L660.4,392L660.4,392z"/>
		</g>
		<g>
			<path class="st0" d="M1126.8,1109.8c-4.1,6.8-5.4,13.5-6.8,21.6 M1155.2,1121.9c-2.7,5.4-4.1,12.2-5.4,18.9 M1191.7,1117.9
				c-2.7,5.4-4.1,10.8-4.1,16.2 M1109.2,1077.3c-6.8,6.8-10.8,12.2-16.2,18.9"/>
			<path class="st1" d="M1153.1,1141.4l-6.7-1.2c1.4-7,2.8-14,5.7-19.8c0.8-1.7,2.9-2.3,4.5-1.5c1.7,0.8,2.3,2.9,1.5,4.5
				C1155.7,1128.4,1154.4,1134.7,1153.1,1141.4z M1187.6,1137.5c-1.9,0-3.4-1.5-3.4-3.4c0-5.9,1.5-11.9,4.4-17.7
				c0.8-1.7,2.9-2.3,4.5-1.5c1.7,0.8,2.3,2.9,1.5,4.5c-2.5,4.9-3.7,9.9-3.7,14.7C1191,1136,1189.5,1137.5,1187.6,1137.5z
				 M1120,1134.8c-0.2,0-0.4,0-0.6,0c-1.8-0.3-3.1-2-2.8-3.9c1.4-8.5,2.8-15.6,7.2-22.8c1-1.6,3-2.1,4.6-1.1c1.6,1,2.1,3,1.1,4.6
				c-3.7,6.2-5,12.7-6.3,20.4C1123.1,1133.6,1121.6,1134.8,1120,1134.8z M1093,1099.6c-0.7,0-1.5-0.2-2.1-0.7
				c-1.5-1.2-1.7-3.3-0.5-4.8l2.3-2.9c4.4-5.6,8.3-10.4,14.2-16.3c1.3-1.3,3.5-1.3,4.8,0c1.3,1.3,1.3,3.5,0,4.8
				c-5.6,5.6-9.4,10.3-13.7,15.8l-2.3,2.9C1095,1099.2,1094,1099.6,1093,1099.6z"/>
		</g>
		<g>
			<path class="st1" d="M1363.3,1072.6c-1.2,0-2.4-0.7-3-1.8l-51.4-101.4c-0.8-1.7-0.2-3.7,1.5-4.5c1.7-0.8,3.7-0.2,4.5,1.5
				l51.4,101.4c0.8,1.7,0.2,3.7-1.5,4.5C1364.4,1072.5,1363.8,1072.6,1363.3,1072.6z M876.7,702.2c-1.6,0-3-1.2-3.3-2.8l-4.1-24.3
				c-0.3-1.8,0.9-3.6,2.8-3.9c1.8-0.3,3.6,0.9,3.9,2.8l4.1,24.3c0.3,1.8-0.9,3.6-2.8,3.9C877.1,702.2,876.9,702.2,876.7,702.2z"/>
		</g>
		<g>
			<path class="st3" d="M864.5,1046.2c-4.1,16.2-8.1,28.4-10.8,29.7c-8.1,4.1-133.8-21.6-144.6-32.4c-2.7-2.7,6.8-46,14.9-79.8
				c4.1-17.6,9.5-32.4,10.8-35.1c10.8-10.8,144.6,25.7,147.3,31.1C884.8,963.8,874,1012.5,864.5,1046.2z"/>
		</g>
		<g>
			<path class="st0" d="M1066,881.3c47.3,0,94.6-1.4,140.6-1.4 M1066,916.5c47.3,0,94.6-1.4,140.6-1.4 M1118.7,951.6
				c29.7,0,59.5,0,87.9-1.4"/>
			<path class="st1" d="M1118.7,955c-1.9,0-3.4-1.5-3.4-3.4s1.5-3.4,3.4-3.4c29.2,0,59.4,0,87.7-1.4c1.9,0.1,3.4,1.4,3.5,3.2
				c0.1,1.9-1.4,3.4-3.2,3.5C1178.2,955,1147.9,955,1118.7,955z M1066,919.9c-1.9,0-3.4-1.5-3.4-3.4s1.5-3.4,3.4-3.4
				c23.8,0,47.6-0.3,71.3-0.7c23.3-0.3,46.5-0.7,69.3-0.7c1.9,0,3.4,1.5,3.4,3.4s-1.5,3.4-3.4,3.4c-22.8,0-45.9,0.3-69.2,0.7
				C1113.6,919.5,1089.8,919.9,1066,919.9z M1066,884.7c-1.9,0-3.4-1.5-3.4-3.4s1.5-3.4,3.4-3.4c23.8,0,47.6-0.3,71.3-0.7
				c23.3-0.3,46.5-0.7,69.3-0.7c1.9,0,3.4,1.5,3.4,3.4s-1.5,3.4-3.4,3.4c-22.8,0-45.9,0.3-69.2,0.7
				C1113.6,884.4,1089.8,884.7,1066,884.7z"/>
		</g>
		<g>
			<path class="st1" d="M1290.3,279.8c12.2,2.7,37.8,4.1,59.5-6.8c2.7-1.4,5.4,1.4,4.1,4.1c-4.1,12.2-13.5,32.4-37.8,32.4
				c-23,0-28.4-16.2-31.1-25.7C1286.3,281.2,1289,279.8,1290.3,279.8z"/>
		</g>
		<g>
			<path class="st1" d="M1393.1,168.3c-1,0-2-0.4-2.7-1.3c-4.2-5.3-10.5-8.8-17.5-9.4c-6.8-0.6-13.2,1.4-18.1,5.8
				c-1.4,1.2-3.5,1.1-4.8-0.3c-1.2-1.4-1.1-3.5,0.3-4.8c6.3-5.6,14.6-8.3,23.2-7.5c8.8,0.8,16.9,5.2,22.2,12
				c1.1,1.5,0.9,3.6-0.6,4.7C1394.5,168.1,1393.8,168.3,1393.1,168.3z M1299.8,167c-1,0-2-0.4-2.7-1.3c-4.2-5.3-10.6-8.8-17.5-9.4
				c-6.7-0.6-13.2,1.4-18.1,5.8c-1.4,1.2-3.5,1.1-4.8-0.3c-1.2-1.4-1.1-3.5,0.3-4.8c6.3-5.6,14.4-8.3,23.2-7.5
				c8.8,0.8,16.9,5.2,22.3,12c1.1,1.5,0.9,3.6-0.6,4.7C1301.3,166.7,1300.5,167,1299.8,167z"/>
		</g>
		<g>
			<path class="st0" d="M1321.4,183.8c0,6.8,1.4,14.9,0,21.6c-1.4,6.8-4.1,14.9-8.1,18.9c-2.7,2.7-6.8,4.1-9.5,8.1
				c-2.7,2.7-4.1,8.1-1.4,12.2c2.7,2.7,5.4,2.7,9.5,2.7h8.1"/>
			<path class="st1" d="M1320.1,250.8h-8.1c-4.4,0-8.2,0-11.8-3.7c-4.1-6-2.4-13.2,1.3-16.9c1.6-2.5,4.1-4.2,6.4-5.8
				c1.1-0.8,2.2-1.5,3.1-2.3c2.9-2.9,5.6-9.5,7.2-17.2c0.8-4.1,0.5-9,0.2-13.8c-0.2-2.5-0.3-4.9-0.3-7.2c0-1.9,1.5-3.4,3.4-3.4
				c1.9,0,3.4,1.5,3.4,3.4c0,2.1,0.1,4.4,0.3,6.7c0.3,5.2,0.6,10.6-0.4,15.6c-0.9,4.4-3.5,15.1-9,20.6c-1.2,1.2-2.6,2.2-4.1,3.2
				c-1.9,1.3-3.7,2.5-5,4.4c-2,2.1-3.2,5.7-1.3,8.4c1.2,1.1,2.6,1.2,6.6,1.2h8.1c1.9,0,3.4,1.5,3.4,3.4
				C1323.5,249.2,1321.9,250.8,1320.1,250.8z"/>
		</g>
		<g>
			<path class="st1" d="M715.9,799.6c-1.8,0-3.3-1.4-3.4-3.2c-0.1-1.9,1.4-3.4,3.2-3.5l319-12.2c0.1,0,0.1,0,0.1,0
				c1.8,0,3.3,1.4,3.4,3.2c0.1,1.9-1.4,3.4-3.2,3.5l-319,12.2C715.9,799.6,715.9,799.6,715.9,799.6z"/>
		</g>
		<g>
			<path class="st1" d="M1314.7,486.6l-28.4,87.9l73-91.9L1314.7,486.6z"/>
		</g>
		<g>
			<path class="st1" d="M1440.4,918.5c-1.9,0-3.4-1.5-3.4-3.4V880c0-1.9,1.5-3.4,3.4-3.4s3.4,1.5,3.4,3.4v35.1
				C1443.8,917,1442.2,918.5,1440.4,918.5z"/>
		</g>
		<g>
			<path class="st1" d="M1320.1,346.1l35.1-8.1l-36.5,29.7L1320.1,346.1z"/>
			<path class="st1" d="M1318.7,371.1c-0.5,0-1.1-0.1-1.5-0.4c-1.2-0.6-1.9-1.9-1.8-3.2l1.4-21.6c0.1-1.5,1.1-2.7,2.6-3.1l35.1-8.1
				c1.6-0.4,3.1,0.4,3.8,1.8c0.7,1.4,0.3,3.1-0.9,4.1l-36.5,29.7C1320.2,370.8,1319.5,371.1,1318.7,371.1z M1323.3,348.8l-0.7,11.4
				l19.2-15.7L1323.3,348.8z"/>
		</g>
		<g>
			<path class="st1" d="M1440.4,743.5l-13.5,87.9c-4.1,25.7-14.9,48.7-31.1,67.6l-35.1,39.2l79.8-58.1V743.5z"/>
		</g>
		<g>
			<path class="st4" d="M982.1,1051.7c-16.2,2.7-71.6-87.9-77-114.9c-2.7-16.2,121.7-18.9,133.8-6.8
				C1052.4,943.5,999.7,1048.9,982.1,1051.7z"/>
		</g>
	</g>
</g>
</svg>
