<?xml version="1.0" encoding="utf-8"?>
<!-- Generator: Adobe Illustrator 27.9.0, SVG Export Plug-In . SVG Version: 6.00 Build 0)  -->
<svg version="1.1" id="graphic-designing" xmlns="http://www.w3.org/2000/svg" xmlns:xlink="http://www.w3.org/1999/xlink" x="0px"
	 y="0px" viewBox="0 0 1920 1280" style="enable-background:new 0 0 1920 1280;" xml:space="preserve">
<style type="text/css">
	.st0{fill:#FFFFFF;}
	.st1{fill:#001466;}
	.st2{fill:#113FFB;}
	.st3{fill:#FDB870;}
	.st4{fill:#FC3DB6;}
	.st5{fill:#FF7757;}
</style>
<g>
	<rect class="st0" width="1920" height="1280"/>
	<g>
		<g>
			<path class="st1" d="M326.2,1017.9c-125.3,0-238.7-2-284.4-9.9C-37.8,994,29.9,303.9,85.6,313.8h33.8C63.7,313.8-2,994,75.6,1008
				C117.4,1015.9,214.8,1017.9,326.2,1017.9z"/>
			<path class="st1" d="M326.2,1022.9c-155.4,0-246-3.2-285.3-10c-10-1.7-17.8-10.8-24-27.8c-43.9-120.5,5.7-610.7,54.9-669.3
				c4.6-5.4,9.5-7.8,14.5-6.9l32.9-0.1c0,0,0,0,0,0c2.7,0,5,2.2,5,5s-2.2,5-5,5c-17.9,0-48.2,125.5-64.8,312.3
				c-18.7,209.9-9.5,366.4,21.9,372c46.4,8.8,164.8,9.9,249.7,9.9c2.7,0,5,2.2,5,5C331.2,1020.6,329,1022.9,326.2,1022.9z
				 M84.9,318.7c-1.9,0-3.6,1.3-5.4,3.4c-46,54.7-95.4,543.6-53.2,659.5c4.7,13,10.4,20.4,16.4,21.4c5.6,1,12.3,1.9,20,2.7
				c-44.5-48.2-23.1-318.2-18-375.6c2.6-29.2,24.2-260.4,60.4-311.4H85.6C85.4,318.8,85.1,318.7,84.9,318.7z"/>
		</g>
		<g>
			<path class="st0" d="M618.6,1147.2c0,19.9-107.4,33.8-238.7,33.8s-238.7-15.9-238.7-33.8c0-19.9,107.4-35.8,238.7-35.8
				S618.6,1127.3,618.6,1147.2z"/>
			<path class="st1" d="M379.9,1186c-97.9,0-243.6-10.3-243.6-38.8c0-32.2,159.4-40.8,243.6-40.8s243.6,8.5,243.6,40.8
				C623.6,1184.9,404.9,1186,379.9,1186z M379.9,1116.4c-153.4,0-233.7,20.1-233.7,30.8c2.7,10,85.3,28.8,233.7,28.8
				c155.6,0,233.7-18.5,233.7-28.8C613.6,1136.4,533.4,1116.4,379.9,1116.4z"/>
		</g>
		<g>
			<path class="st1" d="M541,1015.9l-87.5,123.3c-4,4-8,8-13.9,8H316.3c-13.9,0-21.9-15.9-13.9-27.8l73.6-101.4
				C429.7,1017.9,487.3,1015.9,541,1015.9z"/>
			<path class="st1" d="M439.6,1152.2H316.3c-8.2,0-15.4-4.4-19.3-11.6c-4-7.6-3.6-16.7,1.3-24l73.7-101.6c0.9-1.3,2.4-2.1,4-2.1
				c26.8,0,54.6-0.5,82.5-1c27.9-0.5,55.8-1,82.6-1c1.9,0,3.6,1,4.4,2.7c0.9,1.7,0.7,3.6-0.4,5.1l-87.5,123.3
				C452.8,1147,447.6,1152.2,439.6,1152.2z M378.5,1022.9l-72.1,99.4c-2.7,4.1-3,9.2-0.7,13.6c2.2,4,6,6.4,10.6,6.4h123.3
				c3.7,0,6.4-2.5,10.4-6.5l81.4-114.8c-23.8,0.1-48.3,0.5-72.8,1C431.6,1022.4,404.6,1022.8,378.5,1022.9z"/>
		</g>
		<g>
			<path class="st0" d="M574.8,1015.9l-87.5,123.3c-4,4-8,8-13.9,8H350.1c-13.9,0-21.9-15.9-13.9-27.8l73.6-101.4
				C463.5,1017.9,521.1,1015.9,574.8,1015.9z"/>
			<path class="st1" d="M473.4,1152.2H350.1c-8.2,0-15.4-4.4-19.3-11.6c-4-7.6-3.6-16.7,1.3-24l73.7-101.6c0.9-1.3,2.4-2.1,4-2.1
				c26.8,0,54.6-0.5,82.5-1c27.9-0.5,55.8-1,82.6-1c1.9,0,3.6,1,4.4,2.7c0.9,1.7,0.7,3.6-0.4,5.1l-87.5,123.3
				C486.7,1146.9,481.4,1152.2,473.4,1152.2z M412.3,1022.9l-72.1,99.4c-2.7,4.1-3,9.2-0.7,13.6c2.2,4,6,6.4,10.5,6.4h123.3
				c3.7,0,6.4-2.5,10.4-6.5l81.4-114.8c-23.8,0.1-48.3,0.5-72.8,1C465.4,1022.4,438.4,1022.8,412.3,1022.9z"/>
		</g>
		<g>
			<path class="st0" d="M960.7,383.4c25.9,21.9-47.7,449.5-77.6,584.8c-4,21.9-23.9,39.8-47.7,39.8c0,0-636.5,19.9-759.8-2
				C-3.9,992,63.7,301.9,119.4,311.8C377.9,357.6,871.2,305.9,960.7,383.4z"/>
			<path class="st1" d="M350,1021.3c-122,0-230.8-2.5-275.2-10.4c-10-1.7-17.8-10.8-24-27.8c-43.9-120.5,5.7-610.7,54.9-669.3
				c4.6-5.4,9.5-7.7,14.5-6.9c110.2,19.5,262.6,21.2,410,22.9c196,2.2,381.1,4.3,433.7,49.9c30.3,26.1-52.8,484.4-76,589.6
				c-4.5,24.8-27.1,43.7-52.6,43.7C818.9,1013.5,564.2,1021.3,350,1021.3z M118.2,316.7c-1.3,0-3,1.2-4.9,3.5
				c-46,54.7-95.4,543.6-53.2,659.5c4.7,13,10.4,20.4,16.4,21.4c121.4,21.5,752.4,2.1,758.8,1.9c20.9,0,39.3-15.3,43-35.7
				c37.4-169.6,100.1-560.7,79.2-580.1l3.2-3.8l-3.3,3.8c-49.8-43.2-233.2-45.2-427.3-47.4c-147.8-1.7-300.6-3.4-411.6-23
				C118.4,316.7,118.3,316.7,118.2,316.7z"/>
		</g>
		<g>
			<path class="st2" d="M41.8,894.6c4,65.6,13.9,109.4,33.8,113.4c123.3,21.9,759.8,2,759.8,2c23.9-2,41.8-17.9,47.7-39.8
				c4-19.9,9.9-45.7,15.9-75.6C899,894.6,41.8,894.6,41.8,894.6z"/>
			<path class="st1" d="M349.9,1023.3c-122,0-230.8-2.5-275.2-10.4c-21.3-4.3-33.3-41.7-37.9-118c-0.1-1.4,0.4-2.7,1.3-3.7
				c0.9-1,2.3-1.6,3.6-1.6H899c1.5,0,2.9,0.7,3.8,1.8c0.9,1.1,1.3,2.7,1,4.1c-3.3,16.4-6.6,31.6-9.5,45.3
				c-2.4,11.2-4.6,21.3-6.4,30.3c-6.8,25-26.8,41.6-52.2,43.8C819.1,1015.4,564.2,1023.3,349.9,1023.3z M47.1,899.6
				c5.5,81.6,19,101.4,29.5,103.5c121.3,21.5,752.3,2.1,758.7,1.9c20.9-1.7,37.5-15.6,43.1-36.1c1.7-8.7,3.9-18.9,6.3-30.1
				c2.6-12,5.4-25.1,8.3-39.2H47.1z"/>
		</g>
		<g>
			<path class="st0" d="M167.1,928.4c9.9,4,17.9,15.9,15.9,25.9c0,8-6,15.9-11.9,21.9c-8,6-17.9,9.9-27.8,8s-17.9-8-21.9-17.9
				C117.4,942.3,147.2,920.4,167.1,928.4z"/>
		</g>
		<g>
			<path class="st1" d="M612.6,475.9c-2.7,0-5-2.2-5-5V456h-14.9c-2.7,0-5-2.2-5-5s2.2-5,5-5h19.9c2.7,0,5,2.2,5,5v19.9
				C617.6,473.7,615.4,475.9,612.6,475.9z"/>
		</g>
		<g>
			<path class="st1" d="M612.6,762.6c-2.7,0-5-2.2-5-5v-35.9c0-2.7,2.2-5,5-5c2.7,0,5,2.2,5,5v35.9
				C617.6,760.4,615.4,762.6,612.6,762.6z M612.6,690.9c-2.7,0-5-2.2-5-5v-35.8c0-2.7,2.2-5,5-5c2.7,0,5,2.2,5,5v35.8
				C617.6,688.7,615.4,690.9,612.6,690.9z M612.6,619.2c-2.7,0-5-2.2-5-5v-35.8c0-2.7,2.2-5,5-5c2.7,0,5,2.2,5,5v35.8
				C617.6,617,615.4,619.2,612.6,619.2z M612.6,547.5c-2.7,0-5-2.2-5-5v-35.8c0-2.7,2.2-5,5-5c2.7,0,5,2.2,5,5v35.8
				C617.6,545.3,615.4,547.5,612.6,547.5z"/>
		</g>
		<g>
			<path class="st1" d="M612.6,818h-19.9c-2.7,0-5-2.2-5-5s2.2-5,5-5h14.9v-14.9c0-2.7,2.2-5,5-5c2.7,0,5,2.2,5,5V813
				C617.6,815.8,615.4,818,612.6,818z"/>
		</g>
		<g>
			<path class="st1" d="M556.9,818h-35.8c-2.7,0-5-2.2-5-5s2.2-5,5-5h35.8c2.7,0,5,2.2,5,5S559.7,818,556.9,818z M485.3,818h-35.8
				c-2.7,0-5-2.2-5-5s2.2-5,5-5h35.8c2.7,0,5,2.2,5,5S488,818,485.3,818z M413.6,818h-35.8c-2.7,0-5-2.2-5-5s2.2-5,5-5h35.8
				c2.7,0,5,2.2,5,5S416.3,818,413.6,818z M341.9,818h-35.8c-2.7,0-5-2.2-5-5s2.2-5,5-5h35.8c2.7,0,5,2.2,5,5S344.6,818,341.9,818z"
				/>
		</g>
		<g>
			<path class="st1" d="M270.5,818h-19.9c-2.7,0-5-2.2-5-5v-19.9c0-2.7,2.2-5,5-5s5,2.2,5,5v14.9h14.9c2.7,0,5,2.2,5,5
				S273.3,818,270.5,818z"/>
		</g>
		<g>
			<path class="st1" d="M250.6,762.3c-2.7,0-5-2.2-5-5v-35.8c0-2.7,2.2-5,5-5s5,2.2,5,5v35.8C255.6,760.1,253.4,762.3,250.6,762.3z
				 M250.6,690.7c-2.7,0-5-2.2-5-5v-35.8c0-2.7,2.2-5,5-5s5,2.2,5,5v35.8C255.6,688.4,253.4,690.7,250.6,690.7z M250.6,619
				c-2.7,0-5-2.2-5-5v-35.8c0-2.7,2.2-5,5-5s5,2.2,5,5V614C255.6,616.7,253.4,619,250.6,619z M250.6,547.3c-2.7,0-5-2.2-5-5v-35.8
				c0-2.7,2.2-5,5-5s5,2.2,5,5v35.8C255.6,545.1,253.4,547.3,250.6,547.3z"/>
		</g>
		<g>
			<path class="st1" d="M250.6,475.9c-2.7,0-5-2.2-5-5V451c0-2.7,2.2-5,5-5h19.9c2.7,0,5,2.2,5,5s-2.2,5-5,5h-14.9v14.9
				C255.6,473.7,253.4,475.9,250.6,475.9z"/>
		</g>
		<g>
			<path class="st1" d="M557.2,456h-35.8c-2.7,0-5-2.2-5-5s2.2-5,5-5h35.8c2.7,0,5,2.2,5,5S560,456,557.2,456z M485.5,456h-35.8
				c-2.7,0-5-2.2-5-5s2.2-5,5-5h35.8c2.7,0,5,2.2,5,5S488.3,456,485.5,456z M413.9,456H378c-2.7,0-5-2.2-5-5s2.2-5,5-5h35.8
				c2.7,0,5,2.2,5,5S416.6,456,413.9,456z M342.2,456h-35.8c-2.7,0-5-2.2-5-5s2.2-5,5-5h35.8c2.7,0,5,2.2,5,5S344.9,456,342.2,456z"
				/>
		</g>
		<g>
			<path class="st3" d="M580.8,669.8c-2,29.8-4,97.5-6,101.4c-11.9,11.9-254.6,17.9-280.4,2c-6-4-8-129.3-8-189
				c0-33.8,2-81.5,6-85.5c13.9-23.9,276.5-15.9,284.4-6C580.8,498.8,582.8,610.2,580.8,669.8z"/>
		</g>
		<g>
			<path class="st1" d="M636.5,451c0,13.9-11.9,23.9-23.9,23.9c-13.9,0-23.9-9.9-23.9-23.9c0-13.9,11.9-23.9,23.9-23.9
				C626.6,427.2,636.5,437.1,636.5,451z M274.5,451c0,13.9-11.9,23.9-23.9,23.9c-13.9,0-23.9-9.9-23.9-23.9
				c0-13.9,11.9-23.9,23.9-23.9C264.6,427.2,274.5,437.1,274.5,451z M274.5,807.1c0,13.9-11.9,23.9-23.9,23.9
				c-13.9,0-23.9-9.9-23.9-23.9c0-13.9,11.9-23.9,23.9-23.9C264.6,783.2,274.5,793.2,274.5,807.1z"/>
		</g>
		<g>
			<path class="st0" d="M1513.6,1163.1l316.2,33.8c67.6,0,107.4-75.6,71.6-131.3c0,0-218.8-366-318.2-439.6
				c-31.8-23.9-91.5-39.8-151.2-51.7c-89.5-17.9-189,6-264.5,55.7c-67.6,33.8-109.4,165.1-155.1,362c0,0-159.1-71.6-183-103.4
				L783.7,813c-8-13.9-19.9-23.9-33.8-29.8l-71.6-31.8c0,0-13.9,21.9,25.9,35.8c39.8,15.9,51.7,39.8,51.7,39.8s-51.7-8-73.6-4
				c-23.9,2-59.7,11.9-53.7,25.9c4,11.9,53.7-9.9,67.6-6c13.9,6,47.7,11.9,47.7,11.9l-53.7,4c0,0-55.7,4-47.7,17.9
				c4,8,41.8-6,67.6,2c25.9,8,39.8,13.9,39.8,13.9l-47.7,2c0,0-39.8,9.9-37.8,17.9c2,9.9,31.8,2,41.8,2s35.8,8,35.8,8
				s-13.9,51.7,99.4,91.5c0,0,147.2,101.4,200.9,129.3c63.6,33.8,117.3-2,143.2-67.6l29.8-103.4 M1676.7,1047.7l-153.2,37.8"/>
			<path class="st1" d="M1829.9,1201.9l-316.8-33.8c-2.7-0.3-4.7-2.8-4.4-5.5c0.3-2.7,2.7-4.8,5.5-4.4l316.3,33.8
				c29,0,55.2-15.6,69.4-41.7c14.4-26.4,13.5-57-2.5-81.9c-2.3-3.8-219.5-366.1-317-438.3c-34.2-25.7-101.5-41.3-149.2-50.8
				c-85.2-17-182.6,3.5-260.8,55c-65.7,32.9-107.2,161.7-153.1,359c-0.3,1.5-1.3,2.7-2.6,3.3c-1.3,0.7-2.9,0.7-4.3,0.1
				c-6.5-2.9-160.6-72.5-184.9-105l-46-76c-7.1-12.5-18-22.1-31.5-27.9l-66.8-29.7c-0.3,1.8-0.3,4.2,0.6,6.8
				c2.5,6.9,10.8,13,24.1,17.6c41.3,16.5,54,41.2,54.5,42.3c0.8,1.7,0.7,3.6-0.4,5.1c-1.1,1.5-2.9,2.3-4.8,2
				c-0.5-0.1-51.2-7.8-71.9-4c-23,1.9-45.6,9.4-49.8,16.4c-0.7,1.1-0.6,1.8-0.2,2.6c3.1,2.3,20.9-2,30.5-4.4
				c14.3-3.5,26.7-6.5,33.9-4.4c13.8,5.9,46.9,11.8,47.2,11.8c2.5,0.4,4.2,2.6,4.1,5.1c-0.1,2.5-2.1,4.5-4.6,4.7l-53.7,4
				c-21.3,1.5-42.2,6.5-43.9,10.5c1.8,0.6,11.3-0.4,18.3-1.2c14.2-1.6,31.8-3.7,46.6,0.9c25.8,8,39.7,13.9,40.3,14.1
				c2.1,0.9,3.4,3.2,2.9,5.5c-0.4,2.3-2.4,4-4.7,4.1l-47.7,2c-13.8,3.6-28.2,9-32.3,12.3c4.2,1.7,18.3-0.3,23.9-1
				c4.9-0.7,9.1-1.3,12.1-1.3c10.4,0,34.5,7.3,37.3,8.2c2.6,0.8,4,3.5,3.3,6.1c-0.1,0.4-10.5,48,96.3,85.5c0.4,0.2,0.8,0.3,1.2,0.6
				c1.5,1,147.6,101.6,200.3,129c25.2,13.4,49.4,16,71.7,7.7c27.1-10,50-35.8,64.6-72.7l29.7-103c0.7-2.6,3.4-4.2,6.2-3.4
				c2.6,0.8,4.2,3.5,3.4,6.2l-29.8,103.4c-15.7,40-40.7,67.9-70.5,78.9c-24.8,9.2-52.4,6.3-79.8-8.2
				c-52.2-27.1-189.5-121.4-200.8-129.2C742,984.1,735.6,940.5,736.4,926c-8.8-2.5-23.9-6.5-30.3-6.5c-2.5,0-6.4,0.6-10.8,1.2
				c-15.7,2.2-33.5,4.7-35.9-7.2c-0.7-2.9-3.1-12.5,41.5-23.7l24.1-1c-4.8-1.6-10.2-3.4-16.4-5.3c-12.8-4-29.3-2.1-42.5-0.5
				c-14.8,1.7-24.6,2.8-28.1-4c-1.7-2.9-1.8-6.3-0.2-9.4c6.2-11.6,41.4-15,52-15.7l19.5-1.5c-5.8-1.6-11.2-3.2-15.2-4.9
				c-4.1-1.1-17.5,2.1-28.3,4.7c-20.6,5-38.4,9.4-42.1-1.8c-1.5-3.5-1.2-7.6,1-11.3c7.6-12.6,38.2-19.5,57-21.1
				c15.8-2.9,46.4,0.3,63.1,2.4c-6.9-7.9-20.1-19.6-42.7-28.6c-16.4-5.7-26.6-13.8-30.1-23.8c-3.6-10.5,1.6-18.9,1.9-19.3
				c1.3-2.1,4-2.9,6.2-1.9l71.6,31.8c15.5,6.6,28,17.7,36.1,31.9l45.7,75.5c20.1,26.8,147.1,86.1,175.3,99
				c46-196.7,88.4-325.4,156.4-359.4c79.8-52.5,180.1-73.6,267.7-56.1c77.2,15.4,125.9,32.1,153.2,52.6
				c99.1,73.3,310.6,426,319.5,441c17.9,27.9,19,62.3,2.8,91.9C1892.6,1184.4,1863.1,1201.9,1829.9,1201.9z M1523.6,1090.5
				c-2.2,0-4.3-1.5-4.8-3.8c-0.6-2.7,1-5.4,3.7-6l153.2-37.8c2.6-0.7,5.4,1,6,3.7c0.6,2.7-1,5.4-3.7,6l-153.2,37.8
				C1524.4,1090.5,1524,1090.5,1523.6,1090.5z"/>
		</g>
		<g>
			<path class="st1" d="M1422.2,1168.1c-1.5,0-3-0.7-4-2l-110.3-147.7c-64.5-15-105-42.4-120.3-81.3
				c-20.4-51.9,10.7-106.5,18.2-118.5l-18.8-43.3c-1.1-2.5,0.1-5.4,2.6-6.5c2.5-1.1,5.4,0.1,6.5,2.6l19.9,45.7
				c0.7,1.6,0.5,3.4-0.4,4.8c-0.4,0.6-39.4,59-18.6,111.6c14.2,36.1,52.9,61.5,115.1,75.7c1.1,0.3,2.2,0.9,2.9,1.9l111.4,149.2
				c1.7,2.2,1.2,5.3-1,7C1424.2,1167.7,1423.2,1168.1,1422.2,1168.1z"/>
		</g>
		<g>
			<path class="st0" d="M1161.6,544.5c-294.4-45.7-29.8-334.1-29.8-334.1s179,0,254.6,89.5c75.6,89.5-137.2,57.7-79.6,286.4
				c-35.8,2-59.7,43.8-77.6,97.5C1229.2,683.8,1243.1,558.5,1161.6,544.5z"/>
			<path class="st1" d="M1229.2,688.7c-0.3,0-0.7,0-1.1-0.1c-2.5-0.5-4.2-2.9-3.9-5.4c0.1-1.2,12.4-120.8-63.5-133.8
				c-75.3-11.7-121.4-40.4-137.2-85.3c-35.9-102.4,98.7-250.9,104.5-257.1c1-1,2.3-1.6,3.7-1.6c7.4,0,182.2,1,258.4,91.3
				c13.1,15.5,18.6,28.3,17.5,40.4c-1.7,17.3-17.2,29.9-35.2,44.4c-39.3,31.7-93.2,75.2-60.8,203.6c0.4,1.4,0.1,3-0.8,4.2
				c-0.9,1.2-2.2,1.9-3.7,2c-28.6,1.6-52.6,32.4-73.1,94.1C1233.2,687.4,1231.3,688.7,1229.2,688.7z M1133.9,215.4
				c-14.7,16.6-133,154.1-100.9,245.5c14.4,41.2,58,67.7,129.3,78.8c0,0,0.1,0,0.1,0c59.2,10.1,70.9,75.5,72.4,114.8
				c18.6-44.8,39.9-68.1,65.8-72.5c-31-130.4,27-177.2,65.6-208.3c16.9-13.6,30.2-24.4,31.5-37.6c0.9-9.1-4.1-19.9-15.2-33
				C1313.8,221.7,1154.5,215.8,1133.9,215.4z"/>
		</g>
		<g>
			<path class="st1" d="M1131.8,210.4c0,0-69.6,93.5,183,194.9c0,0-43.8,45.7-33.8,123.3c9.9,77.6,37.8,236.7,228.7,282.4
				c194.9,47.7,278.5-306.3-83.5-336.1c0,0,49.7-234.7-137.2-278.5C1022.4,132.8,1131.8,210.4,1131.8,210.4z"/>
		</g>
		<g>
			<path class="st1" d="M1113.9,456H1084c-2.7,0-5-2.2-5-5s2.2-5,5-5h29.8c2.7,0,5,2.2,5,5S1116.6,456,1113.9,456z M1082,405.1
				c-5,0-6-0.9-7-1.7c-1.1-0.9-1.9-2.6-1.9-4.1c2.2-13.5,24.3-45.1,26.8-48.6c1.6-2.3,4.7-2.8,6.9-1.2c2.2,1.6,2.8,4.7,1.2,6.9
				c-7.5,10.6-19,28.4-23.3,38.6c4.4-0.3,11.5-1.2,20.4-2.6c2.7-0.5,5.3,1.4,5.7,4.1c0.4,2.7-1.4,5.3-4.1,5.7
				C1093.8,404.4,1086.4,405.1,1082,405.1z"/>
		</g>
		<g>
			<path class="st0" d="M1533.5,858.8l157.1,206.9 M1271,399.3c8-11.9,21.9-21.9,35.8-23.9c8,0,13.9,0,19.9,2
				c11.9,6,19.9,21.9,17.9,33.8c-2,11.9-11.9,25.9-21.9,33.8c-11.9,8-25.9,9.9-39.8,11.9"/>
			<path class="st1" d="M1690.7,1070.6c-1.5,0-3-0.7-4-2l-157.1-206.9c-1.7-2.2-1.2-5.3,1-7c2.2-1.7,5.3-1.2,7,1l157.1,206.9
				c1.7,2.2,1.2,5.3-1,7C1692.8,1070.3,1691.7,1070.6,1690.7,1070.6z M1282.9,462c-2.4,0-4.6-1.8-4.9-4.3c-0.4-2.7,1.5-5.2,4.2-5.6
				c13.7-2,26.7-3.8,37.7-11.1c8.2-6.6,17.9-19.4,19.7-30.5c1.7-10.1-5.6-23.7-15.2-28.6c-4.5-1.5-10-1.5-17.7-1.5
				c-11.1,1.6-24.1,10.4-31.7,21.6c-1.5,2.3-4.6,2.9-6.9,1.4c-2.3-1.5-2.9-4.6-1.4-6.9c9.1-13.7,24.6-23.9,39.3-26
				c8.9,0,15.4,0,22.1,2.2c14.2,7.1,23.7,25,21.2,39.4c-2.4,14.2-13.9,29.1-23.7,36.9c-13.3,8.8-28,10.9-42.2,13
				C1283.4,462,1283.2,462,1282.9,462z"/>
		</g>
		<g>
			<path class="st1" d="M1298.8,426.2c-1.1,0-2.2-0.4-3.1-1.1c-2.1-1.7-2.5-4.8-0.8-7l8-9.9c1.7-2.1,4.9-2.5,7-0.8
				c2.1,1.7,2.5,4.8,0.8,7l-8,9.9C1301.7,425.5,1300.3,426.2,1298.8,426.2z"/>
		</g>
		<g>
			<path class="st1" d="M1145.7,359.6c-2,6-8,9.9-13.9,9.9s-9.9-4-8-9.9c2-6,8-9.9,11.9-9.9C1143.7,347.6,1147.7,353.6,1145.7,359.6
				z M1076.1,349.6c-2,6-8,9.9-13.9,9.9s-9.9-4-8-9.9c2-6,8-9.9,11.9-9.9C1074.1,339.7,1078.1,343.6,1076.1,349.6z"/>
		</g>
		<g>
			<path class="st0" d="M1129.8,327.7c0,0,21.9-13.9,39.8,15.9 M1060.2,311.8c0,0,21.9-13.9,39.8,15.9 M1521.6,1087.5
				c-19.9,6-43.8,0-59.7-11.9l-69.6-53.7c-11.9-9.9-25.9-13.9-41.8-15.9l-77.6-4c0,0-4,25.9,37.8,23.9c41.8,0,61.7,17.9,61.7,17.9
				s-51.7,13.9-73.6,23.9c-21.9,9.9-49.7,33.8-39.8,43.8c9.9,9.9,45.7-29.8,61.7-29.8c15.9,0,47.7-8,47.7-8l-47.7,23.9
				c0,0-49.7,23.9-35.8,33.8c8,6,37.8-21.9,63.6-23.9c25.9-4,41.8-2,41.8-2l-41.8,19.9c0,0-31.8,23.9-27.8,29.8
				c6,8,29.8-9.9,39.8-13.9c8-4,35.8-6,35.8-6s0,33.8,121.3,25.9 M1575.3,1073.6c29.8,31.8,33.8,65.6,11.9,97.5 M917,946.3
				c2,33.8-15.9,61.7-45.7,85.5 M877.2,781.2c21.9,2,8,83.5-11.9,83.5c-51.7-4-192.9-27.8-252.6-37.8c-8-2-13.9-4-21.9-6l0,0
				c-2,0-4-2-8-2c-2,0-4-2-6-2s-4-2-6-2c0,0-2,0-2-2c-2,0-4-2-6-4l-11.9-6c-23.9-13.9-51.7-29.8-51.7-35.8s31.8-13.9,57.7-19.9
				c4,0,6-2,9.9-2c2,0,6-2,8-2l0,0c2,0,6,0,8-2l0,0h8c11.9,0,23.9,0,33.8,2C686.2,755.4,813.5,777.2,877.2,781.2L877.2,781.2z"/>
			<path class="st1" d="M1587.2,1176c-1,0-2-0.3-2.8-0.9c-2.3-1.6-2.8-4.6-1.3-6.9c20.5-29.8,16.5-61.4-11.5-91.3
				c-1.9-2-1.8-5.1,0.2-7c2-1.9,5.1-1.8,7,0.2c31.1,33.2,35.5,70,12.4,103.7C1590.4,1175.3,1588.8,1176,1587.2,1176z M1483.4,1167.3
				c-52.6,0-75.2-9.8-85-18.9c-3.1-2.9-4.8-5.6-5.8-7.8c-10.6,0.9-25.4,2.9-29.9,5.1c-3,1.2-6.6,3.3-10.5,5.5
				c-13.3,7.6-28.5,16.2-35.4,6.9c-2-3-6.7-10.1,28.8-36.8l23.2-11.1c-5.6,0.3-12.1,1-19.5,2.1c-12.8,1-27,8.9-38.4,15.2
				c-13.1,7.3-22.6,12.6-29,7.8c-3.1-2.2-4.7-5.5-4.4-9.1c1.1-13.1,31.7-28.7,41-33.2l14.9-7.5c-4.7,0.6-9.1,1-12.8,1
				c-5.6,0-17.2,8.4-26.5,15.1c-16.2,11.7-30.2,21.8-38.7,13.3c-3-3-4.1-6.8-3.3-11.2c2.6-14.5,27.5-32.9,44.5-40.6
				c16.1-7.3,47.3-16.5,63.7-21.2c-9.1-4.8-25.6-11.1-49.7-11.1c-17,0.8-29.5-2.8-36.6-10.8c-7.6-8.4-6.1-18.4-6.1-18.8
				c0.4-2.5,2.6-4.2,5.2-4.2l77.6,4c13.4,1.7,30.3,5.1,44.7,17.1l69.5,53.6c15.8,11.8,38,16.3,55.2,11.1c2.8-0.8,5.4,0.7,6.2,3.3
				c0.8,2.6-0.7,5.4-3.3,6.2c-20.2,6.1-45.9,0.9-64.1-12.7l-69.7-53.7c-10-8.3-21.7-12.7-39.4-14.9l-71.7-3.7
				c0.5,1.9,1.4,4.2,3.4,6.3c5,5.5,14.9,8.2,28.9,7.4h0c43.4,0,64.3,18.4,65.2,19.2c1.4,1.2,1.9,3.1,1.5,4.9
				c-0.4,1.8-1.8,3.2-3.5,3.6c-0.5,0.1-51.6,13.9-72.8,23.6c-18,8.2-37.3,24.7-38.9,33.3c-0.3,1.5,0.2,2,0.5,2.4
				c2.6,2.6,19.4-9.7,25.8-14.3c12.1-8.7,23.5-17,32.3-17c15.1,0,46.2-7.7,46.5-7.8c2.6-0.7,5,0.7,5.9,3.1c0.9,2.4-0.2,5.1-2.4,6.2
				l-47.7,23.9c-18.6,8.9-35.5,20.9-35.5,25.1c2.8,0.6,11.9-4.5,18.7-8.2c12.3-6.8,27.5-15.2,42.1-16.4c25.8-4,42.1-2,42.8-2
				c2.2,0.3,3.9,2,4.3,4.1c0.3,2.2-0.8,4.3-2.8,5.3l-41.8,19.9c-11,8.3-21.5,18.1-24.6,22.7c4.5-0.5,15.9-7,21.1-9.9
				c4.5-2.5,8.3-4.7,11.4-6c8.2-4.1,34.4-6.1,37.3-6.3c1.4-0.3,2.7,0.4,3.7,1.3c1,0.9,1.6,2.3,1.6,3.6c0,0.1,4.1,28.1,116,20.9
				c0.1,0,0.2,0,0.3,0c2.6,0,4.8,2,5,4.6c0.2,2.7-1.9,5.1-4.6,5.3C1505.2,1166.9,1493.7,1167.3,1483.4,1167.3z M871.2,1036.8
				c-1.5,0-2.9-0.6-3.9-1.9c-1.7-2.1-1.4-5.3,0.8-7c31.3-25,45.6-51.6,43.9-81.3c-0.2-2.7,1.9-5.1,4.7-5.3c2.7,0.1,5.1,1.9,5.3,4.7
				c2,33.2-13.6,62.5-47.6,89.7C873.4,1036.5,872.3,1036.8,871.2,1036.8z M865.2,869.7c-49.4-3.8-179.9-25.6-242.6-36.1l-10.8-1.8
				c-4.4-1.1-8-2.1-11.5-3.1c-3.4-1-6.9-2-10.8-3c-0.6,0.2-2.1-0.4-3.3-1c-3.1-1.3-6.6-1.4-8.7-2.4c-2.9-0.5-4.7-1.4-6-2
				c-2.6-0.3-5-1.4-6.4-3.3c-2-0.9-3.7-2.5-5.3-4l-15.3-8c-39.1-22.8-50.4-30.5-50.4-37.9c0-7.3,8.9-12.6,61.5-24.7
				c2.3-0.1,3.2-0.4,4.5-0.9c1.7-0.6,3.7-1.3,6.6-1.3c0.3,0,1.6-0.5,2.4-0.7c1.8-0.6,3.8-1.2,5.6-1.2c3,0,4.1-0.3,4.5-0.6
				c0.9-0.9,2.2-1.4,3.5-1.4h8c12,0,24.4,0,34.8,2.1c67.4,13,190.2,33.9,251.9,37.7c0,0,0.1,0,0.1,0c10.8,1,16.5,13.8,15.5,35
				C892.1,834.8,882.5,869.7,865.2,869.7z M573.2,810.4c1.1,0.3,2.1,0.8,2.9,1.2c2.9,0.5,4.7,1.3,6,2c4.1,0.5,6.4,1.4,8,2.1
				c0.4,0,1.5,0.4,1.9,0.5c4,1,7.6,2,11.1,3c3.4,1,6.9,2,10.8,3l10.4,1.7c62.6,10.4,192.8,32.2,241.4,35.9c6.3,0,16.5-24.2,17.6-49
				c0.7-15.7-2.7-24.2-6.4-24.7c-62.2-3.9-185.5-24.8-253.1-37.9c-9.5-1.9-21.4-1.9-32.9-1.9h-6.3c-3.3,2-7.4,2-9.6,2
				c-0.3,0-1.6,0.5-2.4,0.7c-3.2,1-5.7,0.9-8.9,2c-1.7,0.6-3.7,1.3-6.5,1.3c-35.8,8.4-48.4,13.1-52.2,15.6
				c4.5,5,29.6,19.7,44.9,28.6l3.8,2.2l11.7,5.8c0.5,0.2,0.9,0.5,1.3,0.9c0.9,0.9,2.4,2.4,3,2.6C571.2,808.2,572.5,809,573.2,810.4z
				 M1169.6,348.6c-1.7,0-3.3-0.9-4.3-2.4c-5.5-9.1-11.8-14.6-18.7-16.2c-7.9-1.8-14.1,1.9-14.2,2c-2.3,1.4-5.4,0.8-6.9-1.5
				c-1.5-2.3-0.8-5.4,1.5-6.9c0.4-0.3,9.8-6.1,21.8-3.2c9.6,2.3,18,9.3,24.9,20.8c1.4,2.4,0.7,5.4-1.7,6.8
				C1171.3,348.4,1170.4,348.6,1169.6,348.6z M1099.9,332.7c-1.7,0-3.3-0.9-4.3-2.4c-5.5-9.1-11.7-14.5-18.5-16.2
				c-7.9-1.9-14.1,1.8-14.3,1.9c-2.3,1.4-5.4,0.7-6.8-1.6c-1.5-2.3-0.8-5.4,1.5-6.8c0.4-0.3,9.8-6.1,21.8-3.2
				c9.6,2.3,18,9.3,24.9,20.8c1.4,2.4,0.7,5.4-1.7,6.8C1101.7,332.5,1100.8,332.7,1099.9,332.7z"/>
		</g>
		<g>
			<path class="st1" d="M864.1,867.8c-0.4,0-0.8,0-1.3-0.1c-7.8,0-17.9,0-28.4-2.1c-1.5-0.3-2.8-1.3-3.5-2.8
				c-0.7-1.4-0.6-3.1,0.1-4.5c13.3-24.7,17.1-51.7,11.4-80.2c-0.3-1.5,0.1-3,1-4.1c0.9-1.2,2.4-1.8,3.8-1.8c5.5,0,10.8,0.6,16,1.1
				c4.2,0.4,8.3,0.9,11.9,0.9c12.6,1.1,18.4,17,16.1,42.5C889,841.7,879.6,867.8,864.1,867.8z M842.9,856.9
				c7.4,0.9,14.3,0.7,20.7,0.9c6.8,0,15.6-18,17.8-41.9c1.7-19.3-2-31.3-6.7-31.7c-3.8,0.1-7.8-0.4-12.5-0.9c-2.9-0.3-5.9-0.6-9-0.8
				C857.4,808.7,853.9,833.7,842.9,856.9z M590.8,826c-1.8,0-3.3-0.6-4.5-1.1c-3.1-1.3-6.6-1.4-8.7-2.4c-2.9-0.5-4.7-1.4-6-2
				c-2.6-0.3-5-1.4-6.4-3.3c-2-0.9-3.7-2.5-5.3-4l-15.3-8c-39.1-22.8-50.4-30.5-50.4-37.9c0-7.3,8.9-12.6,61.5-24.7
				c2.3-0.1,3.2-0.4,4.5-0.9c1.7-0.6,3.7-1.3,6.6-1.3c0.3,0,1.6-0.5,2.4-0.7c1.8-0.6,3.8-1.2,5.6-1.2c3,0,4.1-0.3,4.5-0.6
				c0.9-0.9,2.2-1.4,3.5-1.4h19.9c1.8,0,3.5,1,4.4,2.6c17.7,33.2,13.5,61.2-13,85.5C593.2,825.5,592,826,590.8,826z M573.2,810.4
				c1.1,0.3,2.1,0.8,2.9,1.2c2.9,0.5,4.7,1.3,6,2c3.6,0.4,5.8,1.2,7.4,1.8c20.7-20.2,23.9-41.7,10.2-69h-15.2c-3.3,2-7.4,2-9.6,2
				c-0.3,0-1.6,0.5-2.4,0.7c-3.2,1-5.7,0.9-8.9,2c-1.7,0.6-3.7,1.3-6.5,1.3c-35.8,8.4-48.4,13.1-52.2,15.6
				c4.5,5,29.6,19.7,44.9,28.6l3.8,2.2l11.7,5.8c0.5,0.2,0.9,0.5,1.3,0.9c0.9,0.9,2.4,2.4,3,2.6C571.2,808.2,572.5,809,573.2,810.4z
				"/>
		</g>
		<g>
			<path class="st1" d="M558.9,747.4c4,8,6,19.9,4,29.8s-6,17.9-11.9,25.9c-23.9-13.9-51.7-29.8-51.7-35.8
				C501.3,761.3,531.1,753.4,558.9,747.4z"/>
		</g>
		<g>
			<path class="st1" d="M849.3,826c-0.2,0-0.5,0-0.7-0.1c-185.3-26.5-185.3-26.9-185.3-32.7c0-3.6,4.3-6,7.3-4.4
				c9.3,2.6,111.8,17.7,179.4,27.3c2.7,0.4,4.6,2.9,4.2,5.6C853.9,824.2,851.8,826,849.3,826z M673.3,793.2h0.1H673.3z"/>
		</g>
		<g>
			<path class="st0" d="M887.1,930.4c0,0-33.8-19.9-29.8-65.6c2-29.8-55.7-107.4-83.5-77.6c-11.9,11.9,31.8,23.9,27.8,69.6
				c-6,67.6,37.8,75.6,37.8,75.6"/>
			<path class="st1" d="M839.4,937.4c-0.3,0-0.6,0-0.9-0.1c-0.5-0.1-48.1-9.6-41.8-80.9c2.1-24.7-10.7-38.5-20.1-48.6
				c-6.9-7.4-14.6-15.8-6.3-24.1c8.2-8.8,19.4-10.6,32.2-5c30.1,13.1,61.3,62.7,59.8,86.4c-3.6,42,26.1,60.3,27.4,61
				c2.4,1.4,3.1,4.4,1.7,6.8c-1.4,2.4-4.4,3.1-6.8,1.8c-1.5-0.9-36.5-22-32.3-70.4c1.3-19.6-28.5-65.6-53.8-76.5
				c-8.9-3.9-15.8-2.9-21.1,2.8c-1.3,1.3-0.6,2.8,6.4,10.4c10.1,10.8,25.3,27.2,22.7,56.3c-5.5,62.4,33.3,70.2,33.7,70.3
				c2.7,0.5,4.5,3.1,4,5.8C843.8,935.7,841.7,937.4,839.4,937.4z"/>
		</g>
		<g>
			<path class="st1" d="M1623,976.1c6,35.8-6,71.6-33.8,93.5l91.5-23.9L1623,976.1z M1185.5,920.4l9.9,115.4l19.9-65.6L1185.5,920.4
				z"/>
		</g>
		<g>
			<path class="st0" d="M407.8,680.8c-40.7,0-72.6-31.9-72.6-72.6c0-40.7,31.9-72.6,72.6-72.6s72.6,31.9,72.6,72.6
				C480.4,648.9,448.5,680.8,407.8,680.8z M407.8,545.5c-35.1,0-62.7,27.5-62.7,62.7c0,35.1,27.5,62.7,62.7,62.7
				c35.1,0,62.7-27.5,62.7-62.7C470.4,573,442.9,545.5,407.8,545.5z"/>
		</g>
		<g>
			<path class="st0" d="M465.5,698.7c-22.5,0-40.8-18.3-40.8-40.8s18.3-40.8,40.8-40.8c8.7-1,18.5,2.5,26.4,9.5
				c9,8.1,14.4,19.7,14.4,31.3C506.2,680.4,487.9,698.7,465.5,698.7z M468.2,626.9c-0.7,0-1.4,0-2.2,0.1
				c-17.6,0-31.4,13.9-31.4,30.9c0,17.3,13.5,30.8,30.8,30.8s30.8-13.5,30.8-30.8c0-8.7-4.1-17.6-11.1-23.9
				C480.1,629.5,474,626.9,468.2,626.9z"/>
		</g>
		<g>
			<path class="st0" d="M479.4,643c-19.5,0-34.8-15.3-34.8-34.8c0-18.5,16.3-34.8,34.8-34.8c7.9-1,16.2,1.6,22.9,7.5
				c7.6,6.7,11.9,16.6,11.9,27.3C514.2,627.7,498.9,643,479.4,643z M482.4,583.1c-0.8,0-1.6,0-2.4,0.1c-13.9,0-25.5,11.7-25.5,24.9
				c0,12.1,8.7,24.9,24.9,24.9c12.1,0,24.9-8.7,24.9-24.9c0-7.8-3.1-15.1-8.5-19.8C491.8,584.9,487.2,583.1,482.4,583.1z"/>
		</g>
		<g>
			<path class="st0" d="M708.1,95c-83.5-4-167.1-8-252.6-8c-67.6,2-137.2-4-204.9-4c-11.9,0-23.9,9.9-23.9,23.9v111.4
				c0,11.9,9.9,21.9,21.9,21.9h612.6c11.9,0,21.9-9.9,21.9-21.9V116.9c0-11.9-9.9-21.9-21.9-21.9C821.5,89.1,753.9,97,708.1,95z"/>
			<path class="st1" d="M861.3,245.2H248.7c-14.8,0-26.9-12-26.9-26.9V107c0-17.3,14.9-28.8,28.8-28.8c29,0,58.9,1.1,87.8,2.2
				c38.5,1.4,78.4,2.9,116.9,1.8c0,0,0,0,0.1,0c86,0,170.8,4,252.9,8l0,0c18.8,0.9,41.9-0.1,64.2-1c32.3-1.3,65.7-2.6,89.4,1
				c0,0,0.1,0,0.1,0c14,0,26,12,26,26.8v101.4C888.1,233.1,876.1,245.2,861.3,245.2z M250.6,88.1c-9.1,0-18.9,7.6-18.9,18.9v111.4
				c0,9.2,7.7,16.9,16.9,16.9h612.6c9.2,0,16.9-7.7,16.9-16.9V116.9c0-9.2-7.7-16.9-16.9-16.9c-23.6-3.5-56.5-2.2-88.3-1
				c-22.6,0.9-45.9,1.8-65,1c0,0,0,0,0,0c-82-3.9-166.7-7.9-252.4-7.9c-38.7,1.1-78.7-0.3-117.4-1.8
				C309.3,89.2,279.5,88.1,250.6,88.1z"/>
		</g>
		<g>
			<path class="st1" d="M375.9,87.1c-41.8-2-83.5-2-125.3-4c-11.9,0-23.9,9.9-23.9,23.9v111.4c0,11.9,9.9,21.9,21.9,21.9H374V87.1
				L375.9,87.1z"/>
		</g>
		<g>
			<path class="st3" d="M509.2,166.6c0,23.9-19.9,43.8-43.8,43.8c-23.9,0-43.8-19.9-43.8-43.8s19.9-43.8,43.8-43.8
				C489.3,122.9,509.2,142.8,509.2,166.6z"/>
		</g>
		<g>
			<path class="st2" d="M618.6,166.6c0,23.9-19.9,43.8-43.8,43.8c-23.9,0-43.8-19.9-43.8-43.8s19.9-43.8,43.8-43.8
				C598.7,122.9,618.6,142.8,618.6,166.6z"/>
		</g>
		<g>
			<path class="st4" d="M728,166.6c0,23.9-19.9,43.8-43.8,43.8s-43.8-19.9-43.8-43.8s19.9-43.8,43.8-43.8S728,142.8,728,166.6z"/>
		</g>
		<g>
			<path class="st5" d="M839.4,166.6c0,23.9-19.9,43.8-43.8,43.8c-23.9,0-43.8-19.9-43.8-43.8s19.9-43.8,43.8-43.8
				C819.5,122.9,839.4,142.8,839.4,166.6z"/>
		</g>
	</g>
</g>
</svg>
